M48
; DRILL file {KiCad (5.1.6-0-10_14)} date Friday, August 26, 2022 at 05:56:14 PM
; FORMAT={-:-/ absolute / metric / decimal}
; #@! TF.CreationDate,2022-08-26T17:56:14+09:00
; #@! TF.GenerationSoftware,Kicad,Pcbnew,(5.1.6-0-10_14)
; #@! TF.FileFunction,Plated,1,2,PTH
FMAT,2
METRIC
T1C0.400
T2C0.813
T3C1.000
T4C2.200
%
G90
G05
T1
X-9.56Y7.73
X8.06Y-30.36
X8.1Y7.73
X9.53Y-28.32
X10.99Y-30.2
X27.06Y-30.2
X27.14Y7.73
X28.1Y-28.1
X33.61Y7.73
X46.11Y7.73
X46.13Y-30.2
X47.18Y-28.1
X50.09Y9.14
X58.27Y27.33
X65.17Y7.73
X65.22Y-30.2
X66.31Y-28.1
X84.28Y-30.2
X84.37Y7.55
X85.52Y-28.1
T2
X58.03Y12.56
X65.65Y12.56
X8.07Y-17.62
X8.07Y-25.24
X46.16Y-55.65
X46.16Y-63.27
X27.15Y-55.72
X27.15Y-63.34
X30.34Y28.53
X30.34Y25.99
X30.34Y23.45
X30.34Y20.91
X30.34Y18.37
X30.34Y15.83
X30.34Y13.29
X45.58Y28.53
X45.58Y25.99
X45.58Y23.45
X45.58Y20.91
X45.58Y18.37
X45.58Y15.83
X45.58Y13.29
X46.14Y-17.66
X46.14Y-25.28
X8.03Y-36.65
X8.03Y-44.27
X46.12Y1.36
X46.12Y-6.26
X84.29Y-55.78
X84.29Y-63.4
X9.98Y12.55
X17.6Y12.55
X27.06Y-36.64
X27.06Y-44.26
X65.21Y-55.68
X65.21Y-63.3
X81.2Y22.26
X81.2Y19.72
X81.2Y17.18
X65.23Y1.48
X65.23Y-6.14
X27.09Y-17.62
X27.09Y-25.24
X65.22Y-17.61
X65.22Y-25.23
X46.15Y-36.7
X46.15Y-44.32
X8.11Y1.45
X8.11Y-6.17
X-5.13Y22.26
X-5.13Y19.72
X-5.13Y17.18
X84.22Y-36.69
X84.22Y-44.31
X84.2Y-17.69
X84.2Y-25.31
X65.17Y-36.71
X65.17Y-44.33
X27.16Y1.41
X27.16Y-6.21
X8.05Y-55.74
X8.05Y-63.36
X84.3Y1.42
X84.3Y-6.2
T3
X54.65Y24.64
X54.65Y22.14
X54.65Y19.64
X69.15Y24.64
X69.15Y19.64
X6.4Y24.64
X6.4Y22.14
X6.4Y19.64
X20.9Y24.64
X20.9Y19.64
T4
X62.15Y27.74
X62.15Y16.54
X13.9Y27.74
X13.9Y16.54
T3
G00X-2.46Y20.6
M15
G01X-2.46Y20.1
M16
G05
G00X1.74Y29.1
M15
G01X1.74Y28.6
M16
G05
G00X1.74Y26.1
M15
G01X1.74Y25.6
M16
G05
G00X1.74Y22.1
M15
G01X1.74Y21.6
M16
G05
G00X74.29Y20.61
M15
G01X74.29Y20.11
M16
G05
G00X78.49Y29.11
M15
G01X78.49Y28.61
M16
G05
G00X78.49Y26.11
M15
G01X78.49Y25.61
M16
G05
G00X78.49Y22.11
M15
G01X78.49Y21.61
M16
G05
T0
M30
