G04 #@! TF.GenerationSoftware,KiCad,Pcbnew,(5.1.6-0-10_14)*
G04 #@! TF.CreationDate,2022-08-26T17:56:11+09:00*
G04 #@! TF.ProjectId,cool640xiao,636f6f6c-3634-4307-9869-616f2e6b6963,rev?*
G04 #@! TF.SameCoordinates,Original*
G04 #@! TF.FileFunction,Legend,Bot*
G04 #@! TF.FilePolarity,Positive*
%FSLAX46Y46*%
G04 Gerber Fmt 4.6, Leading zero omitted, Abs format (unit mm)*
G04 Created by KiCad (PCBNEW (5.1.6-0-10_14)) date 2022-08-26 17:56:11*
%MOMM*%
%LPD*%
G01*
G04 APERTURE LIST*
%ADD10C,0.300000*%
%ADD11C,0.150000*%
G04 APERTURE END LIST*
D10*
X68614285Y-29567142D02*
X68757142Y-29638571D01*
X69042857Y-29638571D01*
X69185714Y-29567142D01*
X69257142Y-29495714D01*
X69328571Y-29352857D01*
X69328571Y-28924285D01*
X69257142Y-28781428D01*
X69185714Y-28710000D01*
X69042857Y-28638571D01*
X68757142Y-28638571D01*
X68614285Y-28710000D01*
X67757142Y-29638571D02*
X67899999Y-29567142D01*
X67971428Y-29495714D01*
X68042857Y-29352857D01*
X68042857Y-28924285D01*
X67971428Y-28781428D01*
X67899999Y-28710000D01*
X67757142Y-28638571D01*
X67542857Y-28638571D01*
X67399999Y-28710000D01*
X67328571Y-28781428D01*
X67257142Y-28924285D01*
X67257142Y-29352857D01*
X67328571Y-29495714D01*
X67399999Y-29567142D01*
X67542857Y-29638571D01*
X67757142Y-29638571D01*
X66399999Y-29638571D02*
X66542857Y-29567142D01*
X66614285Y-29495714D01*
X66685714Y-29352857D01*
X66685714Y-28924285D01*
X66614285Y-28781428D01*
X66542857Y-28710000D01*
X66399999Y-28638571D01*
X66185714Y-28638571D01*
X66042857Y-28710000D01*
X65971428Y-28781428D01*
X65899999Y-28924285D01*
X65899999Y-29352857D01*
X65971428Y-29495714D01*
X66042857Y-29567142D01*
X66185714Y-29638571D01*
X66399999Y-29638571D01*
X65042857Y-29638571D02*
X65185714Y-29567142D01*
X65257142Y-29424285D01*
X65257142Y-28138571D01*
X63828571Y-28138571D02*
X64114285Y-28138571D01*
X64257142Y-28210000D01*
X64328571Y-28281428D01*
X64471428Y-28495714D01*
X64542857Y-28781428D01*
X64542857Y-29352857D01*
X64471428Y-29495714D01*
X64399999Y-29567142D01*
X64257142Y-29638571D01*
X63971428Y-29638571D01*
X63828571Y-29567142D01*
X63757142Y-29495714D01*
X63685714Y-29352857D01*
X63685714Y-28995714D01*
X63757142Y-28852857D01*
X63828571Y-28781428D01*
X63971428Y-28710000D01*
X64257142Y-28710000D01*
X64399999Y-28781428D01*
X64471428Y-28852857D01*
X64542857Y-28995714D01*
X62399999Y-28638571D02*
X62399999Y-29638571D01*
X62757142Y-28067142D02*
X63114285Y-29138571D01*
X62185714Y-29138571D01*
X61328571Y-28138571D02*
X61185714Y-28138571D01*
X61042857Y-28210000D01*
X60971428Y-28281428D01*
X60899999Y-28424285D01*
X60828571Y-28710000D01*
X60828571Y-29067142D01*
X60899999Y-29352857D01*
X60971428Y-29495714D01*
X61042857Y-29567142D01*
X61185714Y-29638571D01*
X61328571Y-29638571D01*
X61471428Y-29567142D01*
X61542857Y-29495714D01*
X61614285Y-29352857D01*
X61685714Y-29067142D01*
X61685714Y-28710000D01*
X61614285Y-28424285D01*
X61542857Y-28281428D01*
X61471428Y-28210000D01*
X61328571Y-28138571D01*
X60328571Y-29638571D02*
X59542857Y-28638571D01*
X60328571Y-28638571D02*
X59542857Y-29638571D01*
X58971428Y-29638571D02*
X58971428Y-28638571D01*
X58971428Y-28138571D02*
X59042857Y-28210000D01*
X58971428Y-28281428D01*
X58899999Y-28210000D01*
X58971428Y-28138571D01*
X58971428Y-28281428D01*
X57614285Y-29638571D02*
X57614285Y-28852857D01*
X57685714Y-28710000D01*
X57828571Y-28638571D01*
X58114285Y-28638571D01*
X58257142Y-28710000D01*
X57614285Y-29567142D02*
X57757142Y-29638571D01*
X58114285Y-29638571D01*
X58257142Y-29567142D01*
X58328571Y-29424285D01*
X58328571Y-29281428D01*
X58257142Y-29138571D01*
X58114285Y-29067142D01*
X57757142Y-29067142D01*
X57614285Y-28995714D01*
X56685714Y-29638571D02*
X56828571Y-29567142D01*
X56899999Y-29495714D01*
X56971428Y-29352857D01*
X56971428Y-28924285D01*
X56899999Y-28781428D01*
X56828571Y-28710000D01*
X56685714Y-28638571D01*
X56471428Y-28638571D01*
X56328571Y-28710000D01*
X56257142Y-28781428D01*
X56185714Y-28924285D01*
X56185714Y-29352857D01*
X56257142Y-29495714D01*
X56328571Y-29567142D01*
X56471428Y-29638571D01*
X56685714Y-29638571D01*
X52614285Y-29638571D02*
X52614285Y-28138571D01*
X52614285Y-29567142D02*
X52757142Y-29638571D01*
X53042857Y-29638571D01*
X53185714Y-29567142D01*
X53257142Y-29495714D01*
X53328571Y-29352857D01*
X53328571Y-28924285D01*
X53257142Y-28781428D01*
X53185714Y-28710000D01*
X53042857Y-28638571D01*
X52757142Y-28638571D01*
X52614285Y-28710000D01*
X51328571Y-29567142D02*
X51471428Y-29638571D01*
X51757142Y-29638571D01*
X51899999Y-29567142D01*
X51971428Y-29424285D01*
X51971428Y-28852857D01*
X51899999Y-28710000D01*
X51757142Y-28638571D01*
X51471428Y-28638571D01*
X51328571Y-28710000D01*
X51257142Y-28852857D01*
X51257142Y-28995714D01*
X51971428Y-29138571D01*
X50685714Y-29567142D02*
X50542857Y-29638571D01*
X50257142Y-29638571D01*
X50114285Y-29567142D01*
X50042857Y-29424285D01*
X50042857Y-29352857D01*
X50114285Y-29210000D01*
X50257142Y-29138571D01*
X50471428Y-29138571D01*
X50614285Y-29067142D01*
X50685714Y-28924285D01*
X50685714Y-28852857D01*
X50614285Y-28710000D01*
X50471428Y-28638571D01*
X50257142Y-28638571D01*
X50114285Y-28710000D01*
X49399999Y-29638571D02*
X49399999Y-28638571D01*
X49399999Y-28138571D02*
X49471428Y-28210000D01*
X49399999Y-28281428D01*
X49328571Y-28210000D01*
X49399999Y-28138571D01*
X49399999Y-28281428D01*
X48042857Y-28638571D02*
X48042857Y-29852857D01*
X48114285Y-29995714D01*
X48185714Y-30067142D01*
X48328571Y-30138571D01*
X48542857Y-30138571D01*
X48685714Y-30067142D01*
X48042857Y-29567142D02*
X48185714Y-29638571D01*
X48471428Y-29638571D01*
X48614285Y-29567142D01*
X48685714Y-29495714D01*
X48757142Y-29352857D01*
X48757142Y-28924285D01*
X48685714Y-28781428D01*
X48614285Y-28710000D01*
X48471428Y-28638571D01*
X48185714Y-28638571D01*
X48042857Y-28710000D01*
X47328571Y-28638571D02*
X47328571Y-29638571D01*
X47328571Y-28781428D02*
X47257142Y-28710000D01*
X47114285Y-28638571D01*
X46899999Y-28638571D01*
X46757142Y-28710000D01*
X46685714Y-28852857D01*
X46685714Y-29638571D01*
X45399999Y-29567142D02*
X45542857Y-29638571D01*
X45828571Y-29638571D01*
X45971428Y-29567142D01*
X46042857Y-29424285D01*
X46042857Y-28852857D01*
X45971428Y-28710000D01*
X45828571Y-28638571D01*
X45542857Y-28638571D01*
X45399999Y-28710000D01*
X45328571Y-28852857D01*
X45328571Y-28995714D01*
X46042857Y-29138571D01*
X44042857Y-29638571D02*
X44042857Y-28138571D01*
X44042857Y-29567142D02*
X44185714Y-29638571D01*
X44471428Y-29638571D01*
X44614285Y-29567142D01*
X44685714Y-29495714D01*
X44757142Y-29352857D01*
X44757142Y-28924285D01*
X44685714Y-28781428D01*
X44614285Y-28710000D01*
X44471428Y-28638571D01*
X44185714Y-28638571D01*
X44042857Y-28710000D01*
X42185714Y-29638571D02*
X42185714Y-28138571D01*
X42185714Y-28710000D02*
X42042857Y-28638571D01*
X41757142Y-28638571D01*
X41614285Y-28710000D01*
X41542857Y-28781428D01*
X41471428Y-28924285D01*
X41471428Y-29352857D01*
X41542857Y-29495714D01*
X41614285Y-29567142D01*
X41757142Y-29638571D01*
X42042857Y-29638571D01*
X42185714Y-29567142D01*
X40971428Y-28638571D02*
X40614285Y-29638571D01*
X40257142Y-28638571D02*
X40614285Y-29638571D01*
X40757142Y-29995714D01*
X40828571Y-30067142D01*
X40971428Y-30138571D01*
X38542857Y-29638571D02*
X38542857Y-28638571D01*
X38542857Y-28781428D02*
X38471428Y-28710000D01*
X38328571Y-28638571D01*
X38114285Y-28638571D01*
X37971428Y-28710000D01*
X37899999Y-28852857D01*
X37899999Y-29638571D01*
X37899999Y-28852857D02*
X37828571Y-28710000D01*
X37685714Y-28638571D01*
X37471428Y-28638571D01*
X37328571Y-28710000D01*
X37257142Y-28852857D01*
X37257142Y-29638571D01*
X36542857Y-29495714D02*
X36471428Y-29567142D01*
X36542857Y-29638571D01*
X36614285Y-29567142D01*
X36542857Y-29495714D01*
X36542857Y-29638571D01*
X35828571Y-29638571D02*
X35828571Y-28138571D01*
X35685714Y-29067142D02*
X35257142Y-29638571D01*
X35257142Y-28638571D02*
X35828571Y-29210000D01*
X34614285Y-29638571D02*
X34614285Y-28638571D01*
X34614285Y-28138571D02*
X34685714Y-28210000D01*
X34614285Y-28281428D01*
X34542857Y-28210000D01*
X34614285Y-28138571D01*
X34614285Y-28281428D01*
X30971428Y-29638571D02*
X30971428Y-28138571D01*
X30971428Y-29567142D02*
X31114285Y-29638571D01*
X31399999Y-29638571D01*
X31542857Y-29567142D01*
X31614285Y-29495714D01*
X31685714Y-29352857D01*
X31685714Y-28924285D01*
X31614285Y-28781428D01*
X31542857Y-28710000D01*
X31399999Y-28638571D01*
X31114285Y-28638571D01*
X30971428Y-28710000D01*
X29614285Y-29638571D02*
X29614285Y-28852857D01*
X29685714Y-28710000D01*
X29828571Y-28638571D01*
X30114285Y-28638571D01*
X30257142Y-28710000D01*
X29614285Y-29567142D02*
X29757142Y-29638571D01*
X30114285Y-29638571D01*
X30257142Y-29567142D01*
X30328571Y-29424285D01*
X30328571Y-29281428D01*
X30257142Y-29138571D01*
X30114285Y-29067142D01*
X29757142Y-29067142D01*
X29614285Y-28995714D01*
X29114285Y-28638571D02*
X28542857Y-28638571D01*
X28899999Y-28138571D02*
X28899999Y-29424285D01*
X28828571Y-29567142D01*
X28685714Y-29638571D01*
X28542857Y-29638571D01*
X27399999Y-29638571D02*
X27399999Y-28852857D01*
X27471428Y-28710000D01*
X27614285Y-28638571D01*
X27899999Y-28638571D01*
X28042857Y-28710000D01*
X27399999Y-29567142D02*
X27542857Y-29638571D01*
X27899999Y-29638571D01*
X28042857Y-29567142D01*
X28114285Y-29424285D01*
X28114285Y-29281428D01*
X28042857Y-29138571D01*
X27899999Y-29067142D01*
X27542857Y-29067142D01*
X27399999Y-28995714D01*
X26757142Y-28281428D02*
X26685714Y-28210000D01*
X26542857Y-28138571D01*
X26185714Y-28138571D01*
X26042857Y-28210000D01*
X25971428Y-28281428D01*
X25899999Y-28424285D01*
X25899999Y-28567142D01*
X25971428Y-28781428D01*
X26828571Y-29638571D01*
X25899999Y-29638571D01*
X24971428Y-28138571D02*
X24828571Y-28138571D01*
X24685714Y-28210000D01*
X24614285Y-28281428D01*
X24542857Y-28424285D01*
X24471428Y-28710000D01*
X24471428Y-29067142D01*
X24542857Y-29352857D01*
X24614285Y-29495714D01*
X24685714Y-29567142D01*
X24828571Y-29638571D01*
X24971428Y-29638571D01*
X25114285Y-29567142D01*
X25185714Y-29495714D01*
X25257142Y-29352857D01*
X25328571Y-29067142D01*
X25328571Y-28710000D01*
X25257142Y-28424285D01*
X25185714Y-28281428D01*
X25114285Y-28210000D01*
X24971428Y-28138571D01*
X23899999Y-28281428D02*
X23828571Y-28210000D01*
X23685714Y-28138571D01*
X23328571Y-28138571D01*
X23185714Y-28210000D01*
X23114285Y-28281428D01*
X23042857Y-28424285D01*
X23042857Y-28567142D01*
X23114285Y-28781428D01*
X23971428Y-29638571D01*
X23042857Y-29638571D01*
X22471428Y-28281428D02*
X22399999Y-28210000D01*
X22257142Y-28138571D01*
X21899999Y-28138571D01*
X21757142Y-28210000D01*
X21685714Y-28281428D01*
X21614285Y-28424285D01*
X21614285Y-28567142D01*
X21685714Y-28781428D01*
X22542857Y-29638571D01*
X21614285Y-29638571D01*
X20685714Y-28138571D02*
X20542857Y-28138571D01*
X20399999Y-28210000D01*
X20328571Y-28281428D01*
X20257142Y-28424285D01*
X20185714Y-28710000D01*
X20185714Y-29067142D01*
X20257142Y-29352857D01*
X20328571Y-29495714D01*
X20399999Y-29567142D01*
X20542857Y-29638571D01*
X20685714Y-29638571D01*
X20828571Y-29567142D01*
X20899999Y-29495714D01*
X20971428Y-29352857D01*
X21042857Y-29067142D01*
X21042857Y-28710000D01*
X20971428Y-28424285D01*
X20899999Y-28281428D01*
X20828571Y-28210000D01*
X20685714Y-28138571D01*
X19328571Y-28781428D02*
X19471428Y-28710000D01*
X19542857Y-28638571D01*
X19614285Y-28495714D01*
X19614285Y-28424285D01*
X19542857Y-28281428D01*
X19471428Y-28210000D01*
X19328571Y-28138571D01*
X19042857Y-28138571D01*
X18899999Y-28210000D01*
X18828571Y-28281428D01*
X18757142Y-28424285D01*
X18757142Y-28495714D01*
X18828571Y-28638571D01*
X18899999Y-28710000D01*
X19042857Y-28781428D01*
X19328571Y-28781428D01*
X19471428Y-28852857D01*
X19542857Y-28924285D01*
X19614285Y-29067142D01*
X19614285Y-29352857D01*
X19542857Y-29495714D01*
X19471428Y-29567142D01*
X19328571Y-29638571D01*
X19042857Y-29638571D01*
X18899999Y-29567142D01*
X18828571Y-29495714D01*
X18757142Y-29352857D01*
X18757142Y-29067142D01*
X18828571Y-28924285D01*
X18899999Y-28852857D01*
X19042857Y-28781428D01*
X18185714Y-28281428D02*
X18114285Y-28210000D01*
X17971428Y-28138571D01*
X17614285Y-28138571D01*
X17471428Y-28210000D01*
X17399999Y-28281428D01*
X17328571Y-28424285D01*
X17328571Y-28567142D01*
X17399999Y-28781428D01*
X18257142Y-29638571D01*
X17328571Y-29638571D01*
X16042857Y-28138571D02*
X16328571Y-28138571D01*
X16471428Y-28210000D01*
X16542857Y-28281428D01*
X16685714Y-28495714D01*
X16757142Y-28781428D01*
X16757142Y-29352857D01*
X16685714Y-29495714D01*
X16614285Y-29567142D01*
X16471428Y-29638571D01*
X16185714Y-29638571D01*
X16042857Y-29567142D01*
X15971428Y-29495714D01*
X15899999Y-29352857D01*
X15899999Y-28995714D01*
X15971428Y-28852857D01*
X16042857Y-28781428D01*
X16185714Y-28710000D01*
X16471428Y-28710000D01*
X16614285Y-28781428D01*
X16685714Y-28852857D01*
X16757142Y-28995714D01*
X13114285Y-28638571D02*
X12757142Y-29638571D01*
X12399999Y-28638571D01*
X11257142Y-29567142D02*
X11399999Y-29638571D01*
X11685714Y-29638571D01*
X11828571Y-29567142D01*
X11899999Y-29424285D01*
X11899999Y-28852857D01*
X11828571Y-28710000D01*
X11685714Y-28638571D01*
X11399999Y-28638571D01*
X11257142Y-28710000D01*
X11185714Y-28852857D01*
X11185714Y-28995714D01*
X11899999Y-29138571D01*
X10542857Y-29638571D02*
X10542857Y-28638571D01*
X10542857Y-28924285D02*
X10471428Y-28781428D01*
X10399999Y-28710000D01*
X10257142Y-28638571D01*
X10114285Y-28638571D01*
X9614285Y-29495714D02*
X9542857Y-29567142D01*
X9614285Y-29638571D01*
X9685714Y-29567142D01*
X9614285Y-29495714D01*
X9614285Y-29638571D01*
X8114285Y-29638571D02*
X8971428Y-29638571D01*
X8542857Y-29638571D02*
X8542857Y-28138571D01*
X8685714Y-28352857D01*
X8828571Y-28495714D01*
X8971428Y-28567142D01*
X7471428Y-29495714D02*
X7399999Y-29567142D01*
X7471428Y-29638571D01*
X7542857Y-29567142D01*
X7471428Y-29495714D01*
X7471428Y-29638571D01*
X6471428Y-28138571D02*
X6328571Y-28138571D01*
X6185714Y-28210000D01*
X6114285Y-28281428D01*
X6042857Y-28424285D01*
X5971428Y-28710000D01*
X5971428Y-29067142D01*
X6042857Y-29352857D01*
X6114285Y-29495714D01*
X6185714Y-29567142D01*
X6328571Y-29638571D01*
X6471428Y-29638571D01*
X6614285Y-29567142D01*
X6685714Y-29495714D01*
X6757142Y-29352857D01*
X6828571Y-29067142D01*
X6828571Y-28710000D01*
X6757142Y-28424285D01*
X6685714Y-28281428D01*
X6614285Y-28210000D01*
X6471428Y-28138571D01*
D11*
X82992380Y-59352857D02*
X81992380Y-59352857D01*
X82944761Y-59352857D02*
X82992380Y-59257619D01*
X82992380Y-59067142D01*
X82944761Y-58971904D01*
X82897142Y-58924285D01*
X82801904Y-58876666D01*
X82516190Y-58876666D01*
X82420952Y-58924285D01*
X82373333Y-58971904D01*
X82325714Y-59067142D01*
X82325714Y-59257619D01*
X82373333Y-59352857D01*
X82992380Y-59829047D02*
X82325714Y-59829047D01*
X81992380Y-59829047D02*
X82040000Y-59781428D01*
X82087619Y-59829047D01*
X82040000Y-59876666D01*
X81992380Y-59829047D01*
X82087619Y-59829047D01*
X82992380Y-60448095D02*
X82944761Y-60352857D01*
X82897142Y-60305238D01*
X82801904Y-60257619D01*
X82516190Y-60257619D01*
X82420952Y-60305238D01*
X82373333Y-60352857D01*
X82325714Y-60448095D01*
X82325714Y-60590952D01*
X82373333Y-60686190D01*
X82420952Y-60733809D01*
X82516190Y-60781428D01*
X82801904Y-60781428D01*
X82897142Y-60733809D01*
X82944761Y-60686190D01*
X82992380Y-60590952D01*
X82992380Y-60448095D01*
X82992380Y-61638571D02*
X81992380Y-61638571D01*
X82944761Y-61638571D02*
X82992380Y-61543333D01*
X82992380Y-61352857D01*
X82944761Y-61257619D01*
X82897142Y-61210000D01*
X82801904Y-61162380D01*
X82516190Y-61162380D01*
X82420952Y-61210000D01*
X82373333Y-61257619D01*
X82325714Y-61352857D01*
X82325714Y-61543333D01*
X82373333Y-61638571D01*
X82944761Y-62495714D02*
X82992380Y-62400476D01*
X82992380Y-62210000D01*
X82944761Y-62114761D01*
X82849523Y-62067142D01*
X82468571Y-62067142D01*
X82373333Y-62114761D01*
X82325714Y-62210000D01*
X82325714Y-62400476D01*
X82373333Y-62495714D01*
X82468571Y-62543333D01*
X82563809Y-62543333D01*
X82659047Y-62067142D01*
X51050000Y-18154000D02*
X54660000Y-18154000D01*
X51050000Y-14200000D02*
X51050000Y-18145000D01*
X61950000Y-12246000D02*
X53325000Y-12246000D01*
X61950000Y-16154000D02*
X61950000Y-12246000D01*
X61950000Y-16200000D02*
X56900000Y-16246000D01*
X59425000Y-27275000D02*
X54875000Y-27275000D01*
X59425000Y-22625000D02*
X56875000Y-22625000D01*
X54575000Y-20425000D02*
X49875000Y-20425000D01*
X53650000Y-25075000D02*
X49875000Y-25075000D01*
X59450000Y-22650000D02*
X59450000Y-27250000D01*
X49875000Y-20450000D02*
X49850000Y-25050000D01*
X54870000Y-26550000D02*
X54870000Y-27250000D01*
X54870000Y-26500000D02*
G75*
G03*
X53650000Y-25080000I-1320000J100000D01*
G01*
X54580000Y-20450000D02*
G75*
G03*
X56950000Y-22620000I2270000J100000D01*
G01*
X54665000Y-18130000D02*
G75*
G02*
X56925000Y-16250000I2070000J-190000D01*
G01*
X51061000Y-14130000D02*
G75*
G02*
X53325000Y-12246000I2074000J-190000D01*
G01*
X32000000Y-18154000D02*
X35610000Y-18154000D01*
X32000000Y-14200000D02*
X32000000Y-18145000D01*
X42900000Y-12246000D02*
X34275000Y-12246000D01*
X42900000Y-16154000D02*
X42900000Y-12246000D01*
X42900000Y-16200000D02*
X37850000Y-16246000D01*
X40375000Y-27275000D02*
X35825000Y-27275000D01*
X40375000Y-22625000D02*
X37825000Y-22625000D01*
X35525000Y-20425000D02*
X30825000Y-20425000D01*
X34600000Y-25075000D02*
X30825000Y-25075000D01*
X40400000Y-22650000D02*
X40400000Y-27250000D01*
X30825000Y-20450000D02*
X30800000Y-25050000D01*
X35820000Y-26550000D02*
X35820000Y-27250000D01*
X35820000Y-26500000D02*
G75*
G03*
X34600000Y-25080000I-1320000J100000D01*
G01*
X35530000Y-20450000D02*
G75*
G03*
X37900000Y-22620000I2270000J100000D01*
G01*
X35615000Y-18130000D02*
G75*
G02*
X37875000Y-16250000I2070000J-190000D01*
G01*
X32011000Y-14130000D02*
G75*
G02*
X34275000Y-12246000I2074000J-190000D01*
G01*
X12950000Y-18154000D02*
X16560000Y-18154000D01*
X12950000Y-14200000D02*
X12950000Y-18145000D01*
X23850000Y-12246000D02*
X15225000Y-12246000D01*
X23850000Y-16154000D02*
X23850000Y-12246000D01*
X23850000Y-16200000D02*
X18800000Y-16246000D01*
X21325000Y-27275000D02*
X16775000Y-27275000D01*
X21325000Y-22625000D02*
X18775000Y-22625000D01*
X16475000Y-20425000D02*
X11775000Y-20425000D01*
X15550000Y-25075000D02*
X11775000Y-25075000D01*
X21350000Y-22650000D02*
X21350000Y-27250000D01*
X11775000Y-20450000D02*
X11750000Y-25050000D01*
X16770000Y-26550000D02*
X16770000Y-27250000D01*
X16770000Y-26500000D02*
G75*
G03*
X15550000Y-25080000I-1320000J100000D01*
G01*
X16480000Y-20450000D02*
G75*
G03*
X18850000Y-22620000I2270000J100000D01*
G01*
X16565000Y-18130000D02*
G75*
G02*
X18825000Y-16250000I2070000J-190000D01*
G01*
X12961000Y-14130000D02*
G75*
G02*
X15225000Y-12246000I2074000J-190000D01*
G01*
X84290000Y-59990000D02*
X83790000Y-59090000D01*
X83790000Y-59090000D02*
X84790000Y-59090000D01*
X84790000Y-59090000D02*
X84290000Y-59990000D01*
X83790000Y-60090000D02*
X84790000Y-60090000D01*
X83540000Y-56890000D02*
X83540000Y-62290000D01*
X83540000Y-62290000D02*
X85040000Y-62290000D01*
X85040000Y-62290000D02*
X85040000Y-56890000D01*
X85040000Y-56890000D02*
X83540000Y-56890000D01*
X32000000Y-37204000D02*
X35610000Y-37204000D01*
X32000000Y-33250000D02*
X32000000Y-37195000D01*
X42900000Y-31296000D02*
X34275000Y-31296000D01*
X42900000Y-35204000D02*
X42900000Y-31296000D01*
X42900000Y-35250000D02*
X37850000Y-35296000D01*
X40375000Y-46325000D02*
X35825000Y-46325000D01*
X40375000Y-41675000D02*
X37825000Y-41675000D01*
X35525000Y-39475000D02*
X30825000Y-39475000D01*
X34600000Y-44125000D02*
X30825000Y-44125000D01*
X40400000Y-41700000D02*
X40400000Y-46300000D01*
X30825000Y-39500000D02*
X30800000Y-44100000D01*
X35820000Y-45600000D02*
X35820000Y-46300000D01*
X35820000Y-45550000D02*
G75*
G03*
X34600000Y-44130000I-1320000J100000D01*
G01*
X35530000Y-39500000D02*
G75*
G03*
X37900000Y-41670000I2270000J100000D01*
G01*
X35615000Y-37180000D02*
G75*
G02*
X37875000Y-35300000I2070000J-190000D01*
G01*
X32011000Y-33180000D02*
G75*
G02*
X34275000Y-31296000I2074000J-190000D01*
G01*
X12950000Y-37204000D02*
X16560000Y-37204000D01*
X12950000Y-33250000D02*
X12950000Y-37195000D01*
X23850000Y-31296000D02*
X15225000Y-31296000D01*
X23850000Y-35204000D02*
X23850000Y-31296000D01*
X23850000Y-35250000D02*
X18800000Y-35296000D01*
X21325000Y-46325000D02*
X16775000Y-46325000D01*
X21325000Y-41675000D02*
X18775000Y-41675000D01*
X16475000Y-39475000D02*
X11775000Y-39475000D01*
X15550000Y-44125000D02*
X11775000Y-44125000D01*
X21350000Y-41700000D02*
X21350000Y-46300000D01*
X11775000Y-39500000D02*
X11750000Y-44100000D01*
X16770000Y-45600000D02*
X16770000Y-46300000D01*
X16770000Y-45550000D02*
G75*
G03*
X15550000Y-44130000I-1320000J100000D01*
G01*
X16480000Y-39500000D02*
G75*
G03*
X18850000Y-41670000I2270000J100000D01*
G01*
X16565000Y-37180000D02*
G75*
G02*
X18825000Y-35300000I2070000J-190000D01*
G01*
X12961000Y-33180000D02*
G75*
G02*
X15225000Y-31296000I2074000J-190000D01*
G01*
X51050000Y-37204000D02*
X54660000Y-37204000D01*
X51050000Y-33250000D02*
X51050000Y-37195000D01*
X61950000Y-31296000D02*
X53325000Y-31296000D01*
X61950000Y-35204000D02*
X61950000Y-31296000D01*
X61950000Y-35250000D02*
X56900000Y-35296000D01*
X59425000Y-46325000D02*
X54875000Y-46325000D01*
X59425000Y-41675000D02*
X56875000Y-41675000D01*
X54575000Y-39475000D02*
X49875000Y-39475000D01*
X53650000Y-44125000D02*
X49875000Y-44125000D01*
X59450000Y-41700000D02*
X59450000Y-46300000D01*
X49875000Y-39500000D02*
X49850000Y-44100000D01*
X54870000Y-45600000D02*
X54870000Y-46300000D01*
X54870000Y-45550000D02*
G75*
G03*
X53650000Y-44130000I-1320000J100000D01*
G01*
X54580000Y-39500000D02*
G75*
G03*
X56950000Y-41670000I2270000J100000D01*
G01*
X54665000Y-37180000D02*
G75*
G02*
X56925000Y-35300000I2070000J-190000D01*
G01*
X51061000Y-33180000D02*
G75*
G02*
X53325000Y-31296000I2074000J-190000D01*
G01*
X27160000Y-2800000D02*
X26660000Y-1900000D01*
X26660000Y-1900000D02*
X27660000Y-1900000D01*
X27660000Y-1900000D02*
X27160000Y-2800000D01*
X26660000Y-2900000D02*
X27660000Y-2900000D01*
X26410000Y300000D02*
X26410000Y-5100000D01*
X26410000Y-5100000D02*
X27910000Y-5100000D01*
X27910000Y-5100000D02*
X27910000Y300000D01*
X27910000Y300000D02*
X26410000Y300000D01*
X8110000Y-2760000D02*
X7610000Y-1860000D01*
X7610000Y-1860000D02*
X8610000Y-1860000D01*
X8610000Y-1860000D02*
X8110000Y-2760000D01*
X7610000Y-2860000D02*
X8610000Y-2860000D01*
X7360000Y340000D02*
X7360000Y-5060000D01*
X7360000Y-5060000D02*
X8860000Y-5060000D01*
X8860000Y-5060000D02*
X8860000Y340000D01*
X8860000Y340000D02*
X7360000Y340000D01*
X65230000Y-2730000D02*
X64730000Y-1830000D01*
X64730000Y-1830000D02*
X65730000Y-1830000D01*
X65730000Y-1830000D02*
X65230000Y-2730000D01*
X64730000Y-2830000D02*
X65730000Y-2830000D01*
X64480000Y370000D02*
X64480000Y-5030000D01*
X64480000Y-5030000D02*
X65980000Y-5030000D01*
X65980000Y-5030000D02*
X65980000Y370000D01*
X65980000Y370000D02*
X64480000Y370000D01*
X46120000Y-2850000D02*
X45620000Y-1950000D01*
X45620000Y-1950000D02*
X46620000Y-1950000D01*
X46620000Y-1950000D02*
X46120000Y-2850000D01*
X45620000Y-2950000D02*
X46620000Y-2950000D01*
X45370000Y250000D02*
X45370000Y-5150000D01*
X45370000Y-5150000D02*
X46870000Y-5150000D01*
X46870000Y-5150000D02*
X46870000Y250000D01*
X46870000Y250000D02*
X45370000Y250000D01*
X84300000Y-2790000D02*
X83800000Y-1890000D01*
X83800000Y-1890000D02*
X84800000Y-1890000D01*
X84800000Y-1890000D02*
X84300000Y-2790000D01*
X83800000Y-2890000D02*
X84800000Y-2890000D01*
X83550000Y310000D02*
X83550000Y-5090000D01*
X83550000Y-5090000D02*
X85050000Y-5090000D01*
X85050000Y-5090000D02*
X85050000Y310000D01*
X85050000Y310000D02*
X83550000Y310000D01*
X84200000Y-21900000D02*
X83700000Y-21000000D01*
X83700000Y-21000000D02*
X84700000Y-21000000D01*
X84700000Y-21000000D02*
X84200000Y-21900000D01*
X83700000Y-22000000D02*
X84700000Y-22000000D01*
X83450000Y-18800000D02*
X83450000Y-24200000D01*
X83450000Y-24200000D02*
X84950000Y-24200000D01*
X84950000Y-24200000D02*
X84950000Y-18800000D01*
X84950000Y-18800000D02*
X83450000Y-18800000D01*
X65220000Y-21820000D02*
X64720000Y-20920000D01*
X64720000Y-20920000D02*
X65720000Y-20920000D01*
X65720000Y-20920000D02*
X65220000Y-21820000D01*
X64720000Y-21920000D02*
X65720000Y-21920000D01*
X64470000Y-18720000D02*
X64470000Y-24120000D01*
X64470000Y-24120000D02*
X65970000Y-24120000D01*
X65970000Y-24120000D02*
X65970000Y-18720000D01*
X65970000Y-18720000D02*
X64470000Y-18720000D01*
X46140000Y-21870000D02*
X45640000Y-20970000D01*
X45640000Y-20970000D02*
X46640000Y-20970000D01*
X46640000Y-20970000D02*
X46140000Y-21870000D01*
X45640000Y-21970000D02*
X46640000Y-21970000D01*
X45390000Y-18770000D02*
X45390000Y-24170000D01*
X45390000Y-24170000D02*
X46890000Y-24170000D01*
X46890000Y-24170000D02*
X46890000Y-18770000D01*
X46890000Y-18770000D02*
X45390000Y-18770000D01*
X27090000Y-21830000D02*
X26590000Y-20930000D01*
X26590000Y-20930000D02*
X27590000Y-20930000D01*
X27590000Y-20930000D02*
X27090000Y-21830000D01*
X26590000Y-21930000D02*
X27590000Y-21930000D01*
X26340000Y-18730000D02*
X26340000Y-24130000D01*
X26340000Y-24130000D02*
X27840000Y-24130000D01*
X27840000Y-24130000D02*
X27840000Y-18730000D01*
X27840000Y-18730000D02*
X26340000Y-18730000D01*
X8070000Y-21830000D02*
X7570000Y-20930000D01*
X7570000Y-20930000D02*
X8570000Y-20930000D01*
X8570000Y-20930000D02*
X8070000Y-21830000D01*
X7570000Y-21930000D02*
X8570000Y-21930000D01*
X7320000Y-18730000D02*
X7320000Y-24130000D01*
X7320000Y-24130000D02*
X8820000Y-24130000D01*
X8820000Y-24130000D02*
X8820000Y-18730000D01*
X8820000Y-18730000D02*
X7320000Y-18730000D01*
X51050000Y896000D02*
X54660000Y896000D01*
X51050000Y4850000D02*
X51050000Y905000D01*
X61950000Y6804000D02*
X53325000Y6804000D01*
X61950000Y2896000D02*
X61950000Y6804000D01*
X61950000Y2850000D02*
X56900000Y2804000D01*
X59425000Y-8225000D02*
X54875000Y-8225000D01*
X59425000Y-3575000D02*
X56875000Y-3575000D01*
X54575000Y-1375000D02*
X49875000Y-1375000D01*
X53650000Y-6025000D02*
X49875000Y-6025000D01*
X59450000Y-3600000D02*
X59450000Y-8200000D01*
X49875000Y-1400000D02*
X49850000Y-6000000D01*
X54870000Y-7500000D02*
X54870000Y-8200000D01*
X54870000Y-7450000D02*
G75*
G03*
X53650000Y-6030000I-1320000J100000D01*
G01*
X54580000Y-1400000D02*
G75*
G03*
X56950000Y-3570000I2270000J100000D01*
G01*
X54665000Y920000D02*
G75*
G02*
X56925000Y2800000I2070000J-190000D01*
G01*
X51061000Y4920000D02*
G75*
G02*
X53325000Y6804000I2074000J-190000D01*
G01*
X32000000Y896000D02*
X35610000Y896000D01*
X32000000Y4850000D02*
X32000000Y905000D01*
X42900000Y6804000D02*
X34275000Y6804000D01*
X42900000Y2896000D02*
X42900000Y6804000D01*
X42900000Y2850000D02*
X37850000Y2804000D01*
X40375000Y-8225000D02*
X35825000Y-8225000D01*
X40375000Y-3575000D02*
X37825000Y-3575000D01*
X35525000Y-1375000D02*
X30825000Y-1375000D01*
X34600000Y-6025000D02*
X30825000Y-6025000D01*
X40400000Y-3600000D02*
X40400000Y-8200000D01*
X30825000Y-1400000D02*
X30800000Y-6000000D01*
X35820000Y-7500000D02*
X35820000Y-8200000D01*
X35820000Y-7450000D02*
G75*
G03*
X34600000Y-6030000I-1320000J100000D01*
G01*
X35530000Y-1400000D02*
G75*
G03*
X37900000Y-3570000I2270000J100000D01*
G01*
X35615000Y920000D02*
G75*
G02*
X37875000Y2800000I2070000J-190000D01*
G01*
X32011000Y4920000D02*
G75*
G02*
X34275000Y6804000I2074000J-190000D01*
G01*
X12950000Y896000D02*
X16560000Y896000D01*
X12950000Y4850000D02*
X12950000Y905000D01*
X23850000Y6804000D02*
X15225000Y6804000D01*
X23850000Y2896000D02*
X23850000Y6804000D01*
X23850000Y2850000D02*
X18800000Y2804000D01*
X21325000Y-8225000D02*
X16775000Y-8225000D01*
X21325000Y-3575000D02*
X18775000Y-3575000D01*
X16475000Y-1375000D02*
X11775000Y-1375000D01*
X15550000Y-6025000D02*
X11775000Y-6025000D01*
X21350000Y-3600000D02*
X21350000Y-8200000D01*
X11775000Y-1400000D02*
X11750000Y-6000000D01*
X16770000Y-7500000D02*
X16770000Y-8200000D01*
X16770000Y-7450000D02*
G75*
G03*
X15550000Y-6030000I-1320000J100000D01*
G01*
X16480000Y-1400000D02*
G75*
G03*
X18850000Y-3570000I2270000J100000D01*
G01*
X16565000Y920000D02*
G75*
G02*
X18825000Y2800000I2070000J-190000D01*
G01*
X12961000Y4920000D02*
G75*
G02*
X15225000Y6804000I2074000J-190000D01*
G01*
X65210000Y-59890000D02*
X64710000Y-58990000D01*
X64710000Y-58990000D02*
X65710000Y-58990000D01*
X65710000Y-58990000D02*
X65210000Y-59890000D01*
X64710000Y-59990000D02*
X65710000Y-59990000D01*
X64460000Y-56790000D02*
X64460000Y-62190000D01*
X64460000Y-62190000D02*
X65960000Y-62190000D01*
X65960000Y-62190000D02*
X65960000Y-56790000D01*
X65960000Y-56790000D02*
X64460000Y-56790000D01*
X46160000Y-59860000D02*
X45660000Y-58960000D01*
X45660000Y-58960000D02*
X46660000Y-58960000D01*
X46660000Y-58960000D02*
X46160000Y-59860000D01*
X45660000Y-59960000D02*
X46660000Y-59960000D01*
X45410000Y-56760000D02*
X45410000Y-62160000D01*
X45410000Y-62160000D02*
X46910000Y-62160000D01*
X46910000Y-62160000D02*
X46910000Y-56760000D01*
X46910000Y-56760000D02*
X45410000Y-56760000D01*
X27150000Y-59930000D02*
X26650000Y-59030000D01*
X26650000Y-59030000D02*
X27650000Y-59030000D01*
X27650000Y-59030000D02*
X27150000Y-59930000D01*
X26650000Y-60030000D02*
X27650000Y-60030000D01*
X26400000Y-56830000D02*
X26400000Y-62230000D01*
X26400000Y-62230000D02*
X27900000Y-62230000D01*
X27900000Y-62230000D02*
X27900000Y-56830000D01*
X27900000Y-56830000D02*
X26400000Y-56830000D01*
X8050000Y-59950000D02*
X7550000Y-59050000D01*
X7550000Y-59050000D02*
X8550000Y-59050000D01*
X8550000Y-59050000D02*
X8050000Y-59950000D01*
X7550000Y-60050000D02*
X8550000Y-60050000D01*
X7300000Y-56850000D02*
X7300000Y-62250000D01*
X7300000Y-62250000D02*
X8800000Y-62250000D01*
X8800000Y-62250000D02*
X8800000Y-56850000D01*
X8800000Y-56850000D02*
X7300000Y-56850000D01*
X84220000Y-40900000D02*
X83720000Y-40000000D01*
X83720000Y-40000000D02*
X84720000Y-40000000D01*
X84720000Y-40000000D02*
X84220000Y-40900000D01*
X83720000Y-41000000D02*
X84720000Y-41000000D01*
X83470000Y-37800000D02*
X83470000Y-43200000D01*
X83470000Y-43200000D02*
X84970000Y-43200000D01*
X84970000Y-43200000D02*
X84970000Y-37800000D01*
X84970000Y-37800000D02*
X83470000Y-37800000D01*
X65170000Y-40920000D02*
X64670000Y-40020000D01*
X64670000Y-40020000D02*
X65670000Y-40020000D01*
X65670000Y-40020000D02*
X65170000Y-40920000D01*
X64670000Y-41020000D02*
X65670000Y-41020000D01*
X64420000Y-37820000D02*
X64420000Y-43220000D01*
X64420000Y-43220000D02*
X65920000Y-43220000D01*
X65920000Y-43220000D02*
X65920000Y-37820000D01*
X65920000Y-37820000D02*
X64420000Y-37820000D01*
X46150000Y-40910000D02*
X45650000Y-40010000D01*
X45650000Y-40010000D02*
X46650000Y-40010000D01*
X46650000Y-40010000D02*
X46150000Y-40910000D01*
X45650000Y-41010000D02*
X46650000Y-41010000D01*
X45400000Y-37810000D02*
X45400000Y-43210000D01*
X45400000Y-43210000D02*
X46900000Y-43210000D01*
X46900000Y-43210000D02*
X46900000Y-37810000D01*
X46900000Y-37810000D02*
X45400000Y-37810000D01*
X27060000Y-40850000D02*
X26560000Y-39950000D01*
X26560000Y-39950000D02*
X27560000Y-39950000D01*
X27560000Y-39950000D02*
X27060000Y-40850000D01*
X26560000Y-40950000D02*
X27560000Y-40950000D01*
X26310000Y-37750000D02*
X26310000Y-43150000D01*
X26310000Y-43150000D02*
X27810000Y-43150000D01*
X27810000Y-43150000D02*
X27810000Y-37750000D01*
X27810000Y-37750000D02*
X26310000Y-37750000D01*
X8030000Y-40860000D02*
X7530000Y-39960000D01*
X7530000Y-39960000D02*
X8530000Y-39960000D01*
X8530000Y-39960000D02*
X8030000Y-40860000D01*
X7530000Y-40960000D02*
X8530000Y-40960000D01*
X7280000Y-37760000D02*
X7280000Y-43160000D01*
X7280000Y-43160000D02*
X8780000Y-43160000D01*
X8780000Y-43160000D02*
X8780000Y-37760000D01*
X8780000Y-37760000D02*
X7280000Y-37760000D01*
X70100000Y-18154000D02*
X73710000Y-18154000D01*
X70100000Y-14200000D02*
X70100000Y-18145000D01*
X81000000Y-12246000D02*
X72375000Y-12246000D01*
X81000000Y-16154000D02*
X81000000Y-12246000D01*
X81000000Y-16200000D02*
X75950000Y-16246000D01*
X78475000Y-27275000D02*
X73925000Y-27275000D01*
X78475000Y-22625000D02*
X75925000Y-22625000D01*
X73625000Y-20425000D02*
X68925000Y-20425000D01*
X72700000Y-25075000D02*
X68925000Y-25075000D01*
X78500000Y-22650000D02*
X78500000Y-27250000D01*
X68925000Y-20450000D02*
X68900000Y-25050000D01*
X73920000Y-26550000D02*
X73920000Y-27250000D01*
X73920000Y-26500000D02*
G75*
G03*
X72700000Y-25080000I-1320000J100000D01*
G01*
X73630000Y-20450000D02*
G75*
G03*
X76000000Y-22620000I2270000J100000D01*
G01*
X73715000Y-18130000D02*
G75*
G02*
X75975000Y-16250000I2070000J-190000D01*
G01*
X70111000Y-14130000D02*
G75*
G02*
X72375000Y-12246000I2074000J-190000D01*
G01*
X-6100000Y-37204000D02*
X-2490000Y-37204000D01*
X-6100000Y-33250000D02*
X-6100000Y-37195000D01*
X4800000Y-31296000D02*
X-3825000Y-31296000D01*
X4800000Y-35204000D02*
X4800000Y-31296000D01*
X4800000Y-35250000D02*
X-250000Y-35296000D01*
X2275000Y-46325000D02*
X-2275000Y-46325000D01*
X2275000Y-41675000D02*
X-275000Y-41675000D01*
X-2575000Y-39475000D02*
X-7275000Y-39475000D01*
X-3500000Y-44125000D02*
X-7275000Y-44125000D01*
X2300000Y-41700000D02*
X2300000Y-46300000D01*
X-7275000Y-39500000D02*
X-7300000Y-44100000D01*
X-2280000Y-45600000D02*
X-2280000Y-46300000D01*
X-2280000Y-45550000D02*
G75*
G03*
X-3500000Y-44130000I-1320000J100000D01*
G01*
X-2570000Y-39500000D02*
G75*
G03*
X-200000Y-41670000I2270000J100000D01*
G01*
X-2485000Y-37180000D02*
G75*
G02*
X-225000Y-35300000I2070000J-190000D01*
G01*
X-6089000Y-33180000D02*
G75*
G02*
X-3825000Y-31296000I2074000J-190000D01*
G01*
X12950000Y-56254000D02*
X16560000Y-56254000D01*
X12950000Y-52300000D02*
X12950000Y-56245000D01*
X23850000Y-50346000D02*
X15225000Y-50346000D01*
X23850000Y-54254000D02*
X23850000Y-50346000D01*
X23850000Y-54300000D02*
X18800000Y-54346000D01*
X21325000Y-65375000D02*
X16775000Y-65375000D01*
X21325000Y-60725000D02*
X18775000Y-60725000D01*
X16475000Y-58525000D02*
X11775000Y-58525000D01*
X15550000Y-63175000D02*
X11775000Y-63175000D01*
X21350000Y-60750000D02*
X21350000Y-65350000D01*
X11775000Y-58550000D02*
X11750000Y-63150000D01*
X16770000Y-64650000D02*
X16770000Y-65350000D01*
X16770000Y-64600000D02*
G75*
G03*
X15550000Y-63180000I-1320000J100000D01*
G01*
X16480000Y-58550000D02*
G75*
G03*
X18850000Y-60720000I2270000J100000D01*
G01*
X16565000Y-56230000D02*
G75*
G02*
X18825000Y-54350000I2070000J-190000D01*
G01*
X12961000Y-52230000D02*
G75*
G02*
X15225000Y-50346000I2074000J-190000D01*
G01*
X70100000Y-56254000D02*
X73710000Y-56254000D01*
X70100000Y-52300000D02*
X70100000Y-56245000D01*
X81000000Y-50346000D02*
X72375000Y-50346000D01*
X81000000Y-54254000D02*
X81000000Y-50346000D01*
X81000000Y-54300000D02*
X75950000Y-54346000D01*
X78475000Y-65375000D02*
X73925000Y-65375000D01*
X78475000Y-60725000D02*
X75925000Y-60725000D01*
X73625000Y-58525000D02*
X68925000Y-58525000D01*
X72700000Y-63175000D02*
X68925000Y-63175000D01*
X78500000Y-60750000D02*
X78500000Y-65350000D01*
X68925000Y-58550000D02*
X68900000Y-63150000D01*
X73920000Y-64650000D02*
X73920000Y-65350000D01*
X73920000Y-64600000D02*
G75*
G03*
X72700000Y-63180000I-1320000J100000D01*
G01*
X73630000Y-58550000D02*
G75*
G03*
X76000000Y-60720000I2270000J100000D01*
G01*
X73715000Y-56230000D02*
G75*
G02*
X75975000Y-54350000I2070000J-190000D01*
G01*
X70111000Y-52230000D02*
G75*
G02*
X72375000Y-50346000I2074000J-190000D01*
G01*
X51050000Y-56254000D02*
X54660000Y-56254000D01*
X51050000Y-52300000D02*
X51050000Y-56245000D01*
X61950000Y-50346000D02*
X53325000Y-50346000D01*
X61950000Y-54254000D02*
X61950000Y-50346000D01*
X61950000Y-54300000D02*
X56900000Y-54346000D01*
X59425000Y-65375000D02*
X54875000Y-65375000D01*
X59425000Y-60725000D02*
X56875000Y-60725000D01*
X54575000Y-58525000D02*
X49875000Y-58525000D01*
X53650000Y-63175000D02*
X49875000Y-63175000D01*
X59450000Y-60750000D02*
X59450000Y-65350000D01*
X49875000Y-58550000D02*
X49850000Y-63150000D01*
X54870000Y-64650000D02*
X54870000Y-65350000D01*
X54870000Y-64600000D02*
G75*
G03*
X53650000Y-63180000I-1320000J100000D01*
G01*
X54580000Y-58550000D02*
G75*
G03*
X56950000Y-60720000I2270000J100000D01*
G01*
X54665000Y-56230000D02*
G75*
G02*
X56925000Y-54350000I2070000J-190000D01*
G01*
X51061000Y-52230000D02*
G75*
G02*
X53325000Y-50346000I2074000J-190000D01*
G01*
X-6100000Y-56254000D02*
X-2490000Y-56254000D01*
X-6100000Y-52300000D02*
X-6100000Y-56245000D01*
X4800000Y-50346000D02*
X-3825000Y-50346000D01*
X4800000Y-54254000D02*
X4800000Y-50346000D01*
X4800000Y-54300000D02*
X-250000Y-54346000D01*
X2275000Y-65375000D02*
X-2275000Y-65375000D01*
X2275000Y-60725000D02*
X-275000Y-60725000D01*
X-2575000Y-58525000D02*
X-7275000Y-58525000D01*
X-3500000Y-63175000D02*
X-7275000Y-63175000D01*
X2300000Y-60750000D02*
X2300000Y-65350000D01*
X-7275000Y-58550000D02*
X-7300000Y-63150000D01*
X-2280000Y-64650000D02*
X-2280000Y-65350000D01*
X-2280000Y-64600000D02*
G75*
G03*
X-3500000Y-63180000I-1320000J100000D01*
G01*
X-2570000Y-58550000D02*
G75*
G03*
X-200000Y-60720000I2270000J100000D01*
G01*
X-2485000Y-56230000D02*
G75*
G02*
X-225000Y-54350000I2070000J-190000D01*
G01*
X-6089000Y-52230000D02*
G75*
G02*
X-3825000Y-50346000I2074000J-190000D01*
G01*
X70100000Y-37204000D02*
X73710000Y-37204000D01*
X70100000Y-33250000D02*
X70100000Y-37195000D01*
X81000000Y-31296000D02*
X72375000Y-31296000D01*
X81000000Y-35204000D02*
X81000000Y-31296000D01*
X81000000Y-35250000D02*
X75950000Y-35296000D01*
X78475000Y-46325000D02*
X73925000Y-46325000D01*
X78475000Y-41675000D02*
X75925000Y-41675000D01*
X73625000Y-39475000D02*
X68925000Y-39475000D01*
X72700000Y-44125000D02*
X68925000Y-44125000D01*
X78500000Y-41700000D02*
X78500000Y-46300000D01*
X68925000Y-39500000D02*
X68900000Y-44100000D01*
X73920000Y-45600000D02*
X73920000Y-46300000D01*
X73920000Y-45550000D02*
G75*
G03*
X72700000Y-44130000I-1320000J100000D01*
G01*
X73630000Y-39500000D02*
G75*
G03*
X76000000Y-41670000I2270000J100000D01*
G01*
X73715000Y-37180000D02*
G75*
G02*
X75975000Y-35300000I2070000J-190000D01*
G01*
X70111000Y-33180000D02*
G75*
G02*
X72375000Y-31296000I2074000J-190000D01*
G01*
X70100000Y896000D02*
X73710000Y896000D01*
X70100000Y4850000D02*
X70100000Y905000D01*
X81000000Y6804000D02*
X72375000Y6804000D01*
X81000000Y2896000D02*
X81000000Y6804000D01*
X81000000Y2850000D02*
X75950000Y2804000D01*
X78475000Y-8225000D02*
X73925000Y-8225000D01*
X78475000Y-3575000D02*
X75925000Y-3575000D01*
X73625000Y-1375000D02*
X68925000Y-1375000D01*
X72700000Y-6025000D02*
X68925000Y-6025000D01*
X78500000Y-3600000D02*
X78500000Y-8200000D01*
X68925000Y-1400000D02*
X68900000Y-6000000D01*
X73920000Y-7500000D02*
X73920000Y-8200000D01*
X73920000Y-7450000D02*
G75*
G03*
X72700000Y-6030000I-1320000J100000D01*
G01*
X73630000Y-1400000D02*
G75*
G03*
X76000000Y-3570000I2270000J100000D01*
G01*
X73715000Y920000D02*
G75*
G02*
X75975000Y2800000I2070000J-190000D01*
G01*
X70111000Y4920000D02*
G75*
G02*
X72375000Y6804000I2074000J-190000D01*
G01*
X-6100000Y896000D02*
X-2490000Y896000D01*
X-6100000Y4850000D02*
X-6100000Y905000D01*
X4800000Y6804000D02*
X-3825000Y6804000D01*
X4800000Y2896000D02*
X4800000Y6804000D01*
X4800000Y2850000D02*
X-250000Y2804000D01*
X2275000Y-8225000D02*
X-2275000Y-8225000D01*
X2275000Y-3575000D02*
X-275000Y-3575000D01*
X-2575000Y-1375000D02*
X-7275000Y-1375000D01*
X-3500000Y-6025000D02*
X-7275000Y-6025000D01*
X2300000Y-3600000D02*
X2300000Y-8200000D01*
X-7275000Y-1400000D02*
X-7300000Y-6000000D01*
X-2280000Y-7500000D02*
X-2280000Y-8200000D01*
X-2280000Y-7450000D02*
G75*
G03*
X-3500000Y-6030000I-1320000J100000D01*
G01*
X-2570000Y-1400000D02*
G75*
G03*
X-200000Y-3570000I2270000J100000D01*
G01*
X-2485000Y920000D02*
G75*
G02*
X-225000Y2800000I2070000J-190000D01*
G01*
X-6089000Y4920000D02*
G75*
G02*
X-3825000Y6804000I2074000J-190000D01*
G01*
X-6100000Y-18154000D02*
X-2490000Y-18154000D01*
X-6100000Y-14200000D02*
X-6100000Y-18145000D01*
X4800000Y-12246000D02*
X-3825000Y-12246000D01*
X4800000Y-16154000D02*
X4800000Y-12246000D01*
X4800000Y-16200000D02*
X-250000Y-16246000D01*
X2275000Y-27275000D02*
X-2275000Y-27275000D01*
X2275000Y-22625000D02*
X-275000Y-22625000D01*
X-2575000Y-20425000D02*
X-7275000Y-20425000D01*
X-3500000Y-25075000D02*
X-7275000Y-25075000D01*
X2300000Y-22650000D02*
X2300000Y-27250000D01*
X-7275000Y-20450000D02*
X-7300000Y-25050000D01*
X-2280000Y-26550000D02*
X-2280000Y-27250000D01*
X-2280000Y-26500000D02*
G75*
G03*
X-3500000Y-25080000I-1320000J100000D01*
G01*
X-2570000Y-20450000D02*
G75*
G03*
X-200000Y-22620000I2270000J100000D01*
G01*
X-2485000Y-18130000D02*
G75*
G02*
X-225000Y-16250000I2070000J-190000D01*
G01*
X-6089000Y-14130000D02*
G75*
G02*
X-3825000Y-12246000I2074000J-190000D01*
G01*
X32000000Y-56254000D02*
X35610000Y-56254000D01*
X32000000Y-52300000D02*
X32000000Y-56245000D01*
X42900000Y-50346000D02*
X34275000Y-50346000D01*
X42900000Y-54254000D02*
X42900000Y-50346000D01*
X42900000Y-54300000D02*
X37850000Y-54346000D01*
X40375000Y-65375000D02*
X35825000Y-65375000D01*
X40375000Y-60725000D02*
X37825000Y-60725000D01*
X35525000Y-58525000D02*
X30825000Y-58525000D01*
X34600000Y-63175000D02*
X30825000Y-63175000D01*
X40400000Y-60750000D02*
X40400000Y-65350000D01*
X30825000Y-58550000D02*
X30800000Y-63150000D01*
X35820000Y-64650000D02*
X35820000Y-65350000D01*
X35820000Y-64600000D02*
G75*
G03*
X34600000Y-63180000I-1320000J100000D01*
G01*
X35530000Y-58550000D02*
G75*
G03*
X37900000Y-60720000I2270000J100000D01*
G01*
X35615000Y-56230000D02*
G75*
G02*
X37875000Y-54350000I2070000J-190000D01*
G01*
X32011000Y-52230000D02*
G75*
G02*
X34275000Y-50346000I2074000J-190000D01*
G01*
X16490000Y11800000D02*
X16490000Y13300000D01*
X11090000Y11800000D02*
X16490000Y11800000D01*
X11090000Y13300000D02*
X11090000Y11800000D01*
X16490000Y13300000D02*
X11090000Y13300000D01*
X13290000Y13050000D02*
X13290000Y12050000D01*
X14290000Y12050000D02*
X13390000Y12550000D01*
X14290000Y13050000D02*
X14290000Y12050000D01*
X13390000Y12550000D02*
X14290000Y13050000D01*
X61440000Y12560000D02*
X62340000Y13060000D01*
X62340000Y13060000D02*
X62340000Y12060000D01*
X62340000Y12060000D02*
X61440000Y12560000D01*
X61340000Y13060000D02*
X61340000Y12060000D01*
X64540000Y13310000D02*
X59140000Y13310000D01*
X59140000Y13310000D02*
X59140000Y11810000D01*
X59140000Y11810000D02*
X64540000Y11810000D01*
X64540000Y11810000D02*
X64540000Y13310000D01*
M02*
