M48
; DRILL file {KiCad (5.1.6-0-10_14)} date Friday, August 26, 2022 at 05:56:14 PM
; FORMAT={-:-/ absolute / metric / decimal}
; #@! TF.CreationDate,2022-08-26T17:56:14+09:00
; #@! TF.GenerationSoftware,Kicad,Pcbnew,(5.1.6-0-10_14)
; #@! TF.FileFunction,NonPlated,1,2,NPTH
FMAT,2
METRIC
T1C1.200
T2C1.700
T3C1.900
T4C3.000
T5C4.100
%
G90
G05
T1
X-0.36Y30.65
X-0.36Y23.65
X76.39Y30.66
X76.39Y23.66
T2
X33.02Y-38.1
X33.6Y-38.1
X42.6Y-38.1
X43.18Y-38.1
X52.07Y0.0
X52.65Y0.0
X61.65Y0.0
X62.23Y0.0
X-5.08Y-19.05
X-4.5Y-19.05
X4.5Y-19.05
X5.08Y-19.05
X13.97Y-19.05
X14.55Y-19.05
X23.55Y-19.05
X24.13Y-19.05
X52.07Y-19.05
X52.65Y-19.05
X61.65Y-19.05
X62.23Y-19.05
X71.12Y-38.1
X71.7Y-38.1
X80.7Y-38.1
X81.28Y-38.1
X-5.08Y-38.1
X-4.5Y-38.1
X4.5Y-38.1
X5.08Y-38.1
X71.12Y-57.15
X71.7Y-57.15
X80.7Y-57.15
X81.28Y-57.15
X71.12Y-19.05
X71.7Y-19.05
X80.7Y-19.05
X81.28Y-19.05
X13.97Y-38.1
X14.55Y-38.1
X23.55Y-38.1
X24.13Y-38.1
X33.02Y0.0
X33.6Y0.0
X42.6Y0.0
X43.18Y0.0
X52.07Y-38.1
X52.65Y-38.1
X61.65Y-38.1
X62.23Y-38.1
X33.02Y-57.15
X33.6Y-57.15
X42.6Y-57.15
X43.18Y-57.15
X52.07Y-57.15
X52.65Y-57.15
X61.65Y-57.15
X62.23Y-57.15
X13.97Y-57.15
X14.55Y-57.15
X23.55Y-57.15
X24.13Y-57.15
X33.02Y-19.05
X33.6Y-19.05
X42.6Y-19.05
X43.18Y-19.05
X13.97Y0.0
X14.55Y0.0
X23.55Y0.0
X24.13Y0.0
X71.12Y0.0
X71.7Y0.0
X80.7Y0.0
X81.28Y0.0
X-5.08Y-57.15
X-4.5Y-57.15
X4.5Y-57.15
X5.08Y-57.15
X-5.08Y0.0
X-4.5Y0.0
X4.5Y0.0
X5.08Y0.0
T3
X70.7Y-57.15
X81.7Y-57.15
X70.7Y-19.05
X81.7Y-19.05
X13.55Y-38.1
X24.55Y-38.1
X32.6Y0.0
X43.6Y0.0
X51.65Y-38.1
X62.65Y-38.1
X32.6Y-57.15
X43.6Y-57.15
X51.65Y-57.15
X62.65Y-57.15
X13.55Y-57.15
X24.55Y-57.15
X32.6Y-19.05
X43.6Y-19.05
X13.55Y0.0
X24.55Y0.0
X70.7Y0.0
X81.7Y0.0
X-5.5Y-57.15
X5.5Y-57.15
X-5.5Y0.0
X5.5Y0.0
X32.6Y-38.1
X43.6Y-38.1
X51.65Y0.0
X62.65Y0.0
X-5.5Y-19.05
X5.5Y-19.05
X13.55Y-19.05
X24.55Y-19.05
X51.65Y-19.05
X62.65Y-19.05
X70.7Y-38.1
X81.7Y-38.1
X-5.5Y-38.1
X5.5Y-38.1
T4
X14.05Y-41.8
X15.24Y-35.56
X19.05Y-44.0
X21.59Y-33.02
X33.1Y-3.7
X34.29Y2.54
X38.1Y-5.9
X40.64Y5.08
X52.15Y-41.8
X53.34Y-35.56
X57.15Y-44.0
X59.69Y-33.02
X33.1Y-60.85
X34.29Y-54.61
X38.1Y-63.05
X40.64Y-52.07
X52.15Y-60.85
X53.34Y-54.61
X57.15Y-63.05
X59.69Y-52.07
X14.05Y-60.85
X15.24Y-54.61
X19.05Y-63.05
X21.59Y-52.07
X33.1Y-22.75
X34.29Y-16.51
X38.1Y-24.95
X40.64Y-13.97
X14.05Y-3.7
X15.24Y2.54
X19.05Y-5.9
X21.59Y5.08
X71.2Y-3.7
X72.39Y2.54
X76.2Y-5.9
X78.74Y5.08
X-5.0Y-60.85
X-3.81Y-54.61
X0.0Y-63.05
X2.54Y-52.07
X-5.0Y-3.7
X-3.81Y2.54
X0.0Y-5.9
X2.54Y5.08
X33.1Y-41.8
X34.29Y-35.56
X38.1Y-44.0
X40.64Y-33.02
X52.15Y-3.7
X53.34Y2.54
X57.15Y-5.9
X59.69Y5.08
X-5.0Y-22.75
X-3.81Y-16.51
X0.0Y-24.95
X2.54Y-13.97
X14.05Y-22.75
X15.24Y-16.51
X19.05Y-24.95
X21.59Y-13.97
X52.15Y-22.75
X53.34Y-16.51
X57.15Y-24.95
X59.69Y-13.97
X71.2Y-41.8
X72.39Y-35.56
X76.2Y-44.0
X78.74Y-33.02
X-5.0Y-41.8
X-3.81Y-35.56
X0.0Y-44.0
X2.54Y-33.02
X71.2Y-60.85
X72.39Y-54.61
X76.2Y-63.05
X78.74Y-52.07
X71.2Y-22.75
X72.39Y-16.51
X76.2Y-24.95
X78.74Y-13.97
T5
X76.2Y-57.15
X76.2Y-19.05
X19.05Y-38.1
X38.1Y0.0
X57.15Y-38.1
X38.1Y-57.15
X57.15Y-57.15
X19.05Y-57.15
X38.1Y-19.05
X19.05Y0.0
X76.2Y0.0
X0.0Y-57.15
X0.0Y0.0
X38.1Y-38.1
X57.15Y0.0
X0.0Y-19.05
X19.05Y-19.05
X57.15Y-19.05
X76.2Y-38.1
X0.0Y-38.1
T0
M30
