G04 #@! TF.GenerationSoftware,KiCad,Pcbnew,(5.1.6-0-10_14)*
G04 #@! TF.CreationDate,2022-08-29T11:05:28+09:00*
G04 #@! TF.ProjectId,cool640xiao,636f6f6c-3634-4307-9869-616f2e6b6963,rev?*
G04 #@! TF.SameCoordinates,Original*
G04 #@! TF.FileFunction,Copper,L1,Top*
G04 #@! TF.FilePolarity,Positive*
%FSLAX46Y46*%
G04 Gerber Fmt 4.6, Leading zero omitted, Abs format (unit mm)*
G04 Created by KiCad (PCBNEW (5.1.6-0-10_14)) date 2022-08-29 11:05:28*
%MOMM*%
%LPD*%
G01*
G04 APERTURE LIST*
G04 #@! TA.AperFunction,SMDPad,CuDef*
%ADD10R,0.950000X1.300000*%
G04 #@! TD*
G04 #@! TA.AperFunction,ComponentPad*
%ADD11C,1.397000*%
G04 #@! TD*
G04 #@! TA.AperFunction,ComponentPad*
%ADD12R,1.397000X1.397000*%
G04 #@! TD*
G04 #@! TA.AperFunction,ComponentPad*
%ADD13O,1.700000X2.500000*%
G04 #@! TD*
G04 #@! TA.AperFunction,ComponentPad*
%ADD14R,1.500000X1.500000*%
G04 #@! TD*
G04 #@! TA.AperFunction,ComponentPad*
%ADD15C,2.000000*%
G04 #@! TD*
G04 #@! TA.AperFunction,ComponentPad*
%ADD16C,2.800000*%
G04 #@! TD*
G04 #@! TA.AperFunction,ComponentPad*
%ADD17O,4.000000X2.000000*%
G04 #@! TD*
G04 #@! TA.AperFunction,SMDPad,CuDef*
%ADD18R,1.300000X0.950000*%
G04 #@! TD*
G04 #@! TA.AperFunction,ViaPad*
%ADD19C,0.800000*%
G04 #@! TD*
G04 #@! TA.AperFunction,Conductor*
%ADD20C,0.250000*%
G04 #@! TD*
G04 APERTURE END LIST*
D10*
X46120000Y-3055000D03*
D11*
X46120000Y-1020000D03*
D12*
X46120000Y-8640000D03*
D10*
X46120000Y-6605000D03*
X84290000Y7525000D03*
D11*
X84290000Y9560000D03*
D12*
X84290000Y1940000D03*
D10*
X84290000Y3975000D03*
D13*
X-2460000Y20350000D03*
X1740000Y21850000D03*
X1740000Y25850000D03*
X1740000Y28850000D03*
D10*
X84290000Y-57815000D03*
D11*
X84290000Y-55780000D03*
D12*
X84290000Y-63400000D03*
D10*
X84290000Y-61365000D03*
X27160000Y-625000D03*
D11*
X27160000Y1410000D03*
D12*
X27160000Y-6210000D03*
D10*
X27160000Y-4175000D03*
X8110000Y-585000D03*
D11*
X8110000Y1450000D03*
D12*
X8110000Y-6170000D03*
D10*
X8110000Y-4135000D03*
X65230000Y-555000D03*
D11*
X65230000Y1480000D03*
D12*
X65230000Y-6140000D03*
D10*
X65230000Y-4105000D03*
X84210000Y-14385000D03*
D11*
X84210000Y-12350000D03*
D12*
X84210000Y-19970000D03*
D10*
X84210000Y-17935000D03*
X65220000Y-19645000D03*
D11*
X65220000Y-17610000D03*
D12*
X65220000Y-25230000D03*
D10*
X65220000Y-23195000D03*
X46140000Y-19695000D03*
D11*
X46140000Y-17660000D03*
D12*
X46140000Y-25280000D03*
D10*
X46140000Y-23245000D03*
X27090000Y-19655000D03*
D11*
X27090000Y-17620000D03*
D12*
X27090000Y-25240000D03*
D10*
X27090000Y-23205000D03*
X8070000Y-19655000D03*
D11*
X8070000Y-17620000D03*
D12*
X8070000Y-25240000D03*
D10*
X8070000Y-23205000D03*
X65210000Y-57715000D03*
D11*
X65210000Y-55680000D03*
D12*
X65210000Y-63300000D03*
D10*
X65210000Y-61265000D03*
X46160000Y-57685000D03*
D11*
X46160000Y-55650000D03*
D12*
X46160000Y-63270000D03*
D10*
X46160000Y-61235000D03*
X27150000Y-57755000D03*
D11*
X27150000Y-55720000D03*
D12*
X27150000Y-63340000D03*
D10*
X27150000Y-61305000D03*
X8050000Y-57775000D03*
D11*
X8050000Y-55740000D03*
D12*
X8050000Y-63360000D03*
D10*
X8050000Y-61325000D03*
X84210000Y-35815000D03*
D11*
X84210000Y-33780000D03*
D12*
X84210000Y-41400000D03*
D10*
X84210000Y-39365000D03*
X65170000Y-38745000D03*
D11*
X65170000Y-36710000D03*
D12*
X65170000Y-44330000D03*
D10*
X65170000Y-42295000D03*
X46150000Y-38735000D03*
D11*
X46150000Y-36700000D03*
D12*
X46150000Y-44320000D03*
D10*
X46150000Y-42285000D03*
X27060000Y-38675000D03*
D11*
X27060000Y-36640000D03*
D12*
X27060000Y-44260000D03*
D10*
X27060000Y-42225000D03*
X8030000Y-38685000D03*
D11*
X8030000Y-36650000D03*
D12*
X8030000Y-44270000D03*
D10*
X8030000Y-42235000D03*
D13*
X78490000Y28860000D03*
X78490000Y25860000D03*
X78490000Y21860000D03*
X74290000Y20360000D03*
D14*
X6400000Y24640000D03*
D15*
X6400000Y22140000D03*
X6400000Y19640000D03*
D16*
X13900000Y27740000D03*
X13900000Y16540000D03*
D15*
X20900000Y24640000D03*
X20900000Y19640000D03*
X69150000Y19640000D03*
X69150000Y24640000D03*
D16*
X62150000Y16540000D03*
X62150000Y27740000D03*
D15*
X54650000Y19640000D03*
X54650000Y22140000D03*
D14*
X54650000Y24640000D03*
D17*
X45580000Y23450000D03*
X45580000Y20910000D03*
X45580000Y18370000D03*
X45580000Y15830000D03*
X45580000Y13290000D03*
X30340000Y13290000D03*
X30340000Y15830000D03*
X30340000Y18370000D03*
X30340000Y20910000D03*
X30340000Y23450000D03*
X45580000Y25990000D03*
X30340000Y25990000D03*
X45580000Y28530000D03*
X30340000Y28530000D03*
D18*
X12015000Y12550000D03*
D12*
X9980000Y12550000D03*
D11*
X17600000Y12550000D03*
D18*
X15565000Y12550000D03*
X63615000Y12560000D03*
D11*
X65650000Y12560000D03*
D12*
X58030000Y12560000D03*
D18*
X60065000Y12560000D03*
D11*
X-5130000Y22260000D03*
X-5130000Y19720000D03*
X-5130000Y17180000D03*
X81200000Y17180000D03*
X81200000Y19720000D03*
X81200000Y22260000D03*
D10*
X46210000Y7855000D03*
D11*
X46210000Y9890000D03*
D12*
X46210000Y2270000D03*
D10*
X46210000Y4305000D03*
X84380000Y-7045000D03*
D12*
X84380000Y-9080000D03*
D11*
X84380000Y-1460000D03*
D10*
X84380000Y-3495000D03*
X84210000Y-25235000D03*
D11*
X84210000Y-23200000D03*
D12*
X84210000Y-30820000D03*
D10*
X84210000Y-28785000D03*
X84260000Y-50365000D03*
D12*
X84260000Y-52400000D03*
D11*
X84260000Y-44780000D03*
D10*
X84260000Y-46815000D03*
D18*
X12045000Y10270000D03*
D12*
X10010000Y10270000D03*
D11*
X17630000Y10270000D03*
D18*
X15595000Y10270000D03*
D19*
X28490000Y4810000D03*
X30685001Y-52784999D03*
X-8370000Y-30280000D03*
X12190000Y-30260000D03*
X71880000Y19090000D03*
X30110000Y-44290000D03*
X16610000Y7660000D03*
X10980000Y-12210000D03*
X47650000Y-10840000D03*
D20*
X8110000Y-6170000D02*
X8110000Y-4135000D01*
X27160000Y-6210000D02*
X27160000Y-5220000D01*
X27160000Y-4175000D02*
X27160000Y-5220000D01*
X46120000Y-8640000D02*
X46120000Y-6605000D01*
X65230000Y-4105000D02*
X65230000Y-6140000D01*
X84290000Y3975000D02*
X84290000Y1940000D01*
X8070000Y-25240000D02*
X8070000Y-23205000D01*
X27090000Y-23205000D02*
X27090000Y-25240000D01*
X46140000Y-25280000D02*
X46140000Y-23245000D01*
X65220000Y-23195000D02*
X65220000Y-25230000D01*
X84210000Y-17935000D02*
X84210000Y-19970000D01*
X8030000Y-44270000D02*
X8030000Y-42235000D01*
X27060000Y-42225000D02*
X27060000Y-44260000D01*
X46150000Y-44320000D02*
X46150000Y-42285000D01*
X65170000Y-42295000D02*
X65170000Y-44330000D01*
X84210000Y-39365000D02*
X84210000Y-41400000D01*
X8050000Y-61325000D02*
X8050000Y-63360000D01*
X27150000Y-61305000D02*
X27150000Y-63340000D01*
X46160000Y-61235000D02*
X46160000Y-63270000D01*
X65210000Y-61265000D02*
X65210000Y-63300000D01*
X84290000Y-61365000D02*
X84290000Y-63400000D01*
X84290000Y9560000D02*
X84290000Y7525000D01*
X65230000Y1480000D02*
X65230000Y-555000D01*
X46120000Y-1020000D02*
X46120000Y-3055000D01*
X46210000Y9890000D02*
X46210000Y7855000D01*
X27160000Y1410000D02*
X27160000Y-625000D01*
X8110000Y-585000D02*
X8110000Y1450000D01*
X19603997Y4365001D02*
X22558998Y1410000D01*
X22558998Y1410000D02*
X27160000Y1410000D01*
X11025001Y4365001D02*
X19603997Y4365001D01*
X8110000Y1450000D02*
X11025001Y4365001D01*
X73310000Y9560000D02*
X84290000Y9560000D01*
X65230000Y1480000D02*
X73310000Y9560000D01*
X60588998Y1480000D02*
X65230000Y1480000D01*
X57703997Y4365001D02*
X60588998Y1480000D01*
X46120000Y-1020000D02*
X51505001Y4365001D01*
X46210000Y9890000D02*
X51734999Y4365001D01*
X51804999Y4365001D02*
X57703997Y4365001D01*
X51734999Y4365001D02*
X51804999Y4365001D01*
X51505001Y4365001D02*
X51804999Y4365001D01*
X30115001Y4365001D02*
X27160000Y1410000D01*
X40404999Y1275001D02*
X37314999Y4365001D01*
X44212001Y1275001D02*
X40404999Y1275001D01*
X46120000Y-632998D02*
X44212001Y1275001D01*
X37314999Y4365001D02*
X30115001Y4365001D01*
X46120000Y-1020000D02*
X46120000Y-632998D01*
X43610000Y9890000D02*
X46210000Y9890000D01*
X32590000Y20910000D02*
X43610000Y9890000D01*
X30340000Y20910000D02*
X32590000Y20910000D01*
X84380000Y-1460000D02*
X84380000Y-3495000D01*
X84210000Y-12350000D02*
X84210000Y-14385000D01*
X65220000Y-17610000D02*
X65220000Y-19645000D01*
X46140000Y-19695000D02*
X46140000Y-17660000D01*
X27090000Y-17620000D02*
X27090000Y-19655000D01*
X8070000Y-19655000D02*
X8070000Y-17620000D01*
X84004999Y-12144999D02*
X84210000Y-12350000D01*
X70685001Y-12144999D02*
X84004999Y-12144999D01*
X65220000Y-17610000D02*
X70685001Y-12144999D01*
X60628998Y-17610000D02*
X65220000Y-17610000D01*
X57703997Y-14684999D02*
X60628998Y-17610000D01*
X49115001Y-14684999D02*
X57703997Y-14684999D01*
X46140000Y-17660000D02*
X49115001Y-14684999D01*
X41628998Y-17660000D02*
X46140000Y-17660000D01*
X38653997Y-14684999D02*
X41628998Y-17660000D01*
X30025001Y-14684999D02*
X38653997Y-14684999D01*
X27090000Y-17620000D02*
X30025001Y-14684999D01*
X19603997Y-14684999D02*
X22538998Y-17620000D01*
X22538998Y-17620000D02*
X27090000Y-17620000D01*
X11005001Y-14684999D02*
X19603997Y-14684999D01*
X8070000Y-17620000D02*
X11005001Y-14684999D01*
X84210000Y-25235000D02*
X84210000Y-23200000D01*
X84210000Y-33780000D02*
X84210000Y-35815000D01*
X65170000Y-36710000D02*
X65170000Y-38745000D01*
X46150000Y-38735000D02*
X46150000Y-36700000D01*
X27060000Y-36640000D02*
X27060000Y-38675000D01*
X8030000Y-38685000D02*
X8030000Y-36650000D01*
X22508998Y-36640000D02*
X27060000Y-36640000D01*
X19603997Y-33734999D02*
X22508998Y-36640000D01*
X10945001Y-33734999D02*
X19603997Y-33734999D01*
X8030000Y-36650000D02*
X10945001Y-33734999D01*
X41618998Y-36700000D02*
X46150000Y-36700000D01*
X38653997Y-33734999D02*
X41618998Y-36700000D01*
X29965001Y-33734999D02*
X38653997Y-33734999D01*
X27060000Y-36640000D02*
X29965001Y-33734999D01*
X60678998Y-36710000D02*
X65170000Y-36710000D01*
X49115001Y-33734999D02*
X57703997Y-33734999D01*
X57703997Y-33734999D02*
X60678998Y-36710000D01*
X46150000Y-36700000D02*
X49115001Y-33734999D01*
X83144999Y-34845001D02*
X84210000Y-33780000D01*
X77863999Y-34845001D02*
X83144999Y-34845001D01*
X68145001Y-33734999D02*
X76753997Y-33734999D01*
X76753997Y-33734999D02*
X77863999Y-34845001D01*
X65170000Y-36710000D02*
X68145001Y-33734999D01*
X84260000Y-44780000D02*
X84260000Y-46815000D01*
X84290000Y-55780000D02*
X84290000Y-57815000D01*
X65210000Y-55680000D02*
X65210000Y-57715000D01*
X46160000Y-55650000D02*
X46160000Y-57685000D01*
X27150000Y-55720000D02*
X27150000Y-57755000D01*
X8050000Y-55740000D02*
X8050000Y-57775000D01*
X19603997Y-52784999D02*
X22538998Y-55720000D01*
X11005001Y-52784999D02*
X19603997Y-52784999D01*
X22538998Y-55720000D02*
X27150000Y-55720000D01*
X8050000Y-55740000D02*
X11005001Y-52784999D01*
X60598998Y-55680000D02*
X65210000Y-55680000D01*
X57703997Y-52784999D02*
X60598998Y-55680000D01*
X49025001Y-52784999D02*
X57703997Y-52784999D01*
X46160000Y-55650000D02*
X49025001Y-52784999D01*
X68105001Y-52784999D02*
X76594999Y-52784999D01*
X65210000Y-55680000D02*
X68105001Y-52784999D01*
X79590000Y-55780000D02*
X79345000Y-55535000D01*
X84290000Y-55780000D02*
X79590000Y-55780000D01*
X76594999Y-52784999D02*
X79345000Y-55535000D01*
X38653997Y-52784999D02*
X41518998Y-55650000D01*
X41518998Y-55650000D02*
X46160000Y-55650000D01*
X27150000Y-55720000D02*
X30085001Y-52784999D01*
X30340000Y6660000D02*
X28490000Y4810000D01*
X30340000Y13290000D02*
X30340000Y6660000D01*
X30685001Y-52784999D02*
X38653997Y-52784999D01*
X30085001Y-52784999D02*
X30685001Y-52784999D01*
X6400000Y22140000D02*
X9340000Y25080000D01*
X9340000Y28160000D02*
X11349990Y30169990D01*
X9340000Y25080000D02*
X9340000Y28160000D01*
X11349990Y30169990D02*
X40560010Y30169990D01*
X78360000Y25990000D02*
X78490000Y25860000D01*
X55725001Y23215001D02*
X55725001Y25914999D01*
X54650000Y22140000D02*
X55725001Y23215001D01*
X55725001Y25914999D02*
X55650000Y25990000D01*
X55650000Y25990000D02*
X78360000Y25990000D01*
X45580000Y25990000D02*
X55650000Y25990000D01*
X44740000Y25990000D02*
X40560010Y30169990D01*
X45580000Y25990000D02*
X44740000Y25990000D01*
X5680000Y30620000D02*
X3940000Y28880000D01*
X3940000Y24050000D02*
X1740000Y21850000D01*
X3940000Y28880000D02*
X3940000Y24050000D01*
X41630000Y29930000D02*
X40940000Y30620000D01*
X40940000Y30620000D02*
X5680000Y30620000D01*
X44180000Y29930000D02*
X41630000Y29930000D01*
X44180000Y29930000D02*
X45580000Y28530000D01*
X15565000Y12550000D02*
X17600000Y12550000D01*
X15595000Y10270000D02*
X17630000Y10270000D01*
X63615000Y12560000D02*
X65650000Y12560000D01*
X64626499Y13583501D02*
X65650000Y12560000D01*
X45873501Y13583501D02*
X64626499Y13583501D01*
X45580000Y13290000D02*
X45873501Y13583501D01*
X9980000Y12550000D02*
X12015000Y12550000D01*
X58030000Y12560000D02*
X60065000Y12560000D01*
X84380000Y-7045000D02*
X84380000Y-9080000D01*
X12170000Y-30280000D02*
X12190000Y-30260000D01*
X-8370000Y-30280000D02*
X12170000Y-30280000D01*
X71880000Y19090000D02*
X71880000Y23040000D01*
X70280000Y24640000D02*
X69150000Y24640000D01*
X71880000Y23040000D02*
X70280000Y24640000D01*
X84210000Y-28785000D02*
X84210000Y-30820000D01*
X84260000Y-50365000D02*
X84260000Y-52400000D01*
X82104999Y-50244999D02*
X41155001Y-50244999D01*
X84260000Y-52400000D02*
X82104999Y-50244999D01*
X39763999Y-50244999D02*
X39748998Y-50260000D01*
X41155001Y-50244999D02*
X39763999Y-50244999D01*
X39748998Y-50260000D02*
X31290000Y-50260000D01*
X30110000Y-49080000D02*
X30110000Y-44290000D01*
X31290000Y-50260000D02*
X30110000Y-49080000D01*
X10010000Y10270000D02*
X12045000Y10270000D01*
X12620000Y7660000D02*
X10010000Y10270000D01*
X16610000Y7660000D02*
X12620000Y7660000D01*
X46210000Y4305000D02*
X46210000Y2270000D01*
X10980000Y-12210000D02*
X11650000Y-11540000D01*
X11650000Y-11540000D02*
X46950000Y-11540000D01*
X46950000Y-11540000D02*
X47650000Y-10840000D01*
X22225001Y23314999D02*
X22225001Y10174999D01*
X20900000Y24640000D02*
X22225001Y23314999D01*
X29083590Y3970000D02*
X29928601Y4815011D01*
X28256998Y3970000D02*
X29083590Y3970000D01*
X22225001Y10001997D02*
X28256998Y3970000D01*
X22225001Y10174999D02*
X22225001Y10001997D01*
X29928601Y4815011D02*
X36685011Y4815011D01*
X36685011Y4815011D02*
X36970000Y4815011D01*
X40060000Y2270000D02*
X46210000Y2270000D01*
X37514989Y4815011D02*
X40060000Y2270000D01*
X36685011Y4815011D02*
X37514989Y4815011D01*
M02*
