M48
; DRILL file {KiCad (5.1.6-0-10_14)} date Monday, August 29, 2022 at 11:05:30 AM
; FORMAT={-:-/ absolute / metric / decimal}
; #@! TF.CreationDate,2022-08-29T11:05:30+09:00
; #@! TF.GenerationSoftware,Kicad,Pcbnew,(5.1.6-0-10_14)
; #@! TF.FileFunction,Plated,1,2,PTH
FMAT,2
METRIC
T1C0.400
T2C0.813
T3C1.000
T4C2.200
%
G90
G05
T1
X-8.37Y-30.28
X10.98Y-12.21
X12.19Y-30.26
X16.61Y7.66
X28.49Y4.81
X30.11Y-44.29
X30.685Y-52.785
X47.65Y-10.84
X71.88Y19.09
T2
X30.34Y28.53
X30.34Y25.99
X30.34Y23.45
X30.34Y20.91
X30.34Y18.37
X30.34Y15.83
X30.34Y13.29
X45.58Y28.53
X45.58Y25.99
X45.58Y23.45
X45.58Y20.91
X45.58Y18.37
X45.58Y15.83
X45.58Y13.29
X27.15Y-55.72
X27.15Y-63.34
X46.21Y9.89
X46.21Y2.27
X84.38Y-1.46
X84.38Y-9.08
X46.16Y-55.65
X46.16Y-63.27
X46.15Y-36.7
X46.15Y-44.32
X84.29Y9.56
X84.29Y1.94
X27.06Y-36.64
X27.06Y-44.26
X-5.13Y22.26
X-5.13Y19.72
X-5.13Y17.18
X46.14Y-17.66
X46.14Y-25.28
X84.21Y-23.2
X84.21Y-30.82
X27.16Y1.41
X27.16Y-6.21
X8.07Y-17.62
X8.07Y-25.24
X84.29Y-55.78
X84.29Y-63.4
X46.12Y-1.02
X46.12Y-8.64
X8.11Y1.45
X8.11Y-6.17
X65.23Y1.48
X65.23Y-6.14
X8.03Y-36.65
X8.03Y-44.27
X65.17Y-36.71
X65.17Y-44.33
X10.01Y10.27
X17.63Y10.27
X8.05Y-55.74
X8.05Y-63.36
X9.98Y12.55
X17.6Y12.55
X65.22Y-17.61
X65.22Y-25.23
X27.09Y-17.62
X27.09Y-25.24
X65.21Y-55.68
X65.21Y-63.3
X84.21Y-12.35
X84.21Y-19.97
X58.03Y12.56
X65.65Y12.56
X81.2Y22.26
X81.2Y19.72
X81.2Y17.18
X84.26Y-44.78
X84.26Y-52.4
X84.21Y-33.78
X84.21Y-41.4
T3
X54.65Y24.64
X54.65Y22.14
X54.65Y19.64
X69.15Y24.64
X69.15Y19.64
X6.4Y24.64
X6.4Y22.14
X6.4Y19.64
X20.9Y24.64
X20.9Y19.64
T4
X62.15Y27.74
X62.15Y16.54
X13.9Y27.74
X13.9Y16.54
T3
G00X74.29Y20.61
M15
G01X74.29Y20.11
M16
G05
G00X78.49Y29.11
M15
G01X78.49Y28.61
M16
G05
G00X78.49Y26.11
M15
G01X78.49Y25.61
M16
G05
G00X78.49Y22.11
M15
G01X78.49Y21.61
M16
G05
G00X-2.46Y20.6
M15
G01X-2.46Y20.1
M16
G05
G00X1.74Y29.1
M15
G01X1.74Y28.6
M16
G05
G00X1.74Y26.1
M15
G01X1.74Y25.6
M16
G05
G00X1.74Y22.1
M15
G01X1.74Y21.6
M16
G05
T0
M30
