G04 #@! TF.GenerationSoftware,KiCad,Pcbnew,(5.1.6-0-10_14)*
G04 #@! TF.CreationDate,2022-08-29T11:05:28+09:00*
G04 #@! TF.ProjectId,cool640xiao,636f6f6c-3634-4307-9869-616f2e6b6963,rev?*
G04 #@! TF.SameCoordinates,Original*
G04 #@! TF.FileFunction,Profile,NP*
%FSLAX46Y46*%
G04 Gerber Fmt 4.6, Leading zero omitted, Abs format (unit mm)*
G04 Created by KiCad (PCBNEW (5.1.6-0-10_14)) date 2022-08-29 11:05:28*
%MOMM*%
%LPD*%
G01*
G04 APERTURE LIST*
G04 #@! TA.AperFunction,Profile*
%ADD10C,0.150000*%
G04 #@! TD*
G04 APERTURE END LIST*
D10*
X-6680000Y29900000D02*
G75*
G03*
X-6680000Y29900000I-1100000J0D01*
G01*
X500000Y13870000D02*
G75*
G03*
X500000Y13870000I-1100000J0D01*
G01*
X84940000Y29900000D02*
G75*
G03*
X84940000Y29900000I-1100000J0D01*
G01*
X77760000Y13870000D02*
G75*
G03*
X77760000Y13870000I-1100000J0D01*
G01*
X-9970000Y-66110000D02*
X86030000Y-66110000D01*
X10030000Y-47650000D02*
G75*
G03*
X10030000Y-47650000I-1100000J0D01*
G01*
X68260000Y-47650000D02*
G75*
G03*
X68260000Y-47650000I-1100000J0D01*
G01*
X68260000Y-9550000D02*
G75*
G03*
X68260000Y-9550000I-1100000J0D01*
G01*
X10030000Y-9550000D02*
G75*
G03*
X10030000Y-9550000I-1100000J0D01*
G01*
X87150000Y32240000D02*
X87150000Y28290000D01*
X87150000Y28290000D02*
X87150000Y13160000D01*
X-9970000Y-66110000D02*
G75*
G02*
X-11090000Y-64990000I0J1120000D01*
G01*
X87150000Y-64990000D02*
G75*
G02*
X86030000Y-66110000I-1120000J0D01*
G01*
X86030000Y33360000D02*
G75*
G02*
X87150000Y32240000I0J-1120000D01*
G01*
X-11090000Y32240000D02*
G75*
G02*
X-9970000Y33360000I1120000J0D01*
G01*
X-11090000Y13740000D02*
X-11090000Y-64990000D01*
X86030000Y33360000D02*
X-9970000Y33360000D01*
X87150000Y-64990000D02*
X87150000Y13160000D01*
X-11090000Y13740000D02*
X-11090000Y26730000D01*
X-11090000Y32240000D02*
X-11090000Y26730000D01*
M02*
