M48
; DRILL file {KiCad (5.1.6-0-10_14)} date Thursday, May 05, 2022 at 09:05:40 PM
; FORMAT={-:-/ absolute / metric / decimal}
; #@! TF.CreationDate,2022-05-05T21:05:40+09:00
; #@! TF.GenerationSoftware,Kicad,Pcbnew,(5.1.6-0-10_14)
; #@! TF.FileFunction,Plated,1,2,PTH
FMAT,2
METRIC
T1C0.400
T2C0.813
T3C1.020
%
G90
G05
T1
X67.18Y-96.38
X72.17Y-85.38
X79.98Y-95.76
X89.97Y-95.95
X92.63Y-95.97
X97.63Y-95.47
X100.25Y-95.96
X102.67Y-93.57
X104.01Y-86.49
X109.01Y-86.46
X110.39Y-86.79
T2
X121.362Y-83.839
X121.362Y-99.059
X123.902Y-83.839
X123.902Y-99.059
X126.442Y-83.839
X126.442Y-99.059
X128.982Y-83.839
X128.982Y-99.059
X131.522Y-83.839
X131.522Y-99.059
X134.062Y-83.839
X134.062Y-99.059
X136.602Y-83.839
X136.602Y-99.059
X139.142Y-83.839
X139.142Y-99.059
X141.682Y-83.839
X141.682Y-99.059
X144.222Y-83.839
X144.222Y-99.059
X146.762Y-83.839
X146.762Y-99.059
X149.302Y-83.839
X149.302Y-99.059
T3
X64.57Y-82.18
X64.57Y-99.96
X67.11Y-82.18
X67.11Y-99.96
X69.65Y-82.18
X69.65Y-99.96
X72.19Y-82.18
X72.19Y-99.96
X74.73Y-82.18
X74.73Y-99.96
X77.27Y-82.18
X77.27Y-99.96
X79.81Y-82.18
X79.81Y-99.96
X82.35Y-82.18
X82.35Y-99.96
X84.89Y-82.18
X84.89Y-99.96
X87.43Y-82.18
X87.43Y-99.96
X89.97Y-82.18
X89.97Y-99.96
X92.51Y-82.18
X92.51Y-99.96
X95.05Y-82.18
X95.05Y-99.96
X97.59Y-82.18
X97.59Y-99.96
X100.13Y-82.18
X100.13Y-99.96
X102.67Y-82.18
X102.67Y-99.96
X105.21Y-82.18
X105.21Y-99.96
X107.75Y-82.18
X107.75Y-99.96
X110.29Y-82.18
X110.29Y-99.96
X112.83Y-82.18
X112.83Y-99.96
T0
M30
