G04 #@! TF.GenerationSoftware,KiCad,Pcbnew,(5.1.6-0-10_14)*
G04 #@! TF.CreationDate,2022-05-05T21:05:38+09:00*
G04 #@! TF.ProjectId,cool640x2,636f6f6c-3634-4307-9832-2e6b69636164,rev?*
G04 #@! TF.SameCoordinates,Original*
G04 #@! TF.FileFunction,Copper,L1,Top*
G04 #@! TF.FilePolarity,Positive*
%FSLAX46Y46*%
G04 Gerber Fmt 4.6, Leading zero omitted, Abs format (unit mm)*
G04 Created by KiCad (PCBNEW (5.1.6-0-10_14)) date 2022-05-05 21:05:38*
%MOMM*%
%LPD*%
G01*
G04 APERTURE LIST*
G04 #@! TA.AperFunction,ComponentPad*
%ADD10O,1.700000X1.700000*%
G04 #@! TD*
G04 #@! TA.AperFunction,ComponentPad*
%ADD11R,1.700000X1.700000*%
G04 #@! TD*
G04 #@! TA.AperFunction,ComponentPad*
%ADD12C,1.524000*%
G04 #@! TD*
G04 #@! TA.AperFunction,ViaPad*
%ADD13C,0.800000*%
G04 #@! TD*
G04 #@! TA.AperFunction,Conductor*
%ADD14C,0.250000*%
G04 #@! TD*
G04 APERTURE END LIST*
D10*
X112830000Y-82180000D03*
X110290000Y-82180000D03*
D11*
X107750000Y-82180000D03*
D10*
X105210000Y-82180000D03*
X102670000Y-82180000D03*
X100130000Y-82180000D03*
X97590000Y-82180000D03*
D11*
X95050000Y-82180000D03*
D10*
X92510000Y-82180000D03*
X89970000Y-82180000D03*
X87430000Y-82180000D03*
X84890000Y-82180000D03*
D11*
X82350000Y-82180000D03*
D10*
X79810000Y-82180000D03*
X77270000Y-82180000D03*
X74730000Y-82180000D03*
X72190000Y-82180000D03*
D11*
X69650000Y-82180000D03*
D10*
X67110000Y-82180000D03*
X64570000Y-82180000D03*
X64570000Y-99960000D03*
X67110000Y-99960000D03*
D11*
X69650000Y-99960000D03*
D10*
X72190000Y-99960000D03*
X74730000Y-99960000D03*
X77270000Y-99960000D03*
X79810000Y-99960000D03*
D11*
X82350000Y-99960000D03*
D10*
X84890000Y-99960000D03*
X87430000Y-99960000D03*
X89970000Y-99960000D03*
X92510000Y-99960000D03*
D11*
X95050000Y-99960000D03*
D10*
X97590000Y-99960000D03*
X100130000Y-99960000D03*
X102670000Y-99960000D03*
X105210000Y-99960000D03*
D11*
X107750000Y-99960000D03*
D10*
X110290000Y-99960000D03*
X112830000Y-99960000D03*
D12*
X121362000Y-99058600D03*
X123902000Y-99058600D03*
X126442000Y-99058600D03*
X128982000Y-99058600D03*
X131522000Y-99058600D03*
X134062000Y-99058600D03*
X136602000Y-99058600D03*
X139142000Y-99058600D03*
X141682000Y-99058600D03*
X144222000Y-99058600D03*
X146762000Y-99058600D03*
X149302000Y-99058600D03*
X149302000Y-83838600D03*
X146762000Y-83838600D03*
X144222000Y-83838600D03*
X141682000Y-83838600D03*
X139142000Y-83838600D03*
X136602000Y-83838600D03*
X134062000Y-83838600D03*
X131522000Y-83838600D03*
X128982000Y-83838600D03*
X126442000Y-83838600D03*
X123902000Y-83838600D03*
X121362000Y-83838600D03*
D13*
X102670000Y-93570000D03*
X104010000Y-86490000D03*
X92630000Y-95970000D03*
X100250000Y-95960000D03*
X67180000Y-96380000D03*
X79980000Y-95760000D03*
X89970000Y-95950000D03*
X109010000Y-86460000D03*
X110390000Y-86790000D03*
X72170000Y-85380000D03*
X97630000Y-95470000D03*
D14*
X149302000Y-91029529D02*
X149302000Y-83838600D01*
X145510000Y-94821529D02*
X149302000Y-91029529D01*
X103921529Y-94821529D02*
X145510000Y-94821529D01*
X102670000Y-93570000D02*
X103921529Y-94821529D01*
X146762000Y-85778000D02*
X146762000Y-83838600D01*
X145869970Y-86670030D02*
X146762000Y-85778000D01*
X114180030Y-86670030D02*
X112216420Y-86670030D01*
X113909970Y-86670030D02*
X114180030Y-86670030D01*
X114180030Y-86670030D02*
X145869970Y-86670030D01*
X110924401Y-87965011D02*
X109535011Y-87965011D01*
X111565010Y-87324402D02*
X110924401Y-87965011D01*
X111565011Y-87321439D02*
X111565010Y-87324402D01*
X112216420Y-86670030D02*
X111565011Y-87321439D01*
X109442009Y-87965011D02*
X107986998Y-86510000D01*
X109535011Y-87965011D02*
X109442009Y-87965011D01*
X104030000Y-86510000D02*
X104010000Y-86490000D01*
X107986998Y-86510000D02*
X104030000Y-86510000D01*
X141682000Y-99058600D02*
X139244969Y-96621569D01*
X99901999Y-95234999D02*
X98065419Y-97071579D01*
X100598001Y-95234999D02*
X99901999Y-95234999D01*
X101984571Y-96621569D02*
X100598001Y-95234999D01*
X139244969Y-96621569D02*
X101984571Y-96621569D01*
X93731579Y-97071579D02*
X92630000Y-95970000D01*
X98065419Y-97071579D02*
X93731579Y-97071579D01*
X139142000Y-99058600D02*
X137154979Y-97071579D01*
X101361579Y-97071579D02*
X100250000Y-95960000D01*
X137154979Y-97071579D02*
X101361579Y-97071579D01*
X134062000Y-99058600D02*
X134062000Y-98182000D01*
X133851599Y-97971599D02*
X65438401Y-97971599D01*
X134062000Y-98182000D02*
X133851599Y-97971599D01*
X64570000Y-98840000D02*
X64570000Y-99960000D01*
X65438401Y-97971599D02*
X64570000Y-98840000D01*
X136602000Y-99058600D02*
X135064989Y-97521589D01*
X68321589Y-97521589D02*
X67180000Y-96380000D01*
X135064989Y-97521589D02*
X68321589Y-97521589D01*
X100784401Y-94784989D02*
X102170971Y-96171559D01*
X99715598Y-94784990D02*
X100784401Y-94784989D01*
X97879019Y-96621569D02*
X99715598Y-94784990D01*
X94338431Y-96621569D02*
X97879019Y-96621569D01*
X93355001Y-95638139D02*
X94338431Y-96621569D01*
X93355001Y-95621999D02*
X93355001Y-95638139D01*
X92978001Y-95244999D02*
X93355001Y-95621999D01*
X92225001Y-95244999D02*
X92978001Y-95244999D01*
X141334959Y-96171559D02*
X144222000Y-99058600D01*
X90398421Y-97071579D02*
X92225001Y-95244999D01*
X81291579Y-97071579D02*
X90398421Y-97071579D01*
X102170971Y-96171559D02*
X141334959Y-96171559D01*
X79980000Y-95760000D02*
X81291579Y-97071579D01*
X149302000Y-99058600D02*
X145514939Y-95271539D01*
X145514939Y-95271539D02*
X110866400Y-95271539D01*
X110866400Y-95271539D02*
X102543769Y-95271539D01*
X98142028Y-93884970D02*
X95855439Y-96171559D01*
X101157200Y-93884970D02*
X98142028Y-93884970D01*
X102543769Y-95271539D02*
X101157200Y-93884970D01*
X95855439Y-96171559D02*
X94524831Y-96171559D01*
X94524831Y-96155419D02*
X93164401Y-94794989D01*
X91125011Y-94794989D02*
X89970000Y-95950000D01*
X93164401Y-94794989D02*
X91125011Y-94794989D01*
X94524831Y-96171559D02*
X94524831Y-96155419D01*
X128982000Y-83838600D02*
X126442000Y-83838600D01*
X124060580Y-86220020D02*
X126442000Y-83838600D01*
X111115001Y-87138001D02*
X111115001Y-87135039D01*
X112030020Y-86220020D02*
X124060580Y-86220020D01*
X110738001Y-87515001D02*
X111115001Y-87138001D01*
X111115001Y-87135039D02*
X112030020Y-86220020D01*
X110065001Y-87515001D02*
X110738001Y-87515001D01*
X109010000Y-86460000D02*
X110065001Y-87515001D01*
X123902000Y-83838600D02*
X123902000Y-85218000D01*
X123902000Y-85218000D02*
X123349990Y-85770010D01*
X123349990Y-85770010D02*
X121056400Y-85770010D01*
X121056400Y-85770010D02*
X111399990Y-85770010D01*
X110390000Y-86780000D02*
X110390000Y-86790000D01*
X111399990Y-85770010D02*
X110390000Y-86780000D01*
X121362000Y-83838600D02*
X121362000Y-84828000D01*
X121362000Y-84828000D02*
X120870000Y-85320000D01*
X120870000Y-85320000D02*
X72390000Y-85320000D01*
X72330000Y-85380000D02*
X72170000Y-85380000D01*
X72390000Y-85320000D02*
X72330000Y-85380000D01*
X146762000Y-99058600D02*
X143424949Y-95721549D01*
X143424949Y-95721549D02*
X141521359Y-95721549D01*
X141521359Y-95721549D02*
X119051549Y-95721549D01*
X119051549Y-95721549D02*
X110680000Y-95721549D01*
X102357371Y-95721549D02*
X100970800Y-94334980D01*
X110680000Y-95721549D02*
X102357371Y-95721549D01*
X98765020Y-94334980D02*
X97630000Y-95470000D01*
X100970800Y-94334980D02*
X98765020Y-94334980D01*
M02*
