G04 #@! TF.GenerationSoftware,KiCad,Pcbnew,(5.1.6-0-10_14)*
G04 #@! TF.CreationDate,2022-09-03T11:11:12+09:00*
G04 #@! TF.ProjectId,cool640,636f6f6c-3634-4302-9e6b-696361645f70,rev?*
G04 #@! TF.SameCoordinates,Original*
G04 #@! TF.FileFunction,Profile,NP*
%FSLAX46Y46*%
G04 Gerber Fmt 4.6, Leading zero omitted, Abs format (unit mm)*
G04 Created by KiCad (PCBNEW (5.1.6-0-10_14)) date 2022-09-03 11:11:12*
%MOMM*%
%LPD*%
G01*
G04 APERTURE LIST*
G04 #@! TA.AperFunction,Profile*
%ADD10C,0.150000*%
G04 #@! TD*
G04 APERTURE END LIST*
D10*
X201890000Y4670000D02*
X187890000Y4670000D01*
X201890000Y-9330000D02*
X201890000Y4670000D01*
X187880000Y-14390000D02*
X187880000Y-28390000D01*
X187890000Y-33430000D02*
X187890000Y-47430000D01*
X168830000Y-66490000D02*
X182830000Y-66490000D01*
X182840000Y-47430000D02*
X182840000Y-33430000D01*
X182830000Y-66490000D02*
X182830000Y-52490000D01*
X168830000Y-28390000D02*
X182830000Y-28390000D01*
X168840000Y4670000D02*
X168840000Y-9330000D01*
X182830000Y-14390000D02*
X168830000Y-14390000D01*
X182830000Y-28390000D02*
X182830000Y-14390000D01*
X144740000Y-33430000D02*
X130740000Y-33430000D01*
X149770000Y-52490000D02*
X149770000Y-66490000D01*
X168840000Y-47430000D02*
X182840000Y-47430000D01*
X168830000Y-52490000D02*
X168830000Y-66490000D01*
X187880000Y-52490000D02*
X187880000Y-66490000D01*
X130740000Y-33430000D02*
X130740000Y-47430000D01*
X130740000Y-47430000D02*
X144740000Y-47430000D01*
X147770000Y-11880000D02*
G75*
G03*
X147770000Y-11880000I-1100000J0D01*
G01*
X168840000Y-9330000D02*
X182840000Y-9330000D01*
X187890000Y-47430000D02*
X201890000Y-47430000D01*
X206930000Y-52490000D02*
X206930000Y-66490000D01*
X206940000Y-9330000D02*
X220940000Y-9330000D01*
X127770000Y-68440000D02*
G75*
G02*
X126650000Y-67320000I0J1120000D01*
G01*
X224890000Y-67320000D02*
G75*
G02*
X223770000Y-68440000I-1120000J0D01*
G01*
X187890000Y-9330000D02*
X201890000Y-9330000D01*
X168840000Y-33430000D02*
X168840000Y-47430000D01*
X182840000Y4670000D02*
X168840000Y4670000D01*
X201880000Y-28390000D02*
X201880000Y-14390000D01*
X182830000Y-52490000D02*
X168830000Y-52490000D01*
X163780000Y-33430000D02*
X149780000Y-33430000D01*
X149770000Y-14390000D02*
X149770000Y-28390000D01*
X149780000Y-33430000D02*
X149780000Y-47430000D01*
X149780000Y-47430000D02*
X163780000Y-47430000D01*
X130730000Y-14390000D02*
X130730000Y-28390000D01*
X149780000Y-9330000D02*
X163780000Y-9330000D01*
X187880000Y-66490000D02*
X201880000Y-66490000D01*
X201890000Y-47430000D02*
X201890000Y-33430000D01*
X182840000Y-9330000D02*
X182840000Y4670000D01*
X206930000Y-14390000D02*
X206930000Y-28390000D01*
X206940000Y-33430000D02*
X206940000Y-47430000D01*
X220930000Y-52490000D02*
X206930000Y-52490000D01*
X206940000Y-47430000D02*
X220940000Y-47430000D01*
X144730000Y-66490000D02*
X144730000Y-52490000D01*
X144730000Y-52490000D02*
X130730000Y-52490000D01*
X163770000Y-52490000D02*
X149770000Y-52490000D01*
X163780000Y4670000D02*
X149780000Y4670000D01*
X163780000Y-9330000D02*
X163780000Y4670000D01*
X149770000Y-66490000D02*
X163770000Y-66490000D01*
X220940000Y-33430000D02*
X206940000Y-33430000D01*
X220930000Y-28390000D02*
X220930000Y-14390000D01*
X182840000Y-33430000D02*
X168840000Y-33430000D01*
X144740000Y-9330000D02*
X144740000Y4670000D01*
X130730000Y-66490000D02*
X144730000Y-66490000D01*
X144740000Y-47430000D02*
X144740000Y-33430000D01*
X220930000Y-14390000D02*
X206930000Y-14390000D01*
X220940000Y4670000D02*
X206940000Y4670000D01*
X220940000Y-9330000D02*
X220940000Y4670000D01*
X127770000Y-68440000D02*
X223770000Y-68440000D01*
X126650000Y6740000D02*
X126650000Y-67320000D01*
X224890000Y-67320000D02*
X224890000Y6740000D01*
X130740000Y4670000D02*
X130740000Y-9330000D01*
X206930000Y-28390000D02*
X220930000Y-28390000D01*
X206940000Y4670000D02*
X206940000Y-9330000D01*
X168830000Y-14390000D02*
X168830000Y-28390000D01*
X201880000Y-66490000D02*
X201880000Y-52490000D01*
X187880000Y-28390000D02*
X201880000Y-28390000D01*
X187890000Y4670000D02*
X187890000Y-9330000D01*
X201880000Y-14390000D02*
X187880000Y-14390000D01*
X224890000Y6740000D02*
X126650000Y6740000D01*
X147770000Y-49980000D02*
G75*
G03*
X147770000Y-49980000I-1100000J0D01*
G01*
X144740000Y4670000D02*
X130740000Y4670000D01*
X206000000Y-49980000D02*
G75*
G03*
X206000000Y-49980000I-1100000J0D01*
G01*
X130730000Y-52490000D02*
X130730000Y-66490000D01*
X130740000Y-9330000D02*
X144740000Y-9330000D01*
X144730000Y-14390000D02*
X130730000Y-14390000D01*
X144730000Y-28390000D02*
X144730000Y-14390000D01*
X130730000Y-28390000D02*
X144730000Y-28390000D01*
X201890000Y-33430000D02*
X187890000Y-33430000D01*
X206930000Y-66490000D02*
X220930000Y-66490000D01*
X220940000Y-47430000D02*
X220940000Y-33430000D01*
X220930000Y-66490000D02*
X220930000Y-52490000D01*
X201880000Y-52490000D02*
X187880000Y-52490000D01*
X206000000Y-11880000D02*
G75*
G03*
X206000000Y-11880000I-1100000J0D01*
G01*
X163780000Y-47430000D02*
X163780000Y-33430000D01*
X163770000Y-66490000D02*
X163770000Y-52490000D01*
X149770000Y-28390000D02*
X163770000Y-28390000D01*
X149780000Y4670000D02*
X149780000Y-9330000D01*
X163770000Y-14390000D02*
X149770000Y-14390000D01*
X163770000Y-28390000D02*
X163770000Y-14390000D01*
M02*
