999
"DXF R12 Output" (www.mydxf.blogspot.com)
 0 
SECTION
 2 
HEADER
 9 
$ACADVER
 1 
AC1009
 9 
$EXTMIN
 10 
 0 
 20 
 0 
 9 
$EXTMAX
 10 
 8.5 
 20 
 11 
 0 
ENDSEC
 0 
SECTION
 2 
ENTITIES
0
LINE
8
Layer 1
10
39.330100
20
-27.965600
11
39.553602
21
-27.872995
0
LINE
8
Layer 1
10
39.553602
20
-27.872995
11
39.646158
21
-27.649472
0
LINE
8
Layer 1
10
39.646100
20
-0.556116
11
39.553519
21
-0.332640
0
LINE
8
Layer 1
10
39.553519
20
-0.332640
11
39.330042
21
-0.240061
0
LINE
8
Layer 1
10
33.039300
20
-0.556045
11
33.039300
21
-27.649200
0
LINE
8
Layer 1
10
39.329600
20
-0.239917
11
33.354700
21
-0.239917
0
LINE
8
Layer 1
10
39.645800
20
-27.649200
11
39.645800
21
-0.556045
0
LINE
8
Layer 1
10
39.329600
20
-27.965300
11
33.354700
21
-27.965300
0
LINE
8
Layer 1
10
33.355400
20
-0.240061
11
33.131905
21
-0.332630
0
LINE
8
Layer 1
10
33.131905
20
-0.332630
11
33.039314
21
-0.556116
0
LINE
8
Layer 1
10
33.039300
20
-27.649400
11
33.131865
21
-27.872933
0
LINE
8
Layer 1
10
33.131865
20
-27.872933
11
33.355386
21
-27.965528
0
LINE
8
Layer 1
10
21.010500
20
9.846080
11
24.961800
21
9.846080
0
LINE
8
Layer 1
10
21.007600
20
8.418130
11
21.007600
21
4.466890
0
LINE
8
Layer 1
10
26.384000
20
8.418130
11
26.384000
21
4.466890
0
LINE
8
Layer 1
10
26.386800
20
20.598700
11
30.338100
21
20.598700
0
LINE
8
Layer 1
10
9.103880
20
4.232550
11
9.196435
21
4.009028
0
LINE
8
Layer 1
10
9.196435
20
4.009028
11
9.419936
21
3.916422
0
LINE
8
Layer 1
10
36.513300
20
3.916420
11
36.736848
21
4.009000
0
LINE
8
Layer 1
10
36.736848
20
4.009000
11
36.829428
21
4.232548
0
LINE
8
Layer 1
10
19.582600
20
13.797300
11
15.631300
21
13.797300
0
LINE
8
Layer 1
10
15.628500
20
19.170800
11
15.628500
21
15.219500
0
LINE
8
Layer 1
10
15.631300
20
13.797300
11
15.631300
21
9.846080
0
LINE
8
Layer 1
10
15.631300
20
9.846080
11
19.582600
21
9.846080
0
LINE
8
Layer 1
10
10.255000
20
19.170800
11
10.255000
21
15.219500
0
LINE
8
Layer 1
10
10.257900
20
13.797300
11
10.257900
21
9.846080
0
LINE
8
Layer 1
10
10.257900
20
9.846080
11
14.209100
21
9.846080
0
LINE
8
Layer 1
10
21.010500
20
20.598700
11
24.961800
21
20.598700
0
LINE
8
Layer 1
10
26.386800
20
9.846080
11
30.338100
21
9.846080
0
LINE
8
Layer 1
10
31.760300
20
8.418130
11
31.760300
21
4.466890
0
LINE
8
Layer 1
10
31.763200
20
20.598700
11
35.714400
21
20.598700
0
LINE
8
Layer 1
10
31.760300
20
4.466890
11
35.711600
21
4.466890
0
LINE
8
Layer 1
10
35.714400
20
9.846080
11
35.714400
21
13.797300
0
LINE
8
Layer 1
10
35.711600
20
4.466890
11
35.711600
21
8.418130
0
LINE
8
Layer 1
10
30.335200
20
8.418130
11
26.384000
21
8.418130
0
LINE
8
Layer 1
10
19.582600
20
9.846080
11
19.582600
21
13.797300
0
LINE
8
Layer 1
10
19.579700
20
4.466890
11
19.579700
21
8.418130
0
LINE
8
Layer 1
10
15.628500
20
15.219500
11
19.579700
21
15.219500
0
LINE
8
Layer 1
10
15.631300
20
24.549300
11
15.631300
21
20.598700
0
LINE
8
Layer 1
10
19.579700
20
19.170800
11
15.628500
21
19.170800
0
LINE
8
Layer 1
10
19.579700
20
15.219500
11
19.579700
21
19.170800
0
LINE
8
Layer 1
10
35.714400
20
13.797300
11
31.763200
21
13.797300
0
LINE
8
Layer 1
10
35.711600
20
15.219500
11
35.711600
21
19.170800
0
LINE
8
Layer 1
10
24.961800
20
13.797300
11
21.010500
21
13.797300
0
LINE
8
Layer 1
10
14.209100
20
20.598700
11
14.209100
21
24.549300
0
LINE
8
Layer 1
10
10.255000
20
4.466890
11
14.206200
21
4.466890
0
LINE
8
Layer 1
10
14.209100
20
9.846080
11
14.209100
21
13.797300
0
LINE
8
Layer 1
10
35.711600
20
19.170800
11
31.760300
21
19.170800
0
LINE
8
Layer 1
10
35.714400
20
24.549300
11
31.763200
21
24.549300
0
LINE
8
Layer 1
10
35.714400
20
20.598700
11
35.714400
21
24.549300
0
LINE
8
Layer 1
10
9.419870
20
3.917070
11
36.513000
21
3.917070
0
LINE
8
Layer 1
10
9.103740
20
25.133500
11
9.103740
21
4.233190
0
LINE
8
Layer 1
10
36.829100
20
4.233190
11
36.829100
21
25.133500
0
LINE
8
Layer 1
10
10.257900
20
24.549300
11
10.257900
21
20.598700
0
LINE
8
Layer 1
10
31.760300
20
15.219500
11
35.711600
21
15.219500
0
LINE
8
Layer 1
10
31.763200
20
24.549300
11
31.763200
21
20.598700
0
LINE
8
Layer 1
10
21.007600
20
19.170800
11
21.007600
21
15.219500
0
LINE
8
Layer 1
10
30.335200
20
4.466890
11
30.335200
21
8.418130
0
LINE
8
Layer 1
10
26.384000
20
15.219500
11
30.335200
21
15.219500
0
LINE
8
Layer 1
10
26.386800
20
24.549300
11
26.386800
21
20.598700
0
LINE
8
Layer 1
10
30.335200
20
19.170800
11
26.384000
21
19.170800
0
LINE
8
Layer 1
10
30.338100
20
24.549300
11
26.386800
21
24.549300
0
LINE
8
Layer 1
10
30.338100
20
20.598700
11
30.338100
21
24.549300
0
LINE
8
Layer 1
10
26.384000
20
19.170800
11
26.384000
21
15.219500
0
LINE
8
Layer 1
10
26.386800
20
13.797300
11
26.386800
21
9.846080
0
LINE
8
Layer 1
10
21.007600
20
4.466890
11
24.958900
21
4.466890
0
LINE
8
Layer 1
10
24.961800
20
9.846080
11
24.961800
21
13.797300
0
LINE
8
Layer 1
10
24.958900
20
4.466890
11
24.958900
21
8.418130
0
LINE
8
Layer 1
10
21.007600
20
15.219500
11
24.958900
21
15.219500
0
LINE
8
Layer 1
10
21.010500
20
24.549300
11
21.010500
21
20.598700
0
LINE
8
Layer 1
10
24.958900
20
19.170800
11
21.007600
21
19.170800
0
LINE
8
Layer 1
10
24.958900
20
15.219500
11
24.958900
21
19.170800
0
LINE
8
Layer 1
10
14.209100
20
13.797300
11
10.257900
21
13.797300
0
LINE
8
Layer 1
10
15.628500
20
8.418130
11
15.628500
21
4.466890
0
LINE
8
Layer 1
10
15.631300
20
20.598700
11
19.582600
21
20.598700
0
LINE
8
Layer 1
10
26.384000
20
4.466890
11
30.335200
21
4.466890
0
LINE
8
Layer 1
10
30.338100
20
9.846080
11
30.338100
21
13.797300
0
LINE
8
Layer 1
10
24.961800
20
20.598700
11
24.961800
21
24.549300
0
LINE
8
Layer 1
10
31.760300
20
19.170800
11
31.760300
21
15.219500
0
LINE
8
Layer 1
10
31.763200
20
13.797300
11
31.763200
21
9.846080
0
LINE
8
Layer 1
10
35.711600
20
8.418130
11
31.760300
21
8.418130
0
LINE
8
Layer 1
10
31.763200
20
9.846080
11
35.714400
21
9.846080
0
LINE
8
Layer 1
10
14.206200
20
4.466890
11
14.206200
21
8.418130
0
LINE
8
Layer 1
10
14.206200
20
8.418130
11
10.255000
21
8.418130
0
LINE
8
Layer 1
10
19.579700
20
8.418130
11
15.628500
21
8.418130
0
LINE
8
Layer 1
10
19.582600
20
24.549300
11
15.631300
21
24.549300
0
LINE
8
Layer 1
10
19.582600
20
20.598700
11
19.582600
21
24.549300
0
LINE
8
Layer 1
10
15.628500
20
4.466890
11
19.579700
21
4.466890
0
LINE
8
Layer 1
10
36.829100
20
25.133500
11
9.103740
21
25.133500
0
LINE
8
Layer 1
10
14.209100
20
24.549300
11
10.257900
21
24.549300
0
LINE
8
Layer 1
10
10.255000
20
8.418130
11
10.255000
21
4.466890
0
LINE
8
Layer 1
10
10.257900
20
20.598700
11
14.209100
21
20.598700
0
LINE
8
Layer 1
10
14.206200
20
19.170800
11
10.255000
21
19.170800
0
LINE
8
Layer 1
10
14.206200
20
15.219500
11
14.206200
21
19.170800
0
LINE
8
Layer 1
10
10.255000
20
15.219500
11
14.206200
21
15.219500
0
LINE
8
Layer 1
10
30.338100
20
13.797300
11
26.386800
21
13.797300
0
LINE
8
Layer 1
10
21.010500
20
13.797300
11
21.010500
21
9.846080
0
LINE
8
Layer 1
10
24.961800
20
24.549300
11
21.010500
21
24.549300
0
LINE
8
Layer 1
10
30.335200
20
15.219500
11
30.335200
21
19.170800
0
LINE
8
Layer 1
10
24.958900
20
8.418130
11
21.007600
21
8.418130
 0 
ENDSEC
 0 
EOF