G04 #@! TF.GenerationSoftware,KiCad,Pcbnew,(5.1.6-0-10_14)*
G04 #@! TF.CreationDate,2022-05-05T21:05:38+09:00*
G04 #@! TF.ProjectId,cool640x2,636f6f6c-3634-4307-9832-2e6b69636164,rev?*
G04 #@! TF.SameCoordinates,Original*
G04 #@! TF.FileFunction,Legend,Bot*
G04 #@! TF.FilePolarity,Positive*
%FSLAX46Y46*%
G04 Gerber Fmt 4.6, Leading zero omitted, Abs format (unit mm)*
G04 Created by KiCad (PCBNEW (5.1.6-0-10_14)) date 2022-05-05 21:05:38*
%MOMM*%
%LPD*%
G01*
G04 APERTURE LIST*
%ADD10C,0.120000*%
%ADD11C,0.150000*%
G04 APERTURE END LIST*
D10*
X114200000Y-101570000D02*
X114200000Y-80570000D01*
X63200000Y-94770000D02*
X63200000Y-101570000D01*
X111533000Y-101570000D02*
X111533000Y-98563000D01*
X111533000Y-98563000D02*
X114200000Y-98563000D01*
X114200000Y-101570000D02*
X113900000Y-101570000D01*
X111800000Y-101570000D02*
X111400000Y-101570000D01*
X109200000Y-101570000D02*
X108800000Y-101570000D01*
X106700000Y-101570000D02*
X106300000Y-101570000D01*
X104100000Y-101570000D02*
X103700000Y-101570000D01*
X101600000Y-101570000D02*
X101200000Y-101570000D01*
X99100000Y-101570000D02*
X98700000Y-101570000D01*
X96500000Y-101570000D02*
X96100000Y-101570000D01*
X94000000Y-101570000D02*
X93600000Y-101570000D01*
X91400000Y-101570000D02*
X91000000Y-101570000D01*
X88900000Y-101570000D02*
X88500000Y-101570000D01*
X86400000Y-101570000D02*
X86000000Y-101570000D01*
X83800000Y-101570000D02*
X83400000Y-101570000D01*
X81300000Y-101570000D02*
X80900000Y-101570000D01*
X78700000Y-101570000D02*
X78300000Y-101570000D01*
X76200000Y-101570000D02*
X75800000Y-101570000D01*
X73600000Y-101570000D02*
X73200000Y-101570000D01*
X71100000Y-101570000D02*
X70700000Y-101570000D01*
X68600000Y-101570000D02*
X68200000Y-101570000D01*
X66000000Y-101570000D02*
X65600000Y-101570000D01*
X99100000Y-80570000D02*
X98700000Y-80570000D01*
X94000000Y-80570000D02*
X93600000Y-80570000D01*
X86400000Y-80570000D02*
X86000000Y-80570000D01*
X78700000Y-80570000D02*
X78300000Y-80570000D01*
X109200000Y-80570000D02*
X108800000Y-80570000D01*
X111800000Y-80570000D02*
X111400000Y-80570000D01*
X104100000Y-80570000D02*
X103700000Y-80570000D01*
X71100000Y-80570000D02*
X70700000Y-80570000D01*
X66000000Y-80570000D02*
X65600000Y-80570000D01*
X68600000Y-80570000D02*
X68200000Y-80570000D01*
X83800000Y-80570000D02*
X83400000Y-80570000D01*
X88900000Y-80570000D02*
X88500000Y-80570000D01*
X101600000Y-80570000D02*
X101200000Y-80570000D01*
X96500000Y-80570000D02*
X96100000Y-80570000D01*
X76200000Y-80570000D02*
X75800000Y-80570000D01*
X91400000Y-80570000D02*
X91000000Y-80570000D01*
X114200000Y-80570000D02*
X113900000Y-80570000D01*
X106700000Y-80570000D02*
X106300000Y-80570000D01*
X81300000Y-80570000D02*
X80900000Y-80570000D01*
X73600000Y-80570000D02*
X73200000Y-80570000D01*
X63200000Y-80570000D02*
X63200000Y-87370000D01*
X63200000Y-92570000D02*
X63200000Y-92170000D01*
X63200000Y-89970000D02*
X63200000Y-89570000D01*
D11*
X150590000Y-82550000D02*
X150590000Y-83560000D01*
X150590000Y-100350000D02*
X150590000Y-99350000D01*
X149590000Y-82550000D02*
X150590000Y-82550000D01*
X149540000Y-100350000D02*
X150590000Y-100350000D01*
X117540000Y-82550000D02*
X117540000Y-83500000D01*
X117540000Y-100350000D02*
X117540000Y-99350000D01*
X117540000Y-82550000D02*
X118540000Y-82550000D01*
X117540000Y-100350000D02*
X118540000Y-100350000D01*
X114640000Y-95200000D02*
X115940000Y-95200000D01*
X115940000Y-95200000D02*
X115940000Y-87700000D01*
X115940000Y-87700000D02*
X114640000Y-87700000D01*
X114640000Y-87700000D02*
X114640000Y-95200000D01*
X114990000Y-91950000D02*
X114990000Y-90950000D01*
X114990000Y-90950000D02*
X115640000Y-91450000D01*
X115640000Y-91450000D02*
X114990000Y-91950000D01*
X115140000Y-91800000D02*
X115140000Y-91100000D01*
X115290000Y-91700000D02*
X115290000Y-91200000D01*
X115440000Y-91600000D02*
X115440000Y-91300000D01*
X62823809Y-83774761D02*
X62861904Y-83889047D01*
X62861904Y-84079523D01*
X62823809Y-84155714D01*
X62785714Y-84193809D01*
X62709523Y-84231904D01*
X62633333Y-84231904D01*
X62557142Y-84193809D01*
X62519047Y-84155714D01*
X62480952Y-84079523D01*
X62442857Y-83927142D01*
X62404761Y-83850952D01*
X62366666Y-83812857D01*
X62290476Y-83774761D01*
X62214285Y-83774761D01*
X62138095Y-83812857D01*
X62100000Y-83850952D01*
X62061904Y-83927142D01*
X62061904Y-84117619D01*
X62100000Y-84231904D01*
X62061904Y-84498571D02*
X62861904Y-84689047D01*
X62290476Y-84841428D01*
X62861904Y-84993809D01*
X62061904Y-85184285D01*
X62861904Y-85489047D02*
X62061904Y-85489047D01*
X62061904Y-85679523D01*
X62100000Y-85793809D01*
X62176190Y-85870000D01*
X62252380Y-85908095D01*
X62404761Y-85946190D01*
X62519047Y-85946190D01*
X62671428Y-85908095D01*
X62747619Y-85870000D01*
X62823809Y-85793809D01*
X62861904Y-85679523D01*
X62861904Y-85489047D01*
X62861904Y-86289047D02*
X62061904Y-86289047D01*
X62061904Y-86822380D02*
X62061904Y-86974761D01*
X62100000Y-87050952D01*
X62176190Y-87127142D01*
X62328571Y-87165238D01*
X62595238Y-87165238D01*
X62747619Y-87127142D01*
X62823809Y-87050952D01*
X62861904Y-86974761D01*
X62861904Y-86822380D01*
X62823809Y-86746190D01*
X62747619Y-86670000D01*
X62595238Y-86631904D01*
X62328571Y-86631904D01*
X62176190Y-86670000D01*
X62100000Y-86746190D01*
X62061904Y-86822380D01*
X62823809Y-94960476D02*
X62861904Y-95074761D01*
X62861904Y-95265238D01*
X62823809Y-95341428D01*
X62785714Y-95379523D01*
X62709523Y-95417619D01*
X62633333Y-95417619D01*
X62557142Y-95379523D01*
X62519047Y-95341428D01*
X62480952Y-95265238D01*
X62442857Y-95112857D01*
X62404761Y-95036666D01*
X62366666Y-94998571D01*
X62290476Y-94960476D01*
X62214285Y-94960476D01*
X62138095Y-94998571D01*
X62100000Y-95036666D01*
X62061904Y-95112857D01*
X62061904Y-95303333D01*
X62100000Y-95417619D01*
X62061904Y-95684285D02*
X62861904Y-95874761D01*
X62290476Y-96027142D01*
X62861904Y-96179523D01*
X62061904Y-96370000D01*
X62785714Y-97131904D02*
X62823809Y-97093809D01*
X62861904Y-96979523D01*
X62861904Y-96903333D01*
X62823809Y-96789047D01*
X62747619Y-96712857D01*
X62671428Y-96674761D01*
X62519047Y-96636666D01*
X62404761Y-96636666D01*
X62252380Y-96674761D01*
X62176190Y-96712857D01*
X62100000Y-96789047D01*
X62061904Y-96903333D01*
X62061904Y-96979523D01*
X62100000Y-97093809D01*
X62138095Y-97131904D01*
X62861904Y-97855714D02*
X62861904Y-97474761D01*
X62061904Y-97474761D01*
X62861904Y-98122380D02*
X62061904Y-98122380D01*
X62861904Y-98579523D02*
X62404761Y-98236666D01*
X62061904Y-98579523D02*
X62519047Y-98122380D01*
M02*
