G04 #@! TF.GenerationSoftware,KiCad,Pcbnew,(5.1.6-0-10_14)*
G04 #@! TF.CreationDate,2022-05-05T21:05:38+09:00*
G04 #@! TF.ProjectId,cool640x2,636f6f6c-3634-4307-9832-2e6b69636164,rev?*
G04 #@! TF.SameCoordinates,Original*
G04 #@! TF.FileFunction,Soldermask,Top*
G04 #@! TF.FilePolarity,Negative*
%FSLAX46Y46*%
G04 Gerber Fmt 4.6, Leading zero omitted, Abs format (unit mm)*
G04 Created by KiCad (PCBNEW (5.1.6-0-10_14)) date 2022-05-05 21:05:38*
%MOMM*%
%LPD*%
G01*
G04 APERTURE LIST*
%ADD10C,0.100000*%
G04 APERTURE END LIST*
D10*
G36*
X112943512Y-99063927D02*
G01*
X113092812Y-99093624D01*
X113256784Y-99161544D01*
X113404354Y-99260147D01*
X113529853Y-99385646D01*
X113628456Y-99533216D01*
X113696376Y-99697188D01*
X113731000Y-99871259D01*
X113731000Y-100048741D01*
X113696376Y-100222812D01*
X113628456Y-100386784D01*
X113529853Y-100534354D01*
X113404354Y-100659853D01*
X113256784Y-100758456D01*
X113092812Y-100826376D01*
X112943512Y-100856073D01*
X112918742Y-100861000D01*
X112741258Y-100861000D01*
X112716488Y-100856073D01*
X112567188Y-100826376D01*
X112403216Y-100758456D01*
X112255646Y-100659853D01*
X112130147Y-100534354D01*
X112031544Y-100386784D01*
X111963624Y-100222812D01*
X111929000Y-100048741D01*
X111929000Y-99871259D01*
X111963624Y-99697188D01*
X112031544Y-99533216D01*
X112130147Y-99385646D01*
X112255646Y-99260147D01*
X112403216Y-99161544D01*
X112567188Y-99093624D01*
X112716488Y-99063927D01*
X112741258Y-99059000D01*
X112918742Y-99059000D01*
X112943512Y-99063927D01*
G37*
G36*
X110403512Y-99063927D02*
G01*
X110552812Y-99093624D01*
X110716784Y-99161544D01*
X110864354Y-99260147D01*
X110989853Y-99385646D01*
X111088456Y-99533216D01*
X111156376Y-99697188D01*
X111191000Y-99871259D01*
X111191000Y-100048741D01*
X111156376Y-100222812D01*
X111088456Y-100386784D01*
X110989853Y-100534354D01*
X110864354Y-100659853D01*
X110716784Y-100758456D01*
X110552812Y-100826376D01*
X110403512Y-100856073D01*
X110378742Y-100861000D01*
X110201258Y-100861000D01*
X110176488Y-100856073D01*
X110027188Y-100826376D01*
X109863216Y-100758456D01*
X109715646Y-100659853D01*
X109590147Y-100534354D01*
X109491544Y-100386784D01*
X109423624Y-100222812D01*
X109389000Y-100048741D01*
X109389000Y-99871259D01*
X109423624Y-99697188D01*
X109491544Y-99533216D01*
X109590147Y-99385646D01*
X109715646Y-99260147D01*
X109863216Y-99161544D01*
X110027188Y-99093624D01*
X110176488Y-99063927D01*
X110201258Y-99059000D01*
X110378742Y-99059000D01*
X110403512Y-99063927D01*
G37*
G36*
X108651000Y-100861000D02*
G01*
X106849000Y-100861000D01*
X106849000Y-99059000D01*
X108651000Y-99059000D01*
X108651000Y-100861000D01*
G37*
G36*
X105323512Y-99063927D02*
G01*
X105472812Y-99093624D01*
X105636784Y-99161544D01*
X105784354Y-99260147D01*
X105909853Y-99385646D01*
X106008456Y-99533216D01*
X106076376Y-99697188D01*
X106111000Y-99871259D01*
X106111000Y-100048741D01*
X106076376Y-100222812D01*
X106008456Y-100386784D01*
X105909853Y-100534354D01*
X105784354Y-100659853D01*
X105636784Y-100758456D01*
X105472812Y-100826376D01*
X105323512Y-100856073D01*
X105298742Y-100861000D01*
X105121258Y-100861000D01*
X105096488Y-100856073D01*
X104947188Y-100826376D01*
X104783216Y-100758456D01*
X104635646Y-100659853D01*
X104510147Y-100534354D01*
X104411544Y-100386784D01*
X104343624Y-100222812D01*
X104309000Y-100048741D01*
X104309000Y-99871259D01*
X104343624Y-99697188D01*
X104411544Y-99533216D01*
X104510147Y-99385646D01*
X104635646Y-99260147D01*
X104783216Y-99161544D01*
X104947188Y-99093624D01*
X105096488Y-99063927D01*
X105121258Y-99059000D01*
X105298742Y-99059000D01*
X105323512Y-99063927D01*
G37*
G36*
X102783512Y-99063927D02*
G01*
X102932812Y-99093624D01*
X103096784Y-99161544D01*
X103244354Y-99260147D01*
X103369853Y-99385646D01*
X103468456Y-99533216D01*
X103536376Y-99697188D01*
X103571000Y-99871259D01*
X103571000Y-100048741D01*
X103536376Y-100222812D01*
X103468456Y-100386784D01*
X103369853Y-100534354D01*
X103244354Y-100659853D01*
X103096784Y-100758456D01*
X102932812Y-100826376D01*
X102783512Y-100856073D01*
X102758742Y-100861000D01*
X102581258Y-100861000D01*
X102556488Y-100856073D01*
X102407188Y-100826376D01*
X102243216Y-100758456D01*
X102095646Y-100659853D01*
X101970147Y-100534354D01*
X101871544Y-100386784D01*
X101803624Y-100222812D01*
X101769000Y-100048741D01*
X101769000Y-99871259D01*
X101803624Y-99697188D01*
X101871544Y-99533216D01*
X101970147Y-99385646D01*
X102095646Y-99260147D01*
X102243216Y-99161544D01*
X102407188Y-99093624D01*
X102556488Y-99063927D01*
X102581258Y-99059000D01*
X102758742Y-99059000D01*
X102783512Y-99063927D01*
G37*
G36*
X100243512Y-99063927D02*
G01*
X100392812Y-99093624D01*
X100556784Y-99161544D01*
X100704354Y-99260147D01*
X100829853Y-99385646D01*
X100928456Y-99533216D01*
X100996376Y-99697188D01*
X101031000Y-99871259D01*
X101031000Y-100048741D01*
X100996376Y-100222812D01*
X100928456Y-100386784D01*
X100829853Y-100534354D01*
X100704354Y-100659853D01*
X100556784Y-100758456D01*
X100392812Y-100826376D01*
X100243512Y-100856073D01*
X100218742Y-100861000D01*
X100041258Y-100861000D01*
X100016488Y-100856073D01*
X99867188Y-100826376D01*
X99703216Y-100758456D01*
X99555646Y-100659853D01*
X99430147Y-100534354D01*
X99331544Y-100386784D01*
X99263624Y-100222812D01*
X99229000Y-100048741D01*
X99229000Y-99871259D01*
X99263624Y-99697188D01*
X99331544Y-99533216D01*
X99430147Y-99385646D01*
X99555646Y-99260147D01*
X99703216Y-99161544D01*
X99867188Y-99093624D01*
X100016488Y-99063927D01*
X100041258Y-99059000D01*
X100218742Y-99059000D01*
X100243512Y-99063927D01*
G37*
G36*
X97703512Y-99063927D02*
G01*
X97852812Y-99093624D01*
X98016784Y-99161544D01*
X98164354Y-99260147D01*
X98289853Y-99385646D01*
X98388456Y-99533216D01*
X98456376Y-99697188D01*
X98491000Y-99871259D01*
X98491000Y-100048741D01*
X98456376Y-100222812D01*
X98388456Y-100386784D01*
X98289853Y-100534354D01*
X98164354Y-100659853D01*
X98016784Y-100758456D01*
X97852812Y-100826376D01*
X97703512Y-100856073D01*
X97678742Y-100861000D01*
X97501258Y-100861000D01*
X97476488Y-100856073D01*
X97327188Y-100826376D01*
X97163216Y-100758456D01*
X97015646Y-100659853D01*
X96890147Y-100534354D01*
X96791544Y-100386784D01*
X96723624Y-100222812D01*
X96689000Y-100048741D01*
X96689000Y-99871259D01*
X96723624Y-99697188D01*
X96791544Y-99533216D01*
X96890147Y-99385646D01*
X97015646Y-99260147D01*
X97163216Y-99161544D01*
X97327188Y-99093624D01*
X97476488Y-99063927D01*
X97501258Y-99059000D01*
X97678742Y-99059000D01*
X97703512Y-99063927D01*
G37*
G36*
X95951000Y-100861000D02*
G01*
X94149000Y-100861000D01*
X94149000Y-99059000D01*
X95951000Y-99059000D01*
X95951000Y-100861000D01*
G37*
G36*
X92623512Y-99063927D02*
G01*
X92772812Y-99093624D01*
X92936784Y-99161544D01*
X93084354Y-99260147D01*
X93209853Y-99385646D01*
X93308456Y-99533216D01*
X93376376Y-99697188D01*
X93411000Y-99871259D01*
X93411000Y-100048741D01*
X93376376Y-100222812D01*
X93308456Y-100386784D01*
X93209853Y-100534354D01*
X93084354Y-100659853D01*
X92936784Y-100758456D01*
X92772812Y-100826376D01*
X92623512Y-100856073D01*
X92598742Y-100861000D01*
X92421258Y-100861000D01*
X92396488Y-100856073D01*
X92247188Y-100826376D01*
X92083216Y-100758456D01*
X91935646Y-100659853D01*
X91810147Y-100534354D01*
X91711544Y-100386784D01*
X91643624Y-100222812D01*
X91609000Y-100048741D01*
X91609000Y-99871259D01*
X91643624Y-99697188D01*
X91711544Y-99533216D01*
X91810147Y-99385646D01*
X91935646Y-99260147D01*
X92083216Y-99161544D01*
X92247188Y-99093624D01*
X92396488Y-99063927D01*
X92421258Y-99059000D01*
X92598742Y-99059000D01*
X92623512Y-99063927D01*
G37*
G36*
X90083512Y-99063927D02*
G01*
X90232812Y-99093624D01*
X90396784Y-99161544D01*
X90544354Y-99260147D01*
X90669853Y-99385646D01*
X90768456Y-99533216D01*
X90836376Y-99697188D01*
X90871000Y-99871259D01*
X90871000Y-100048741D01*
X90836376Y-100222812D01*
X90768456Y-100386784D01*
X90669853Y-100534354D01*
X90544354Y-100659853D01*
X90396784Y-100758456D01*
X90232812Y-100826376D01*
X90083512Y-100856073D01*
X90058742Y-100861000D01*
X89881258Y-100861000D01*
X89856488Y-100856073D01*
X89707188Y-100826376D01*
X89543216Y-100758456D01*
X89395646Y-100659853D01*
X89270147Y-100534354D01*
X89171544Y-100386784D01*
X89103624Y-100222812D01*
X89069000Y-100048741D01*
X89069000Y-99871259D01*
X89103624Y-99697188D01*
X89171544Y-99533216D01*
X89270147Y-99385646D01*
X89395646Y-99260147D01*
X89543216Y-99161544D01*
X89707188Y-99093624D01*
X89856488Y-99063927D01*
X89881258Y-99059000D01*
X90058742Y-99059000D01*
X90083512Y-99063927D01*
G37*
G36*
X87543512Y-99063927D02*
G01*
X87692812Y-99093624D01*
X87856784Y-99161544D01*
X88004354Y-99260147D01*
X88129853Y-99385646D01*
X88228456Y-99533216D01*
X88296376Y-99697188D01*
X88331000Y-99871259D01*
X88331000Y-100048741D01*
X88296376Y-100222812D01*
X88228456Y-100386784D01*
X88129853Y-100534354D01*
X88004354Y-100659853D01*
X87856784Y-100758456D01*
X87692812Y-100826376D01*
X87543512Y-100856073D01*
X87518742Y-100861000D01*
X87341258Y-100861000D01*
X87316488Y-100856073D01*
X87167188Y-100826376D01*
X87003216Y-100758456D01*
X86855646Y-100659853D01*
X86730147Y-100534354D01*
X86631544Y-100386784D01*
X86563624Y-100222812D01*
X86529000Y-100048741D01*
X86529000Y-99871259D01*
X86563624Y-99697188D01*
X86631544Y-99533216D01*
X86730147Y-99385646D01*
X86855646Y-99260147D01*
X87003216Y-99161544D01*
X87167188Y-99093624D01*
X87316488Y-99063927D01*
X87341258Y-99059000D01*
X87518742Y-99059000D01*
X87543512Y-99063927D01*
G37*
G36*
X85003512Y-99063927D02*
G01*
X85152812Y-99093624D01*
X85316784Y-99161544D01*
X85464354Y-99260147D01*
X85589853Y-99385646D01*
X85688456Y-99533216D01*
X85756376Y-99697188D01*
X85791000Y-99871259D01*
X85791000Y-100048741D01*
X85756376Y-100222812D01*
X85688456Y-100386784D01*
X85589853Y-100534354D01*
X85464354Y-100659853D01*
X85316784Y-100758456D01*
X85152812Y-100826376D01*
X85003512Y-100856073D01*
X84978742Y-100861000D01*
X84801258Y-100861000D01*
X84776488Y-100856073D01*
X84627188Y-100826376D01*
X84463216Y-100758456D01*
X84315646Y-100659853D01*
X84190147Y-100534354D01*
X84091544Y-100386784D01*
X84023624Y-100222812D01*
X83989000Y-100048741D01*
X83989000Y-99871259D01*
X84023624Y-99697188D01*
X84091544Y-99533216D01*
X84190147Y-99385646D01*
X84315646Y-99260147D01*
X84463216Y-99161544D01*
X84627188Y-99093624D01*
X84776488Y-99063927D01*
X84801258Y-99059000D01*
X84978742Y-99059000D01*
X85003512Y-99063927D01*
G37*
G36*
X83251000Y-100861000D02*
G01*
X81449000Y-100861000D01*
X81449000Y-99059000D01*
X83251000Y-99059000D01*
X83251000Y-100861000D01*
G37*
G36*
X79923512Y-99063927D02*
G01*
X80072812Y-99093624D01*
X80236784Y-99161544D01*
X80384354Y-99260147D01*
X80509853Y-99385646D01*
X80608456Y-99533216D01*
X80676376Y-99697188D01*
X80711000Y-99871259D01*
X80711000Y-100048741D01*
X80676376Y-100222812D01*
X80608456Y-100386784D01*
X80509853Y-100534354D01*
X80384354Y-100659853D01*
X80236784Y-100758456D01*
X80072812Y-100826376D01*
X79923512Y-100856073D01*
X79898742Y-100861000D01*
X79721258Y-100861000D01*
X79696488Y-100856073D01*
X79547188Y-100826376D01*
X79383216Y-100758456D01*
X79235646Y-100659853D01*
X79110147Y-100534354D01*
X79011544Y-100386784D01*
X78943624Y-100222812D01*
X78909000Y-100048741D01*
X78909000Y-99871259D01*
X78943624Y-99697188D01*
X79011544Y-99533216D01*
X79110147Y-99385646D01*
X79235646Y-99260147D01*
X79383216Y-99161544D01*
X79547188Y-99093624D01*
X79696488Y-99063927D01*
X79721258Y-99059000D01*
X79898742Y-99059000D01*
X79923512Y-99063927D01*
G37*
G36*
X77383512Y-99063927D02*
G01*
X77532812Y-99093624D01*
X77696784Y-99161544D01*
X77844354Y-99260147D01*
X77969853Y-99385646D01*
X78068456Y-99533216D01*
X78136376Y-99697188D01*
X78171000Y-99871259D01*
X78171000Y-100048741D01*
X78136376Y-100222812D01*
X78068456Y-100386784D01*
X77969853Y-100534354D01*
X77844354Y-100659853D01*
X77696784Y-100758456D01*
X77532812Y-100826376D01*
X77383512Y-100856073D01*
X77358742Y-100861000D01*
X77181258Y-100861000D01*
X77156488Y-100856073D01*
X77007188Y-100826376D01*
X76843216Y-100758456D01*
X76695646Y-100659853D01*
X76570147Y-100534354D01*
X76471544Y-100386784D01*
X76403624Y-100222812D01*
X76369000Y-100048741D01*
X76369000Y-99871259D01*
X76403624Y-99697188D01*
X76471544Y-99533216D01*
X76570147Y-99385646D01*
X76695646Y-99260147D01*
X76843216Y-99161544D01*
X77007188Y-99093624D01*
X77156488Y-99063927D01*
X77181258Y-99059000D01*
X77358742Y-99059000D01*
X77383512Y-99063927D01*
G37*
G36*
X74843512Y-99063927D02*
G01*
X74992812Y-99093624D01*
X75156784Y-99161544D01*
X75304354Y-99260147D01*
X75429853Y-99385646D01*
X75528456Y-99533216D01*
X75596376Y-99697188D01*
X75631000Y-99871259D01*
X75631000Y-100048741D01*
X75596376Y-100222812D01*
X75528456Y-100386784D01*
X75429853Y-100534354D01*
X75304354Y-100659853D01*
X75156784Y-100758456D01*
X74992812Y-100826376D01*
X74843512Y-100856073D01*
X74818742Y-100861000D01*
X74641258Y-100861000D01*
X74616488Y-100856073D01*
X74467188Y-100826376D01*
X74303216Y-100758456D01*
X74155646Y-100659853D01*
X74030147Y-100534354D01*
X73931544Y-100386784D01*
X73863624Y-100222812D01*
X73829000Y-100048741D01*
X73829000Y-99871259D01*
X73863624Y-99697188D01*
X73931544Y-99533216D01*
X74030147Y-99385646D01*
X74155646Y-99260147D01*
X74303216Y-99161544D01*
X74467188Y-99093624D01*
X74616488Y-99063927D01*
X74641258Y-99059000D01*
X74818742Y-99059000D01*
X74843512Y-99063927D01*
G37*
G36*
X72303512Y-99063927D02*
G01*
X72452812Y-99093624D01*
X72616784Y-99161544D01*
X72764354Y-99260147D01*
X72889853Y-99385646D01*
X72988456Y-99533216D01*
X73056376Y-99697188D01*
X73091000Y-99871259D01*
X73091000Y-100048741D01*
X73056376Y-100222812D01*
X72988456Y-100386784D01*
X72889853Y-100534354D01*
X72764354Y-100659853D01*
X72616784Y-100758456D01*
X72452812Y-100826376D01*
X72303512Y-100856073D01*
X72278742Y-100861000D01*
X72101258Y-100861000D01*
X72076488Y-100856073D01*
X71927188Y-100826376D01*
X71763216Y-100758456D01*
X71615646Y-100659853D01*
X71490147Y-100534354D01*
X71391544Y-100386784D01*
X71323624Y-100222812D01*
X71289000Y-100048741D01*
X71289000Y-99871259D01*
X71323624Y-99697188D01*
X71391544Y-99533216D01*
X71490147Y-99385646D01*
X71615646Y-99260147D01*
X71763216Y-99161544D01*
X71927188Y-99093624D01*
X72076488Y-99063927D01*
X72101258Y-99059000D01*
X72278742Y-99059000D01*
X72303512Y-99063927D01*
G37*
G36*
X70551000Y-100861000D02*
G01*
X68749000Y-100861000D01*
X68749000Y-99059000D01*
X70551000Y-99059000D01*
X70551000Y-100861000D01*
G37*
G36*
X67223512Y-99063927D02*
G01*
X67372812Y-99093624D01*
X67536784Y-99161544D01*
X67684354Y-99260147D01*
X67809853Y-99385646D01*
X67908456Y-99533216D01*
X67976376Y-99697188D01*
X68011000Y-99871259D01*
X68011000Y-100048741D01*
X67976376Y-100222812D01*
X67908456Y-100386784D01*
X67809853Y-100534354D01*
X67684354Y-100659853D01*
X67536784Y-100758456D01*
X67372812Y-100826376D01*
X67223512Y-100856073D01*
X67198742Y-100861000D01*
X67021258Y-100861000D01*
X66996488Y-100856073D01*
X66847188Y-100826376D01*
X66683216Y-100758456D01*
X66535646Y-100659853D01*
X66410147Y-100534354D01*
X66311544Y-100386784D01*
X66243624Y-100222812D01*
X66209000Y-100048741D01*
X66209000Y-99871259D01*
X66243624Y-99697188D01*
X66311544Y-99533216D01*
X66410147Y-99385646D01*
X66535646Y-99260147D01*
X66683216Y-99161544D01*
X66847188Y-99093624D01*
X66996488Y-99063927D01*
X67021258Y-99059000D01*
X67198742Y-99059000D01*
X67223512Y-99063927D01*
G37*
G36*
X64683512Y-99063927D02*
G01*
X64832812Y-99093624D01*
X64996784Y-99161544D01*
X65144354Y-99260147D01*
X65269853Y-99385646D01*
X65368456Y-99533216D01*
X65436376Y-99697188D01*
X65471000Y-99871259D01*
X65471000Y-100048741D01*
X65436376Y-100222812D01*
X65368456Y-100386784D01*
X65269853Y-100534354D01*
X65144354Y-100659853D01*
X64996784Y-100758456D01*
X64832812Y-100826376D01*
X64683512Y-100856073D01*
X64658742Y-100861000D01*
X64481258Y-100861000D01*
X64456488Y-100856073D01*
X64307188Y-100826376D01*
X64143216Y-100758456D01*
X63995646Y-100659853D01*
X63870147Y-100534354D01*
X63771544Y-100386784D01*
X63703624Y-100222812D01*
X63669000Y-100048741D01*
X63669000Y-99871259D01*
X63703624Y-99697188D01*
X63771544Y-99533216D01*
X63870147Y-99385646D01*
X63995646Y-99260147D01*
X64143216Y-99161544D01*
X64307188Y-99093624D01*
X64456488Y-99063927D01*
X64481258Y-99059000D01*
X64658742Y-99059000D01*
X64683512Y-99063927D01*
G37*
G36*
X64683512Y-81283927D02*
G01*
X64832812Y-81313624D01*
X64996784Y-81381544D01*
X65144354Y-81480147D01*
X65269853Y-81605646D01*
X65368456Y-81753216D01*
X65436376Y-81917188D01*
X65471000Y-82091259D01*
X65471000Y-82268741D01*
X65436376Y-82442812D01*
X65368456Y-82606784D01*
X65269853Y-82754354D01*
X65144354Y-82879853D01*
X64996784Y-82978456D01*
X64832812Y-83046376D01*
X64683512Y-83076073D01*
X64658742Y-83081000D01*
X64481258Y-83081000D01*
X64456488Y-83076073D01*
X64307188Y-83046376D01*
X64143216Y-82978456D01*
X63995646Y-82879853D01*
X63870147Y-82754354D01*
X63771544Y-82606784D01*
X63703624Y-82442812D01*
X63669000Y-82268741D01*
X63669000Y-82091259D01*
X63703624Y-81917188D01*
X63771544Y-81753216D01*
X63870147Y-81605646D01*
X63995646Y-81480147D01*
X64143216Y-81381544D01*
X64307188Y-81313624D01*
X64456488Y-81283927D01*
X64481258Y-81279000D01*
X64658742Y-81279000D01*
X64683512Y-81283927D01*
G37*
G36*
X110403512Y-81283927D02*
G01*
X110552812Y-81313624D01*
X110716784Y-81381544D01*
X110864354Y-81480147D01*
X110989853Y-81605646D01*
X111088456Y-81753216D01*
X111156376Y-81917188D01*
X111191000Y-82091259D01*
X111191000Y-82268741D01*
X111156376Y-82442812D01*
X111088456Y-82606784D01*
X110989853Y-82754354D01*
X110864354Y-82879853D01*
X110716784Y-82978456D01*
X110552812Y-83046376D01*
X110403512Y-83076073D01*
X110378742Y-83081000D01*
X110201258Y-83081000D01*
X110176488Y-83076073D01*
X110027188Y-83046376D01*
X109863216Y-82978456D01*
X109715646Y-82879853D01*
X109590147Y-82754354D01*
X109491544Y-82606784D01*
X109423624Y-82442812D01*
X109389000Y-82268741D01*
X109389000Y-82091259D01*
X109423624Y-81917188D01*
X109491544Y-81753216D01*
X109590147Y-81605646D01*
X109715646Y-81480147D01*
X109863216Y-81381544D01*
X110027188Y-81313624D01*
X110176488Y-81283927D01*
X110201258Y-81279000D01*
X110378742Y-81279000D01*
X110403512Y-81283927D01*
G37*
G36*
X108651000Y-83081000D02*
G01*
X106849000Y-83081000D01*
X106849000Y-81279000D01*
X108651000Y-81279000D01*
X108651000Y-83081000D01*
G37*
G36*
X105323512Y-81283927D02*
G01*
X105472812Y-81313624D01*
X105636784Y-81381544D01*
X105784354Y-81480147D01*
X105909853Y-81605646D01*
X106008456Y-81753216D01*
X106076376Y-81917188D01*
X106111000Y-82091259D01*
X106111000Y-82268741D01*
X106076376Y-82442812D01*
X106008456Y-82606784D01*
X105909853Y-82754354D01*
X105784354Y-82879853D01*
X105636784Y-82978456D01*
X105472812Y-83046376D01*
X105323512Y-83076073D01*
X105298742Y-83081000D01*
X105121258Y-83081000D01*
X105096488Y-83076073D01*
X104947188Y-83046376D01*
X104783216Y-82978456D01*
X104635646Y-82879853D01*
X104510147Y-82754354D01*
X104411544Y-82606784D01*
X104343624Y-82442812D01*
X104309000Y-82268741D01*
X104309000Y-82091259D01*
X104343624Y-81917188D01*
X104411544Y-81753216D01*
X104510147Y-81605646D01*
X104635646Y-81480147D01*
X104783216Y-81381544D01*
X104947188Y-81313624D01*
X105096488Y-81283927D01*
X105121258Y-81279000D01*
X105298742Y-81279000D01*
X105323512Y-81283927D01*
G37*
G36*
X102783512Y-81283927D02*
G01*
X102932812Y-81313624D01*
X103096784Y-81381544D01*
X103244354Y-81480147D01*
X103369853Y-81605646D01*
X103468456Y-81753216D01*
X103536376Y-81917188D01*
X103571000Y-82091259D01*
X103571000Y-82268741D01*
X103536376Y-82442812D01*
X103468456Y-82606784D01*
X103369853Y-82754354D01*
X103244354Y-82879853D01*
X103096784Y-82978456D01*
X102932812Y-83046376D01*
X102783512Y-83076073D01*
X102758742Y-83081000D01*
X102581258Y-83081000D01*
X102556488Y-83076073D01*
X102407188Y-83046376D01*
X102243216Y-82978456D01*
X102095646Y-82879853D01*
X101970147Y-82754354D01*
X101871544Y-82606784D01*
X101803624Y-82442812D01*
X101769000Y-82268741D01*
X101769000Y-82091259D01*
X101803624Y-81917188D01*
X101871544Y-81753216D01*
X101970147Y-81605646D01*
X102095646Y-81480147D01*
X102243216Y-81381544D01*
X102407188Y-81313624D01*
X102556488Y-81283927D01*
X102581258Y-81279000D01*
X102758742Y-81279000D01*
X102783512Y-81283927D01*
G37*
G36*
X100243512Y-81283927D02*
G01*
X100392812Y-81313624D01*
X100556784Y-81381544D01*
X100704354Y-81480147D01*
X100829853Y-81605646D01*
X100928456Y-81753216D01*
X100996376Y-81917188D01*
X101031000Y-82091259D01*
X101031000Y-82268741D01*
X100996376Y-82442812D01*
X100928456Y-82606784D01*
X100829853Y-82754354D01*
X100704354Y-82879853D01*
X100556784Y-82978456D01*
X100392812Y-83046376D01*
X100243512Y-83076073D01*
X100218742Y-83081000D01*
X100041258Y-83081000D01*
X100016488Y-83076073D01*
X99867188Y-83046376D01*
X99703216Y-82978456D01*
X99555646Y-82879853D01*
X99430147Y-82754354D01*
X99331544Y-82606784D01*
X99263624Y-82442812D01*
X99229000Y-82268741D01*
X99229000Y-82091259D01*
X99263624Y-81917188D01*
X99331544Y-81753216D01*
X99430147Y-81605646D01*
X99555646Y-81480147D01*
X99703216Y-81381544D01*
X99867188Y-81313624D01*
X100016488Y-81283927D01*
X100041258Y-81279000D01*
X100218742Y-81279000D01*
X100243512Y-81283927D01*
G37*
G36*
X97703512Y-81283927D02*
G01*
X97852812Y-81313624D01*
X98016784Y-81381544D01*
X98164354Y-81480147D01*
X98289853Y-81605646D01*
X98388456Y-81753216D01*
X98456376Y-81917188D01*
X98491000Y-82091259D01*
X98491000Y-82268741D01*
X98456376Y-82442812D01*
X98388456Y-82606784D01*
X98289853Y-82754354D01*
X98164354Y-82879853D01*
X98016784Y-82978456D01*
X97852812Y-83046376D01*
X97703512Y-83076073D01*
X97678742Y-83081000D01*
X97501258Y-83081000D01*
X97476488Y-83076073D01*
X97327188Y-83046376D01*
X97163216Y-82978456D01*
X97015646Y-82879853D01*
X96890147Y-82754354D01*
X96791544Y-82606784D01*
X96723624Y-82442812D01*
X96689000Y-82268741D01*
X96689000Y-82091259D01*
X96723624Y-81917188D01*
X96791544Y-81753216D01*
X96890147Y-81605646D01*
X97015646Y-81480147D01*
X97163216Y-81381544D01*
X97327188Y-81313624D01*
X97476488Y-81283927D01*
X97501258Y-81279000D01*
X97678742Y-81279000D01*
X97703512Y-81283927D01*
G37*
G36*
X95951000Y-83081000D02*
G01*
X94149000Y-83081000D01*
X94149000Y-81279000D01*
X95951000Y-81279000D01*
X95951000Y-83081000D01*
G37*
G36*
X92623512Y-81283927D02*
G01*
X92772812Y-81313624D01*
X92936784Y-81381544D01*
X93084354Y-81480147D01*
X93209853Y-81605646D01*
X93308456Y-81753216D01*
X93376376Y-81917188D01*
X93411000Y-82091259D01*
X93411000Y-82268741D01*
X93376376Y-82442812D01*
X93308456Y-82606784D01*
X93209853Y-82754354D01*
X93084354Y-82879853D01*
X92936784Y-82978456D01*
X92772812Y-83046376D01*
X92623512Y-83076073D01*
X92598742Y-83081000D01*
X92421258Y-83081000D01*
X92396488Y-83076073D01*
X92247188Y-83046376D01*
X92083216Y-82978456D01*
X91935646Y-82879853D01*
X91810147Y-82754354D01*
X91711544Y-82606784D01*
X91643624Y-82442812D01*
X91609000Y-82268741D01*
X91609000Y-82091259D01*
X91643624Y-81917188D01*
X91711544Y-81753216D01*
X91810147Y-81605646D01*
X91935646Y-81480147D01*
X92083216Y-81381544D01*
X92247188Y-81313624D01*
X92396488Y-81283927D01*
X92421258Y-81279000D01*
X92598742Y-81279000D01*
X92623512Y-81283927D01*
G37*
G36*
X90083512Y-81283927D02*
G01*
X90232812Y-81313624D01*
X90396784Y-81381544D01*
X90544354Y-81480147D01*
X90669853Y-81605646D01*
X90768456Y-81753216D01*
X90836376Y-81917188D01*
X90871000Y-82091259D01*
X90871000Y-82268741D01*
X90836376Y-82442812D01*
X90768456Y-82606784D01*
X90669853Y-82754354D01*
X90544354Y-82879853D01*
X90396784Y-82978456D01*
X90232812Y-83046376D01*
X90083512Y-83076073D01*
X90058742Y-83081000D01*
X89881258Y-83081000D01*
X89856488Y-83076073D01*
X89707188Y-83046376D01*
X89543216Y-82978456D01*
X89395646Y-82879853D01*
X89270147Y-82754354D01*
X89171544Y-82606784D01*
X89103624Y-82442812D01*
X89069000Y-82268741D01*
X89069000Y-82091259D01*
X89103624Y-81917188D01*
X89171544Y-81753216D01*
X89270147Y-81605646D01*
X89395646Y-81480147D01*
X89543216Y-81381544D01*
X89707188Y-81313624D01*
X89856488Y-81283927D01*
X89881258Y-81279000D01*
X90058742Y-81279000D01*
X90083512Y-81283927D01*
G37*
G36*
X87543512Y-81283927D02*
G01*
X87692812Y-81313624D01*
X87856784Y-81381544D01*
X88004354Y-81480147D01*
X88129853Y-81605646D01*
X88228456Y-81753216D01*
X88296376Y-81917188D01*
X88331000Y-82091259D01*
X88331000Y-82268741D01*
X88296376Y-82442812D01*
X88228456Y-82606784D01*
X88129853Y-82754354D01*
X88004354Y-82879853D01*
X87856784Y-82978456D01*
X87692812Y-83046376D01*
X87543512Y-83076073D01*
X87518742Y-83081000D01*
X87341258Y-83081000D01*
X87316488Y-83076073D01*
X87167188Y-83046376D01*
X87003216Y-82978456D01*
X86855646Y-82879853D01*
X86730147Y-82754354D01*
X86631544Y-82606784D01*
X86563624Y-82442812D01*
X86529000Y-82268741D01*
X86529000Y-82091259D01*
X86563624Y-81917188D01*
X86631544Y-81753216D01*
X86730147Y-81605646D01*
X86855646Y-81480147D01*
X87003216Y-81381544D01*
X87167188Y-81313624D01*
X87316488Y-81283927D01*
X87341258Y-81279000D01*
X87518742Y-81279000D01*
X87543512Y-81283927D01*
G37*
G36*
X85003512Y-81283927D02*
G01*
X85152812Y-81313624D01*
X85316784Y-81381544D01*
X85464354Y-81480147D01*
X85589853Y-81605646D01*
X85688456Y-81753216D01*
X85756376Y-81917188D01*
X85791000Y-82091259D01*
X85791000Y-82268741D01*
X85756376Y-82442812D01*
X85688456Y-82606784D01*
X85589853Y-82754354D01*
X85464354Y-82879853D01*
X85316784Y-82978456D01*
X85152812Y-83046376D01*
X85003512Y-83076073D01*
X84978742Y-83081000D01*
X84801258Y-83081000D01*
X84776488Y-83076073D01*
X84627188Y-83046376D01*
X84463216Y-82978456D01*
X84315646Y-82879853D01*
X84190147Y-82754354D01*
X84091544Y-82606784D01*
X84023624Y-82442812D01*
X83989000Y-82268741D01*
X83989000Y-82091259D01*
X84023624Y-81917188D01*
X84091544Y-81753216D01*
X84190147Y-81605646D01*
X84315646Y-81480147D01*
X84463216Y-81381544D01*
X84627188Y-81313624D01*
X84776488Y-81283927D01*
X84801258Y-81279000D01*
X84978742Y-81279000D01*
X85003512Y-81283927D01*
G37*
G36*
X83251000Y-83081000D02*
G01*
X81449000Y-83081000D01*
X81449000Y-81279000D01*
X83251000Y-81279000D01*
X83251000Y-83081000D01*
G37*
G36*
X79923512Y-81283927D02*
G01*
X80072812Y-81313624D01*
X80236784Y-81381544D01*
X80384354Y-81480147D01*
X80509853Y-81605646D01*
X80608456Y-81753216D01*
X80676376Y-81917188D01*
X80711000Y-82091259D01*
X80711000Y-82268741D01*
X80676376Y-82442812D01*
X80608456Y-82606784D01*
X80509853Y-82754354D01*
X80384354Y-82879853D01*
X80236784Y-82978456D01*
X80072812Y-83046376D01*
X79923512Y-83076073D01*
X79898742Y-83081000D01*
X79721258Y-83081000D01*
X79696488Y-83076073D01*
X79547188Y-83046376D01*
X79383216Y-82978456D01*
X79235646Y-82879853D01*
X79110147Y-82754354D01*
X79011544Y-82606784D01*
X78943624Y-82442812D01*
X78909000Y-82268741D01*
X78909000Y-82091259D01*
X78943624Y-81917188D01*
X79011544Y-81753216D01*
X79110147Y-81605646D01*
X79235646Y-81480147D01*
X79383216Y-81381544D01*
X79547188Y-81313624D01*
X79696488Y-81283927D01*
X79721258Y-81279000D01*
X79898742Y-81279000D01*
X79923512Y-81283927D01*
G37*
G36*
X77383512Y-81283927D02*
G01*
X77532812Y-81313624D01*
X77696784Y-81381544D01*
X77844354Y-81480147D01*
X77969853Y-81605646D01*
X78068456Y-81753216D01*
X78136376Y-81917188D01*
X78171000Y-82091259D01*
X78171000Y-82268741D01*
X78136376Y-82442812D01*
X78068456Y-82606784D01*
X77969853Y-82754354D01*
X77844354Y-82879853D01*
X77696784Y-82978456D01*
X77532812Y-83046376D01*
X77383512Y-83076073D01*
X77358742Y-83081000D01*
X77181258Y-83081000D01*
X77156488Y-83076073D01*
X77007188Y-83046376D01*
X76843216Y-82978456D01*
X76695646Y-82879853D01*
X76570147Y-82754354D01*
X76471544Y-82606784D01*
X76403624Y-82442812D01*
X76369000Y-82268741D01*
X76369000Y-82091259D01*
X76403624Y-81917188D01*
X76471544Y-81753216D01*
X76570147Y-81605646D01*
X76695646Y-81480147D01*
X76843216Y-81381544D01*
X77007188Y-81313624D01*
X77156488Y-81283927D01*
X77181258Y-81279000D01*
X77358742Y-81279000D01*
X77383512Y-81283927D01*
G37*
G36*
X74843512Y-81283927D02*
G01*
X74992812Y-81313624D01*
X75156784Y-81381544D01*
X75304354Y-81480147D01*
X75429853Y-81605646D01*
X75528456Y-81753216D01*
X75596376Y-81917188D01*
X75631000Y-82091259D01*
X75631000Y-82268741D01*
X75596376Y-82442812D01*
X75528456Y-82606784D01*
X75429853Y-82754354D01*
X75304354Y-82879853D01*
X75156784Y-82978456D01*
X74992812Y-83046376D01*
X74843512Y-83076073D01*
X74818742Y-83081000D01*
X74641258Y-83081000D01*
X74616488Y-83076073D01*
X74467188Y-83046376D01*
X74303216Y-82978456D01*
X74155646Y-82879853D01*
X74030147Y-82754354D01*
X73931544Y-82606784D01*
X73863624Y-82442812D01*
X73829000Y-82268741D01*
X73829000Y-82091259D01*
X73863624Y-81917188D01*
X73931544Y-81753216D01*
X74030147Y-81605646D01*
X74155646Y-81480147D01*
X74303216Y-81381544D01*
X74467188Y-81313624D01*
X74616488Y-81283927D01*
X74641258Y-81279000D01*
X74818742Y-81279000D01*
X74843512Y-81283927D01*
G37*
G36*
X72303512Y-81283927D02*
G01*
X72452812Y-81313624D01*
X72616784Y-81381544D01*
X72764354Y-81480147D01*
X72889853Y-81605646D01*
X72988456Y-81753216D01*
X73056376Y-81917188D01*
X73091000Y-82091259D01*
X73091000Y-82268741D01*
X73056376Y-82442812D01*
X72988456Y-82606784D01*
X72889853Y-82754354D01*
X72764354Y-82879853D01*
X72616784Y-82978456D01*
X72452812Y-83046376D01*
X72303512Y-83076073D01*
X72278742Y-83081000D01*
X72101258Y-83081000D01*
X72076488Y-83076073D01*
X71927188Y-83046376D01*
X71763216Y-82978456D01*
X71615646Y-82879853D01*
X71490147Y-82754354D01*
X71391544Y-82606784D01*
X71323624Y-82442812D01*
X71289000Y-82268741D01*
X71289000Y-82091259D01*
X71323624Y-81917188D01*
X71391544Y-81753216D01*
X71490147Y-81605646D01*
X71615646Y-81480147D01*
X71763216Y-81381544D01*
X71927188Y-81313624D01*
X72076488Y-81283927D01*
X72101258Y-81279000D01*
X72278742Y-81279000D01*
X72303512Y-81283927D01*
G37*
G36*
X70551000Y-83081000D02*
G01*
X68749000Y-83081000D01*
X68749000Y-81279000D01*
X70551000Y-81279000D01*
X70551000Y-83081000D01*
G37*
G36*
X67223512Y-81283927D02*
G01*
X67372812Y-81313624D01*
X67536784Y-81381544D01*
X67684354Y-81480147D01*
X67809853Y-81605646D01*
X67908456Y-81753216D01*
X67976376Y-81917188D01*
X68011000Y-82091259D01*
X68011000Y-82268741D01*
X67976376Y-82442812D01*
X67908456Y-82606784D01*
X67809853Y-82754354D01*
X67684354Y-82879853D01*
X67536784Y-82978456D01*
X67372812Y-83046376D01*
X67223512Y-83076073D01*
X67198742Y-83081000D01*
X67021258Y-83081000D01*
X66996488Y-83076073D01*
X66847188Y-83046376D01*
X66683216Y-82978456D01*
X66535646Y-82879853D01*
X66410147Y-82754354D01*
X66311544Y-82606784D01*
X66243624Y-82442812D01*
X66209000Y-82268741D01*
X66209000Y-82091259D01*
X66243624Y-81917188D01*
X66311544Y-81753216D01*
X66410147Y-81605646D01*
X66535646Y-81480147D01*
X66683216Y-81381544D01*
X66847188Y-81313624D01*
X66996488Y-81283927D01*
X67021258Y-81279000D01*
X67198742Y-81279000D01*
X67223512Y-81283927D01*
G37*
G36*
X112943512Y-81283927D02*
G01*
X113092812Y-81313624D01*
X113256784Y-81381544D01*
X113404354Y-81480147D01*
X113529853Y-81605646D01*
X113628456Y-81753216D01*
X113696376Y-81917188D01*
X113731000Y-82091259D01*
X113731000Y-82268741D01*
X113696376Y-82442812D01*
X113628456Y-82606784D01*
X113529853Y-82754354D01*
X113404354Y-82879853D01*
X113256784Y-82978456D01*
X113092812Y-83046376D01*
X112943512Y-83076073D01*
X112918742Y-83081000D01*
X112741258Y-83081000D01*
X112716488Y-83076073D01*
X112567188Y-83046376D01*
X112403216Y-82978456D01*
X112255646Y-82879853D01*
X112130147Y-82754354D01*
X112031544Y-82606784D01*
X111963624Y-82442812D01*
X111929000Y-82268741D01*
X111929000Y-82091259D01*
X111963624Y-81917188D01*
X112031544Y-81753216D01*
X112130147Y-81605646D01*
X112255646Y-81480147D01*
X112403216Y-81381544D01*
X112567188Y-81313624D01*
X112716488Y-81283927D01*
X112741258Y-81279000D01*
X112918742Y-81279000D01*
X112943512Y-81283927D01*
G37*
M02*
