M48
; DRILL file {KiCad (5.1.6-0-10_14)} date Wednesday, February 23, 2022 at 06:14:56 PM
; FORMAT={-:-/ absolute / metric / decimal}
; #@! TF.CreationDate,2022-02-23T18:14:56+09:00
; #@! TF.GenerationSoftware,Kicad,Pcbnew,(5.1.6-0-10_14)
; #@! TF.FileFunction,Plated,1,2,PTH
FMAT,2
METRIC
T1C0.400
T2C0.813
T3C1.000
T4C1.020
T5C1.300
%
G90
G05
T1
X-7.36Y-63.97
X-3.54Y-44.89
X5.59Y31.08
X6.59Y-8.16
X6.76Y9.465
X7.88Y20.63
X9.01Y-27.57
X9.83Y-45.85
X10.5Y6.45
X10.56Y8.68
X11.46Y22.29
X12.17Y-45.8
X12.37Y-27.53
X12.45Y-8.16
X15.37Y15.27
X15.82Y9.51
X16.46Y22.29
X21.87Y20.32
X25.42Y-27.56
X27.86Y10.15
X27.87Y5.46
X29.13Y-8.12
X30.06Y-45.85
X32.43Y-27.72
X32.9Y-45.85
X33.05Y-8.16
X33.19Y9.03
X45.93Y-27.44
X46.39Y-8.19
X47.75Y-45.97
X50.24Y-27.34
X50.42Y-45.97
X50.92Y-8.14
X65.11Y-7.87
X65.75Y-45.96
X66.05Y-27.34
X71.22Y-45.96
X71.28Y-27.54
X71.29Y-8.04
T2
X65.17Y-36.71
X65.17Y-44.33
X46.15Y-36.7
X46.15Y-44.32
X-4.678Y27.871
X-4.678Y12.651
X-2.138Y27.871
X-2.138Y12.651
X0.402Y27.871
X0.402Y12.651
X2.942Y27.871
X2.942Y12.651
X5.482Y27.871
X5.482Y12.651
X8.022Y27.871
X8.022Y12.651
X10.562Y27.871
X10.562Y12.651
X13.102Y27.871
X13.102Y12.651
X15.642Y27.871
X15.642Y12.651
X18.182Y27.871
X18.182Y12.651
X20.722Y27.871
X20.722Y12.651
X23.262Y27.871
X23.262Y12.651
X8.07Y-17.62
X8.07Y-25.24
X46.16Y-55.65
X46.16Y-63.27
X27.09Y-17.62
X27.09Y-25.24
X65.21Y-55.68
X65.21Y-63.3
X46.14Y-17.66
X46.14Y-25.28
X8.03Y-36.65
X8.03Y-44.27
X84.22Y-36.69
X84.22Y-44.31
X8.11Y1.45
X8.11Y-6.17
X84.29Y-55.78
X84.29Y-63.4
X65.22Y-17.61
X65.22Y-25.23
X46.12Y1.36
X46.12Y-6.26
X27.06Y-36.64
X27.06Y-44.26
X8.05Y-55.74
X8.05Y-63.36
X27.16Y1.41
X27.16Y-6.21
X27.15Y-55.72
X27.15Y-63.34
X84.3Y1.42
X84.3Y-6.2
X84.2Y-17.69
X84.2Y-25.31
X65.23Y1.48
X65.23Y-6.14
T4
X36.94Y29.66
X36.94Y11.88
X37.17Y23.31
X37.17Y20.77
X37.17Y18.23
X39.48Y29.66
X39.48Y11.88
X42.02Y29.66
X42.02Y11.88
X44.56Y29.66
X44.56Y11.88
X47.1Y29.66
X47.1Y11.88
X49.64Y29.66
X49.64Y11.88
X52.18Y29.66
X52.18Y11.88
X54.72Y29.66
X54.72Y11.88
X57.26Y29.66
X57.26Y11.88
X59.8Y29.66
X59.8Y11.88
X62.34Y29.66
X62.34Y11.88
X64.88Y29.66
X64.88Y11.88
X67.42Y29.66
X67.42Y11.88
X69.96Y29.66
X69.96Y11.88
X72.5Y29.66
X72.5Y11.88
X75.04Y29.66
X75.04Y11.88
X77.58Y29.66
X77.58Y11.88
X80.12Y29.66
X80.12Y11.88
X82.66Y29.66
X82.66Y11.88
X85.2Y29.66
X85.2Y11.88
T5
X26.68Y15.58
X33.18Y15.58
T3
G00X27.39Y20.48
M15
G01X27.39Y19.98
M16
G05
G00X31.59Y28.98
M15
G01X31.59Y28.48
M16
G05
G00X31.59Y25.98
M15
G01X31.59Y25.48
M16
G05
G00X31.59Y21.98
M15
G01X31.59Y21.48
M16
G05
T0
M30
