G04 #@! TF.GenerationSoftware,KiCad,Pcbnew,(5.1.6-0-10_14)*
G04 #@! TF.CreationDate,2022-08-29T11:05:28+09:00*
G04 #@! TF.ProjectId,cool640xiao,636f6f6c-3634-4307-9869-616f2e6b6963,rev?*
G04 #@! TF.SameCoordinates,Original*
G04 #@! TF.FileFunction,Copper,L2,Bot*
G04 #@! TF.FilePolarity,Positive*
%FSLAX46Y46*%
G04 Gerber Fmt 4.6, Leading zero omitted, Abs format (unit mm)*
G04 Created by KiCad (PCBNEW (5.1.6-0-10_14)) date 2022-08-29 11:05:28*
%MOMM*%
%LPD*%
G01*
G04 APERTURE LIST*
G04 #@! TA.AperFunction,ComponentPad*
%ADD10C,1.397000*%
G04 #@! TD*
G04 #@! TA.AperFunction,ComponentPad*
%ADD11R,1.397000X1.397000*%
G04 #@! TD*
G04 #@! TA.AperFunction,SMDPad,CuDef*
%ADD12R,0.950000X1.300000*%
G04 #@! TD*
G04 #@! TA.AperFunction,ComponentPad*
%ADD13O,1.700000X2.500000*%
G04 #@! TD*
G04 #@! TA.AperFunction,SMDPad,CuDef*
%ADD14R,2.000000X2.000000*%
G04 #@! TD*
G04 #@! TA.AperFunction,SMDPad,CuDef*
%ADD15R,1.900000X2.000000*%
G04 #@! TD*
G04 #@! TA.AperFunction,ComponentPad*
%ADD16R,1.500000X1.500000*%
G04 #@! TD*
G04 #@! TA.AperFunction,ComponentPad*
%ADD17C,2.000000*%
G04 #@! TD*
G04 #@! TA.AperFunction,ComponentPad*
%ADD18C,2.800000*%
G04 #@! TD*
G04 #@! TA.AperFunction,ComponentPad*
%ADD19O,4.000000X2.000000*%
G04 #@! TD*
G04 #@! TA.AperFunction,SMDPad,CuDef*
%ADD20R,1.300000X0.950000*%
G04 #@! TD*
G04 #@! TA.AperFunction,ViaPad*
%ADD21C,0.800000*%
G04 #@! TD*
G04 #@! TA.AperFunction,Conductor*
%ADD22C,0.250000*%
G04 #@! TD*
G04 APERTURE END LIST*
D10*
X46120000Y-1020000D03*
D11*
X46120000Y-8640000D03*
D12*
X46120000Y-6605000D03*
X46120000Y-3055000D03*
D10*
X84290000Y9560000D03*
D11*
X84290000Y1940000D03*
D12*
X84290000Y3975000D03*
X84290000Y7525000D03*
D13*
X-2460000Y20350000D03*
X1740000Y21850000D03*
X1740000Y25850000D03*
X1740000Y28850000D03*
D14*
X49050000Y-22750000D03*
D15*
X59950000Y-24950000D03*
D14*
X50250000Y-16510000D03*
X62750000Y-13970000D03*
X30000000Y-22750000D03*
D15*
X40900000Y-24950000D03*
D14*
X31200000Y-16510000D03*
X43700000Y-13970000D03*
X10950000Y-22750000D03*
D15*
X21850000Y-24950000D03*
D14*
X12150000Y-16510000D03*
X24650000Y-13970000D03*
D10*
X84290000Y-55780000D03*
D11*
X84290000Y-63400000D03*
D12*
X84290000Y-61365000D03*
X84290000Y-57815000D03*
D14*
X30000000Y-41800000D03*
D15*
X40900000Y-44000000D03*
D14*
X31200000Y-35560000D03*
X43700000Y-33020000D03*
X10950000Y-41800000D03*
D15*
X21850000Y-44000000D03*
D14*
X12150000Y-35560000D03*
X24650000Y-33020000D03*
X49050000Y-41800000D03*
D15*
X59950000Y-44000000D03*
D14*
X50250000Y-35560000D03*
X62750000Y-33020000D03*
D10*
X27160000Y1410000D03*
D11*
X27160000Y-6210000D03*
D12*
X27160000Y-4175000D03*
X27160000Y-625000D03*
D10*
X8110000Y1450000D03*
D11*
X8110000Y-6170000D03*
D12*
X8110000Y-4135000D03*
X8110000Y-585000D03*
D10*
X65230000Y1480000D03*
D11*
X65230000Y-6140000D03*
D12*
X65230000Y-4105000D03*
X65230000Y-555000D03*
D10*
X84210000Y-12350000D03*
D11*
X84210000Y-19970000D03*
D12*
X84210000Y-17935000D03*
X84210000Y-14385000D03*
D10*
X65220000Y-17610000D03*
D11*
X65220000Y-25230000D03*
D12*
X65220000Y-23195000D03*
X65220000Y-19645000D03*
D10*
X46140000Y-17660000D03*
D11*
X46140000Y-25280000D03*
D12*
X46140000Y-23245000D03*
X46140000Y-19695000D03*
D10*
X27090000Y-17620000D03*
D11*
X27090000Y-25240000D03*
D12*
X27090000Y-23205000D03*
X27090000Y-19655000D03*
D10*
X8070000Y-17620000D03*
D11*
X8070000Y-25240000D03*
D12*
X8070000Y-23205000D03*
X8070000Y-19655000D03*
D14*
X49050000Y-3700000D03*
D15*
X59950000Y-5900000D03*
D14*
X50250000Y2540000D03*
X62750000Y5080000D03*
X30000000Y-3700000D03*
D15*
X40900000Y-5900000D03*
D14*
X31200000Y2540000D03*
X43700000Y5080000D03*
X10950000Y-3700000D03*
D15*
X21850000Y-5900000D03*
D14*
X12150000Y2540000D03*
X24650000Y5080000D03*
D10*
X65210000Y-55680000D03*
D11*
X65210000Y-63300000D03*
D12*
X65210000Y-61265000D03*
X65210000Y-57715000D03*
D10*
X46160000Y-55650000D03*
D11*
X46160000Y-63270000D03*
D12*
X46160000Y-61235000D03*
X46160000Y-57685000D03*
D10*
X27150000Y-55720000D03*
D11*
X27150000Y-63340000D03*
D12*
X27150000Y-61305000D03*
X27150000Y-57755000D03*
D10*
X8050000Y-55740000D03*
D11*
X8050000Y-63360000D03*
D12*
X8050000Y-61325000D03*
X8050000Y-57775000D03*
D10*
X84210000Y-33780000D03*
D11*
X84210000Y-41400000D03*
D12*
X84210000Y-39365000D03*
X84210000Y-35815000D03*
D10*
X65170000Y-36710000D03*
D11*
X65170000Y-44330000D03*
D12*
X65170000Y-42295000D03*
X65170000Y-38745000D03*
D10*
X46150000Y-36700000D03*
D11*
X46150000Y-44320000D03*
D12*
X46150000Y-42285000D03*
X46150000Y-38735000D03*
D10*
X27060000Y-36640000D03*
D11*
X27060000Y-44260000D03*
D12*
X27060000Y-42225000D03*
X27060000Y-38675000D03*
D10*
X8030000Y-36650000D03*
D11*
X8030000Y-44270000D03*
D12*
X8030000Y-42235000D03*
X8030000Y-38685000D03*
D13*
X78490000Y28860000D03*
X78490000Y25860000D03*
X78490000Y21860000D03*
X74290000Y20360000D03*
D14*
X68100000Y-22750000D03*
D15*
X79000000Y-24950000D03*
D14*
X69300000Y-16510000D03*
X81800000Y-13970000D03*
X-8100000Y-41800000D03*
D15*
X2800000Y-44000000D03*
D14*
X-6900000Y-35560000D03*
X5600000Y-33020000D03*
X10950000Y-60850000D03*
D15*
X21850000Y-63050000D03*
D14*
X12150000Y-54610000D03*
X24650000Y-52070000D03*
X68100000Y-60850000D03*
D15*
X79000000Y-63050000D03*
D14*
X69300000Y-54610000D03*
X81800000Y-52070000D03*
X49050000Y-60850000D03*
D15*
X59950000Y-63050000D03*
D14*
X50250000Y-54610000D03*
X62750000Y-52070000D03*
X-8100000Y-60850000D03*
D15*
X2800000Y-63050000D03*
D14*
X-6900000Y-54610000D03*
X5600000Y-52070000D03*
X68100000Y-41800000D03*
D15*
X79000000Y-44000000D03*
D14*
X69300000Y-35560000D03*
X81800000Y-33020000D03*
X68100000Y-3700000D03*
D15*
X79000000Y-5900000D03*
D14*
X69300000Y2540000D03*
X81800000Y5080000D03*
X-8100000Y-3700000D03*
D15*
X2800000Y-5900000D03*
D14*
X-6900000Y2540000D03*
X5600000Y5080000D03*
X-8100000Y-22750000D03*
D15*
X2800000Y-24950000D03*
D14*
X-6900000Y-16510000D03*
X5600000Y-13970000D03*
X30000000Y-60850000D03*
D15*
X40900000Y-63050000D03*
D14*
X31200000Y-54610000D03*
X43700000Y-52070000D03*
D16*
X6400000Y24640000D03*
D17*
X6400000Y22140000D03*
X6400000Y19640000D03*
D18*
X13900000Y27740000D03*
X13900000Y16540000D03*
D17*
X20900000Y24640000D03*
X20900000Y19640000D03*
X69150000Y19640000D03*
X69150000Y24640000D03*
D18*
X62150000Y16540000D03*
X62150000Y27740000D03*
D17*
X54650000Y19640000D03*
X54650000Y22140000D03*
D16*
X54650000Y24640000D03*
D19*
X45580000Y23450000D03*
X45580000Y20910000D03*
X45580000Y18370000D03*
X45580000Y15830000D03*
X45580000Y13290000D03*
X30340000Y13290000D03*
X30340000Y15830000D03*
X30340000Y18370000D03*
X30340000Y20910000D03*
X30340000Y23450000D03*
X45580000Y25990000D03*
X30340000Y25990000D03*
X45580000Y28530000D03*
X30340000Y28530000D03*
D20*
X15565000Y12550000D03*
X12015000Y12550000D03*
D11*
X9980000Y12550000D03*
D10*
X17600000Y12550000D03*
X65650000Y12560000D03*
D11*
X58030000Y12560000D03*
D20*
X60065000Y12560000D03*
X63615000Y12560000D03*
D10*
X-5130000Y22260000D03*
X-5130000Y19720000D03*
X-5130000Y17180000D03*
X81200000Y17180000D03*
X81200000Y19720000D03*
X81200000Y22260000D03*
X46210000Y9890000D03*
D11*
X46210000Y2270000D03*
D12*
X46210000Y4305000D03*
X46210000Y7855000D03*
X84380000Y-3495000D03*
X84380000Y-7045000D03*
D11*
X84380000Y-9080000D03*
D10*
X84380000Y-1460000D03*
X84210000Y-23200000D03*
D11*
X84210000Y-30820000D03*
D12*
X84210000Y-28785000D03*
X84210000Y-25235000D03*
X84260000Y-46815000D03*
X84260000Y-50365000D03*
D11*
X84260000Y-52400000D03*
D10*
X84260000Y-44780000D03*
D20*
X15595000Y10270000D03*
X12045000Y10270000D03*
D11*
X10010000Y10270000D03*
D10*
X17630000Y10270000D03*
D21*
X28490000Y4810000D03*
X30685001Y-52784999D03*
X-8370000Y-30280000D03*
X12190000Y-30260000D03*
X71880000Y19090000D03*
X30110000Y-44290000D03*
X16610000Y7660000D03*
X10980000Y-12210000D03*
X47650000Y-10840000D03*
D22*
X7840000Y-5900000D02*
X8110000Y-6170000D01*
X2800000Y-5900000D02*
X7840000Y-5900000D01*
X8110000Y-6170000D02*
X8110000Y-4135000D01*
X5600000Y5080000D02*
X5600000Y2280000D01*
X7309999Y570001D02*
X7309999Y-5369999D01*
X7309999Y-5369999D02*
X8110000Y-6170000D01*
X5600000Y2280000D02*
X7309999Y570001D01*
X26850000Y-5900000D02*
X27160000Y-6210000D01*
X21850000Y-5900000D02*
X26850000Y-5900000D01*
X27160000Y-6210000D02*
X27160000Y-4175000D01*
X24650000Y5080000D02*
X24650000Y2140000D01*
X26359999Y-5409999D02*
X27160000Y-6210000D01*
X26359999Y430001D02*
X26359999Y-5409999D01*
X24650000Y2140000D02*
X26359999Y430001D01*
X43380000Y-5900000D02*
X46120000Y-8640000D01*
X40900000Y-5900000D02*
X43380000Y-5900000D01*
X46120000Y-6605000D02*
X46120000Y-8640000D01*
X44875001Y-7395001D02*
X46120000Y-8640000D01*
X44875001Y3904999D02*
X44875001Y-7395001D01*
X43700000Y5080000D02*
X44875001Y3904999D01*
X64990000Y-5900000D02*
X65230000Y-6140000D01*
X59950000Y-5900000D02*
X64990000Y-5900000D01*
X65230000Y-4105000D02*
X65230000Y-6140000D01*
X62750000Y5080000D02*
X62750000Y2190000D01*
X63925001Y-4835001D02*
X65230000Y-6140000D01*
X63925001Y1014999D02*
X63925001Y-4835001D01*
X62750000Y2190000D02*
X63925001Y1014999D01*
X84290000Y640000D02*
X84290000Y1940000D01*
X79000000Y-4650000D02*
X84290000Y640000D01*
X79000000Y-5900000D02*
X79000000Y-4650000D01*
X84290000Y1940000D02*
X84290000Y3975000D01*
X81800000Y4430000D02*
X84290000Y1940000D01*
X81800000Y5080000D02*
X81800000Y4430000D01*
X7780000Y-24950000D02*
X8070000Y-25240000D01*
X2800000Y-24950000D02*
X7780000Y-24950000D01*
X8070000Y-25240000D02*
X8070000Y-23205000D01*
X5600000Y-13970000D02*
X5600000Y-16980000D01*
X6775001Y-23945001D02*
X8070000Y-25240000D01*
X6775001Y-18155001D02*
X6775001Y-23945001D01*
X5600000Y-16980000D02*
X6775001Y-18155001D01*
X26800000Y-24950000D02*
X27090000Y-25240000D01*
X21850000Y-24950000D02*
X26800000Y-24950000D01*
X27090000Y-23205000D02*
X27090000Y-25240000D01*
X24650000Y-13970000D02*
X24650000Y-16540000D01*
X25825001Y-23975001D02*
X27090000Y-25240000D01*
X25825001Y-17715001D02*
X25825001Y-23975001D01*
X24650000Y-16540000D02*
X25825001Y-17715001D01*
X46140000Y-23245000D02*
X46140000Y-25280000D01*
X41230000Y-25280000D02*
X40900000Y-24950000D01*
X46140000Y-25280000D02*
X41230000Y-25280000D01*
X43700000Y-13970000D02*
X43700000Y-17220000D01*
X45339999Y-24479999D02*
X46140000Y-25280000D01*
X45339999Y-18859999D02*
X45339999Y-24479999D01*
X43700000Y-17220000D02*
X45339999Y-18859999D01*
X63925001Y-23935001D02*
X65220000Y-25230000D01*
X63925001Y-15145001D02*
X63925001Y-23935001D01*
X62750000Y-13970000D02*
X63925001Y-15145001D01*
X65220000Y-25230000D02*
X65220000Y-23195000D01*
X64940000Y-24950000D02*
X65220000Y-25230000D01*
X59950000Y-24950000D02*
X64940000Y-24950000D01*
X84210000Y-17935000D02*
X84210000Y-19970000D01*
X83980000Y-19970000D02*
X79000000Y-24950000D01*
X84210000Y-19970000D02*
X83980000Y-19970000D01*
X81800000Y-13970000D02*
X83350000Y-15520000D01*
X83350000Y-19110000D02*
X84210000Y-19970000D01*
X83350000Y-15520000D02*
X83350000Y-19110000D01*
X7760000Y-44000000D02*
X8030000Y-44270000D01*
X2800000Y-44000000D02*
X7760000Y-44000000D01*
X8030000Y-44270000D02*
X8030000Y-42235000D01*
X5600000Y-33020000D02*
X5600000Y-36010000D01*
X6775001Y-43015001D02*
X8030000Y-44270000D01*
X6775001Y-37185001D02*
X6775001Y-43015001D01*
X5600000Y-36010000D02*
X6775001Y-37185001D01*
X24650000Y-33020000D02*
X24650000Y-36370000D01*
X26259999Y-43459999D02*
X27060000Y-44260000D01*
X26259999Y-37979999D02*
X26259999Y-43459999D01*
X24650000Y-36370000D02*
X26259999Y-37979999D01*
X27060000Y-44260000D02*
X27060000Y-42225000D01*
X26800000Y-44000000D02*
X27060000Y-44260000D01*
X21850000Y-44000000D02*
X26800000Y-44000000D01*
X45830000Y-44000000D02*
X46150000Y-44320000D01*
X40900000Y-44000000D02*
X45830000Y-44000000D01*
X46150000Y-44320000D02*
X46150000Y-42285000D01*
X43700000Y-33020000D02*
X43700000Y-36150000D01*
X44875001Y-37325001D02*
X44875001Y-43045001D01*
X44875001Y-43045001D02*
X46150000Y-44320000D01*
X43700000Y-36150000D02*
X44875001Y-37325001D01*
X62750000Y-33020000D02*
X62750000Y-36180000D01*
X64369999Y-43529999D02*
X65170000Y-44330000D01*
X64369999Y-37799999D02*
X64369999Y-43529999D01*
X62750000Y-36180000D02*
X64369999Y-37799999D01*
X65170000Y-44330000D02*
X65170000Y-42295000D01*
X64840000Y-44000000D02*
X65170000Y-44330000D01*
X59950000Y-44000000D02*
X64840000Y-44000000D01*
X81610000Y-44000000D02*
X84210000Y-41400000D01*
X79000000Y-44000000D02*
X81610000Y-44000000D01*
X84210000Y-41400000D02*
X84210000Y-39365000D01*
X82975001Y-40165001D02*
X84210000Y-41400000D01*
X82975001Y-34195001D02*
X82975001Y-40165001D01*
X81800000Y-33020000D02*
X82975001Y-34195001D01*
X7740000Y-63050000D02*
X8050000Y-63360000D01*
X2800000Y-63050000D02*
X7740000Y-63050000D01*
X5600000Y-52070000D02*
X5600000Y-54510000D01*
X5600000Y-54510000D02*
X5580000Y-54530000D01*
X6775001Y-55725001D02*
X6775001Y-62085001D01*
X6775001Y-62085001D02*
X8050000Y-63360000D01*
X5580000Y-54530000D02*
X6775001Y-55725001D01*
X8050000Y-63360000D02*
X8050000Y-61325000D01*
X24650000Y-52070000D02*
X24650000Y-55040000D01*
X26349999Y-62539999D02*
X27150000Y-63340000D01*
X26349999Y-56739999D02*
X26349999Y-62539999D01*
X24650000Y-55040000D02*
X26349999Y-56739999D01*
X27150000Y-63340000D02*
X27150000Y-61305000D01*
X22140000Y-63340000D02*
X21850000Y-63050000D01*
X27150000Y-63340000D02*
X22140000Y-63340000D01*
X45359999Y-62469999D02*
X46160000Y-63270000D01*
X45359999Y-57029999D02*
X45359999Y-62469999D01*
X43700000Y-55370000D02*
X45359999Y-57029999D01*
X43700000Y-52070000D02*
X43700000Y-55370000D01*
X46160000Y-63270000D02*
X46160000Y-61235000D01*
X45940000Y-63050000D02*
X46160000Y-63270000D01*
X40900000Y-63050000D02*
X45940000Y-63050000D01*
X65210000Y-61265000D02*
X65210000Y-63300000D01*
X63925001Y-62015001D02*
X65210000Y-63300000D01*
X63925001Y-55665001D02*
X63925001Y-62015001D01*
X62750000Y-54490000D02*
X63925001Y-55665001D01*
X62750000Y-52070000D02*
X62750000Y-54490000D01*
X60200000Y-63300000D02*
X59950000Y-63050000D01*
X65210000Y-63300000D02*
X60200000Y-63300000D01*
X83940000Y-63050000D02*
X84290000Y-63400000D01*
X79000000Y-63050000D02*
X83940000Y-63050000D01*
X84290000Y-63400000D02*
X84290000Y-61365000D01*
X83489999Y-62599999D02*
X84290000Y-63400000D01*
X83489999Y-57052997D02*
X83489999Y-62599999D01*
X81800000Y-55362998D02*
X83489999Y-57052997D01*
X81800000Y-52070000D02*
X81800000Y-55362998D01*
X8110000Y1450000D02*
X8110000Y-585000D01*
X46120000Y-3055000D02*
X46120000Y-1020000D01*
X65230000Y1480000D02*
X65230000Y-555000D01*
X84290000Y9560000D02*
X84290000Y7525000D01*
X27160000Y1410000D02*
X27160000Y-625000D01*
X46210000Y9890000D02*
X46210000Y7855000D01*
X84210000Y-12350000D02*
X84210000Y-14385000D01*
X65220000Y-17610000D02*
X65220000Y-19645000D01*
X46140000Y-17660000D02*
X46140000Y-19695000D01*
X27090000Y-17620000D02*
X27090000Y-19655000D01*
X8070000Y-17620000D02*
X8070000Y-19655000D01*
X84380000Y-1460000D02*
X84380000Y-3495000D01*
X83356499Y-2483501D02*
X84380000Y-1460000D01*
X83356499Y-11496499D02*
X83356499Y-2483501D01*
X84210000Y-12350000D02*
X83356499Y-11496499D01*
X30340000Y18370000D02*
X27910000Y18370000D01*
X25820010Y16280010D02*
X16940010Y16280010D01*
X27910000Y18370000D02*
X25820010Y16280010D01*
X16940010Y16280010D02*
X14440000Y13780000D01*
X14440000Y13771412D02*
X14139989Y13471401D01*
X14440000Y13780000D02*
X14440000Y13771412D01*
X14139989Y13471401D02*
X14139989Y7751401D01*
X14139989Y7751401D02*
X10272489Y3883901D01*
X10272489Y3883901D02*
X10272489Y-350000D01*
X10272489Y-350000D02*
X9174989Y-1447500D01*
X9174989Y-1447500D02*
X9174990Y-5531400D01*
X9174990Y-5531400D02*
X11209990Y-7566400D01*
X11209991Y-7606401D02*
X12589980Y-8986390D01*
X11209990Y-7566400D02*
X11209991Y-7606401D01*
X12589980Y-8986390D02*
X12589980Y-11787200D01*
X8070000Y-16307180D02*
X8070000Y-17620000D01*
X12589980Y-11787200D02*
X8070000Y-16307180D01*
X8030000Y-36650000D02*
X8030000Y-38685000D01*
X27060000Y-38675000D02*
X27060000Y-36640000D01*
X46150000Y-38735000D02*
X46150000Y-36700000D01*
X65170000Y-36710000D02*
X65170000Y-38745000D01*
X84210000Y-35815000D02*
X84210000Y-33780000D01*
X84210000Y-23200000D02*
X84210000Y-25235000D01*
X83186499Y-24223501D02*
X84210000Y-23200000D01*
X83186499Y-32756499D02*
X83186499Y-24223501D01*
X84210000Y-33780000D02*
X83186499Y-32756499D01*
X18140000Y15830000D02*
X30340000Y15830000D01*
X17126410Y15830000D02*
X18140000Y15830000D01*
X14589999Y13285001D02*
X14890009Y13585011D01*
X14589999Y7565001D02*
X14589999Y13285001D01*
X10722499Y3697501D02*
X14589999Y7565001D01*
X14890009Y13585011D02*
X14890009Y13593599D01*
X10722499Y-917501D02*
X10722499Y3697501D01*
X13039990Y-8799990D02*
X11660000Y-7420000D01*
X9624999Y-5344999D02*
X9624999Y-1985001D01*
X8030000Y-36650000D02*
X8030000Y-33210000D01*
X11660000Y-7420000D02*
X11660000Y-7380000D01*
X9654999Y-1985001D02*
X10722499Y-917501D01*
X9624999Y-15388591D02*
X13039990Y-11973600D01*
X14890009Y13593599D02*
X17126410Y15830000D01*
X9624999Y-31615001D02*
X9624999Y-15388591D01*
X8030000Y-33210000D02*
X9624999Y-31615001D01*
X13039990Y-11973600D02*
X13039990Y-8799990D01*
X9624999Y-1985001D02*
X9654999Y-1985001D01*
X11660000Y-7380000D02*
X9624999Y-5344999D01*
X84290000Y-57815000D02*
X84290000Y-55780000D01*
X65210000Y-55680000D02*
X65210000Y-57715000D01*
X46160000Y-55650000D02*
X46160000Y-57685000D01*
X27150000Y-55720000D02*
X27150000Y-57755000D01*
X8050000Y-57775000D02*
X8050000Y-55740000D01*
X85769980Y-46289980D02*
X84260000Y-44780000D01*
X85769980Y-54300020D02*
X85769980Y-46289980D01*
X84290000Y-55780000D02*
X85769980Y-54300020D01*
X84260000Y-44780000D02*
X84260000Y-46815000D01*
X28490000Y4810000D02*
X28490000Y-23825002D01*
X28490000Y-23825002D02*
X28490000Y-33110000D01*
X28490000Y-33110000D02*
X28490000Y-33638588D01*
X28670010Y-36098818D02*
X28670010Y-50770008D01*
X28670010Y-50770008D02*
X30685001Y-52784999D01*
X28490000Y-35918808D02*
X28670010Y-36098818D01*
X28490000Y-33110000D02*
X28490000Y-35918808D01*
X-5130000Y20249002D02*
X470998Y25850000D01*
X470998Y25850000D02*
X1740000Y25850000D01*
X-5130000Y19720000D02*
X-5130000Y20249002D01*
X2690000Y25850000D02*
X6400000Y22140000D01*
X1740000Y25850000D02*
X2690000Y25850000D01*
X80176499Y20743501D02*
X80176499Y24173501D01*
X80176499Y24173501D02*
X78490000Y25860000D01*
X81200000Y19720000D02*
X80176499Y20743501D01*
X54650000Y22140000D02*
X54650000Y22230000D01*
X1460000Y28850000D02*
X1740000Y28850000D01*
X-5130000Y22260000D02*
X1460000Y28850000D01*
X13071999Y29465001D02*
X29404999Y29465001D01*
X12456998Y28850000D02*
X13071999Y29465001D01*
X29404999Y29465001D02*
X30340000Y28530000D01*
X1740000Y28850000D02*
X12456998Y28850000D01*
X31665010Y29855010D02*
X75825988Y29855010D01*
X30340000Y28530000D02*
X31665010Y29855010D01*
X80626509Y26723491D02*
X78490000Y28860000D01*
X80626509Y22993491D02*
X80626509Y26723491D01*
X81200000Y22420000D02*
X80626509Y22993491D01*
X81200000Y22260000D02*
X81200000Y22420000D01*
X76820998Y28860000D02*
X75825988Y29855010D01*
X78490000Y28860000D02*
X76820998Y28860000D01*
X-5130000Y17180000D02*
X-1940000Y17180000D01*
X1740000Y20860000D02*
X1740000Y21850000D01*
X-1940000Y17180000D02*
X1740000Y20860000D01*
X78490000Y19890000D02*
X81200000Y17180000D01*
X78490000Y21860000D02*
X78490000Y19890000D01*
X78414990Y21935010D02*
X60934990Y21935010D01*
X78490000Y21860000D02*
X78414990Y21935010D01*
X54340000Y28530000D02*
X45580000Y28530000D01*
X60934990Y21935010D02*
X54340000Y28530000D01*
X15565000Y12550000D02*
X17600000Y12550000D01*
X63615000Y12560000D02*
X65650000Y12560000D01*
X15595000Y10270000D02*
X17630000Y10270000D01*
X17630000Y12520000D02*
X17600000Y12550000D01*
X17630000Y10270000D02*
X17630000Y12520000D01*
X17600000Y12550000D02*
X19560000Y10590000D01*
X19560000Y10590000D02*
X41930000Y10590000D01*
X44630000Y13290000D02*
X45580000Y13290000D01*
X41930000Y10590000D02*
X44630000Y13290000D01*
X69300000Y-2500000D02*
X68100000Y-3700000D01*
X69300000Y2540000D02*
X69300000Y-2500000D01*
X69300000Y-21550000D02*
X68100000Y-22750000D01*
X69300000Y-16510000D02*
X69300000Y-21550000D01*
X69300000Y-40600000D02*
X68100000Y-41800000D01*
X69300000Y-35560000D02*
X69300000Y-40600000D01*
X69300000Y-59650000D02*
X68100000Y-60850000D01*
X69300000Y-54610000D02*
X69300000Y-59650000D01*
X68100000Y-41800000D02*
X68100000Y-44520000D01*
X68100000Y-44520000D02*
X69920000Y-46340000D01*
X69920000Y-53990000D02*
X69300000Y-54610000D01*
X69920000Y-46340000D02*
X69920000Y-53990000D01*
X68100000Y-22750000D02*
X68100000Y-25410000D01*
X69300000Y-26610000D02*
X69300000Y-35560000D01*
X68100000Y-25410000D02*
X69300000Y-26610000D01*
X68100000Y-3700000D02*
X68100000Y-5330000D01*
X68100000Y-5330000D02*
X70220000Y-7450000D01*
X70220000Y-15590000D02*
X69300000Y-16510000D01*
X70220000Y-7450000D02*
X70220000Y-15590000D01*
X48100000Y15830000D02*
X45580000Y15830000D01*
X51020000Y10190000D02*
X51020000Y14770000D01*
X49960000Y15830000D02*
X48100000Y15830000D01*
X66860000Y8820000D02*
X52390000Y8820000D01*
X51020000Y14770000D02*
X49960000Y15830000D01*
X52390000Y8820000D02*
X51020000Y10190000D01*
X69300000Y6380000D02*
X66860000Y8820000D01*
X69300000Y2540000D02*
X69300000Y6380000D01*
X7725001Y25965001D02*
X18895001Y25965001D01*
X6400000Y24640000D02*
X7725001Y25965001D01*
X18895001Y25965001D02*
X20230000Y27300000D01*
X20230000Y27300000D02*
X25140000Y27300000D01*
X26450000Y25990000D02*
X30340000Y25990000D01*
X25140000Y27300000D02*
X26450000Y25990000D01*
X30340000Y23450000D02*
X28353590Y23450000D01*
X28353590Y23450000D02*
X24953600Y26849990D01*
X24953600Y26849990D02*
X20416400Y26849990D01*
X13206410Y19640000D02*
X6400000Y19640000D01*
X20416400Y26849990D02*
X13206410Y19640000D01*
X9980000Y12550000D02*
X12015000Y12550000D01*
X9980000Y15173002D02*
X9980000Y12550000D01*
X14446998Y19640000D02*
X9980000Y15173002D01*
X20900000Y19640000D02*
X14446998Y19640000D01*
X58030000Y12560000D02*
X60065000Y12560000D01*
X58030000Y14973002D02*
X58030000Y12560000D01*
X62696998Y19640000D02*
X58030000Y14973002D01*
X69150000Y19640000D02*
X62696998Y19640000D01*
X45580000Y18370000D02*
X48880000Y18370000D01*
X50150000Y19640000D02*
X54650000Y19640000D01*
X48880000Y18370000D02*
X50150000Y19640000D01*
X54000000Y24640000D02*
X50270000Y20910000D01*
X54650000Y24640000D02*
X54000000Y24640000D01*
X45580000Y20910000D02*
X50270000Y20910000D01*
X-6900000Y-2500000D02*
X-8100000Y-3700000D01*
X-6900000Y2540000D02*
X-6900000Y-2500000D01*
X12150000Y-40600000D02*
X10950000Y-41800000D01*
X12150000Y-35560000D02*
X12150000Y-40600000D01*
X12150000Y-59650000D02*
X10950000Y-60850000D01*
X12150000Y-54610000D02*
X12150000Y-59650000D01*
X10950000Y-41800000D02*
X10950000Y-44640000D01*
X12150000Y-45840000D02*
X12150000Y-54610000D01*
X10950000Y-44640000D02*
X12150000Y-45840000D01*
X84380000Y-9080000D02*
X84380000Y-7045000D01*
X85328500Y-9080000D02*
X84380000Y-9080000D01*
X85763511Y-9515011D02*
X85328500Y-9080000D01*
X85763511Y-41573511D02*
X85763511Y-9515011D01*
X86670000Y-42480000D02*
X85763511Y-41573511D01*
X86670000Y-56970000D02*
X86670000Y-42480000D01*
X85763510Y-57876490D02*
X86670000Y-56970000D01*
X85763510Y-64544902D02*
X85763510Y-57876490D01*
X84983401Y-65325011D02*
X85763510Y-64544902D01*
X15425011Y-65325011D02*
X84983401Y-65325011D01*
X10950000Y-60850000D02*
X15425011Y-65325011D01*
X-9425001Y-29224999D02*
X-8370000Y-30280000D01*
X-9425001Y-5025001D02*
X-9425001Y-29224999D01*
X-8100000Y-3700000D02*
X-9425001Y-5025001D01*
X12190000Y-35520000D02*
X12150000Y-35560000D01*
X12190000Y-30260000D02*
X12190000Y-35520000D01*
X84380000Y-9080000D02*
X85403501Y-8056499D01*
X71880000Y19090000D02*
X71880000Y12500000D01*
X71880000Y12500000D02*
X73220000Y11160000D01*
X84270000Y11160000D02*
X85403501Y10026499D01*
X73220000Y11160000D02*
X84270000Y11160000D01*
X85403501Y-8056499D02*
X85403501Y10026499D01*
X12150000Y-2500000D02*
X10950000Y-3700000D01*
X12150000Y2540000D02*
X12150000Y-2500000D01*
X12150000Y-21550000D02*
X10950000Y-22750000D01*
X12150000Y-16510000D02*
X12150000Y-21550000D01*
X31200000Y-59650000D02*
X30000000Y-60850000D01*
X31200000Y-54610000D02*
X31200000Y-59650000D01*
X84210000Y-28785000D02*
X84210000Y-30820000D01*
X85313501Y-31923501D02*
X84210000Y-30820000D01*
X86219990Y-56589990D02*
X86219990Y-42666400D01*
X85313501Y-57496479D02*
X86219990Y-56589990D01*
X85313501Y-64358501D02*
X85313501Y-57496479D01*
X85313502Y-41759912D02*
X85313501Y-31923501D01*
X86219990Y-42666400D02*
X85313502Y-41759912D01*
X32755001Y-64875001D02*
X84797001Y-64875001D01*
X30000000Y-62120000D02*
X32755001Y-64875001D01*
X84797001Y-64875001D02*
X85313501Y-64358501D01*
X30000000Y-60850000D02*
X30000000Y-62120000D01*
X14975001Y-26775001D02*
X10950000Y-22750000D01*
X20990003Y-26775001D02*
X14975001Y-26775001D01*
X27057501Y-32842499D02*
X20990003Y-26775001D01*
X27057501Y-35122719D02*
X27057501Y-32842499D01*
X31200000Y-54610000D02*
X28220000Y-51630000D01*
X28220000Y-36285218D02*
X27057501Y-35122719D01*
X28220000Y-51630000D02*
X28220000Y-36285218D01*
X13490000Y-12160000D02*
X13490000Y-8530000D01*
X10950000Y-5990000D02*
X10950000Y-3700000D01*
X13490000Y-8530000D02*
X10950000Y-5990000D01*
X12150000Y-13500000D02*
X13490000Y-12160000D01*
X12150000Y-16510000D02*
X12150000Y-13500000D01*
X31200000Y-2500000D02*
X30000000Y-3700000D01*
X31200000Y2540000D02*
X31200000Y-2500000D01*
X31200000Y-21550000D02*
X30000000Y-22750000D01*
X31200000Y-16510000D02*
X31200000Y-21550000D01*
X31200000Y-40600000D02*
X30000000Y-41800000D01*
X31200000Y-35560000D02*
X31200000Y-40600000D01*
X30000000Y-22750000D02*
X30000000Y-25170000D01*
X31200000Y-26370000D02*
X31200000Y-35560000D01*
X30000000Y-25170000D02*
X31200000Y-26370000D01*
X84260000Y-50365000D02*
X84260000Y-52400000D01*
X30110000Y-41910000D02*
X30000000Y-41800000D01*
X30110000Y-44290000D02*
X30110000Y-41910000D01*
X30000000Y-3700000D02*
X30000000Y-6160000D01*
X31200000Y-7360000D02*
X31200000Y-16510000D01*
X30000000Y-6160000D02*
X31200000Y-7360000D01*
X50250000Y-2500000D02*
X49050000Y-3700000D01*
X50250000Y2540000D02*
X50250000Y-2500000D01*
X50250000Y-21550000D02*
X49050000Y-22750000D01*
X50250000Y-16510000D02*
X50250000Y-21550000D01*
X50250000Y-40600000D02*
X49050000Y-41800000D01*
X50250000Y-35560000D02*
X50250000Y-40600000D01*
X50250000Y-59650000D02*
X49050000Y-60850000D01*
X50250000Y-54610000D02*
X50250000Y-59650000D01*
X49050000Y-41800000D02*
X49050000Y-45070000D01*
X50250000Y-46270000D02*
X50250000Y-54610000D01*
X49050000Y-45070000D02*
X50250000Y-46270000D01*
X49050000Y-22750000D02*
X49050000Y-25500000D01*
X50250000Y-26700000D02*
X50250000Y-35560000D01*
X49050000Y-25500000D02*
X50250000Y-26700000D01*
X10010000Y10270000D02*
X12045000Y10270000D01*
X49050000Y-3700000D02*
X49050000Y-6270000D01*
X50250000Y-7470000D02*
X50250000Y-16510000D01*
X49050000Y-6270000D02*
X50250000Y-7470000D01*
X42016001Y6405001D02*
X40761002Y7660000D01*
X46384999Y6405001D02*
X42016001Y6405001D01*
X50250000Y2540000D02*
X46384999Y6405001D01*
X40761002Y7660000D02*
X16610000Y7660000D01*
X-6900000Y-21550000D02*
X-8100000Y-22750000D01*
X-6900000Y-16510000D02*
X-6900000Y-21550000D01*
X-6900000Y-40600000D02*
X-8100000Y-41800000D01*
X-6900000Y-35560000D02*
X-6900000Y-40600000D01*
X-6900000Y-59650000D02*
X-8100000Y-60850000D01*
X-6900000Y-54610000D02*
X-6900000Y-59650000D01*
X-8100000Y-41800000D02*
X-8100000Y-45050000D01*
X-6900000Y-46250000D02*
X-6900000Y-54610000D01*
X-8100000Y-45050000D02*
X-6900000Y-46250000D01*
X-8100000Y-22750000D02*
X-8100000Y-24540000D01*
X-6900000Y-25740000D02*
X-6900000Y-35560000D01*
X-8100000Y-24540000D02*
X-6900000Y-25740000D01*
X10914999Y-12144999D02*
X10980000Y-12210000D01*
X-2534999Y-12144999D02*
X10914999Y-12144999D01*
X-6900000Y-16510000D02*
X-2534999Y-12144999D01*
X47650000Y830000D02*
X46210000Y2270000D01*
X47650000Y-10840000D02*
X47650000Y830000D01*
X46210000Y2270000D02*
X46210000Y4305000D01*
M02*
