G04 #@! TF.GenerationSoftware,KiCad,Pcbnew,(5.1.6-0-10_14)*
G04 #@! TF.CreationDate,2022-08-29T11:05:28+09:00*
G04 #@! TF.ProjectId,cool640xiao,636f6f6c-3634-4307-9869-616f2e6b6963,rev?*
G04 #@! TF.SameCoordinates,Original*
G04 #@! TF.FileFunction,Legend,Top*
G04 #@! TF.FilePolarity,Positive*
%FSLAX46Y46*%
G04 Gerber Fmt 4.6, Leading zero omitted, Abs format (unit mm)*
G04 Created by KiCad (PCBNEW (5.1.6-0-10_14)) date 2022-08-29 11:05:28*
%MOMM*%
%LPD*%
G01*
G04 APERTURE LIST*
%ADD10C,0.150000*%
%ADD11C,0.120000*%
G04 APERTURE END LIST*
D10*
X46870000Y-2130000D02*
X45370000Y-2130000D01*
X46870000Y-7530000D02*
X46870000Y-2130000D01*
X45370000Y-7530000D02*
X46870000Y-7530000D01*
X45370000Y-2130000D02*
X45370000Y-7530000D01*
X45620000Y-5330000D02*
X46620000Y-5330000D01*
X46620000Y-4330000D02*
X46120000Y-5230000D01*
X45620000Y-4330000D02*
X46620000Y-4330000D01*
X46120000Y-5230000D02*
X45620000Y-4330000D01*
X85040000Y8450000D02*
X83540000Y8450000D01*
X85040000Y3050000D02*
X85040000Y8450000D01*
X83540000Y3050000D02*
X85040000Y3050000D01*
X83540000Y8450000D02*
X83540000Y3050000D01*
X83790000Y5250000D02*
X84790000Y5250000D01*
X84790000Y6250000D02*
X84290000Y5350000D01*
X83790000Y6250000D02*
X84790000Y6250000D01*
X84290000Y5350000D02*
X83790000Y6250000D01*
X-3260000Y20250000D02*
X-3260000Y32000000D01*
X2540000Y20250000D02*
X-3260000Y20250000D01*
X2540000Y32000000D02*
X2540000Y20250000D01*
X-3260000Y32000000D02*
X2540000Y32000000D01*
X85040000Y-56890000D02*
X83540000Y-56890000D01*
X85040000Y-62290000D02*
X85040000Y-56890000D01*
X83540000Y-62290000D02*
X85040000Y-62290000D01*
X83540000Y-56890000D02*
X83540000Y-62290000D01*
X83790000Y-60090000D02*
X84790000Y-60090000D01*
X84790000Y-59090000D02*
X84290000Y-59990000D01*
X83790000Y-59090000D02*
X84790000Y-59090000D01*
X84290000Y-59990000D02*
X83790000Y-59090000D01*
X27910000Y300000D02*
X26410000Y300000D01*
X27910000Y-5100000D02*
X27910000Y300000D01*
X26410000Y-5100000D02*
X27910000Y-5100000D01*
X26410000Y300000D02*
X26410000Y-5100000D01*
X26660000Y-2900000D02*
X27660000Y-2900000D01*
X27660000Y-1900000D02*
X27160000Y-2800000D01*
X26660000Y-1900000D02*
X27660000Y-1900000D01*
X27160000Y-2800000D02*
X26660000Y-1900000D01*
X8860000Y340000D02*
X7360000Y340000D01*
X8860000Y-5060000D02*
X8860000Y340000D01*
X7360000Y-5060000D02*
X8860000Y-5060000D01*
X7360000Y340000D02*
X7360000Y-5060000D01*
X7610000Y-2860000D02*
X8610000Y-2860000D01*
X8610000Y-1860000D02*
X8110000Y-2760000D01*
X7610000Y-1860000D02*
X8610000Y-1860000D01*
X8110000Y-2760000D02*
X7610000Y-1860000D01*
X65980000Y370000D02*
X64480000Y370000D01*
X65980000Y-5030000D02*
X65980000Y370000D01*
X64480000Y-5030000D02*
X65980000Y-5030000D01*
X64480000Y370000D02*
X64480000Y-5030000D01*
X64730000Y-2830000D02*
X65730000Y-2830000D01*
X65730000Y-1830000D02*
X65230000Y-2730000D01*
X64730000Y-1830000D02*
X65730000Y-1830000D01*
X65230000Y-2730000D02*
X64730000Y-1830000D01*
X84960000Y-13460000D02*
X83460000Y-13460000D01*
X84960000Y-18860000D02*
X84960000Y-13460000D01*
X83460000Y-18860000D02*
X84960000Y-18860000D01*
X83460000Y-13460000D02*
X83460000Y-18860000D01*
X83710000Y-16660000D02*
X84710000Y-16660000D01*
X84710000Y-15660000D02*
X84210000Y-16560000D01*
X83710000Y-15660000D02*
X84710000Y-15660000D01*
X84210000Y-16560000D02*
X83710000Y-15660000D01*
X65970000Y-18720000D02*
X64470000Y-18720000D01*
X65970000Y-24120000D02*
X65970000Y-18720000D01*
X64470000Y-24120000D02*
X65970000Y-24120000D01*
X64470000Y-18720000D02*
X64470000Y-24120000D01*
X64720000Y-21920000D02*
X65720000Y-21920000D01*
X65720000Y-20920000D02*
X65220000Y-21820000D01*
X64720000Y-20920000D02*
X65720000Y-20920000D01*
X65220000Y-21820000D02*
X64720000Y-20920000D01*
X46890000Y-18770000D02*
X45390000Y-18770000D01*
X46890000Y-24170000D02*
X46890000Y-18770000D01*
X45390000Y-24170000D02*
X46890000Y-24170000D01*
X45390000Y-18770000D02*
X45390000Y-24170000D01*
X45640000Y-21970000D02*
X46640000Y-21970000D01*
X46640000Y-20970000D02*
X46140000Y-21870000D01*
X45640000Y-20970000D02*
X46640000Y-20970000D01*
X46140000Y-21870000D02*
X45640000Y-20970000D01*
X27840000Y-18730000D02*
X26340000Y-18730000D01*
X27840000Y-24130000D02*
X27840000Y-18730000D01*
X26340000Y-24130000D02*
X27840000Y-24130000D01*
X26340000Y-18730000D02*
X26340000Y-24130000D01*
X26590000Y-21930000D02*
X27590000Y-21930000D01*
X27590000Y-20930000D02*
X27090000Y-21830000D01*
X26590000Y-20930000D02*
X27590000Y-20930000D01*
X27090000Y-21830000D02*
X26590000Y-20930000D01*
X8820000Y-18730000D02*
X7320000Y-18730000D01*
X8820000Y-24130000D02*
X8820000Y-18730000D01*
X7320000Y-24130000D02*
X8820000Y-24130000D01*
X7320000Y-18730000D02*
X7320000Y-24130000D01*
X7570000Y-21930000D02*
X8570000Y-21930000D01*
X8570000Y-20930000D02*
X8070000Y-21830000D01*
X7570000Y-20930000D02*
X8570000Y-20930000D01*
X8070000Y-21830000D02*
X7570000Y-20930000D01*
X65960000Y-56790000D02*
X64460000Y-56790000D01*
X65960000Y-62190000D02*
X65960000Y-56790000D01*
X64460000Y-62190000D02*
X65960000Y-62190000D01*
X64460000Y-56790000D02*
X64460000Y-62190000D01*
X64710000Y-59990000D02*
X65710000Y-59990000D01*
X65710000Y-58990000D02*
X65210000Y-59890000D01*
X64710000Y-58990000D02*
X65710000Y-58990000D01*
X65210000Y-59890000D02*
X64710000Y-58990000D01*
X46910000Y-56760000D02*
X45410000Y-56760000D01*
X46910000Y-62160000D02*
X46910000Y-56760000D01*
X45410000Y-62160000D02*
X46910000Y-62160000D01*
X45410000Y-56760000D02*
X45410000Y-62160000D01*
X45660000Y-59960000D02*
X46660000Y-59960000D01*
X46660000Y-58960000D02*
X46160000Y-59860000D01*
X45660000Y-58960000D02*
X46660000Y-58960000D01*
X46160000Y-59860000D02*
X45660000Y-58960000D01*
X27900000Y-56830000D02*
X26400000Y-56830000D01*
X27900000Y-62230000D02*
X27900000Y-56830000D01*
X26400000Y-62230000D02*
X27900000Y-62230000D01*
X26400000Y-56830000D02*
X26400000Y-62230000D01*
X26650000Y-60030000D02*
X27650000Y-60030000D01*
X27650000Y-59030000D02*
X27150000Y-59930000D01*
X26650000Y-59030000D02*
X27650000Y-59030000D01*
X27150000Y-59930000D02*
X26650000Y-59030000D01*
X8800000Y-56850000D02*
X7300000Y-56850000D01*
X8800000Y-62250000D02*
X8800000Y-56850000D01*
X7300000Y-62250000D02*
X8800000Y-62250000D01*
X7300000Y-56850000D02*
X7300000Y-62250000D01*
X7550000Y-60050000D02*
X8550000Y-60050000D01*
X8550000Y-59050000D02*
X8050000Y-59950000D01*
X7550000Y-59050000D02*
X8550000Y-59050000D01*
X8050000Y-59950000D02*
X7550000Y-59050000D01*
X84960000Y-34890000D02*
X83460000Y-34890000D01*
X84960000Y-40290000D02*
X84960000Y-34890000D01*
X83460000Y-40290000D02*
X84960000Y-40290000D01*
X83460000Y-34890000D02*
X83460000Y-40290000D01*
X83710000Y-38090000D02*
X84710000Y-38090000D01*
X84710000Y-37090000D02*
X84210000Y-37990000D01*
X83710000Y-37090000D02*
X84710000Y-37090000D01*
X84210000Y-37990000D02*
X83710000Y-37090000D01*
X65920000Y-37820000D02*
X64420000Y-37820000D01*
X65920000Y-43220000D02*
X65920000Y-37820000D01*
X64420000Y-43220000D02*
X65920000Y-43220000D01*
X64420000Y-37820000D02*
X64420000Y-43220000D01*
X64670000Y-41020000D02*
X65670000Y-41020000D01*
X65670000Y-40020000D02*
X65170000Y-40920000D01*
X64670000Y-40020000D02*
X65670000Y-40020000D01*
X65170000Y-40920000D02*
X64670000Y-40020000D01*
X46900000Y-37810000D02*
X45400000Y-37810000D01*
X46900000Y-43210000D02*
X46900000Y-37810000D01*
X45400000Y-43210000D02*
X46900000Y-43210000D01*
X45400000Y-37810000D02*
X45400000Y-43210000D01*
X45650000Y-41010000D02*
X46650000Y-41010000D01*
X46650000Y-40010000D02*
X46150000Y-40910000D01*
X45650000Y-40010000D02*
X46650000Y-40010000D01*
X46150000Y-40910000D02*
X45650000Y-40010000D01*
X27810000Y-37750000D02*
X26310000Y-37750000D01*
X27810000Y-43150000D02*
X27810000Y-37750000D01*
X26310000Y-43150000D02*
X27810000Y-43150000D01*
X26310000Y-37750000D02*
X26310000Y-43150000D01*
X26560000Y-40950000D02*
X27560000Y-40950000D01*
X27560000Y-39950000D02*
X27060000Y-40850000D01*
X26560000Y-39950000D02*
X27560000Y-39950000D01*
X27060000Y-40850000D02*
X26560000Y-39950000D01*
X8780000Y-37760000D02*
X7280000Y-37760000D01*
X8780000Y-43160000D02*
X8780000Y-37760000D01*
X7280000Y-43160000D02*
X8780000Y-43160000D01*
X7280000Y-37760000D02*
X7280000Y-43160000D01*
X7530000Y-40960000D02*
X8530000Y-40960000D01*
X8530000Y-39960000D02*
X8030000Y-40860000D01*
X7530000Y-39960000D02*
X8530000Y-39960000D01*
X8030000Y-40860000D02*
X7530000Y-39960000D01*
X73390000Y32160000D02*
X79390000Y32160000D01*
X79390000Y32160000D02*
X79390000Y20160000D01*
X79390000Y20160000D02*
X73390000Y20160000D01*
X73390000Y20160000D02*
X73390000Y32160000D01*
D11*
X16900000Y22140000D02*
G75*
G03*
X16900000Y22140000I-3000000J0D01*
G01*
X15700000Y28440000D02*
X20600000Y28440000D01*
X20600000Y15840000D02*
X15700000Y15840000D01*
X12100000Y15840000D02*
X7200000Y15840000D01*
X7200000Y15840000D02*
X7200000Y18640000D01*
X12000000Y28440000D02*
X7200000Y28440000D01*
X7200000Y28440000D02*
X7200000Y25940000D01*
X6400000Y25940000D02*
X6100000Y26240000D01*
X6100000Y26240000D02*
X6700000Y26240000D01*
X6700000Y26240000D02*
X6400000Y25940000D01*
X20600000Y28440000D02*
X20600000Y25840000D01*
X20600000Y23440000D02*
X20600000Y20840000D01*
X20600000Y18440000D02*
X20600000Y15840000D01*
X13900000Y22640000D02*
X13900000Y21640000D01*
X13400000Y22140000D02*
X14400000Y22140000D01*
X61650000Y22140000D02*
X62650000Y22140000D01*
X62150000Y22640000D02*
X62150000Y21640000D01*
X68850000Y18440000D02*
X68850000Y15840000D01*
X68850000Y23440000D02*
X68850000Y20840000D01*
X68850000Y28440000D02*
X68850000Y25840000D01*
X54950000Y26240000D02*
X54650000Y25940000D01*
X54350000Y26240000D02*
X54950000Y26240000D01*
X54650000Y25940000D02*
X54350000Y26240000D01*
X55450000Y28440000D02*
X55450000Y25940000D01*
X60250000Y28440000D02*
X55450000Y28440000D01*
X55450000Y15840000D02*
X55450000Y18640000D01*
X60350000Y15840000D02*
X55450000Y15840000D01*
X68850000Y15840000D02*
X63950000Y15840000D01*
X63950000Y28440000D02*
X68850000Y28440000D01*
X65150000Y22140000D02*
G75*
G03*
X65150000Y22140000I-3000000J0D01*
G01*
D10*
X46960000Y31399600D02*
X46850000Y31399600D01*
X46960000Y30120000D02*
X46960000Y31399600D01*
X28960000Y31399600D02*
X46850000Y31399600D01*
X28960000Y30120000D02*
X28960000Y31399600D01*
X33650000Y33290000D02*
X42310000Y33290000D01*
X33650000Y31410000D02*
X33650000Y33290000D01*
X42310000Y31410000D02*
X42310000Y33290000D01*
X28960000Y11320000D02*
X28960000Y30120000D01*
X46960000Y11320000D02*
X28960000Y11320000D01*
X46960000Y30120000D02*
X46960000Y11320000D01*
X13390000Y12550000D02*
X14290000Y13050000D01*
X14290000Y13050000D02*
X14290000Y12050000D01*
X14290000Y12050000D02*
X13390000Y12550000D01*
X13290000Y13050000D02*
X13290000Y12050000D01*
X16490000Y13300000D02*
X11090000Y13300000D01*
X11090000Y13300000D02*
X11090000Y11800000D01*
X11090000Y11800000D02*
X16490000Y11800000D01*
X16490000Y11800000D02*
X16490000Y13300000D01*
X64540000Y11810000D02*
X64540000Y13310000D01*
X59140000Y11810000D02*
X64540000Y11810000D01*
X59140000Y13310000D02*
X59140000Y11810000D01*
X64540000Y13310000D02*
X59140000Y13310000D01*
X61340000Y13060000D02*
X61340000Y12060000D01*
X62340000Y12060000D02*
X61440000Y12560000D01*
X62340000Y13060000D02*
X62340000Y12060000D01*
X61440000Y12560000D02*
X62340000Y13060000D01*
X46210000Y5680000D02*
X45710000Y6580000D01*
X45710000Y6580000D02*
X46710000Y6580000D01*
X46710000Y6580000D02*
X46210000Y5680000D01*
X45710000Y5580000D02*
X46710000Y5580000D01*
X45460000Y8780000D02*
X45460000Y3380000D01*
X45460000Y3380000D02*
X46960000Y3380000D01*
X46960000Y3380000D02*
X46960000Y8780000D01*
X46960000Y8780000D02*
X45460000Y8780000D01*
X85130000Y-2570000D02*
X83630000Y-2570000D01*
X85130000Y-7970000D02*
X85130000Y-2570000D01*
X83630000Y-7970000D02*
X85130000Y-7970000D01*
X83630000Y-2570000D02*
X83630000Y-7970000D01*
X83880000Y-5770000D02*
X84880000Y-5770000D01*
X84880000Y-4770000D02*
X84380000Y-5670000D01*
X83880000Y-4770000D02*
X84880000Y-4770000D01*
X84380000Y-5670000D02*
X83880000Y-4770000D01*
X84210000Y-27410000D02*
X83710000Y-26510000D01*
X83710000Y-26510000D02*
X84710000Y-26510000D01*
X84710000Y-26510000D02*
X84210000Y-27410000D01*
X83710000Y-27510000D02*
X84710000Y-27510000D01*
X83460000Y-24310000D02*
X83460000Y-29710000D01*
X83460000Y-29710000D02*
X84960000Y-29710000D01*
X84960000Y-29710000D02*
X84960000Y-24310000D01*
X84960000Y-24310000D02*
X83460000Y-24310000D01*
X85010000Y-45890000D02*
X83510000Y-45890000D01*
X85010000Y-51290000D02*
X85010000Y-45890000D01*
X83510000Y-51290000D02*
X85010000Y-51290000D01*
X83510000Y-45890000D02*
X83510000Y-51290000D01*
X83760000Y-49090000D02*
X84760000Y-49090000D01*
X84760000Y-48090000D02*
X84260000Y-48990000D01*
X83760000Y-48090000D02*
X84760000Y-48090000D01*
X84260000Y-48990000D02*
X83760000Y-48090000D01*
X16520000Y9520000D02*
X16520000Y11020000D01*
X11120000Y9520000D02*
X16520000Y9520000D01*
X11120000Y11020000D02*
X11120000Y9520000D01*
X16520000Y11020000D02*
X11120000Y11020000D01*
X13320000Y10770000D02*
X13320000Y9770000D01*
X14320000Y9770000D02*
X13420000Y10270000D01*
X14320000Y10770000D02*
X14320000Y9770000D01*
X13420000Y10270000D02*
X14320000Y10770000D01*
X-2871904Y26247619D02*
X-2300476Y26247619D01*
X-2586190Y25247619D02*
X-2586190Y26247619D01*
X-1395714Y25247619D02*
X-1729047Y25723809D01*
X-1967142Y25247619D02*
X-1967142Y26247619D01*
X-1586190Y26247619D01*
X-1490952Y26200000D01*
X-1443333Y26152380D01*
X-1395714Y26057142D01*
X-1395714Y25914285D01*
X-1443333Y25819047D01*
X-1490952Y25771428D01*
X-1586190Y25723809D01*
X-1967142Y25723809D01*
X-395714Y25247619D02*
X-729047Y25723809D01*
X-967142Y25247619D02*
X-967142Y26247619D01*
X-586190Y26247619D01*
X-490952Y26200000D01*
X-443333Y26152380D01*
X-395714Y26057142D01*
X-395714Y25914285D01*
X-443333Y25819047D01*
X-490952Y25771428D01*
X-586190Y25723809D01*
X-967142Y25723809D01*
X-14761Y25295238D02*
X128095Y25247619D01*
X366190Y25247619D01*
X461428Y25295238D01*
X509047Y25342857D01*
X556666Y25438095D01*
X556666Y25533333D01*
X509047Y25628571D01*
X461428Y25676190D01*
X366190Y25723809D01*
X175714Y25771428D01*
X80476Y25819047D01*
X32857Y25866666D01*
X-14761Y25961904D01*
X-14761Y26057142D01*
X32857Y26152380D01*
X80476Y26200000D01*
X175714Y26247619D01*
X413809Y26247619D01*
X556666Y26200000D01*
X73878095Y26257619D02*
X74449523Y26257619D01*
X74163809Y25257619D02*
X74163809Y26257619D01*
X75354285Y25257619D02*
X75020952Y25733809D01*
X74782857Y25257619D02*
X74782857Y26257619D01*
X75163809Y26257619D01*
X75259047Y26210000D01*
X75306666Y26162380D01*
X75354285Y26067142D01*
X75354285Y25924285D01*
X75306666Y25829047D01*
X75259047Y25781428D01*
X75163809Y25733809D01*
X74782857Y25733809D01*
X76354285Y25257619D02*
X76020952Y25733809D01*
X75782857Y25257619D02*
X75782857Y26257619D01*
X76163809Y26257619D01*
X76259047Y26210000D01*
X76306666Y26162380D01*
X76354285Y26067142D01*
X76354285Y25924285D01*
X76306666Y25829047D01*
X76259047Y25781428D01*
X76163809Y25733809D01*
X75782857Y25733809D01*
X76735238Y25305238D02*
X76878095Y25257619D01*
X77116190Y25257619D01*
X77211428Y25305238D01*
X77259047Y25352857D01*
X77306666Y25448095D01*
X77306666Y25543333D01*
X77259047Y25638571D01*
X77211428Y25686190D01*
X77116190Y25733809D01*
X76925714Y25781428D01*
X76830476Y25829047D01*
X76782857Y25876666D01*
X76735238Y25971904D01*
X76735238Y26067142D01*
X76782857Y26162380D01*
X76830476Y26210000D01*
X76925714Y26257619D01*
X77163809Y26257619D01*
X77306666Y26210000D01*
X37248095Y24807619D02*
X37248095Y23998095D01*
X37295714Y23902857D01*
X37343333Y23855238D01*
X37438571Y23807619D01*
X37629047Y23807619D01*
X37724285Y23855238D01*
X37771904Y23902857D01*
X37819523Y23998095D01*
X37819523Y24807619D01*
X38819523Y23807619D02*
X38248095Y23807619D01*
X38533809Y23807619D02*
X38533809Y24807619D01*
X38438571Y24664761D01*
X38343333Y24569523D01*
X38248095Y24521904D01*
X26565714Y29070000D02*
X26470476Y29117619D01*
X26327619Y29117619D01*
X26184761Y29070000D01*
X26089523Y28974761D01*
X26041904Y28879523D01*
X25994285Y28689047D01*
X25994285Y28546190D01*
X26041904Y28355714D01*
X26089523Y28260476D01*
X26184761Y28165238D01*
X26327619Y28117619D01*
X26422857Y28117619D01*
X26565714Y28165238D01*
X26613333Y28212857D01*
X26613333Y28546190D01*
X26422857Y28546190D01*
X27041904Y28117619D02*
X27041904Y29117619D01*
X27422857Y29117619D01*
X27518095Y29070000D01*
X27565714Y29022380D01*
X27613333Y28927142D01*
X27613333Y28784285D01*
X27565714Y28689047D01*
X27518095Y28641428D01*
X27422857Y28593809D01*
X27041904Y28593809D01*
X28232380Y29117619D02*
X28327619Y29117619D01*
X28422857Y29070000D01*
X28470476Y29022380D01*
X28518095Y28927142D01*
X28565714Y28736666D01*
X28565714Y28498571D01*
X28518095Y28308095D01*
X28470476Y28212857D01*
X28422857Y28165238D01*
X28327619Y28117619D01*
X28232380Y28117619D01*
X28137142Y28165238D01*
X28089523Y28212857D01*
X28041904Y28308095D01*
X27994285Y28498571D01*
X27994285Y28736666D01*
X28041904Y28927142D01*
X28089523Y29022380D01*
X28137142Y29070000D01*
X28232380Y29117619D01*
X26525714Y26510000D02*
X26430476Y26557619D01*
X26287619Y26557619D01*
X26144761Y26510000D01*
X26049523Y26414761D01*
X26001904Y26319523D01*
X25954285Y26129047D01*
X25954285Y25986190D01*
X26001904Y25795714D01*
X26049523Y25700476D01*
X26144761Y25605238D01*
X26287619Y25557619D01*
X26382857Y25557619D01*
X26525714Y25605238D01*
X26573333Y25652857D01*
X26573333Y25986190D01*
X26382857Y25986190D01*
X27001904Y25557619D02*
X27001904Y26557619D01*
X27382857Y26557619D01*
X27478095Y26510000D01*
X27525714Y26462380D01*
X27573333Y26367142D01*
X27573333Y26224285D01*
X27525714Y26129047D01*
X27478095Y26081428D01*
X27382857Y26033809D01*
X27001904Y26033809D01*
X28525714Y25557619D02*
X27954285Y25557619D01*
X28240000Y25557619D02*
X28240000Y26557619D01*
X28144761Y26414761D01*
X28049523Y26319523D01*
X27954285Y26271904D01*
X26355714Y23910000D02*
X26260476Y23957619D01*
X26117619Y23957619D01*
X25974761Y23910000D01*
X25879523Y23814761D01*
X25831904Y23719523D01*
X25784285Y23529047D01*
X25784285Y23386190D01*
X25831904Y23195714D01*
X25879523Y23100476D01*
X25974761Y23005238D01*
X26117619Y22957619D01*
X26212857Y22957619D01*
X26355714Y23005238D01*
X26403333Y23052857D01*
X26403333Y23386190D01*
X26212857Y23386190D01*
X26831904Y22957619D02*
X26831904Y23957619D01*
X27212857Y23957619D01*
X27308095Y23910000D01*
X27355714Y23862380D01*
X27403333Y23767142D01*
X27403333Y23624285D01*
X27355714Y23529047D01*
X27308095Y23481428D01*
X27212857Y23433809D01*
X26831904Y23433809D01*
X27784285Y23862380D02*
X27831904Y23910000D01*
X27927142Y23957619D01*
X28165238Y23957619D01*
X28260476Y23910000D01*
X28308095Y23862380D01*
X28355714Y23767142D01*
X28355714Y23671904D01*
X28308095Y23529047D01*
X27736666Y22957619D01*
X28355714Y22957619D01*
X26355714Y18770000D02*
X26260476Y18817619D01*
X26117619Y18817619D01*
X25974761Y18770000D01*
X25879523Y18674761D01*
X25831904Y18579523D01*
X25784285Y18389047D01*
X25784285Y18246190D01*
X25831904Y18055714D01*
X25879523Y17960476D01*
X25974761Y17865238D01*
X26117619Y17817619D01*
X26212857Y17817619D01*
X26355714Y17865238D01*
X26403333Y17912857D01*
X26403333Y18246190D01*
X26212857Y18246190D01*
X26831904Y17817619D02*
X26831904Y18817619D01*
X27212857Y18817619D01*
X27308095Y18770000D01*
X27355714Y18722380D01*
X27403333Y18627142D01*
X27403333Y18484285D01*
X27355714Y18389047D01*
X27308095Y18341428D01*
X27212857Y18293809D01*
X26831904Y18293809D01*
X28260476Y18484285D02*
X28260476Y17817619D01*
X28022380Y18865238D02*
X27784285Y18150952D01*
X28403333Y18150952D01*
X26355714Y21310000D02*
X26260476Y21357619D01*
X26117619Y21357619D01*
X25974761Y21310000D01*
X25879523Y21214761D01*
X25831904Y21119523D01*
X25784285Y20929047D01*
X25784285Y20786190D01*
X25831904Y20595714D01*
X25879523Y20500476D01*
X25974761Y20405238D01*
X26117619Y20357619D01*
X26212857Y20357619D01*
X26355714Y20405238D01*
X26403333Y20452857D01*
X26403333Y20786190D01*
X26212857Y20786190D01*
X26831904Y20357619D02*
X26831904Y21357619D01*
X27212857Y21357619D01*
X27308095Y21310000D01*
X27355714Y21262380D01*
X27403333Y21167142D01*
X27403333Y21024285D01*
X27355714Y20929047D01*
X27308095Y20881428D01*
X27212857Y20833809D01*
X26831904Y20833809D01*
X27736666Y21357619D02*
X28355714Y21357619D01*
X28022380Y20976666D01*
X28165238Y20976666D01*
X28260476Y20929047D01*
X28308095Y20881428D01*
X28355714Y20786190D01*
X28355714Y20548095D01*
X28308095Y20452857D01*
X28260476Y20405238D01*
X28165238Y20357619D01*
X27879523Y20357619D01*
X27784285Y20405238D01*
X27736666Y20452857D01*
X26355714Y16230000D02*
X26260476Y16277619D01*
X26117619Y16277619D01*
X25974761Y16230000D01*
X25879523Y16134761D01*
X25831904Y16039523D01*
X25784285Y15849047D01*
X25784285Y15706190D01*
X25831904Y15515714D01*
X25879523Y15420476D01*
X25974761Y15325238D01*
X26117619Y15277619D01*
X26212857Y15277619D01*
X26355714Y15325238D01*
X26403333Y15372857D01*
X26403333Y15706190D01*
X26212857Y15706190D01*
X26831904Y15277619D02*
X26831904Y16277619D01*
X27212857Y16277619D01*
X27308095Y16230000D01*
X27355714Y16182380D01*
X27403333Y16087142D01*
X27403333Y15944285D01*
X27355714Y15849047D01*
X27308095Y15801428D01*
X27212857Y15753809D01*
X26831904Y15753809D01*
X28308095Y16277619D02*
X27831904Y16277619D01*
X27784285Y15801428D01*
X27831904Y15849047D01*
X27927142Y15896666D01*
X28165238Y15896666D01*
X28260476Y15849047D01*
X28308095Y15801428D01*
X28355714Y15706190D01*
X28355714Y15468095D01*
X28308095Y15372857D01*
X28260476Y15325238D01*
X28165238Y15277619D01*
X27927142Y15277619D01*
X27831904Y15325238D01*
X27784285Y15372857D01*
X26355714Y13690000D02*
X26260476Y13737619D01*
X26117619Y13737619D01*
X25974761Y13690000D01*
X25879523Y13594761D01*
X25831904Y13499523D01*
X25784285Y13309047D01*
X25784285Y13166190D01*
X25831904Y12975714D01*
X25879523Y12880476D01*
X25974761Y12785238D01*
X26117619Y12737619D01*
X26212857Y12737619D01*
X26355714Y12785238D01*
X26403333Y12832857D01*
X26403333Y13166190D01*
X26212857Y13166190D01*
X26831904Y12737619D02*
X26831904Y13737619D01*
X27212857Y13737619D01*
X27308095Y13690000D01*
X27355714Y13642380D01*
X27403333Y13547142D01*
X27403333Y13404285D01*
X27355714Y13309047D01*
X27308095Y13261428D01*
X27212857Y13213809D01*
X26831904Y13213809D01*
X28260476Y13737619D02*
X28070000Y13737619D01*
X27974761Y13690000D01*
X27927142Y13642380D01*
X27831904Y13499523D01*
X27784285Y13309047D01*
X27784285Y12928095D01*
X27831904Y12832857D01*
X27879523Y12785238D01*
X27974761Y12737619D01*
X28165238Y12737619D01*
X28260476Y12785238D01*
X28308095Y12832857D01*
X28355714Y12928095D01*
X28355714Y13166190D01*
X28308095Y13261428D01*
X28260476Y13309047D01*
X28165238Y13356666D01*
X27974761Y13356666D01*
X27879523Y13309047D01*
X27831904Y13261428D01*
X27784285Y13166190D01*
X48065714Y13740000D02*
X47970476Y13787619D01*
X47827619Y13787619D01*
X47684761Y13740000D01*
X47589523Y13644761D01*
X47541904Y13549523D01*
X47494285Y13359047D01*
X47494285Y13216190D01*
X47541904Y13025714D01*
X47589523Y12930476D01*
X47684761Y12835238D01*
X47827619Y12787619D01*
X47922857Y12787619D01*
X48065714Y12835238D01*
X48113333Y12882857D01*
X48113333Y13216190D01*
X47922857Y13216190D01*
X48541904Y12787619D02*
X48541904Y13787619D01*
X48922857Y13787619D01*
X49018095Y13740000D01*
X49065714Y13692380D01*
X49113333Y13597142D01*
X49113333Y13454285D01*
X49065714Y13359047D01*
X49018095Y13311428D01*
X48922857Y13263809D01*
X48541904Y13263809D01*
X49446666Y13787619D02*
X50113333Y13787619D01*
X49684761Y12787619D01*
X47905714Y16260000D02*
X47810476Y16307619D01*
X47667619Y16307619D01*
X47524761Y16260000D01*
X47429523Y16164761D01*
X47381904Y16069523D01*
X47334285Y15879047D01*
X47334285Y15736190D01*
X47381904Y15545714D01*
X47429523Y15450476D01*
X47524761Y15355238D01*
X47667619Y15307619D01*
X47762857Y15307619D01*
X47905714Y15355238D01*
X47953333Y15402857D01*
X47953333Y15736190D01*
X47762857Y15736190D01*
X48381904Y15307619D02*
X48381904Y16307619D01*
X48762857Y16307619D01*
X48858095Y16260000D01*
X48905714Y16212380D01*
X48953333Y16117142D01*
X48953333Y15974285D01*
X48905714Y15879047D01*
X48858095Y15831428D01*
X48762857Y15783809D01*
X48381904Y15783809D01*
X49524761Y15879047D02*
X49429523Y15926666D01*
X49381904Y15974285D01*
X49334285Y16069523D01*
X49334285Y16117142D01*
X49381904Y16212380D01*
X49429523Y16260000D01*
X49524761Y16307619D01*
X49715238Y16307619D01*
X49810476Y16260000D01*
X49858095Y16212380D01*
X49905714Y16117142D01*
X49905714Y16069523D01*
X49858095Y15974285D01*
X49810476Y15926666D01*
X49715238Y15879047D01*
X49524761Y15879047D01*
X49429523Y15831428D01*
X49381904Y15783809D01*
X49334285Y15688571D01*
X49334285Y15498095D01*
X49381904Y15402857D01*
X49429523Y15355238D01*
X49524761Y15307619D01*
X49715238Y15307619D01*
X49810476Y15355238D01*
X49858095Y15402857D01*
X49905714Y15498095D01*
X49905714Y15688571D01*
X49858095Y15783809D01*
X49810476Y15831428D01*
X49715238Y15879047D01*
X47855714Y18830000D02*
X47760476Y18877619D01*
X47617619Y18877619D01*
X47474761Y18830000D01*
X47379523Y18734761D01*
X47331904Y18639523D01*
X47284285Y18449047D01*
X47284285Y18306190D01*
X47331904Y18115714D01*
X47379523Y18020476D01*
X47474761Y17925238D01*
X47617619Y17877619D01*
X47712857Y17877619D01*
X47855714Y17925238D01*
X47903333Y17972857D01*
X47903333Y18306190D01*
X47712857Y18306190D01*
X48331904Y17877619D02*
X48331904Y18877619D01*
X48712857Y18877619D01*
X48808095Y18830000D01*
X48855714Y18782380D01*
X48903333Y18687142D01*
X48903333Y18544285D01*
X48855714Y18449047D01*
X48808095Y18401428D01*
X48712857Y18353809D01*
X48331904Y18353809D01*
X49379523Y17877619D02*
X49570000Y17877619D01*
X49665238Y17925238D01*
X49712857Y17972857D01*
X49808095Y18115714D01*
X49855714Y18306190D01*
X49855714Y18687142D01*
X49808095Y18782380D01*
X49760476Y18830000D01*
X49665238Y18877619D01*
X49474761Y18877619D01*
X49379523Y18830000D01*
X49331904Y18782380D01*
X49284285Y18687142D01*
X49284285Y18449047D01*
X49331904Y18353809D01*
X49379523Y18306190D01*
X49474761Y18258571D01*
X49665238Y18258571D01*
X49760476Y18306190D01*
X49808095Y18353809D01*
X49855714Y18449047D01*
X47899523Y21350000D02*
X47804285Y21397619D01*
X47661428Y21397619D01*
X47518571Y21350000D01*
X47423333Y21254761D01*
X47375714Y21159523D01*
X47328095Y20969047D01*
X47328095Y20826190D01*
X47375714Y20635714D01*
X47423333Y20540476D01*
X47518571Y20445238D01*
X47661428Y20397619D01*
X47756666Y20397619D01*
X47899523Y20445238D01*
X47947142Y20492857D01*
X47947142Y20826190D01*
X47756666Y20826190D01*
X48375714Y20397619D02*
X48375714Y21397619D01*
X48756666Y21397619D01*
X48851904Y21350000D01*
X48899523Y21302380D01*
X48947142Y21207142D01*
X48947142Y21064285D01*
X48899523Y20969047D01*
X48851904Y20921428D01*
X48756666Y20873809D01*
X48375714Y20873809D01*
X49899523Y20397619D02*
X49328095Y20397619D01*
X49613809Y20397619D02*
X49613809Y21397619D01*
X49518571Y21254761D01*
X49423333Y21159523D01*
X49328095Y21111904D01*
X50518571Y21397619D02*
X50613809Y21397619D01*
X50709047Y21350000D01*
X50756666Y21302380D01*
X50804285Y21207142D01*
X50851904Y21016666D01*
X50851904Y20778571D01*
X50804285Y20588095D01*
X50756666Y20492857D01*
X50709047Y20445238D01*
X50613809Y20397619D01*
X50518571Y20397619D01*
X50423333Y20445238D01*
X50375714Y20492857D01*
X50328095Y20588095D01*
X50280476Y20778571D01*
X50280476Y21016666D01*
X50328095Y21207142D01*
X50375714Y21302380D01*
X50423333Y21350000D01*
X50518571Y21397619D01*
X47541904Y23957619D02*
X48160952Y23957619D01*
X47827619Y23576666D01*
X47970476Y23576666D01*
X48065714Y23529047D01*
X48113333Y23481428D01*
X48160952Y23386190D01*
X48160952Y23148095D01*
X48113333Y23052857D01*
X48065714Y23005238D01*
X47970476Y22957619D01*
X47684761Y22957619D01*
X47589523Y23005238D01*
X47541904Y23052857D01*
X48446666Y23957619D02*
X48780000Y22957619D01*
X49113333Y23957619D01*
X49351428Y23957619D02*
X49970476Y23957619D01*
X49637142Y23576666D01*
X49780000Y23576666D01*
X49875238Y23529047D01*
X49922857Y23481428D01*
X49970476Y23386190D01*
X49970476Y23148095D01*
X49922857Y23052857D01*
X49875238Y23005238D01*
X49780000Y22957619D01*
X49494285Y22957619D01*
X49399047Y23005238D01*
X49351428Y23052857D01*
X47978095Y26600000D02*
X47882857Y26647619D01*
X47740000Y26647619D01*
X47597142Y26600000D01*
X47501904Y26504761D01*
X47454285Y26409523D01*
X47406666Y26219047D01*
X47406666Y26076190D01*
X47454285Y25885714D01*
X47501904Y25790476D01*
X47597142Y25695238D01*
X47740000Y25647619D01*
X47835238Y25647619D01*
X47978095Y25695238D01*
X48025714Y25742857D01*
X48025714Y26076190D01*
X47835238Y26076190D01*
X48454285Y25647619D02*
X48454285Y26647619D01*
X49025714Y25647619D01*
X49025714Y26647619D01*
X49501904Y25647619D02*
X49501904Y26647619D01*
X49740000Y26647619D01*
X49882857Y26600000D01*
X49978095Y26504761D01*
X50025714Y26409523D01*
X50073333Y26219047D01*
X50073333Y26076190D01*
X50025714Y25885714D01*
X49978095Y25790476D01*
X49882857Y25695238D01*
X49740000Y25647619D01*
X49501904Y25647619D01*
X48109523Y29047619D02*
X47633333Y29047619D01*
X47585714Y28571428D01*
X47633333Y28619047D01*
X47728571Y28666666D01*
X47966666Y28666666D01*
X48061904Y28619047D01*
X48109523Y28571428D01*
X48157142Y28476190D01*
X48157142Y28238095D01*
X48109523Y28142857D01*
X48061904Y28095238D01*
X47966666Y28047619D01*
X47728571Y28047619D01*
X47633333Y28095238D01*
X47585714Y28142857D01*
X48442857Y29047619D02*
X48776190Y28047619D01*
X49109523Y29047619D01*
X-9363333Y17777619D02*
X-9030000Y16777619D01*
X-8696666Y17777619D01*
X-7791904Y16872857D02*
X-7839523Y16825238D01*
X-7982380Y16777619D01*
X-8077619Y16777619D01*
X-8220476Y16825238D01*
X-8315714Y16920476D01*
X-8363333Y17015714D01*
X-8410952Y17206190D01*
X-8410952Y17349047D01*
X-8363333Y17539523D01*
X-8315714Y17634761D01*
X-8220476Y17730000D01*
X-8077619Y17777619D01*
X-7982380Y17777619D01*
X-7839523Y17730000D01*
X-7791904Y17682380D01*
X-6791904Y16872857D02*
X-6839523Y16825238D01*
X-6982380Y16777619D01*
X-7077619Y16777619D01*
X-7220476Y16825238D01*
X-7315714Y16920476D01*
X-7363333Y17015714D01*
X-7410952Y17206190D01*
X-7410952Y17349047D01*
X-7363333Y17539523D01*
X-7315714Y17634761D01*
X-7220476Y17730000D01*
X-7077619Y17777619D01*
X-6982380Y17777619D01*
X-6839523Y17730000D01*
X-6791904Y17682380D01*
X-9211904Y20270000D02*
X-9307142Y20317619D01*
X-9450000Y20317619D01*
X-9592857Y20270000D01*
X-9688095Y20174761D01*
X-9735714Y20079523D01*
X-9783333Y19889047D01*
X-9783333Y19746190D01*
X-9735714Y19555714D01*
X-9688095Y19460476D01*
X-9592857Y19365238D01*
X-9450000Y19317619D01*
X-9354761Y19317619D01*
X-9211904Y19365238D01*
X-9164285Y19412857D01*
X-9164285Y19746190D01*
X-9354761Y19746190D01*
X-8735714Y19317619D02*
X-8735714Y20317619D01*
X-8164285Y19317619D01*
X-8164285Y20317619D01*
X-7688095Y19317619D02*
X-7688095Y20317619D01*
X-7450000Y20317619D01*
X-7307142Y20270000D01*
X-7211904Y20174761D01*
X-7164285Y20079523D01*
X-7116666Y19889047D01*
X-7116666Y19746190D01*
X-7164285Y19555714D01*
X-7211904Y19460476D01*
X-7307142Y19365238D01*
X-7450000Y19317619D01*
X-7688095Y19317619D01*
X-9530000Y21857619D02*
X-9530000Y22857619D01*
X-9291904Y22857619D01*
X-9149047Y22810000D01*
X-9053809Y22714761D01*
X-9006190Y22619523D01*
X-8958571Y22429047D01*
X-8958571Y22286190D01*
X-9006190Y22095714D01*
X-9053809Y22000476D01*
X-9149047Y21905238D01*
X-9291904Y21857619D01*
X-9530000Y21857619D01*
X-8577619Y22143333D02*
X-8101428Y22143333D01*
X-8672857Y21857619D02*
X-8339523Y22857619D01*
X-8006190Y21857619D01*
X-7815714Y22857619D02*
X-7244285Y22857619D01*
X-7530000Y21857619D02*
X-7530000Y22857619D01*
X-6958571Y22143333D02*
X-6482380Y22143333D01*
X-7053809Y21857619D02*
X-6720476Y22857619D01*
X-6387142Y21857619D01*
X82570000Y21837619D02*
X82570000Y22837619D01*
X82808095Y22837619D01*
X82950952Y22790000D01*
X83046190Y22694761D01*
X83093809Y22599523D01*
X83141428Y22409047D01*
X83141428Y22266190D01*
X83093809Y22075714D01*
X83046190Y21980476D01*
X82950952Y21885238D01*
X82808095Y21837619D01*
X82570000Y21837619D01*
X83522380Y22123333D02*
X83998571Y22123333D01*
X83427142Y21837619D02*
X83760476Y22837619D01*
X84093809Y21837619D01*
X84284285Y22837619D02*
X84855714Y22837619D01*
X84570000Y21837619D02*
X84570000Y22837619D01*
X85141428Y22123333D02*
X85617619Y22123333D01*
X85046190Y21837619D02*
X85379523Y22837619D01*
X85712857Y21837619D01*
X82888095Y20250000D02*
X82792857Y20297619D01*
X82650000Y20297619D01*
X82507142Y20250000D01*
X82411904Y20154761D01*
X82364285Y20059523D01*
X82316666Y19869047D01*
X82316666Y19726190D01*
X82364285Y19535714D01*
X82411904Y19440476D01*
X82507142Y19345238D01*
X82650000Y19297619D01*
X82745238Y19297619D01*
X82888095Y19345238D01*
X82935714Y19392857D01*
X82935714Y19726190D01*
X82745238Y19726190D01*
X83364285Y19297619D02*
X83364285Y20297619D01*
X83935714Y19297619D01*
X83935714Y20297619D01*
X84411904Y19297619D02*
X84411904Y20297619D01*
X84650000Y20297619D01*
X84792857Y20250000D01*
X84888095Y20154761D01*
X84935714Y20059523D01*
X84983333Y19869047D01*
X84983333Y19726190D01*
X84935714Y19535714D01*
X84888095Y19440476D01*
X84792857Y19345238D01*
X84650000Y19297619D01*
X84411904Y19297619D01*
X82736666Y17757619D02*
X83070000Y16757619D01*
X83403333Y17757619D01*
X84308095Y16852857D02*
X84260476Y16805238D01*
X84117619Y16757619D01*
X84022380Y16757619D01*
X83879523Y16805238D01*
X83784285Y16900476D01*
X83736666Y16995714D01*
X83689047Y17186190D01*
X83689047Y17329047D01*
X83736666Y17519523D01*
X83784285Y17614761D01*
X83879523Y17710000D01*
X84022380Y17757619D01*
X84117619Y17757619D01*
X84260476Y17710000D01*
X84308095Y17662380D01*
X85308095Y16852857D02*
X85260476Y16805238D01*
X85117619Y16757619D01*
X85022380Y16757619D01*
X84879523Y16805238D01*
X84784285Y16900476D01*
X84736666Y16995714D01*
X84689047Y17186190D01*
X84689047Y17329047D01*
X84736666Y17519523D01*
X84784285Y17614761D01*
X84879523Y17710000D01*
X85022380Y17757619D01*
X85117619Y17757619D01*
X85260476Y17710000D01*
X85308095Y17662380D01*
M02*
