G04 #@! TF.GenerationSoftware,KiCad,Pcbnew,(5.1.6-0-10_14)*
G04 #@! TF.CreationDate,2022-09-03T11:37:22+09:00*
G04 #@! TF.ProjectId,cool640xiao,636f6f6c-3634-4307-9869-616f2e6b6963,rev?*
G04 #@! TF.SameCoordinates,Original*
G04 #@! TF.FileFunction,Profile,NP*
%FSLAX46Y46*%
G04 Gerber Fmt 4.6, Leading zero omitted, Abs format (unit mm)*
G04 Created by KiCad (PCBNEW (5.1.6-0-10_14)) date 2022-09-03 11:37:22*
%MOMM*%
%LPD*%
G01*
G04 APERTURE LIST*
G04 #@! TA.AperFunction,Profile*
%ADD10C,0.150000*%
G04 #@! TD*
G04 APERTURE END LIST*
D10*
X179780000Y-32350000D02*
X166380000Y-32350000D01*
X166380000Y-32350000D02*
X166380000Y-19770000D01*
X166380000Y-19770000D02*
X179780000Y-19770000D01*
X179780000Y-19770000D02*
X179780000Y-32350000D01*
X237430000Y-12330000D02*
G75*
G02*
X237440001Y-14850041I10115J-1260000D01*
G01*
X236930000Y-34340000D02*
G75*
G03*
X236930000Y-34340000I-1100000J0D01*
G01*
X245200000Y-14850000D02*
G75*
G02*
X245200000Y-12330000I-10000J1260000D01*
G01*
X152490000Y-18310000D02*
G75*
G03*
X152490000Y-18310000I-1100000J0D01*
G01*
X159670000Y-34340000D02*
G75*
G03*
X159670000Y-34340000I-1100000J0D01*
G01*
X246320000Y-37140000D02*
G75*
G02*
X245200000Y-38260000I-1120000J0D01*
G01*
X149200000Y-38260000D02*
G75*
G02*
X148080000Y-37140000I0J1120000D01*
G01*
X246320000Y-15970000D02*
X246320000Y-37140000D01*
X237440001Y-14850041D02*
X156810000Y-14850000D01*
X148080000Y-15970000D02*
X148080000Y-37140000D01*
X149200000Y-38260000D02*
X245200000Y-38260000D01*
X245200000Y-14850000D02*
G75*
G02*
X246320000Y-15970000I0J-1120000D01*
G01*
X156810000Y-12330000D02*
X237430000Y-12330000D01*
X148080000Y-15970000D02*
G75*
G02*
X149200000Y-14850000I1120000J0D01*
G01*
X149200000Y-12330000D02*
G75*
G02*
X149200000Y-14850082I114J-1260041D01*
G01*
X214630000Y-19780000D02*
X228030000Y-19780000D01*
X228030000Y-19780000D02*
X228030000Y-32370000D01*
X228030000Y-32370000D02*
X214630000Y-32360000D01*
X214630000Y-32360000D02*
X214630000Y-19780000D01*
X244110000Y-18310000D02*
G75*
G03*
X244110000Y-18310000I-1100000J0D01*
G01*
X156810000Y-14850000D02*
G75*
G02*
X156810000Y-12330000I0J1260000D01*
G01*
X237430000Y13600000D02*
G75*
G02*
X237440001Y11079959I10115J-1260000D01*
G01*
X245200000Y11080040D02*
G75*
G02*
X245190000Y13600000I-10000J1259960D01*
G01*
X156810000Y11080000D02*
G75*
G02*
X156810000Y13600000I0J1260000D01*
G01*
X149189999Y13600041D02*
G75*
G02*
X149200000Y11080000I10115J-1260000D01*
G01*
X152490000Y7620000D02*
G75*
G03*
X152490000Y7620000I-1100000J0D01*
G01*
X236930000Y-8410000D02*
G75*
G03*
X236930000Y-8410000I-1100000J0D01*
G01*
X244110000Y7620000D02*
G75*
G03*
X244110000Y7620000I-1100000J0D01*
G01*
X159670000Y-8410000D02*
G75*
G03*
X159670000Y-8410000I-1100000J0D01*
G01*
X246310000Y14720000D02*
G75*
G02*
X245190000Y13600000I-1120000J0D01*
G01*
X149190000Y13600000D02*
G75*
G02*
X148070000Y14720000I0J1120000D01*
G01*
X173640000Y23900000D02*
G75*
G03*
X173640000Y23900000I-1100000J0D01*
G01*
X246310000Y35890000D02*
X246310000Y14720000D01*
X156960000Y24000000D02*
G75*
G03*
X156960000Y24000000I-1100000J0D01*
G01*
X245190000Y37010000D02*
X149190000Y37010000D01*
X148070000Y35890000D02*
X148070000Y14720000D01*
X156810000Y13600000D02*
X237430000Y13600000D01*
X245190000Y37010000D02*
G75*
G02*
X246310000Y35890000I0J-1120000D01*
G01*
X148070000Y35890000D02*
G75*
G02*
X149190000Y37010000I1120000J0D01*
G01*
X246320000Y-11210000D02*
G75*
G02*
X245200000Y-12330000I-1120000J0D01*
G01*
X149200000Y-12330000D02*
G75*
G02*
X148080000Y-11210000I0J1120000D01*
G01*
X246320000Y9960000D02*
X246320000Y-11210000D01*
X237440001Y11079959D02*
X156810000Y11080000D01*
X148080000Y9960000D02*
X148080000Y-11210000D01*
X148080000Y9960000D02*
G75*
G02*
X149200000Y11080000I1120000J0D01*
G01*
X245200000Y11080000D02*
G75*
G02*
X246320000Y9960000I0J-1120000D01*
G01*
M02*
