M48
; DRILL file {KiCad (5.1.6-0-10_14)} date Saturday, September 03, 2022 at 11:37:24 AM
; FORMAT={-:-/ absolute / metric / decimal}
; #@! TF.CreationDate,2022-09-03T11:37:24+09:00
; #@! TF.GenerationSoftware,Kicad,Pcbnew,(5.1.6-0-10_14)
; #@! TF.FileFunction,NonPlated,1,2,NPTH
FMAT,2
METRIC
T1C0.600
%
G90
G05
T1
X150.343Y13.366
X150.343Y11.334
X151.232Y13.366
X151.232Y11.334
X152.121Y13.366
X152.121Y11.334
X153.01Y13.366
X153.01Y11.334
X153.899Y13.366
X153.899Y11.334
X154.788Y13.366
X154.788Y11.334
X155.677Y13.366
X155.677Y11.334
X238.651Y13.37
X238.651Y11.338
X239.54Y13.37
X239.54Y11.338
X240.429Y13.37
X240.429Y11.338
X241.318Y13.37
X241.318Y11.338
X242.207Y13.37
X242.207Y11.338
X243.096Y13.37
X243.096Y11.338
X243.985Y13.37
X243.985Y11.338
X238.651Y-12.56
X238.651Y-14.592
X239.54Y-12.56
X239.54Y-14.592
X240.429Y-12.56
X240.429Y-14.592
X241.318Y-12.56
X241.318Y-14.592
X242.207Y-12.56
X242.207Y-14.592
X243.096Y-12.56
X243.096Y-14.592
X243.985Y-12.56
X243.985Y-14.592
X150.343Y-12.564
X150.343Y-14.596
X151.232Y-12.564
X151.232Y-14.596
X152.121Y-12.564
X152.121Y-14.596
X153.01Y-12.564
X153.01Y-14.596
X153.899Y-12.564
X153.899Y-14.596
X154.788Y-12.564
X154.788Y-14.596
X155.677Y-12.564
X155.677Y-14.596
T0
M30
