G04 #@! TF.GenerationSoftware,KiCad,Pcbnew,(5.1.6-0-10_14)*
G04 #@! TF.CreationDate,2022-09-03T11:37:22+09:00*
G04 #@! TF.ProjectId,cool640xiao,636f6f6c-3634-4307-9869-616f2e6b6963,rev?*
G04 #@! TF.SameCoordinates,Original*
G04 #@! TF.FileFunction,Soldermask,Top*
G04 #@! TF.FilePolarity,Negative*
%FSLAX46Y46*%
G04 Gerber Fmt 4.6, Leading zero omitted, Abs format (unit mm)*
G04 Created by KiCad (PCBNEW (5.1.6-0-10_14)) date 2022-09-03 11:37:22*
%MOMM*%
%LPD*%
G01*
G04 APERTURE LIST*
%ADD10C,0.100000*%
G04 APERTURE END LIST*
D10*
G36*
X150445383Y-14258489D02*
G01*
X150445386Y-14258490D01*
X150445385Y-14258490D01*
X150509258Y-14284946D01*
X150560762Y-14319360D01*
X150566749Y-14323361D01*
X150615639Y-14372251D01*
X150651381Y-14425741D01*
X150654053Y-14429741D01*
X150672016Y-14473108D01*
X150683567Y-14494718D01*
X150699112Y-14513660D01*
X150718054Y-14529206D01*
X150739664Y-14540757D01*
X150763113Y-14547870D01*
X150787499Y-14550272D01*
X150811886Y-14547870D01*
X150835335Y-14540757D01*
X150856945Y-14529206D01*
X150875887Y-14513661D01*
X150891433Y-14494719D01*
X150902984Y-14473108D01*
X150920947Y-14429741D01*
X150923620Y-14425741D01*
X150959361Y-14372251D01*
X151008251Y-14323361D01*
X151014239Y-14319360D01*
X151065742Y-14284946D01*
X151129615Y-14258490D01*
X151129614Y-14258490D01*
X151129617Y-14258489D01*
X151197430Y-14245000D01*
X151266570Y-14245000D01*
X151334383Y-14258489D01*
X151334386Y-14258490D01*
X151334385Y-14258490D01*
X151398258Y-14284946D01*
X151449762Y-14319360D01*
X151455749Y-14323361D01*
X151504639Y-14372251D01*
X151540381Y-14425741D01*
X151543053Y-14429741D01*
X151561016Y-14473108D01*
X151572567Y-14494718D01*
X151588112Y-14513660D01*
X151607054Y-14529206D01*
X151628664Y-14540757D01*
X151652113Y-14547870D01*
X151676499Y-14550272D01*
X151700886Y-14547870D01*
X151724335Y-14540757D01*
X151745945Y-14529206D01*
X151764887Y-14513661D01*
X151780433Y-14494719D01*
X151791984Y-14473108D01*
X151809947Y-14429741D01*
X151812620Y-14425741D01*
X151848361Y-14372251D01*
X151897251Y-14323361D01*
X151903239Y-14319360D01*
X151954742Y-14284946D01*
X152018615Y-14258490D01*
X152018614Y-14258490D01*
X152018617Y-14258489D01*
X152086430Y-14245000D01*
X152155570Y-14245000D01*
X152223383Y-14258489D01*
X152223386Y-14258490D01*
X152223385Y-14258490D01*
X152287258Y-14284946D01*
X152338762Y-14319360D01*
X152344749Y-14323361D01*
X152393639Y-14372251D01*
X152429381Y-14425741D01*
X152432053Y-14429741D01*
X152450016Y-14473108D01*
X152461567Y-14494718D01*
X152477112Y-14513660D01*
X152496054Y-14529206D01*
X152517664Y-14540757D01*
X152541113Y-14547870D01*
X152565499Y-14550272D01*
X152589886Y-14547870D01*
X152613335Y-14540757D01*
X152634945Y-14529206D01*
X152653887Y-14513661D01*
X152669433Y-14494719D01*
X152680984Y-14473108D01*
X152698947Y-14429741D01*
X152701620Y-14425741D01*
X152737361Y-14372251D01*
X152786251Y-14323361D01*
X152792239Y-14319360D01*
X152843742Y-14284946D01*
X152907615Y-14258490D01*
X152907614Y-14258490D01*
X152907617Y-14258489D01*
X152975430Y-14245000D01*
X153044570Y-14245000D01*
X153112383Y-14258489D01*
X153112386Y-14258490D01*
X153112385Y-14258490D01*
X153176258Y-14284946D01*
X153227762Y-14319360D01*
X153233749Y-14323361D01*
X153282639Y-14372251D01*
X153318381Y-14425741D01*
X153321053Y-14429741D01*
X153339016Y-14473108D01*
X153350567Y-14494718D01*
X153366112Y-14513660D01*
X153385054Y-14529206D01*
X153406664Y-14540757D01*
X153430113Y-14547870D01*
X153454499Y-14550272D01*
X153478886Y-14547870D01*
X153502335Y-14540757D01*
X153523945Y-14529206D01*
X153542887Y-14513661D01*
X153558433Y-14494719D01*
X153569984Y-14473108D01*
X153587947Y-14429741D01*
X153590620Y-14425741D01*
X153626361Y-14372251D01*
X153675251Y-14323361D01*
X153681239Y-14319360D01*
X153732742Y-14284946D01*
X153796615Y-14258490D01*
X153796614Y-14258490D01*
X153796617Y-14258489D01*
X153864430Y-14245000D01*
X153933570Y-14245000D01*
X154001383Y-14258489D01*
X154001386Y-14258490D01*
X154001385Y-14258490D01*
X154065258Y-14284946D01*
X154116762Y-14319360D01*
X154122749Y-14323361D01*
X154171639Y-14372251D01*
X154207381Y-14425741D01*
X154210053Y-14429741D01*
X154228016Y-14473108D01*
X154239567Y-14494718D01*
X154255112Y-14513660D01*
X154274054Y-14529206D01*
X154295664Y-14540757D01*
X154319113Y-14547870D01*
X154343499Y-14550272D01*
X154367886Y-14547870D01*
X154391335Y-14540757D01*
X154412945Y-14529206D01*
X154431887Y-14513661D01*
X154447433Y-14494719D01*
X154458984Y-14473108D01*
X154476947Y-14429741D01*
X154479620Y-14425741D01*
X154515361Y-14372251D01*
X154564251Y-14323361D01*
X154570239Y-14319360D01*
X154621742Y-14284946D01*
X154685615Y-14258490D01*
X154685614Y-14258490D01*
X154685617Y-14258489D01*
X154753430Y-14245000D01*
X154822570Y-14245000D01*
X154890383Y-14258489D01*
X154890386Y-14258490D01*
X154890385Y-14258490D01*
X154954258Y-14284946D01*
X155005762Y-14319360D01*
X155011749Y-14323361D01*
X155060639Y-14372251D01*
X155096381Y-14425741D01*
X155099053Y-14429741D01*
X155117016Y-14473108D01*
X155128567Y-14494718D01*
X155144112Y-14513660D01*
X155163054Y-14529206D01*
X155184664Y-14540757D01*
X155208113Y-14547870D01*
X155232499Y-14550272D01*
X155256886Y-14547870D01*
X155280335Y-14540757D01*
X155301945Y-14529206D01*
X155320887Y-14513661D01*
X155336433Y-14494719D01*
X155347984Y-14473108D01*
X155365947Y-14429741D01*
X155368620Y-14425741D01*
X155404361Y-14372251D01*
X155453251Y-14323361D01*
X155459239Y-14319360D01*
X155510742Y-14284946D01*
X155574615Y-14258490D01*
X155574614Y-14258490D01*
X155574617Y-14258489D01*
X155642430Y-14245000D01*
X155711570Y-14245000D01*
X155779383Y-14258489D01*
X155779386Y-14258490D01*
X155779385Y-14258490D01*
X155843258Y-14284946D01*
X155900748Y-14323360D01*
X155949640Y-14372252D01*
X155988054Y-14429742D01*
X156004359Y-14469108D01*
X156014511Y-14493617D01*
X156028000Y-14561430D01*
X156028000Y-14630570D01*
X156014511Y-14698383D01*
X156014510Y-14698385D01*
X155988054Y-14762258D01*
X155949640Y-14819748D01*
X155900748Y-14868640D01*
X155843258Y-14907054D01*
X155791182Y-14928624D01*
X155779383Y-14933511D01*
X155711570Y-14947000D01*
X155642430Y-14947000D01*
X155574617Y-14933511D01*
X155562818Y-14928624D01*
X155510742Y-14907054D01*
X155453252Y-14868640D01*
X155404360Y-14819748D01*
X155365947Y-14762259D01*
X155347984Y-14718892D01*
X155336433Y-14697282D01*
X155320888Y-14678340D01*
X155301946Y-14662794D01*
X155280336Y-14651243D01*
X155256887Y-14644130D01*
X155232501Y-14641728D01*
X155208114Y-14644130D01*
X155184665Y-14651243D01*
X155163055Y-14662794D01*
X155144113Y-14678339D01*
X155128567Y-14697281D01*
X155117016Y-14718892D01*
X155099053Y-14762259D01*
X155060640Y-14819748D01*
X155011748Y-14868640D01*
X154954258Y-14907054D01*
X154902182Y-14928624D01*
X154890383Y-14933511D01*
X154822570Y-14947000D01*
X154753430Y-14947000D01*
X154685617Y-14933511D01*
X154673818Y-14928624D01*
X154621742Y-14907054D01*
X154564252Y-14868640D01*
X154515360Y-14819748D01*
X154476947Y-14762259D01*
X154458984Y-14718892D01*
X154447433Y-14697282D01*
X154431888Y-14678340D01*
X154412946Y-14662794D01*
X154391336Y-14651243D01*
X154367887Y-14644130D01*
X154343501Y-14641728D01*
X154319114Y-14644130D01*
X154295665Y-14651243D01*
X154274055Y-14662794D01*
X154255113Y-14678339D01*
X154239567Y-14697281D01*
X154228016Y-14718892D01*
X154210053Y-14762259D01*
X154171640Y-14819748D01*
X154122748Y-14868640D01*
X154065258Y-14907054D01*
X154013182Y-14928624D01*
X154001383Y-14933511D01*
X153933570Y-14947000D01*
X153864430Y-14947000D01*
X153796617Y-14933511D01*
X153784818Y-14928624D01*
X153732742Y-14907054D01*
X153675252Y-14868640D01*
X153626360Y-14819748D01*
X153587947Y-14762259D01*
X153569984Y-14718892D01*
X153558433Y-14697282D01*
X153542888Y-14678340D01*
X153523946Y-14662794D01*
X153502336Y-14651243D01*
X153478887Y-14644130D01*
X153454501Y-14641728D01*
X153430114Y-14644130D01*
X153406665Y-14651243D01*
X153385055Y-14662794D01*
X153366113Y-14678339D01*
X153350567Y-14697281D01*
X153339016Y-14718892D01*
X153321053Y-14762259D01*
X153282640Y-14819748D01*
X153233748Y-14868640D01*
X153176258Y-14907054D01*
X153124182Y-14928624D01*
X153112383Y-14933511D01*
X153044570Y-14947000D01*
X152975430Y-14947000D01*
X152907617Y-14933511D01*
X152895818Y-14928624D01*
X152843742Y-14907054D01*
X152786252Y-14868640D01*
X152737360Y-14819748D01*
X152698947Y-14762259D01*
X152680984Y-14718892D01*
X152669433Y-14697282D01*
X152653888Y-14678340D01*
X152634946Y-14662794D01*
X152613336Y-14651243D01*
X152589887Y-14644130D01*
X152565501Y-14641728D01*
X152541114Y-14644130D01*
X152517665Y-14651243D01*
X152496055Y-14662794D01*
X152477113Y-14678339D01*
X152461567Y-14697281D01*
X152450016Y-14718892D01*
X152432053Y-14762259D01*
X152393640Y-14819748D01*
X152344748Y-14868640D01*
X152287258Y-14907054D01*
X152235182Y-14928624D01*
X152223383Y-14933511D01*
X152155570Y-14947000D01*
X152086430Y-14947000D01*
X152018617Y-14933511D01*
X152006818Y-14928624D01*
X151954742Y-14907054D01*
X151897252Y-14868640D01*
X151848360Y-14819748D01*
X151809947Y-14762259D01*
X151791984Y-14718892D01*
X151780433Y-14697282D01*
X151764888Y-14678340D01*
X151745946Y-14662794D01*
X151724336Y-14651243D01*
X151700887Y-14644130D01*
X151676501Y-14641728D01*
X151652114Y-14644130D01*
X151628665Y-14651243D01*
X151607055Y-14662794D01*
X151588113Y-14678339D01*
X151572567Y-14697281D01*
X151561016Y-14718892D01*
X151543053Y-14762259D01*
X151504640Y-14819748D01*
X151455748Y-14868640D01*
X151398258Y-14907054D01*
X151346182Y-14928624D01*
X151334383Y-14933511D01*
X151266570Y-14947000D01*
X151197430Y-14947000D01*
X151129617Y-14933511D01*
X151117818Y-14928624D01*
X151065742Y-14907054D01*
X151008252Y-14868640D01*
X150959360Y-14819748D01*
X150920947Y-14762259D01*
X150902984Y-14718892D01*
X150891433Y-14697282D01*
X150875888Y-14678340D01*
X150856946Y-14662794D01*
X150835336Y-14651243D01*
X150811887Y-14644130D01*
X150787501Y-14641728D01*
X150763114Y-14644130D01*
X150739665Y-14651243D01*
X150718055Y-14662794D01*
X150699113Y-14678339D01*
X150683567Y-14697281D01*
X150672016Y-14718892D01*
X150654053Y-14762259D01*
X150615640Y-14819748D01*
X150566748Y-14868640D01*
X150509258Y-14907054D01*
X150457182Y-14928624D01*
X150445383Y-14933511D01*
X150377570Y-14947000D01*
X150308430Y-14947000D01*
X150240617Y-14933511D01*
X150228818Y-14928624D01*
X150176742Y-14907054D01*
X150119252Y-14868640D01*
X150070360Y-14819748D01*
X150031946Y-14762258D01*
X150005490Y-14698385D01*
X150005489Y-14698383D01*
X149992000Y-14630570D01*
X149992000Y-14561430D01*
X150005489Y-14493617D01*
X150015641Y-14469108D01*
X150031946Y-14429742D01*
X150070360Y-14372252D01*
X150119252Y-14323360D01*
X150176742Y-14284946D01*
X150240615Y-14258490D01*
X150240614Y-14258490D01*
X150240617Y-14258489D01*
X150308430Y-14245000D01*
X150377570Y-14245000D01*
X150445383Y-14258489D01*
G37*
G36*
X238753383Y-14254489D02*
G01*
X238753386Y-14254490D01*
X238753385Y-14254490D01*
X238817258Y-14280946D01*
X238874748Y-14319360D01*
X238923640Y-14368252D01*
X238962053Y-14425741D01*
X238980016Y-14469108D01*
X238991567Y-14490718D01*
X239007112Y-14509660D01*
X239026054Y-14525206D01*
X239047664Y-14536757D01*
X239071113Y-14543870D01*
X239095499Y-14546272D01*
X239119886Y-14543870D01*
X239143335Y-14536757D01*
X239164945Y-14525206D01*
X239183887Y-14509661D01*
X239199433Y-14490719D01*
X239210984Y-14469108D01*
X239228947Y-14425741D01*
X239267360Y-14368252D01*
X239316252Y-14319360D01*
X239373742Y-14280946D01*
X239437615Y-14254490D01*
X239437614Y-14254490D01*
X239437617Y-14254489D01*
X239505430Y-14241000D01*
X239574570Y-14241000D01*
X239642383Y-14254489D01*
X239642386Y-14254490D01*
X239642385Y-14254490D01*
X239706258Y-14280946D01*
X239763748Y-14319360D01*
X239812640Y-14368252D01*
X239851053Y-14425741D01*
X239869016Y-14469108D01*
X239880567Y-14490718D01*
X239896112Y-14509660D01*
X239915054Y-14525206D01*
X239936664Y-14536757D01*
X239960113Y-14543870D01*
X239984499Y-14546272D01*
X240008886Y-14543870D01*
X240032335Y-14536757D01*
X240053945Y-14525206D01*
X240072887Y-14509661D01*
X240088433Y-14490719D01*
X240099984Y-14469108D01*
X240117947Y-14425741D01*
X240156360Y-14368252D01*
X240205252Y-14319360D01*
X240262742Y-14280946D01*
X240326615Y-14254490D01*
X240326614Y-14254490D01*
X240326617Y-14254489D01*
X240394430Y-14241000D01*
X240463570Y-14241000D01*
X240531383Y-14254489D01*
X240531386Y-14254490D01*
X240531385Y-14254490D01*
X240595258Y-14280946D01*
X240652748Y-14319360D01*
X240701640Y-14368252D01*
X240740053Y-14425741D01*
X240758016Y-14469108D01*
X240769567Y-14490718D01*
X240785112Y-14509660D01*
X240804054Y-14525206D01*
X240825664Y-14536757D01*
X240849113Y-14543870D01*
X240873499Y-14546272D01*
X240897886Y-14543870D01*
X240921335Y-14536757D01*
X240942945Y-14525206D01*
X240961887Y-14509661D01*
X240977433Y-14490719D01*
X240988984Y-14469108D01*
X241006947Y-14425741D01*
X241045360Y-14368252D01*
X241094252Y-14319360D01*
X241151742Y-14280946D01*
X241215615Y-14254490D01*
X241215614Y-14254490D01*
X241215617Y-14254489D01*
X241283430Y-14241000D01*
X241352570Y-14241000D01*
X241420383Y-14254489D01*
X241420386Y-14254490D01*
X241420385Y-14254490D01*
X241484258Y-14280946D01*
X241541748Y-14319360D01*
X241590640Y-14368252D01*
X241629053Y-14425741D01*
X241647016Y-14469108D01*
X241658567Y-14490718D01*
X241674112Y-14509660D01*
X241693054Y-14525206D01*
X241714664Y-14536757D01*
X241738113Y-14543870D01*
X241762499Y-14546272D01*
X241786886Y-14543870D01*
X241810335Y-14536757D01*
X241831945Y-14525206D01*
X241850887Y-14509661D01*
X241866433Y-14490719D01*
X241877984Y-14469108D01*
X241895947Y-14425741D01*
X241934360Y-14368252D01*
X241983252Y-14319360D01*
X242040742Y-14280946D01*
X242104615Y-14254490D01*
X242104614Y-14254490D01*
X242104617Y-14254489D01*
X242172430Y-14241000D01*
X242241570Y-14241000D01*
X242309383Y-14254489D01*
X242309386Y-14254490D01*
X242309385Y-14254490D01*
X242373258Y-14280946D01*
X242430748Y-14319360D01*
X242479640Y-14368252D01*
X242518053Y-14425741D01*
X242536016Y-14469108D01*
X242547567Y-14490718D01*
X242563112Y-14509660D01*
X242582054Y-14525206D01*
X242603664Y-14536757D01*
X242627113Y-14543870D01*
X242651499Y-14546272D01*
X242675886Y-14543870D01*
X242699335Y-14536757D01*
X242720945Y-14525206D01*
X242739887Y-14509661D01*
X242755433Y-14490719D01*
X242766984Y-14469108D01*
X242784947Y-14425741D01*
X242823360Y-14368252D01*
X242872252Y-14319360D01*
X242929742Y-14280946D01*
X242993615Y-14254490D01*
X242993614Y-14254490D01*
X242993617Y-14254489D01*
X243061430Y-14241000D01*
X243130570Y-14241000D01*
X243198383Y-14254489D01*
X243198386Y-14254490D01*
X243198385Y-14254490D01*
X243262258Y-14280946D01*
X243319748Y-14319360D01*
X243368640Y-14368252D01*
X243407053Y-14425741D01*
X243425016Y-14469108D01*
X243436567Y-14490718D01*
X243452112Y-14509660D01*
X243471054Y-14525206D01*
X243492664Y-14536757D01*
X243516113Y-14543870D01*
X243540499Y-14546272D01*
X243564886Y-14543870D01*
X243588335Y-14536757D01*
X243609945Y-14525206D01*
X243628887Y-14509661D01*
X243644433Y-14490719D01*
X243655984Y-14469108D01*
X243673947Y-14425741D01*
X243712360Y-14368252D01*
X243761252Y-14319360D01*
X243818742Y-14280946D01*
X243882615Y-14254490D01*
X243882614Y-14254490D01*
X243882617Y-14254489D01*
X243950430Y-14241000D01*
X244019570Y-14241000D01*
X244087383Y-14254489D01*
X244087386Y-14254490D01*
X244087385Y-14254490D01*
X244151258Y-14280946D01*
X244208748Y-14319360D01*
X244257640Y-14368252D01*
X244296054Y-14425742D01*
X244314016Y-14469108D01*
X244322511Y-14489617D01*
X244336000Y-14557430D01*
X244336000Y-14626570D01*
X244322511Y-14694383D01*
X244321310Y-14697282D01*
X244296054Y-14758258D01*
X244257640Y-14815748D01*
X244208748Y-14864640D01*
X244151258Y-14903054D01*
X244099182Y-14924624D01*
X244087383Y-14929511D01*
X244019570Y-14943000D01*
X243950430Y-14943000D01*
X243882617Y-14929511D01*
X243870818Y-14924624D01*
X243818742Y-14903054D01*
X243761252Y-14864640D01*
X243712360Y-14815748D01*
X243676621Y-14762261D01*
X243673948Y-14758261D01*
X243655984Y-14714892D01*
X243644433Y-14693282D01*
X243628888Y-14674340D01*
X243609946Y-14658794D01*
X243588336Y-14647243D01*
X243564887Y-14640130D01*
X243540501Y-14637728D01*
X243516114Y-14640130D01*
X243492665Y-14647243D01*
X243471055Y-14658794D01*
X243452113Y-14674339D01*
X243436567Y-14693281D01*
X243425016Y-14714892D01*
X243407052Y-14758261D01*
X243404379Y-14762261D01*
X243368640Y-14815748D01*
X243319748Y-14864640D01*
X243262258Y-14903054D01*
X243210182Y-14924624D01*
X243198383Y-14929511D01*
X243130570Y-14943000D01*
X243061430Y-14943000D01*
X242993617Y-14929511D01*
X242981818Y-14924624D01*
X242929742Y-14903054D01*
X242872252Y-14864640D01*
X242823360Y-14815748D01*
X242787621Y-14762261D01*
X242784948Y-14758261D01*
X242766984Y-14714892D01*
X242755433Y-14693282D01*
X242739888Y-14674340D01*
X242720946Y-14658794D01*
X242699336Y-14647243D01*
X242675887Y-14640130D01*
X242651501Y-14637728D01*
X242627114Y-14640130D01*
X242603665Y-14647243D01*
X242582055Y-14658794D01*
X242563113Y-14674339D01*
X242547567Y-14693281D01*
X242536016Y-14714892D01*
X242518052Y-14758261D01*
X242515379Y-14762261D01*
X242479640Y-14815748D01*
X242430748Y-14864640D01*
X242373258Y-14903054D01*
X242321182Y-14924624D01*
X242309383Y-14929511D01*
X242241570Y-14943000D01*
X242172430Y-14943000D01*
X242104617Y-14929511D01*
X242092818Y-14924624D01*
X242040742Y-14903054D01*
X241983252Y-14864640D01*
X241934360Y-14815748D01*
X241898621Y-14762261D01*
X241895948Y-14758261D01*
X241877984Y-14714892D01*
X241866433Y-14693282D01*
X241850888Y-14674340D01*
X241831946Y-14658794D01*
X241810336Y-14647243D01*
X241786887Y-14640130D01*
X241762501Y-14637728D01*
X241738114Y-14640130D01*
X241714665Y-14647243D01*
X241693055Y-14658794D01*
X241674113Y-14674339D01*
X241658567Y-14693281D01*
X241647016Y-14714892D01*
X241629052Y-14758261D01*
X241626379Y-14762261D01*
X241590640Y-14815748D01*
X241541748Y-14864640D01*
X241484258Y-14903054D01*
X241432182Y-14924624D01*
X241420383Y-14929511D01*
X241352570Y-14943000D01*
X241283430Y-14943000D01*
X241215617Y-14929511D01*
X241203818Y-14924624D01*
X241151742Y-14903054D01*
X241094252Y-14864640D01*
X241045360Y-14815748D01*
X241009621Y-14762261D01*
X241006948Y-14758261D01*
X240988984Y-14714892D01*
X240977433Y-14693282D01*
X240961888Y-14674340D01*
X240942946Y-14658794D01*
X240921336Y-14647243D01*
X240897887Y-14640130D01*
X240873501Y-14637728D01*
X240849114Y-14640130D01*
X240825665Y-14647243D01*
X240804055Y-14658794D01*
X240785113Y-14674339D01*
X240769567Y-14693281D01*
X240758016Y-14714892D01*
X240740052Y-14758261D01*
X240737379Y-14762261D01*
X240701640Y-14815748D01*
X240652748Y-14864640D01*
X240595258Y-14903054D01*
X240543182Y-14924624D01*
X240531383Y-14929511D01*
X240463570Y-14943000D01*
X240394430Y-14943000D01*
X240326617Y-14929511D01*
X240314818Y-14924624D01*
X240262742Y-14903054D01*
X240205252Y-14864640D01*
X240156360Y-14815748D01*
X240120621Y-14762261D01*
X240117948Y-14758261D01*
X240099984Y-14714892D01*
X240088433Y-14693282D01*
X240072888Y-14674340D01*
X240053946Y-14658794D01*
X240032336Y-14647243D01*
X240008887Y-14640130D01*
X239984501Y-14637728D01*
X239960114Y-14640130D01*
X239936665Y-14647243D01*
X239915055Y-14658794D01*
X239896113Y-14674339D01*
X239880567Y-14693281D01*
X239869016Y-14714892D01*
X239851052Y-14758261D01*
X239848379Y-14762261D01*
X239812640Y-14815748D01*
X239763748Y-14864640D01*
X239706258Y-14903054D01*
X239654182Y-14924624D01*
X239642383Y-14929511D01*
X239574570Y-14943000D01*
X239505430Y-14943000D01*
X239437617Y-14929511D01*
X239425818Y-14924624D01*
X239373742Y-14903054D01*
X239316252Y-14864640D01*
X239267360Y-14815748D01*
X239231621Y-14762261D01*
X239228948Y-14758261D01*
X239210984Y-14714892D01*
X239199433Y-14693282D01*
X239183888Y-14674340D01*
X239164946Y-14658794D01*
X239143336Y-14647243D01*
X239119887Y-14640130D01*
X239095501Y-14637728D01*
X239071114Y-14640130D01*
X239047665Y-14647243D01*
X239026055Y-14658794D01*
X239007113Y-14674339D01*
X238991567Y-14693281D01*
X238980016Y-14714892D01*
X238962052Y-14758261D01*
X238959379Y-14762261D01*
X238923640Y-14815748D01*
X238874748Y-14864640D01*
X238817258Y-14903054D01*
X238765182Y-14924624D01*
X238753383Y-14929511D01*
X238685570Y-14943000D01*
X238616430Y-14943000D01*
X238548617Y-14929511D01*
X238536818Y-14924624D01*
X238484742Y-14903054D01*
X238427252Y-14864640D01*
X238378360Y-14815748D01*
X238339946Y-14758258D01*
X238314690Y-14697282D01*
X238313489Y-14694383D01*
X238300000Y-14626570D01*
X238300000Y-14557430D01*
X238313489Y-14489617D01*
X238321984Y-14469108D01*
X238339946Y-14425742D01*
X238378360Y-14368252D01*
X238427252Y-14319360D01*
X238484742Y-14280946D01*
X238548615Y-14254490D01*
X238548614Y-14254490D01*
X238548617Y-14254489D01*
X238616430Y-14241000D01*
X238685570Y-14241000D01*
X238753383Y-14254489D01*
G37*
G36*
X150445383Y-12226489D02*
G01*
X150445386Y-12226490D01*
X150445385Y-12226490D01*
X150509258Y-12252946D01*
X150560762Y-12287360D01*
X150566749Y-12291361D01*
X150615639Y-12340251D01*
X150651381Y-12393741D01*
X150654053Y-12397741D01*
X150672016Y-12441108D01*
X150683567Y-12462718D01*
X150699112Y-12481660D01*
X150718054Y-12497206D01*
X150739664Y-12508757D01*
X150763113Y-12515870D01*
X150787499Y-12518272D01*
X150811886Y-12515870D01*
X150835335Y-12508757D01*
X150856945Y-12497206D01*
X150875887Y-12481661D01*
X150891433Y-12462719D01*
X150902984Y-12441108D01*
X150920947Y-12397741D01*
X150923620Y-12393741D01*
X150959361Y-12340251D01*
X151008251Y-12291361D01*
X151014239Y-12287360D01*
X151065742Y-12252946D01*
X151129615Y-12226490D01*
X151129614Y-12226490D01*
X151129617Y-12226489D01*
X151197430Y-12213000D01*
X151266570Y-12213000D01*
X151334383Y-12226489D01*
X151334386Y-12226490D01*
X151334385Y-12226490D01*
X151398258Y-12252946D01*
X151449762Y-12287360D01*
X151455749Y-12291361D01*
X151504639Y-12340251D01*
X151540381Y-12393741D01*
X151543053Y-12397741D01*
X151561016Y-12441108D01*
X151572567Y-12462718D01*
X151588112Y-12481660D01*
X151607054Y-12497206D01*
X151628664Y-12508757D01*
X151652113Y-12515870D01*
X151676499Y-12518272D01*
X151700886Y-12515870D01*
X151724335Y-12508757D01*
X151745945Y-12497206D01*
X151764887Y-12481661D01*
X151780433Y-12462719D01*
X151791984Y-12441108D01*
X151809947Y-12397741D01*
X151812620Y-12393741D01*
X151848361Y-12340251D01*
X151897251Y-12291361D01*
X151903239Y-12287360D01*
X151954742Y-12252946D01*
X152018615Y-12226490D01*
X152018614Y-12226490D01*
X152018617Y-12226489D01*
X152086430Y-12213000D01*
X152155570Y-12213000D01*
X152223383Y-12226489D01*
X152223386Y-12226490D01*
X152223385Y-12226490D01*
X152287258Y-12252946D01*
X152338762Y-12287360D01*
X152344749Y-12291361D01*
X152393639Y-12340251D01*
X152429381Y-12393741D01*
X152432053Y-12397741D01*
X152450016Y-12441108D01*
X152461567Y-12462718D01*
X152477112Y-12481660D01*
X152496054Y-12497206D01*
X152517664Y-12508757D01*
X152541113Y-12515870D01*
X152565499Y-12518272D01*
X152589886Y-12515870D01*
X152613335Y-12508757D01*
X152634945Y-12497206D01*
X152653887Y-12481661D01*
X152669433Y-12462719D01*
X152680984Y-12441108D01*
X152698947Y-12397741D01*
X152701620Y-12393741D01*
X152737361Y-12340251D01*
X152786251Y-12291361D01*
X152792239Y-12287360D01*
X152843742Y-12252946D01*
X152907615Y-12226490D01*
X152907614Y-12226490D01*
X152907617Y-12226489D01*
X152975430Y-12213000D01*
X153044570Y-12213000D01*
X153112383Y-12226489D01*
X153112386Y-12226490D01*
X153112385Y-12226490D01*
X153176258Y-12252946D01*
X153227762Y-12287360D01*
X153233749Y-12291361D01*
X153282639Y-12340251D01*
X153318381Y-12393741D01*
X153321053Y-12397741D01*
X153339016Y-12441108D01*
X153350567Y-12462718D01*
X153366112Y-12481660D01*
X153385054Y-12497206D01*
X153406664Y-12508757D01*
X153430113Y-12515870D01*
X153454499Y-12518272D01*
X153478886Y-12515870D01*
X153502335Y-12508757D01*
X153523945Y-12497206D01*
X153542887Y-12481661D01*
X153558433Y-12462719D01*
X153569984Y-12441108D01*
X153587947Y-12397741D01*
X153590620Y-12393741D01*
X153626361Y-12340251D01*
X153675251Y-12291361D01*
X153681239Y-12287360D01*
X153732742Y-12252946D01*
X153796615Y-12226490D01*
X153796614Y-12226490D01*
X153796617Y-12226489D01*
X153864430Y-12213000D01*
X153933570Y-12213000D01*
X154001383Y-12226489D01*
X154001386Y-12226490D01*
X154001385Y-12226490D01*
X154065258Y-12252946D01*
X154116762Y-12287360D01*
X154122749Y-12291361D01*
X154171639Y-12340251D01*
X154207381Y-12393741D01*
X154210053Y-12397741D01*
X154228016Y-12441108D01*
X154239567Y-12462718D01*
X154255112Y-12481660D01*
X154274054Y-12497206D01*
X154295664Y-12508757D01*
X154319113Y-12515870D01*
X154343499Y-12518272D01*
X154367886Y-12515870D01*
X154391335Y-12508757D01*
X154412945Y-12497206D01*
X154431887Y-12481661D01*
X154447433Y-12462719D01*
X154458984Y-12441108D01*
X154476947Y-12397741D01*
X154479620Y-12393741D01*
X154515361Y-12340251D01*
X154564251Y-12291361D01*
X154570239Y-12287360D01*
X154621742Y-12252946D01*
X154685615Y-12226490D01*
X154685614Y-12226490D01*
X154685617Y-12226489D01*
X154753430Y-12213000D01*
X154822570Y-12213000D01*
X154890383Y-12226489D01*
X154890386Y-12226490D01*
X154890385Y-12226490D01*
X154954258Y-12252946D01*
X155005762Y-12287360D01*
X155011749Y-12291361D01*
X155060639Y-12340251D01*
X155096381Y-12393741D01*
X155099053Y-12397741D01*
X155117016Y-12441108D01*
X155128567Y-12462718D01*
X155144112Y-12481660D01*
X155163054Y-12497206D01*
X155184664Y-12508757D01*
X155208113Y-12515870D01*
X155232499Y-12518272D01*
X155256886Y-12515870D01*
X155280335Y-12508757D01*
X155301945Y-12497206D01*
X155320887Y-12481661D01*
X155336433Y-12462719D01*
X155347984Y-12441108D01*
X155365947Y-12397741D01*
X155368620Y-12393741D01*
X155404361Y-12340251D01*
X155453251Y-12291361D01*
X155459239Y-12287360D01*
X155510742Y-12252946D01*
X155574615Y-12226490D01*
X155574614Y-12226490D01*
X155574617Y-12226489D01*
X155642430Y-12213000D01*
X155711570Y-12213000D01*
X155779383Y-12226489D01*
X155779386Y-12226490D01*
X155779385Y-12226490D01*
X155843258Y-12252946D01*
X155900748Y-12291360D01*
X155949640Y-12340252D01*
X155988054Y-12397742D01*
X156004359Y-12437108D01*
X156014511Y-12461617D01*
X156028000Y-12529430D01*
X156028000Y-12598570D01*
X156014511Y-12666383D01*
X156014510Y-12666385D01*
X155988054Y-12730258D01*
X155949640Y-12787748D01*
X155900748Y-12836640D01*
X155843258Y-12875054D01*
X155791182Y-12896624D01*
X155779383Y-12901511D01*
X155711570Y-12915000D01*
X155642430Y-12915000D01*
X155574617Y-12901511D01*
X155562818Y-12896624D01*
X155510742Y-12875054D01*
X155453252Y-12836640D01*
X155404360Y-12787748D01*
X155365947Y-12730259D01*
X155347984Y-12686892D01*
X155336433Y-12665282D01*
X155320888Y-12646340D01*
X155301946Y-12630794D01*
X155280336Y-12619243D01*
X155256887Y-12612130D01*
X155232501Y-12609728D01*
X155208114Y-12612130D01*
X155184665Y-12619243D01*
X155163055Y-12630794D01*
X155144113Y-12646339D01*
X155128567Y-12665281D01*
X155117016Y-12686892D01*
X155099053Y-12730259D01*
X155060640Y-12787748D01*
X155011748Y-12836640D01*
X154954258Y-12875054D01*
X154902182Y-12896624D01*
X154890383Y-12901511D01*
X154822570Y-12915000D01*
X154753430Y-12915000D01*
X154685617Y-12901511D01*
X154673818Y-12896624D01*
X154621742Y-12875054D01*
X154564252Y-12836640D01*
X154515360Y-12787748D01*
X154476947Y-12730259D01*
X154458984Y-12686892D01*
X154447433Y-12665282D01*
X154431888Y-12646340D01*
X154412946Y-12630794D01*
X154391336Y-12619243D01*
X154367887Y-12612130D01*
X154343501Y-12609728D01*
X154319114Y-12612130D01*
X154295665Y-12619243D01*
X154274055Y-12630794D01*
X154255113Y-12646339D01*
X154239567Y-12665281D01*
X154228016Y-12686892D01*
X154210053Y-12730259D01*
X154171640Y-12787748D01*
X154122748Y-12836640D01*
X154065258Y-12875054D01*
X154013182Y-12896624D01*
X154001383Y-12901511D01*
X153933570Y-12915000D01*
X153864430Y-12915000D01*
X153796617Y-12901511D01*
X153784818Y-12896624D01*
X153732742Y-12875054D01*
X153675252Y-12836640D01*
X153626360Y-12787748D01*
X153587947Y-12730259D01*
X153569984Y-12686892D01*
X153558433Y-12665282D01*
X153542888Y-12646340D01*
X153523946Y-12630794D01*
X153502336Y-12619243D01*
X153478887Y-12612130D01*
X153454501Y-12609728D01*
X153430114Y-12612130D01*
X153406665Y-12619243D01*
X153385055Y-12630794D01*
X153366113Y-12646339D01*
X153350567Y-12665281D01*
X153339016Y-12686892D01*
X153321053Y-12730259D01*
X153282640Y-12787748D01*
X153233748Y-12836640D01*
X153176258Y-12875054D01*
X153124182Y-12896624D01*
X153112383Y-12901511D01*
X153044570Y-12915000D01*
X152975430Y-12915000D01*
X152907617Y-12901511D01*
X152895818Y-12896624D01*
X152843742Y-12875054D01*
X152786252Y-12836640D01*
X152737360Y-12787748D01*
X152698947Y-12730259D01*
X152680984Y-12686892D01*
X152669433Y-12665282D01*
X152653888Y-12646340D01*
X152634946Y-12630794D01*
X152613336Y-12619243D01*
X152589887Y-12612130D01*
X152565501Y-12609728D01*
X152541114Y-12612130D01*
X152517665Y-12619243D01*
X152496055Y-12630794D01*
X152477113Y-12646339D01*
X152461567Y-12665281D01*
X152450016Y-12686892D01*
X152432053Y-12730259D01*
X152393640Y-12787748D01*
X152344748Y-12836640D01*
X152287258Y-12875054D01*
X152235182Y-12896624D01*
X152223383Y-12901511D01*
X152155570Y-12915000D01*
X152086430Y-12915000D01*
X152018617Y-12901511D01*
X152006818Y-12896624D01*
X151954742Y-12875054D01*
X151897252Y-12836640D01*
X151848360Y-12787748D01*
X151809947Y-12730259D01*
X151791984Y-12686892D01*
X151780433Y-12665282D01*
X151764888Y-12646340D01*
X151745946Y-12630794D01*
X151724336Y-12619243D01*
X151700887Y-12612130D01*
X151676501Y-12609728D01*
X151652114Y-12612130D01*
X151628665Y-12619243D01*
X151607055Y-12630794D01*
X151588113Y-12646339D01*
X151572567Y-12665281D01*
X151561016Y-12686892D01*
X151543053Y-12730259D01*
X151504640Y-12787748D01*
X151455748Y-12836640D01*
X151398258Y-12875054D01*
X151346182Y-12896624D01*
X151334383Y-12901511D01*
X151266570Y-12915000D01*
X151197430Y-12915000D01*
X151129617Y-12901511D01*
X151117818Y-12896624D01*
X151065742Y-12875054D01*
X151008252Y-12836640D01*
X150959360Y-12787748D01*
X150920947Y-12730259D01*
X150902984Y-12686892D01*
X150891433Y-12665282D01*
X150875888Y-12646340D01*
X150856946Y-12630794D01*
X150835336Y-12619243D01*
X150811887Y-12612130D01*
X150787501Y-12609728D01*
X150763114Y-12612130D01*
X150739665Y-12619243D01*
X150718055Y-12630794D01*
X150699113Y-12646339D01*
X150683567Y-12665281D01*
X150672016Y-12686892D01*
X150654053Y-12730259D01*
X150615640Y-12787748D01*
X150566748Y-12836640D01*
X150509258Y-12875054D01*
X150457182Y-12896624D01*
X150445383Y-12901511D01*
X150377570Y-12915000D01*
X150308430Y-12915000D01*
X150240617Y-12901511D01*
X150228818Y-12896624D01*
X150176742Y-12875054D01*
X150119252Y-12836640D01*
X150070360Y-12787748D01*
X150031946Y-12730258D01*
X150005490Y-12666385D01*
X150005489Y-12666383D01*
X149992000Y-12598570D01*
X149992000Y-12529430D01*
X150005489Y-12461617D01*
X150015641Y-12437108D01*
X150031946Y-12397742D01*
X150070360Y-12340252D01*
X150119252Y-12291360D01*
X150176742Y-12252946D01*
X150240615Y-12226490D01*
X150240614Y-12226490D01*
X150240617Y-12226489D01*
X150308430Y-12213000D01*
X150377570Y-12213000D01*
X150445383Y-12226489D01*
G37*
G36*
X238753383Y-12222489D02*
G01*
X238753386Y-12222490D01*
X238753385Y-12222490D01*
X238817258Y-12248946D01*
X238874748Y-12287360D01*
X238923640Y-12336252D01*
X238962053Y-12393741D01*
X238980016Y-12437108D01*
X238991567Y-12458718D01*
X239007112Y-12477660D01*
X239026054Y-12493206D01*
X239047664Y-12504757D01*
X239071113Y-12511870D01*
X239095499Y-12514272D01*
X239119886Y-12511870D01*
X239143335Y-12504757D01*
X239164945Y-12493206D01*
X239183887Y-12477661D01*
X239199433Y-12458719D01*
X239210984Y-12437108D01*
X239228947Y-12393741D01*
X239267360Y-12336252D01*
X239316252Y-12287360D01*
X239373742Y-12248946D01*
X239437615Y-12222490D01*
X239437614Y-12222490D01*
X239437617Y-12222489D01*
X239505430Y-12209000D01*
X239574570Y-12209000D01*
X239642383Y-12222489D01*
X239642386Y-12222490D01*
X239642385Y-12222490D01*
X239706258Y-12248946D01*
X239763748Y-12287360D01*
X239812640Y-12336252D01*
X239851053Y-12393741D01*
X239869016Y-12437108D01*
X239880567Y-12458718D01*
X239896112Y-12477660D01*
X239915054Y-12493206D01*
X239936664Y-12504757D01*
X239960113Y-12511870D01*
X239984499Y-12514272D01*
X240008886Y-12511870D01*
X240032335Y-12504757D01*
X240053945Y-12493206D01*
X240072887Y-12477661D01*
X240088433Y-12458719D01*
X240099984Y-12437108D01*
X240117947Y-12393741D01*
X240156360Y-12336252D01*
X240205252Y-12287360D01*
X240262742Y-12248946D01*
X240326615Y-12222490D01*
X240326614Y-12222490D01*
X240326617Y-12222489D01*
X240394430Y-12209000D01*
X240463570Y-12209000D01*
X240531383Y-12222489D01*
X240531386Y-12222490D01*
X240531385Y-12222490D01*
X240595258Y-12248946D01*
X240652748Y-12287360D01*
X240701640Y-12336252D01*
X240740053Y-12393741D01*
X240758016Y-12437108D01*
X240769567Y-12458718D01*
X240785112Y-12477660D01*
X240804054Y-12493206D01*
X240825664Y-12504757D01*
X240849113Y-12511870D01*
X240873499Y-12514272D01*
X240897886Y-12511870D01*
X240921335Y-12504757D01*
X240942945Y-12493206D01*
X240961887Y-12477661D01*
X240977433Y-12458719D01*
X240988984Y-12437108D01*
X241006947Y-12393741D01*
X241045360Y-12336252D01*
X241094252Y-12287360D01*
X241151742Y-12248946D01*
X241215615Y-12222490D01*
X241215614Y-12222490D01*
X241215617Y-12222489D01*
X241283430Y-12209000D01*
X241352570Y-12209000D01*
X241420383Y-12222489D01*
X241420386Y-12222490D01*
X241420385Y-12222490D01*
X241484258Y-12248946D01*
X241541748Y-12287360D01*
X241590640Y-12336252D01*
X241629053Y-12393741D01*
X241647016Y-12437108D01*
X241658567Y-12458718D01*
X241674112Y-12477660D01*
X241693054Y-12493206D01*
X241714664Y-12504757D01*
X241738113Y-12511870D01*
X241762499Y-12514272D01*
X241786886Y-12511870D01*
X241810335Y-12504757D01*
X241831945Y-12493206D01*
X241850887Y-12477661D01*
X241866433Y-12458719D01*
X241877984Y-12437108D01*
X241895947Y-12393741D01*
X241934360Y-12336252D01*
X241983252Y-12287360D01*
X242040742Y-12248946D01*
X242104615Y-12222490D01*
X242104614Y-12222490D01*
X242104617Y-12222489D01*
X242172430Y-12209000D01*
X242241570Y-12209000D01*
X242309383Y-12222489D01*
X242309386Y-12222490D01*
X242309385Y-12222490D01*
X242373258Y-12248946D01*
X242430748Y-12287360D01*
X242479640Y-12336252D01*
X242518053Y-12393741D01*
X242536016Y-12437108D01*
X242547567Y-12458718D01*
X242563112Y-12477660D01*
X242582054Y-12493206D01*
X242603664Y-12504757D01*
X242627113Y-12511870D01*
X242651499Y-12514272D01*
X242675886Y-12511870D01*
X242699335Y-12504757D01*
X242720945Y-12493206D01*
X242739887Y-12477661D01*
X242755433Y-12458719D01*
X242766984Y-12437108D01*
X242784947Y-12393741D01*
X242823360Y-12336252D01*
X242872252Y-12287360D01*
X242929742Y-12248946D01*
X242993615Y-12222490D01*
X242993614Y-12222490D01*
X242993617Y-12222489D01*
X243061430Y-12209000D01*
X243130570Y-12209000D01*
X243198383Y-12222489D01*
X243198386Y-12222490D01*
X243198385Y-12222490D01*
X243262258Y-12248946D01*
X243319748Y-12287360D01*
X243368640Y-12336252D01*
X243407053Y-12393741D01*
X243425016Y-12437108D01*
X243436567Y-12458718D01*
X243452112Y-12477660D01*
X243471054Y-12493206D01*
X243492664Y-12504757D01*
X243516113Y-12511870D01*
X243540499Y-12514272D01*
X243564886Y-12511870D01*
X243588335Y-12504757D01*
X243609945Y-12493206D01*
X243628887Y-12477661D01*
X243644433Y-12458719D01*
X243655984Y-12437108D01*
X243673947Y-12393741D01*
X243712360Y-12336252D01*
X243761252Y-12287360D01*
X243818742Y-12248946D01*
X243882615Y-12222490D01*
X243882614Y-12222490D01*
X243882617Y-12222489D01*
X243950430Y-12209000D01*
X244019570Y-12209000D01*
X244087383Y-12222489D01*
X244087386Y-12222490D01*
X244087385Y-12222490D01*
X244151258Y-12248946D01*
X244208748Y-12287360D01*
X244257640Y-12336252D01*
X244296054Y-12393742D01*
X244314016Y-12437108D01*
X244322511Y-12457617D01*
X244336000Y-12525430D01*
X244336000Y-12594570D01*
X244322511Y-12662383D01*
X244321310Y-12665282D01*
X244296054Y-12726258D01*
X244257640Y-12783748D01*
X244208748Y-12832640D01*
X244151258Y-12871054D01*
X244099182Y-12892624D01*
X244087383Y-12897511D01*
X244019570Y-12911000D01*
X243950430Y-12911000D01*
X243882617Y-12897511D01*
X243870818Y-12892624D01*
X243818742Y-12871054D01*
X243761252Y-12832640D01*
X243712360Y-12783748D01*
X243676621Y-12730261D01*
X243673948Y-12726261D01*
X243655984Y-12682892D01*
X243644433Y-12661282D01*
X243628888Y-12642340D01*
X243609946Y-12626794D01*
X243588336Y-12615243D01*
X243564887Y-12608130D01*
X243540501Y-12605728D01*
X243516114Y-12608130D01*
X243492665Y-12615243D01*
X243471055Y-12626794D01*
X243452113Y-12642339D01*
X243436567Y-12661281D01*
X243425016Y-12682892D01*
X243407052Y-12726261D01*
X243404379Y-12730261D01*
X243368640Y-12783748D01*
X243319748Y-12832640D01*
X243262258Y-12871054D01*
X243210182Y-12892624D01*
X243198383Y-12897511D01*
X243130570Y-12911000D01*
X243061430Y-12911000D01*
X242993617Y-12897511D01*
X242981818Y-12892624D01*
X242929742Y-12871054D01*
X242872252Y-12832640D01*
X242823360Y-12783748D01*
X242787621Y-12730261D01*
X242784948Y-12726261D01*
X242766984Y-12682892D01*
X242755433Y-12661282D01*
X242739888Y-12642340D01*
X242720946Y-12626794D01*
X242699336Y-12615243D01*
X242675887Y-12608130D01*
X242651501Y-12605728D01*
X242627114Y-12608130D01*
X242603665Y-12615243D01*
X242582055Y-12626794D01*
X242563113Y-12642339D01*
X242547567Y-12661281D01*
X242536016Y-12682892D01*
X242518052Y-12726261D01*
X242515379Y-12730261D01*
X242479640Y-12783748D01*
X242430748Y-12832640D01*
X242373258Y-12871054D01*
X242321182Y-12892624D01*
X242309383Y-12897511D01*
X242241570Y-12911000D01*
X242172430Y-12911000D01*
X242104617Y-12897511D01*
X242092818Y-12892624D01*
X242040742Y-12871054D01*
X241983252Y-12832640D01*
X241934360Y-12783748D01*
X241898621Y-12730261D01*
X241895948Y-12726261D01*
X241877984Y-12682892D01*
X241866433Y-12661282D01*
X241850888Y-12642340D01*
X241831946Y-12626794D01*
X241810336Y-12615243D01*
X241786887Y-12608130D01*
X241762501Y-12605728D01*
X241738114Y-12608130D01*
X241714665Y-12615243D01*
X241693055Y-12626794D01*
X241674113Y-12642339D01*
X241658567Y-12661281D01*
X241647016Y-12682892D01*
X241629052Y-12726261D01*
X241626379Y-12730261D01*
X241590640Y-12783748D01*
X241541748Y-12832640D01*
X241484258Y-12871054D01*
X241432182Y-12892624D01*
X241420383Y-12897511D01*
X241352570Y-12911000D01*
X241283430Y-12911000D01*
X241215617Y-12897511D01*
X241203818Y-12892624D01*
X241151742Y-12871054D01*
X241094252Y-12832640D01*
X241045360Y-12783748D01*
X241009621Y-12730261D01*
X241006948Y-12726261D01*
X240988984Y-12682892D01*
X240977433Y-12661282D01*
X240961888Y-12642340D01*
X240942946Y-12626794D01*
X240921336Y-12615243D01*
X240897887Y-12608130D01*
X240873501Y-12605728D01*
X240849114Y-12608130D01*
X240825665Y-12615243D01*
X240804055Y-12626794D01*
X240785113Y-12642339D01*
X240769567Y-12661281D01*
X240758016Y-12682892D01*
X240740052Y-12726261D01*
X240737379Y-12730261D01*
X240701640Y-12783748D01*
X240652748Y-12832640D01*
X240595258Y-12871054D01*
X240543182Y-12892624D01*
X240531383Y-12897511D01*
X240463570Y-12911000D01*
X240394430Y-12911000D01*
X240326617Y-12897511D01*
X240314818Y-12892624D01*
X240262742Y-12871054D01*
X240205252Y-12832640D01*
X240156360Y-12783748D01*
X240120621Y-12730261D01*
X240117948Y-12726261D01*
X240099984Y-12682892D01*
X240088433Y-12661282D01*
X240072888Y-12642340D01*
X240053946Y-12626794D01*
X240032336Y-12615243D01*
X240008887Y-12608130D01*
X239984501Y-12605728D01*
X239960114Y-12608130D01*
X239936665Y-12615243D01*
X239915055Y-12626794D01*
X239896113Y-12642339D01*
X239880567Y-12661281D01*
X239869016Y-12682892D01*
X239851052Y-12726261D01*
X239848379Y-12730261D01*
X239812640Y-12783748D01*
X239763748Y-12832640D01*
X239706258Y-12871054D01*
X239654182Y-12892624D01*
X239642383Y-12897511D01*
X239574570Y-12911000D01*
X239505430Y-12911000D01*
X239437617Y-12897511D01*
X239425818Y-12892624D01*
X239373742Y-12871054D01*
X239316252Y-12832640D01*
X239267360Y-12783748D01*
X239231621Y-12730261D01*
X239228948Y-12726261D01*
X239210984Y-12682892D01*
X239199433Y-12661282D01*
X239183888Y-12642340D01*
X239164946Y-12626794D01*
X239143336Y-12615243D01*
X239119887Y-12608130D01*
X239095501Y-12605728D01*
X239071114Y-12608130D01*
X239047665Y-12615243D01*
X239026055Y-12626794D01*
X239007113Y-12642339D01*
X238991567Y-12661281D01*
X238980016Y-12682892D01*
X238962052Y-12726261D01*
X238959379Y-12730261D01*
X238923640Y-12783748D01*
X238874748Y-12832640D01*
X238817258Y-12871054D01*
X238765182Y-12892624D01*
X238753383Y-12897511D01*
X238685570Y-12911000D01*
X238616430Y-12911000D01*
X238548617Y-12897511D01*
X238536818Y-12892624D01*
X238484742Y-12871054D01*
X238427252Y-12832640D01*
X238378360Y-12783748D01*
X238339946Y-12726258D01*
X238314690Y-12665282D01*
X238313489Y-12662383D01*
X238300000Y-12594570D01*
X238300000Y-12525430D01*
X238313489Y-12457617D01*
X238321984Y-12437108D01*
X238339946Y-12393742D01*
X238378360Y-12336252D01*
X238427252Y-12287360D01*
X238484742Y-12248946D01*
X238548615Y-12222490D01*
X238548614Y-12222490D01*
X238548617Y-12222489D01*
X238616430Y-12209000D01*
X238685570Y-12209000D01*
X238753383Y-12222489D01*
G37*
G36*
X150445383Y11671511D02*
G01*
X150445386Y11671510D01*
X150445385Y11671510D01*
X150509258Y11645054D01*
X150560762Y11610640D01*
X150566749Y11606639D01*
X150615639Y11557749D01*
X150651381Y11504259D01*
X150654053Y11500259D01*
X150672016Y11456892D01*
X150683567Y11435282D01*
X150699112Y11416340D01*
X150718054Y11400794D01*
X150739664Y11389243D01*
X150763113Y11382130D01*
X150787499Y11379728D01*
X150811886Y11382130D01*
X150835335Y11389243D01*
X150856945Y11400794D01*
X150875887Y11416339D01*
X150891433Y11435281D01*
X150902984Y11456892D01*
X150920947Y11500259D01*
X150923620Y11504259D01*
X150959361Y11557749D01*
X151008251Y11606639D01*
X151014239Y11610640D01*
X151065742Y11645054D01*
X151129615Y11671510D01*
X151129614Y11671510D01*
X151129617Y11671511D01*
X151197430Y11685000D01*
X151266570Y11685000D01*
X151334383Y11671511D01*
X151334386Y11671510D01*
X151334385Y11671510D01*
X151398258Y11645054D01*
X151449762Y11610640D01*
X151455749Y11606639D01*
X151504639Y11557749D01*
X151540381Y11504259D01*
X151543053Y11500259D01*
X151561016Y11456892D01*
X151572567Y11435282D01*
X151588112Y11416340D01*
X151607054Y11400794D01*
X151628664Y11389243D01*
X151652113Y11382130D01*
X151676499Y11379728D01*
X151700886Y11382130D01*
X151724335Y11389243D01*
X151745945Y11400794D01*
X151764887Y11416339D01*
X151780433Y11435281D01*
X151791984Y11456892D01*
X151809947Y11500259D01*
X151812620Y11504259D01*
X151848361Y11557749D01*
X151897251Y11606639D01*
X151903239Y11610640D01*
X151954742Y11645054D01*
X152018615Y11671510D01*
X152018614Y11671510D01*
X152018617Y11671511D01*
X152086430Y11685000D01*
X152155570Y11685000D01*
X152223383Y11671511D01*
X152223386Y11671510D01*
X152223385Y11671510D01*
X152287258Y11645054D01*
X152338762Y11610640D01*
X152344749Y11606639D01*
X152393639Y11557749D01*
X152429381Y11504259D01*
X152432053Y11500259D01*
X152450016Y11456892D01*
X152461567Y11435282D01*
X152477112Y11416340D01*
X152496054Y11400794D01*
X152517664Y11389243D01*
X152541113Y11382130D01*
X152565499Y11379728D01*
X152589886Y11382130D01*
X152613335Y11389243D01*
X152634945Y11400794D01*
X152653887Y11416339D01*
X152669433Y11435281D01*
X152680984Y11456892D01*
X152698947Y11500259D01*
X152701620Y11504259D01*
X152737361Y11557749D01*
X152786251Y11606639D01*
X152792239Y11610640D01*
X152843742Y11645054D01*
X152907615Y11671510D01*
X152907614Y11671510D01*
X152907617Y11671511D01*
X152975430Y11685000D01*
X153044570Y11685000D01*
X153112383Y11671511D01*
X153112386Y11671510D01*
X153112385Y11671510D01*
X153176258Y11645054D01*
X153227762Y11610640D01*
X153233749Y11606639D01*
X153282639Y11557749D01*
X153318381Y11504259D01*
X153321053Y11500259D01*
X153339016Y11456892D01*
X153350567Y11435282D01*
X153366112Y11416340D01*
X153385054Y11400794D01*
X153406664Y11389243D01*
X153430113Y11382130D01*
X153454499Y11379728D01*
X153478886Y11382130D01*
X153502335Y11389243D01*
X153523945Y11400794D01*
X153542887Y11416339D01*
X153558433Y11435281D01*
X153569984Y11456892D01*
X153587947Y11500259D01*
X153590620Y11504259D01*
X153626361Y11557749D01*
X153675251Y11606639D01*
X153681239Y11610640D01*
X153732742Y11645054D01*
X153796615Y11671510D01*
X153796614Y11671510D01*
X153796617Y11671511D01*
X153864430Y11685000D01*
X153933570Y11685000D01*
X154001383Y11671511D01*
X154001386Y11671510D01*
X154001385Y11671510D01*
X154065258Y11645054D01*
X154116762Y11610640D01*
X154122749Y11606639D01*
X154171639Y11557749D01*
X154207381Y11504259D01*
X154210053Y11500259D01*
X154228016Y11456892D01*
X154239567Y11435282D01*
X154255112Y11416340D01*
X154274054Y11400794D01*
X154295664Y11389243D01*
X154319113Y11382130D01*
X154343499Y11379728D01*
X154367886Y11382130D01*
X154391335Y11389243D01*
X154412945Y11400794D01*
X154431887Y11416339D01*
X154447433Y11435281D01*
X154458984Y11456892D01*
X154476947Y11500259D01*
X154479620Y11504259D01*
X154515361Y11557749D01*
X154564251Y11606639D01*
X154570239Y11610640D01*
X154621742Y11645054D01*
X154685615Y11671510D01*
X154685614Y11671510D01*
X154685617Y11671511D01*
X154753430Y11685000D01*
X154822570Y11685000D01*
X154890383Y11671511D01*
X154890386Y11671510D01*
X154890385Y11671510D01*
X154954258Y11645054D01*
X155005762Y11610640D01*
X155011749Y11606639D01*
X155060639Y11557749D01*
X155096381Y11504259D01*
X155099053Y11500259D01*
X155117016Y11456892D01*
X155128567Y11435282D01*
X155144112Y11416340D01*
X155163054Y11400794D01*
X155184664Y11389243D01*
X155208113Y11382130D01*
X155232499Y11379728D01*
X155256886Y11382130D01*
X155280335Y11389243D01*
X155301945Y11400794D01*
X155320887Y11416339D01*
X155336433Y11435281D01*
X155347984Y11456892D01*
X155365947Y11500259D01*
X155368620Y11504259D01*
X155404361Y11557749D01*
X155453251Y11606639D01*
X155459239Y11610640D01*
X155510742Y11645054D01*
X155574615Y11671510D01*
X155574614Y11671510D01*
X155574617Y11671511D01*
X155642430Y11685000D01*
X155711570Y11685000D01*
X155779383Y11671511D01*
X155779386Y11671510D01*
X155779385Y11671510D01*
X155843258Y11645054D01*
X155900748Y11606640D01*
X155949640Y11557748D01*
X155988054Y11500258D01*
X156004359Y11460892D01*
X156014511Y11436383D01*
X156028000Y11368570D01*
X156028000Y11299430D01*
X156014511Y11231617D01*
X156014510Y11231615D01*
X155988054Y11167742D01*
X155949640Y11110252D01*
X155900748Y11061360D01*
X155843258Y11022946D01*
X155791182Y11001376D01*
X155779383Y10996489D01*
X155711570Y10983000D01*
X155642430Y10983000D01*
X155574617Y10996489D01*
X155562818Y11001376D01*
X155510742Y11022946D01*
X155453252Y11061360D01*
X155404360Y11110252D01*
X155365947Y11167741D01*
X155347984Y11211108D01*
X155336433Y11232718D01*
X155320888Y11251660D01*
X155301946Y11267206D01*
X155280336Y11278757D01*
X155256887Y11285870D01*
X155232501Y11288272D01*
X155208114Y11285870D01*
X155184665Y11278757D01*
X155163055Y11267206D01*
X155144113Y11251661D01*
X155128567Y11232719D01*
X155117016Y11211108D01*
X155099053Y11167741D01*
X155060640Y11110252D01*
X155011748Y11061360D01*
X154954258Y11022946D01*
X154902182Y11001376D01*
X154890383Y10996489D01*
X154822570Y10983000D01*
X154753430Y10983000D01*
X154685617Y10996489D01*
X154673818Y11001376D01*
X154621742Y11022946D01*
X154564252Y11061360D01*
X154515360Y11110252D01*
X154476947Y11167741D01*
X154458984Y11211108D01*
X154447433Y11232718D01*
X154431888Y11251660D01*
X154412946Y11267206D01*
X154391336Y11278757D01*
X154367887Y11285870D01*
X154343501Y11288272D01*
X154319114Y11285870D01*
X154295665Y11278757D01*
X154274055Y11267206D01*
X154255113Y11251661D01*
X154239567Y11232719D01*
X154228016Y11211108D01*
X154210053Y11167741D01*
X154171640Y11110252D01*
X154122748Y11061360D01*
X154065258Y11022946D01*
X154013182Y11001376D01*
X154001383Y10996489D01*
X153933570Y10983000D01*
X153864430Y10983000D01*
X153796617Y10996489D01*
X153784818Y11001376D01*
X153732742Y11022946D01*
X153675252Y11061360D01*
X153626360Y11110252D01*
X153587947Y11167741D01*
X153569984Y11211108D01*
X153558433Y11232718D01*
X153542888Y11251660D01*
X153523946Y11267206D01*
X153502336Y11278757D01*
X153478887Y11285870D01*
X153454501Y11288272D01*
X153430114Y11285870D01*
X153406665Y11278757D01*
X153385055Y11267206D01*
X153366113Y11251661D01*
X153350567Y11232719D01*
X153339016Y11211108D01*
X153321053Y11167741D01*
X153282640Y11110252D01*
X153233748Y11061360D01*
X153176258Y11022946D01*
X153124182Y11001376D01*
X153112383Y10996489D01*
X153044570Y10983000D01*
X152975430Y10983000D01*
X152907617Y10996489D01*
X152895818Y11001376D01*
X152843742Y11022946D01*
X152786252Y11061360D01*
X152737360Y11110252D01*
X152698947Y11167741D01*
X152680984Y11211108D01*
X152669433Y11232718D01*
X152653888Y11251660D01*
X152634946Y11267206D01*
X152613336Y11278757D01*
X152589887Y11285870D01*
X152565501Y11288272D01*
X152541114Y11285870D01*
X152517665Y11278757D01*
X152496055Y11267206D01*
X152477113Y11251661D01*
X152461567Y11232719D01*
X152450016Y11211108D01*
X152432053Y11167741D01*
X152393640Y11110252D01*
X152344748Y11061360D01*
X152287258Y11022946D01*
X152235182Y11001376D01*
X152223383Y10996489D01*
X152155570Y10983000D01*
X152086430Y10983000D01*
X152018617Y10996489D01*
X152006818Y11001376D01*
X151954742Y11022946D01*
X151897252Y11061360D01*
X151848360Y11110252D01*
X151809947Y11167741D01*
X151791984Y11211108D01*
X151780433Y11232718D01*
X151764888Y11251660D01*
X151745946Y11267206D01*
X151724336Y11278757D01*
X151700887Y11285870D01*
X151676501Y11288272D01*
X151652114Y11285870D01*
X151628665Y11278757D01*
X151607055Y11267206D01*
X151588113Y11251661D01*
X151572567Y11232719D01*
X151561016Y11211108D01*
X151543053Y11167741D01*
X151504640Y11110252D01*
X151455748Y11061360D01*
X151398258Y11022946D01*
X151346182Y11001376D01*
X151334383Y10996489D01*
X151266570Y10983000D01*
X151197430Y10983000D01*
X151129617Y10996489D01*
X151117818Y11001376D01*
X151065742Y11022946D01*
X151008252Y11061360D01*
X150959360Y11110252D01*
X150920947Y11167741D01*
X150902984Y11211108D01*
X150891433Y11232718D01*
X150875888Y11251660D01*
X150856946Y11267206D01*
X150835336Y11278757D01*
X150811887Y11285870D01*
X150787501Y11288272D01*
X150763114Y11285870D01*
X150739665Y11278757D01*
X150718055Y11267206D01*
X150699113Y11251661D01*
X150683567Y11232719D01*
X150672016Y11211108D01*
X150654053Y11167741D01*
X150615640Y11110252D01*
X150566748Y11061360D01*
X150509258Y11022946D01*
X150457182Y11001376D01*
X150445383Y10996489D01*
X150377570Y10983000D01*
X150308430Y10983000D01*
X150240617Y10996489D01*
X150228818Y11001376D01*
X150176742Y11022946D01*
X150119252Y11061360D01*
X150070360Y11110252D01*
X150031946Y11167742D01*
X150005490Y11231615D01*
X150005489Y11231617D01*
X149992000Y11299430D01*
X149992000Y11368570D01*
X150005489Y11436383D01*
X150015641Y11460892D01*
X150031946Y11500258D01*
X150070360Y11557748D01*
X150119252Y11606640D01*
X150176742Y11645054D01*
X150240615Y11671510D01*
X150240614Y11671510D01*
X150240617Y11671511D01*
X150308430Y11685000D01*
X150377570Y11685000D01*
X150445383Y11671511D01*
G37*
G36*
X238753383Y11675511D02*
G01*
X238753386Y11675510D01*
X238753385Y11675510D01*
X238817258Y11649054D01*
X238874748Y11610640D01*
X238923640Y11561748D01*
X238962053Y11504259D01*
X238980016Y11460892D01*
X238991567Y11439282D01*
X239007112Y11420340D01*
X239026054Y11404794D01*
X239047664Y11393243D01*
X239071113Y11386130D01*
X239095499Y11383728D01*
X239119886Y11386130D01*
X239143335Y11393243D01*
X239164945Y11404794D01*
X239183887Y11420339D01*
X239199433Y11439281D01*
X239210984Y11460892D01*
X239228947Y11504259D01*
X239267360Y11561748D01*
X239316252Y11610640D01*
X239373742Y11649054D01*
X239437615Y11675510D01*
X239437614Y11675510D01*
X239437617Y11675511D01*
X239505430Y11689000D01*
X239574570Y11689000D01*
X239642383Y11675511D01*
X239642386Y11675510D01*
X239642385Y11675510D01*
X239706258Y11649054D01*
X239763748Y11610640D01*
X239812640Y11561748D01*
X239851053Y11504259D01*
X239869016Y11460892D01*
X239880567Y11439282D01*
X239896112Y11420340D01*
X239915054Y11404794D01*
X239936664Y11393243D01*
X239960113Y11386130D01*
X239984499Y11383728D01*
X240008886Y11386130D01*
X240032335Y11393243D01*
X240053945Y11404794D01*
X240072887Y11420339D01*
X240088433Y11439281D01*
X240099984Y11460892D01*
X240117947Y11504259D01*
X240156360Y11561748D01*
X240205252Y11610640D01*
X240262742Y11649054D01*
X240326615Y11675510D01*
X240326614Y11675510D01*
X240326617Y11675511D01*
X240394430Y11689000D01*
X240463570Y11689000D01*
X240531383Y11675511D01*
X240531386Y11675510D01*
X240531385Y11675510D01*
X240595258Y11649054D01*
X240652748Y11610640D01*
X240701640Y11561748D01*
X240740053Y11504259D01*
X240758016Y11460892D01*
X240769567Y11439282D01*
X240785112Y11420340D01*
X240804054Y11404794D01*
X240825664Y11393243D01*
X240849113Y11386130D01*
X240873499Y11383728D01*
X240897886Y11386130D01*
X240921335Y11393243D01*
X240942945Y11404794D01*
X240961887Y11420339D01*
X240977433Y11439281D01*
X240988984Y11460892D01*
X241006947Y11504259D01*
X241045360Y11561748D01*
X241094252Y11610640D01*
X241151742Y11649054D01*
X241215615Y11675510D01*
X241215614Y11675510D01*
X241215617Y11675511D01*
X241283430Y11689000D01*
X241352570Y11689000D01*
X241420383Y11675511D01*
X241420386Y11675510D01*
X241420385Y11675510D01*
X241484258Y11649054D01*
X241541748Y11610640D01*
X241590640Y11561748D01*
X241629053Y11504259D01*
X241647016Y11460892D01*
X241658567Y11439282D01*
X241674112Y11420340D01*
X241693054Y11404794D01*
X241714664Y11393243D01*
X241738113Y11386130D01*
X241762499Y11383728D01*
X241786886Y11386130D01*
X241810335Y11393243D01*
X241831945Y11404794D01*
X241850887Y11420339D01*
X241866433Y11439281D01*
X241877984Y11460892D01*
X241895947Y11504259D01*
X241934360Y11561748D01*
X241983252Y11610640D01*
X242040742Y11649054D01*
X242104615Y11675510D01*
X242104614Y11675510D01*
X242104617Y11675511D01*
X242172430Y11689000D01*
X242241570Y11689000D01*
X242309383Y11675511D01*
X242309386Y11675510D01*
X242309385Y11675510D01*
X242373258Y11649054D01*
X242430748Y11610640D01*
X242479640Y11561748D01*
X242518053Y11504259D01*
X242536016Y11460892D01*
X242547567Y11439282D01*
X242563112Y11420340D01*
X242582054Y11404794D01*
X242603664Y11393243D01*
X242627113Y11386130D01*
X242651499Y11383728D01*
X242675886Y11386130D01*
X242699335Y11393243D01*
X242720945Y11404794D01*
X242739887Y11420339D01*
X242755433Y11439281D01*
X242766984Y11460892D01*
X242784947Y11504259D01*
X242823360Y11561748D01*
X242872252Y11610640D01*
X242929742Y11649054D01*
X242993615Y11675510D01*
X242993614Y11675510D01*
X242993617Y11675511D01*
X243061430Y11689000D01*
X243130570Y11689000D01*
X243198383Y11675511D01*
X243198386Y11675510D01*
X243198385Y11675510D01*
X243262258Y11649054D01*
X243319748Y11610640D01*
X243368640Y11561748D01*
X243407053Y11504259D01*
X243425016Y11460892D01*
X243436567Y11439282D01*
X243452112Y11420340D01*
X243471054Y11404794D01*
X243492664Y11393243D01*
X243516113Y11386130D01*
X243540499Y11383728D01*
X243564886Y11386130D01*
X243588335Y11393243D01*
X243609945Y11404794D01*
X243628887Y11420339D01*
X243644433Y11439281D01*
X243655984Y11460892D01*
X243673947Y11504259D01*
X243712360Y11561748D01*
X243761252Y11610640D01*
X243818742Y11649054D01*
X243882615Y11675510D01*
X243882614Y11675510D01*
X243882617Y11675511D01*
X243950430Y11689000D01*
X244019570Y11689000D01*
X244087383Y11675511D01*
X244087386Y11675510D01*
X244087385Y11675510D01*
X244151258Y11649054D01*
X244208748Y11610640D01*
X244257640Y11561748D01*
X244296054Y11504258D01*
X244314016Y11460892D01*
X244322511Y11440383D01*
X244336000Y11372570D01*
X244336000Y11303430D01*
X244322511Y11235617D01*
X244321310Y11232718D01*
X244296054Y11171742D01*
X244257640Y11114252D01*
X244208748Y11065360D01*
X244151258Y11026946D01*
X244099182Y11005376D01*
X244087383Y11000489D01*
X244019570Y10987000D01*
X243950430Y10987000D01*
X243882617Y11000489D01*
X243870818Y11005376D01*
X243818742Y11026946D01*
X243761252Y11065360D01*
X243712360Y11114252D01*
X243676621Y11167739D01*
X243673948Y11171739D01*
X243655984Y11215108D01*
X243644433Y11236718D01*
X243628888Y11255660D01*
X243609946Y11271206D01*
X243588336Y11282757D01*
X243564887Y11289870D01*
X243540501Y11292272D01*
X243516114Y11289870D01*
X243492665Y11282757D01*
X243471055Y11271206D01*
X243452113Y11255661D01*
X243436567Y11236719D01*
X243425016Y11215108D01*
X243407052Y11171739D01*
X243404379Y11167739D01*
X243368640Y11114252D01*
X243319748Y11065360D01*
X243262258Y11026946D01*
X243210182Y11005376D01*
X243198383Y11000489D01*
X243130570Y10987000D01*
X243061430Y10987000D01*
X242993617Y11000489D01*
X242981818Y11005376D01*
X242929742Y11026946D01*
X242872252Y11065360D01*
X242823360Y11114252D01*
X242787621Y11167739D01*
X242784948Y11171739D01*
X242766984Y11215108D01*
X242755433Y11236718D01*
X242739888Y11255660D01*
X242720946Y11271206D01*
X242699336Y11282757D01*
X242675887Y11289870D01*
X242651501Y11292272D01*
X242627114Y11289870D01*
X242603665Y11282757D01*
X242582055Y11271206D01*
X242563113Y11255661D01*
X242547567Y11236719D01*
X242536016Y11215108D01*
X242518052Y11171739D01*
X242515379Y11167739D01*
X242479640Y11114252D01*
X242430748Y11065360D01*
X242373258Y11026946D01*
X242321182Y11005376D01*
X242309383Y11000489D01*
X242241570Y10987000D01*
X242172430Y10987000D01*
X242104617Y11000489D01*
X242092818Y11005376D01*
X242040742Y11026946D01*
X241983252Y11065360D01*
X241934360Y11114252D01*
X241898621Y11167739D01*
X241895948Y11171739D01*
X241877984Y11215108D01*
X241866433Y11236718D01*
X241850888Y11255660D01*
X241831946Y11271206D01*
X241810336Y11282757D01*
X241786887Y11289870D01*
X241762501Y11292272D01*
X241738114Y11289870D01*
X241714665Y11282757D01*
X241693055Y11271206D01*
X241674113Y11255661D01*
X241658567Y11236719D01*
X241647016Y11215108D01*
X241629052Y11171739D01*
X241626379Y11167739D01*
X241590640Y11114252D01*
X241541748Y11065360D01*
X241484258Y11026946D01*
X241432182Y11005376D01*
X241420383Y11000489D01*
X241352570Y10987000D01*
X241283430Y10987000D01*
X241215617Y11000489D01*
X241203818Y11005376D01*
X241151742Y11026946D01*
X241094252Y11065360D01*
X241045360Y11114252D01*
X241009621Y11167739D01*
X241006948Y11171739D01*
X240988984Y11215108D01*
X240977433Y11236718D01*
X240961888Y11255660D01*
X240942946Y11271206D01*
X240921336Y11282757D01*
X240897887Y11289870D01*
X240873501Y11292272D01*
X240849114Y11289870D01*
X240825665Y11282757D01*
X240804055Y11271206D01*
X240785113Y11255661D01*
X240769567Y11236719D01*
X240758016Y11215108D01*
X240740052Y11171739D01*
X240737379Y11167739D01*
X240701640Y11114252D01*
X240652748Y11065360D01*
X240595258Y11026946D01*
X240543182Y11005376D01*
X240531383Y11000489D01*
X240463570Y10987000D01*
X240394430Y10987000D01*
X240326617Y11000489D01*
X240314818Y11005376D01*
X240262742Y11026946D01*
X240205252Y11065360D01*
X240156360Y11114252D01*
X240120621Y11167739D01*
X240117948Y11171739D01*
X240099984Y11215108D01*
X240088433Y11236718D01*
X240072888Y11255660D01*
X240053946Y11271206D01*
X240032336Y11282757D01*
X240008887Y11289870D01*
X239984501Y11292272D01*
X239960114Y11289870D01*
X239936665Y11282757D01*
X239915055Y11271206D01*
X239896113Y11255661D01*
X239880567Y11236719D01*
X239869016Y11215108D01*
X239851052Y11171739D01*
X239848379Y11167739D01*
X239812640Y11114252D01*
X239763748Y11065360D01*
X239706258Y11026946D01*
X239654182Y11005376D01*
X239642383Y11000489D01*
X239574570Y10987000D01*
X239505430Y10987000D01*
X239437617Y11000489D01*
X239425818Y11005376D01*
X239373742Y11026946D01*
X239316252Y11065360D01*
X239267360Y11114252D01*
X239231621Y11167739D01*
X239228948Y11171739D01*
X239210984Y11215108D01*
X239199433Y11236718D01*
X239183888Y11255660D01*
X239164946Y11271206D01*
X239143336Y11282757D01*
X239119887Y11289870D01*
X239095501Y11292272D01*
X239071114Y11289870D01*
X239047665Y11282757D01*
X239026055Y11271206D01*
X239007113Y11255661D01*
X238991567Y11236719D01*
X238980016Y11215108D01*
X238962052Y11171739D01*
X238959379Y11167739D01*
X238923640Y11114252D01*
X238874748Y11065360D01*
X238817258Y11026946D01*
X238765182Y11005376D01*
X238753383Y11000489D01*
X238685570Y10987000D01*
X238616430Y10987000D01*
X238548617Y11000489D01*
X238536818Y11005376D01*
X238484742Y11026946D01*
X238427252Y11065360D01*
X238378360Y11114252D01*
X238339946Y11171742D01*
X238314690Y11232718D01*
X238313489Y11235617D01*
X238300000Y11303430D01*
X238300000Y11372570D01*
X238313489Y11440383D01*
X238321984Y11460892D01*
X238339946Y11504258D01*
X238378360Y11561748D01*
X238427252Y11610640D01*
X238484742Y11649054D01*
X238548615Y11675510D01*
X238548614Y11675510D01*
X238548617Y11675511D01*
X238616430Y11689000D01*
X238685570Y11689000D01*
X238753383Y11675511D01*
G37*
G36*
X150445383Y13703511D02*
G01*
X150445386Y13703510D01*
X150445385Y13703510D01*
X150509258Y13677054D01*
X150560762Y13642640D01*
X150566749Y13638639D01*
X150615639Y13589749D01*
X150651381Y13536259D01*
X150654053Y13532259D01*
X150672016Y13488892D01*
X150683567Y13467282D01*
X150699112Y13448340D01*
X150718054Y13432794D01*
X150739664Y13421243D01*
X150763113Y13414130D01*
X150787499Y13411728D01*
X150811886Y13414130D01*
X150835335Y13421243D01*
X150856945Y13432794D01*
X150875887Y13448339D01*
X150891433Y13467281D01*
X150902984Y13488892D01*
X150920947Y13532259D01*
X150923620Y13536259D01*
X150959361Y13589749D01*
X151008251Y13638639D01*
X151014239Y13642640D01*
X151065742Y13677054D01*
X151129615Y13703510D01*
X151129614Y13703510D01*
X151129617Y13703511D01*
X151197430Y13717000D01*
X151266570Y13717000D01*
X151334383Y13703511D01*
X151334386Y13703510D01*
X151334385Y13703510D01*
X151398258Y13677054D01*
X151449762Y13642640D01*
X151455749Y13638639D01*
X151504639Y13589749D01*
X151540381Y13536259D01*
X151543053Y13532259D01*
X151561016Y13488892D01*
X151572567Y13467282D01*
X151588112Y13448340D01*
X151607054Y13432794D01*
X151628664Y13421243D01*
X151652113Y13414130D01*
X151676499Y13411728D01*
X151700886Y13414130D01*
X151724335Y13421243D01*
X151745945Y13432794D01*
X151764887Y13448339D01*
X151780433Y13467281D01*
X151791984Y13488892D01*
X151809947Y13532259D01*
X151812620Y13536259D01*
X151848361Y13589749D01*
X151897251Y13638639D01*
X151903239Y13642640D01*
X151954742Y13677054D01*
X152018615Y13703510D01*
X152018614Y13703510D01*
X152018617Y13703511D01*
X152086430Y13717000D01*
X152155570Y13717000D01*
X152223383Y13703511D01*
X152223386Y13703510D01*
X152223385Y13703510D01*
X152287258Y13677054D01*
X152338762Y13642640D01*
X152344749Y13638639D01*
X152393639Y13589749D01*
X152429381Y13536259D01*
X152432053Y13532259D01*
X152450016Y13488892D01*
X152461567Y13467282D01*
X152477112Y13448340D01*
X152496054Y13432794D01*
X152517664Y13421243D01*
X152541113Y13414130D01*
X152565499Y13411728D01*
X152589886Y13414130D01*
X152613335Y13421243D01*
X152634945Y13432794D01*
X152653887Y13448339D01*
X152669433Y13467281D01*
X152680984Y13488892D01*
X152698947Y13532259D01*
X152701620Y13536259D01*
X152737361Y13589749D01*
X152786251Y13638639D01*
X152792239Y13642640D01*
X152843742Y13677054D01*
X152907615Y13703510D01*
X152907614Y13703510D01*
X152907617Y13703511D01*
X152975430Y13717000D01*
X153044570Y13717000D01*
X153112383Y13703511D01*
X153112386Y13703510D01*
X153112385Y13703510D01*
X153176258Y13677054D01*
X153227762Y13642640D01*
X153233749Y13638639D01*
X153282639Y13589749D01*
X153318381Y13536259D01*
X153321053Y13532259D01*
X153339016Y13488892D01*
X153350567Y13467282D01*
X153366112Y13448340D01*
X153385054Y13432794D01*
X153406664Y13421243D01*
X153430113Y13414130D01*
X153454499Y13411728D01*
X153478886Y13414130D01*
X153502335Y13421243D01*
X153523945Y13432794D01*
X153542887Y13448339D01*
X153558433Y13467281D01*
X153569984Y13488892D01*
X153587947Y13532259D01*
X153590620Y13536259D01*
X153626361Y13589749D01*
X153675251Y13638639D01*
X153681239Y13642640D01*
X153732742Y13677054D01*
X153796615Y13703510D01*
X153796614Y13703510D01*
X153796617Y13703511D01*
X153864430Y13717000D01*
X153933570Y13717000D01*
X154001383Y13703511D01*
X154001386Y13703510D01*
X154001385Y13703510D01*
X154065258Y13677054D01*
X154116762Y13642640D01*
X154122749Y13638639D01*
X154171639Y13589749D01*
X154207381Y13536259D01*
X154210053Y13532259D01*
X154228016Y13488892D01*
X154239567Y13467282D01*
X154255112Y13448340D01*
X154274054Y13432794D01*
X154295664Y13421243D01*
X154319113Y13414130D01*
X154343499Y13411728D01*
X154367886Y13414130D01*
X154391335Y13421243D01*
X154412945Y13432794D01*
X154431887Y13448339D01*
X154447433Y13467281D01*
X154458984Y13488892D01*
X154476947Y13532259D01*
X154479620Y13536259D01*
X154515361Y13589749D01*
X154564251Y13638639D01*
X154570239Y13642640D01*
X154621742Y13677054D01*
X154685615Y13703510D01*
X154685614Y13703510D01*
X154685617Y13703511D01*
X154753430Y13717000D01*
X154822570Y13717000D01*
X154890383Y13703511D01*
X154890386Y13703510D01*
X154890385Y13703510D01*
X154954258Y13677054D01*
X155005762Y13642640D01*
X155011749Y13638639D01*
X155060639Y13589749D01*
X155096381Y13536259D01*
X155099053Y13532259D01*
X155117016Y13488892D01*
X155128567Y13467282D01*
X155144112Y13448340D01*
X155163054Y13432794D01*
X155184664Y13421243D01*
X155208113Y13414130D01*
X155232499Y13411728D01*
X155256886Y13414130D01*
X155280335Y13421243D01*
X155301945Y13432794D01*
X155320887Y13448339D01*
X155336433Y13467281D01*
X155347984Y13488892D01*
X155365947Y13532259D01*
X155368620Y13536259D01*
X155404361Y13589749D01*
X155453251Y13638639D01*
X155459239Y13642640D01*
X155510742Y13677054D01*
X155574615Y13703510D01*
X155574614Y13703510D01*
X155574617Y13703511D01*
X155642430Y13717000D01*
X155711570Y13717000D01*
X155779383Y13703511D01*
X155779386Y13703510D01*
X155779385Y13703510D01*
X155843258Y13677054D01*
X155900748Y13638640D01*
X155949640Y13589748D01*
X155988054Y13532258D01*
X156004359Y13492892D01*
X156014511Y13468383D01*
X156028000Y13400570D01*
X156028000Y13331430D01*
X156014511Y13263617D01*
X156014510Y13263615D01*
X155988054Y13199742D01*
X155949640Y13142252D01*
X155900748Y13093360D01*
X155843258Y13054946D01*
X155791182Y13033376D01*
X155779383Y13028489D01*
X155711570Y13015000D01*
X155642430Y13015000D01*
X155574617Y13028489D01*
X155562818Y13033376D01*
X155510742Y13054946D01*
X155453252Y13093360D01*
X155404360Y13142252D01*
X155365947Y13199741D01*
X155347984Y13243108D01*
X155336433Y13264718D01*
X155320888Y13283660D01*
X155301946Y13299206D01*
X155280336Y13310757D01*
X155256887Y13317870D01*
X155232501Y13320272D01*
X155208114Y13317870D01*
X155184665Y13310757D01*
X155163055Y13299206D01*
X155144113Y13283661D01*
X155128567Y13264719D01*
X155117016Y13243108D01*
X155099053Y13199741D01*
X155060640Y13142252D01*
X155011748Y13093360D01*
X154954258Y13054946D01*
X154902182Y13033376D01*
X154890383Y13028489D01*
X154822570Y13015000D01*
X154753430Y13015000D01*
X154685617Y13028489D01*
X154673818Y13033376D01*
X154621742Y13054946D01*
X154564252Y13093360D01*
X154515360Y13142252D01*
X154476947Y13199741D01*
X154458984Y13243108D01*
X154447433Y13264718D01*
X154431888Y13283660D01*
X154412946Y13299206D01*
X154391336Y13310757D01*
X154367887Y13317870D01*
X154343501Y13320272D01*
X154319114Y13317870D01*
X154295665Y13310757D01*
X154274055Y13299206D01*
X154255113Y13283661D01*
X154239567Y13264719D01*
X154228016Y13243108D01*
X154210053Y13199741D01*
X154171640Y13142252D01*
X154122748Y13093360D01*
X154065258Y13054946D01*
X154013182Y13033376D01*
X154001383Y13028489D01*
X153933570Y13015000D01*
X153864430Y13015000D01*
X153796617Y13028489D01*
X153784818Y13033376D01*
X153732742Y13054946D01*
X153675252Y13093360D01*
X153626360Y13142252D01*
X153587947Y13199741D01*
X153569984Y13243108D01*
X153558433Y13264718D01*
X153542888Y13283660D01*
X153523946Y13299206D01*
X153502336Y13310757D01*
X153478887Y13317870D01*
X153454501Y13320272D01*
X153430114Y13317870D01*
X153406665Y13310757D01*
X153385055Y13299206D01*
X153366113Y13283661D01*
X153350567Y13264719D01*
X153339016Y13243108D01*
X153321053Y13199741D01*
X153282640Y13142252D01*
X153233748Y13093360D01*
X153176258Y13054946D01*
X153124182Y13033376D01*
X153112383Y13028489D01*
X153044570Y13015000D01*
X152975430Y13015000D01*
X152907617Y13028489D01*
X152895818Y13033376D01*
X152843742Y13054946D01*
X152786252Y13093360D01*
X152737360Y13142252D01*
X152698947Y13199741D01*
X152680984Y13243108D01*
X152669433Y13264718D01*
X152653888Y13283660D01*
X152634946Y13299206D01*
X152613336Y13310757D01*
X152589887Y13317870D01*
X152565501Y13320272D01*
X152541114Y13317870D01*
X152517665Y13310757D01*
X152496055Y13299206D01*
X152477113Y13283661D01*
X152461567Y13264719D01*
X152450016Y13243108D01*
X152432053Y13199741D01*
X152393640Y13142252D01*
X152344748Y13093360D01*
X152287258Y13054946D01*
X152235182Y13033376D01*
X152223383Y13028489D01*
X152155570Y13015000D01*
X152086430Y13015000D01*
X152018617Y13028489D01*
X152006818Y13033376D01*
X151954742Y13054946D01*
X151897252Y13093360D01*
X151848360Y13142252D01*
X151809947Y13199741D01*
X151791984Y13243108D01*
X151780433Y13264718D01*
X151764888Y13283660D01*
X151745946Y13299206D01*
X151724336Y13310757D01*
X151700887Y13317870D01*
X151676501Y13320272D01*
X151652114Y13317870D01*
X151628665Y13310757D01*
X151607055Y13299206D01*
X151588113Y13283661D01*
X151572567Y13264719D01*
X151561016Y13243108D01*
X151543053Y13199741D01*
X151504640Y13142252D01*
X151455748Y13093360D01*
X151398258Y13054946D01*
X151346182Y13033376D01*
X151334383Y13028489D01*
X151266570Y13015000D01*
X151197430Y13015000D01*
X151129617Y13028489D01*
X151117818Y13033376D01*
X151065742Y13054946D01*
X151008252Y13093360D01*
X150959360Y13142252D01*
X150920947Y13199741D01*
X150902984Y13243108D01*
X150891433Y13264718D01*
X150875888Y13283660D01*
X150856946Y13299206D01*
X150835336Y13310757D01*
X150811887Y13317870D01*
X150787501Y13320272D01*
X150763114Y13317870D01*
X150739665Y13310757D01*
X150718055Y13299206D01*
X150699113Y13283661D01*
X150683567Y13264719D01*
X150672016Y13243108D01*
X150654053Y13199741D01*
X150615640Y13142252D01*
X150566748Y13093360D01*
X150509258Y13054946D01*
X150457182Y13033376D01*
X150445383Y13028489D01*
X150377570Y13015000D01*
X150308430Y13015000D01*
X150240617Y13028489D01*
X150228818Y13033376D01*
X150176742Y13054946D01*
X150119252Y13093360D01*
X150070360Y13142252D01*
X150031946Y13199742D01*
X150005490Y13263615D01*
X150005489Y13263617D01*
X149992000Y13331430D01*
X149992000Y13400570D01*
X150005489Y13468383D01*
X150015641Y13492892D01*
X150031946Y13532258D01*
X150070360Y13589748D01*
X150119252Y13638640D01*
X150176742Y13677054D01*
X150240615Y13703510D01*
X150240614Y13703510D01*
X150240617Y13703511D01*
X150308430Y13717000D01*
X150377570Y13717000D01*
X150445383Y13703511D01*
G37*
G36*
X238753383Y13707511D02*
G01*
X238753386Y13707510D01*
X238753385Y13707510D01*
X238817258Y13681054D01*
X238874748Y13642640D01*
X238923640Y13593748D01*
X238962053Y13536259D01*
X238980016Y13492892D01*
X238991567Y13471282D01*
X239007112Y13452340D01*
X239026054Y13436794D01*
X239047664Y13425243D01*
X239071113Y13418130D01*
X239095499Y13415728D01*
X239119886Y13418130D01*
X239143335Y13425243D01*
X239164945Y13436794D01*
X239183887Y13452339D01*
X239199433Y13471281D01*
X239210984Y13492892D01*
X239228947Y13536259D01*
X239267360Y13593748D01*
X239316252Y13642640D01*
X239373742Y13681054D01*
X239437615Y13707510D01*
X239437614Y13707510D01*
X239437617Y13707511D01*
X239505430Y13721000D01*
X239574570Y13721000D01*
X239642383Y13707511D01*
X239642386Y13707510D01*
X239642385Y13707510D01*
X239706258Y13681054D01*
X239763748Y13642640D01*
X239812640Y13593748D01*
X239851053Y13536259D01*
X239869016Y13492892D01*
X239880567Y13471282D01*
X239896112Y13452340D01*
X239915054Y13436794D01*
X239936664Y13425243D01*
X239960113Y13418130D01*
X239984499Y13415728D01*
X240008886Y13418130D01*
X240032335Y13425243D01*
X240053945Y13436794D01*
X240072887Y13452339D01*
X240088433Y13471281D01*
X240099984Y13492892D01*
X240117947Y13536259D01*
X240156360Y13593748D01*
X240205252Y13642640D01*
X240262742Y13681054D01*
X240326615Y13707510D01*
X240326614Y13707510D01*
X240326617Y13707511D01*
X240394430Y13721000D01*
X240463570Y13721000D01*
X240531383Y13707511D01*
X240531386Y13707510D01*
X240531385Y13707510D01*
X240595258Y13681054D01*
X240652748Y13642640D01*
X240701640Y13593748D01*
X240740053Y13536259D01*
X240758016Y13492892D01*
X240769567Y13471282D01*
X240785112Y13452340D01*
X240804054Y13436794D01*
X240825664Y13425243D01*
X240849113Y13418130D01*
X240873499Y13415728D01*
X240897886Y13418130D01*
X240921335Y13425243D01*
X240942945Y13436794D01*
X240961887Y13452339D01*
X240977433Y13471281D01*
X240988984Y13492892D01*
X241006947Y13536259D01*
X241045360Y13593748D01*
X241094252Y13642640D01*
X241151742Y13681054D01*
X241215615Y13707510D01*
X241215614Y13707510D01*
X241215617Y13707511D01*
X241283430Y13721000D01*
X241352570Y13721000D01*
X241420383Y13707511D01*
X241420386Y13707510D01*
X241420385Y13707510D01*
X241484258Y13681054D01*
X241541748Y13642640D01*
X241590640Y13593748D01*
X241629053Y13536259D01*
X241647016Y13492892D01*
X241658567Y13471282D01*
X241674112Y13452340D01*
X241693054Y13436794D01*
X241714664Y13425243D01*
X241738113Y13418130D01*
X241762499Y13415728D01*
X241786886Y13418130D01*
X241810335Y13425243D01*
X241831945Y13436794D01*
X241850887Y13452339D01*
X241866433Y13471281D01*
X241877984Y13492892D01*
X241895947Y13536259D01*
X241934360Y13593748D01*
X241983252Y13642640D01*
X242040742Y13681054D01*
X242104615Y13707510D01*
X242104614Y13707510D01*
X242104617Y13707511D01*
X242172430Y13721000D01*
X242241570Y13721000D01*
X242309383Y13707511D01*
X242309386Y13707510D01*
X242309385Y13707510D01*
X242373258Y13681054D01*
X242430748Y13642640D01*
X242479640Y13593748D01*
X242518053Y13536259D01*
X242536016Y13492892D01*
X242547567Y13471282D01*
X242563112Y13452340D01*
X242582054Y13436794D01*
X242603664Y13425243D01*
X242627113Y13418130D01*
X242651499Y13415728D01*
X242675886Y13418130D01*
X242699335Y13425243D01*
X242720945Y13436794D01*
X242739887Y13452339D01*
X242755433Y13471281D01*
X242766984Y13492892D01*
X242784947Y13536259D01*
X242823360Y13593748D01*
X242872252Y13642640D01*
X242929742Y13681054D01*
X242993615Y13707510D01*
X242993614Y13707510D01*
X242993617Y13707511D01*
X243061430Y13721000D01*
X243130570Y13721000D01*
X243198383Y13707511D01*
X243198386Y13707510D01*
X243198385Y13707510D01*
X243262258Y13681054D01*
X243319748Y13642640D01*
X243368640Y13593748D01*
X243407053Y13536259D01*
X243425016Y13492892D01*
X243436567Y13471282D01*
X243452112Y13452340D01*
X243471054Y13436794D01*
X243492664Y13425243D01*
X243516113Y13418130D01*
X243540499Y13415728D01*
X243564886Y13418130D01*
X243588335Y13425243D01*
X243609945Y13436794D01*
X243628887Y13452339D01*
X243644433Y13471281D01*
X243655984Y13492892D01*
X243673947Y13536259D01*
X243712360Y13593748D01*
X243761252Y13642640D01*
X243818742Y13681054D01*
X243882615Y13707510D01*
X243882614Y13707510D01*
X243882617Y13707511D01*
X243950430Y13721000D01*
X244019570Y13721000D01*
X244087383Y13707511D01*
X244087386Y13707510D01*
X244087385Y13707510D01*
X244151258Y13681054D01*
X244208748Y13642640D01*
X244257640Y13593748D01*
X244296054Y13536258D01*
X244314016Y13492892D01*
X244322511Y13472383D01*
X244336000Y13404570D01*
X244336000Y13335430D01*
X244322511Y13267617D01*
X244321310Y13264718D01*
X244296054Y13203742D01*
X244257640Y13146252D01*
X244208748Y13097360D01*
X244151258Y13058946D01*
X244099182Y13037376D01*
X244087383Y13032489D01*
X244019570Y13019000D01*
X243950430Y13019000D01*
X243882617Y13032489D01*
X243870818Y13037376D01*
X243818742Y13058946D01*
X243761252Y13097360D01*
X243712360Y13146252D01*
X243676621Y13199739D01*
X243673948Y13203739D01*
X243655984Y13247108D01*
X243644433Y13268718D01*
X243628888Y13287660D01*
X243609946Y13303206D01*
X243588336Y13314757D01*
X243564887Y13321870D01*
X243540501Y13324272D01*
X243516114Y13321870D01*
X243492665Y13314757D01*
X243471055Y13303206D01*
X243452113Y13287661D01*
X243436567Y13268719D01*
X243425016Y13247108D01*
X243407052Y13203739D01*
X243404379Y13199739D01*
X243368640Y13146252D01*
X243319748Y13097360D01*
X243262258Y13058946D01*
X243210182Y13037376D01*
X243198383Y13032489D01*
X243130570Y13019000D01*
X243061430Y13019000D01*
X242993617Y13032489D01*
X242981818Y13037376D01*
X242929742Y13058946D01*
X242872252Y13097360D01*
X242823360Y13146252D01*
X242787621Y13199739D01*
X242784948Y13203739D01*
X242766984Y13247108D01*
X242755433Y13268718D01*
X242739888Y13287660D01*
X242720946Y13303206D01*
X242699336Y13314757D01*
X242675887Y13321870D01*
X242651501Y13324272D01*
X242627114Y13321870D01*
X242603665Y13314757D01*
X242582055Y13303206D01*
X242563113Y13287661D01*
X242547567Y13268719D01*
X242536016Y13247108D01*
X242518052Y13203739D01*
X242515379Y13199739D01*
X242479640Y13146252D01*
X242430748Y13097360D01*
X242373258Y13058946D01*
X242321182Y13037376D01*
X242309383Y13032489D01*
X242241570Y13019000D01*
X242172430Y13019000D01*
X242104617Y13032489D01*
X242092818Y13037376D01*
X242040742Y13058946D01*
X241983252Y13097360D01*
X241934360Y13146252D01*
X241898621Y13199739D01*
X241895948Y13203739D01*
X241877984Y13247108D01*
X241866433Y13268718D01*
X241850888Y13287660D01*
X241831946Y13303206D01*
X241810336Y13314757D01*
X241786887Y13321870D01*
X241762501Y13324272D01*
X241738114Y13321870D01*
X241714665Y13314757D01*
X241693055Y13303206D01*
X241674113Y13287661D01*
X241658567Y13268719D01*
X241647016Y13247108D01*
X241629052Y13203739D01*
X241626379Y13199739D01*
X241590640Y13146252D01*
X241541748Y13097360D01*
X241484258Y13058946D01*
X241432182Y13037376D01*
X241420383Y13032489D01*
X241352570Y13019000D01*
X241283430Y13019000D01*
X241215617Y13032489D01*
X241203818Y13037376D01*
X241151742Y13058946D01*
X241094252Y13097360D01*
X241045360Y13146252D01*
X241009621Y13199739D01*
X241006948Y13203739D01*
X240988984Y13247108D01*
X240977433Y13268718D01*
X240961888Y13287660D01*
X240942946Y13303206D01*
X240921336Y13314757D01*
X240897887Y13321870D01*
X240873501Y13324272D01*
X240849114Y13321870D01*
X240825665Y13314757D01*
X240804055Y13303206D01*
X240785113Y13287661D01*
X240769567Y13268719D01*
X240758016Y13247108D01*
X240740052Y13203739D01*
X240737379Y13199739D01*
X240701640Y13146252D01*
X240652748Y13097360D01*
X240595258Y13058946D01*
X240543182Y13037376D01*
X240531383Y13032489D01*
X240463570Y13019000D01*
X240394430Y13019000D01*
X240326617Y13032489D01*
X240314818Y13037376D01*
X240262742Y13058946D01*
X240205252Y13097360D01*
X240156360Y13146252D01*
X240120621Y13199739D01*
X240117948Y13203739D01*
X240099984Y13247108D01*
X240088433Y13268718D01*
X240072888Y13287660D01*
X240053946Y13303206D01*
X240032336Y13314757D01*
X240008887Y13321870D01*
X239984501Y13324272D01*
X239960114Y13321870D01*
X239936665Y13314757D01*
X239915055Y13303206D01*
X239896113Y13287661D01*
X239880567Y13268719D01*
X239869016Y13247108D01*
X239851052Y13203739D01*
X239848379Y13199739D01*
X239812640Y13146252D01*
X239763748Y13097360D01*
X239706258Y13058946D01*
X239654182Y13037376D01*
X239642383Y13032489D01*
X239574570Y13019000D01*
X239505430Y13019000D01*
X239437617Y13032489D01*
X239425818Y13037376D01*
X239373742Y13058946D01*
X239316252Y13097360D01*
X239267360Y13146252D01*
X239231621Y13199739D01*
X239228948Y13203739D01*
X239210984Y13247108D01*
X239199433Y13268718D01*
X239183888Y13287660D01*
X239164946Y13303206D01*
X239143336Y13314757D01*
X239119887Y13321870D01*
X239095501Y13324272D01*
X239071114Y13321870D01*
X239047665Y13314757D01*
X239026055Y13303206D01*
X239007113Y13287661D01*
X238991567Y13268719D01*
X238980016Y13247108D01*
X238962052Y13203739D01*
X238959379Y13199739D01*
X238923640Y13146252D01*
X238874748Y13097360D01*
X238817258Y13058946D01*
X238765182Y13037376D01*
X238753383Y13032489D01*
X238685570Y13019000D01*
X238616430Y13019000D01*
X238548617Y13032489D01*
X238536818Y13037376D01*
X238484742Y13058946D01*
X238427252Y13097360D01*
X238378360Y13146252D01*
X238339946Y13203742D01*
X238314690Y13264718D01*
X238313489Y13267617D01*
X238300000Y13335430D01*
X238300000Y13404570D01*
X238313489Y13472383D01*
X238321984Y13492892D01*
X238339946Y13536258D01*
X238378360Y13593748D01*
X238427252Y13642640D01*
X238484742Y13681054D01*
X238548615Y13707510D01*
X238548614Y13707510D01*
X238548617Y13707511D01*
X238616430Y13721000D01*
X238685570Y13721000D01*
X238753383Y13707511D01*
G37*
M02*
