G04 #@! TF.GenerationSoftware,KiCad,Pcbnew,(5.1.6-0-10_14)*
G04 #@! TF.CreationDate,2022-03-09T18:20:20+09:00*
G04 #@! TF.ProjectId,cool640,636f6f6c-3634-4302-9e6b-696361645f70,rev?*
G04 #@! TF.SameCoordinates,Original*
G04 #@! TF.FileFunction,Legend,Bot*
G04 #@! TF.FilePolarity,Positive*
%FSLAX46Y46*%
G04 Gerber Fmt 4.6, Leading zero omitted, Abs format (unit mm)*
G04 Created by KiCad (PCBNEW (5.1.6-0-10_14)) date 2022-03-09 18:20:20*
%MOMM*%
%LPD*%
G01*
G04 APERTURE LIST*
%ADD10C,0.150000*%
%ADD11C,0.120000*%
G04 APERTURE END LIST*
D10*
X53262380Y-48014761D02*
X53357619Y-48062380D01*
X53548095Y-48062380D01*
X53643333Y-48014761D01*
X53690952Y-47967142D01*
X53738571Y-47871904D01*
X53738571Y-47586190D01*
X53690952Y-47490952D01*
X53643333Y-47443333D01*
X53548095Y-47395714D01*
X53357619Y-47395714D01*
X53262380Y-47443333D01*
X52690952Y-48062380D02*
X52786190Y-48014761D01*
X52833809Y-47967142D01*
X52881428Y-47871904D01*
X52881428Y-47586190D01*
X52833809Y-47490952D01*
X52786190Y-47443333D01*
X52690952Y-47395714D01*
X52548095Y-47395714D01*
X52452857Y-47443333D01*
X52405238Y-47490952D01*
X52357619Y-47586190D01*
X52357619Y-47871904D01*
X52405238Y-47967142D01*
X52452857Y-48014761D01*
X52548095Y-48062380D01*
X52690952Y-48062380D01*
X51786190Y-48062380D02*
X51881428Y-48014761D01*
X51929047Y-47967142D01*
X51976666Y-47871904D01*
X51976666Y-47586190D01*
X51929047Y-47490952D01*
X51881428Y-47443333D01*
X51786190Y-47395714D01*
X51643333Y-47395714D01*
X51548095Y-47443333D01*
X51500476Y-47490952D01*
X51452857Y-47586190D01*
X51452857Y-47871904D01*
X51500476Y-47967142D01*
X51548095Y-48014761D01*
X51643333Y-48062380D01*
X51786190Y-48062380D01*
X50881428Y-48062380D02*
X50976666Y-48014761D01*
X51024285Y-47919523D01*
X51024285Y-47062380D01*
X50071904Y-47062380D02*
X50262380Y-47062380D01*
X50357619Y-47110000D01*
X50405238Y-47157619D01*
X50500476Y-47300476D01*
X50548095Y-47490952D01*
X50548095Y-47871904D01*
X50500476Y-47967142D01*
X50452857Y-48014761D01*
X50357619Y-48062380D01*
X50167142Y-48062380D01*
X50071904Y-48014761D01*
X50024285Y-47967142D01*
X49976666Y-47871904D01*
X49976666Y-47633809D01*
X50024285Y-47538571D01*
X50071904Y-47490952D01*
X50167142Y-47443333D01*
X50357619Y-47443333D01*
X50452857Y-47490952D01*
X50500476Y-47538571D01*
X50548095Y-47633809D01*
X49119523Y-47395714D02*
X49119523Y-48062380D01*
X49357619Y-47014761D02*
X49595714Y-47729047D01*
X48976666Y-47729047D01*
X48405238Y-47062380D02*
X48309999Y-47062380D01*
X48214761Y-47110000D01*
X48167142Y-47157619D01*
X48119523Y-47252857D01*
X48071904Y-47443333D01*
X48071904Y-47681428D01*
X48119523Y-47871904D01*
X48167142Y-47967142D01*
X48214761Y-48014761D01*
X48309999Y-48062380D01*
X48405238Y-48062380D01*
X48500476Y-48014761D01*
X48548095Y-47967142D01*
X48595714Y-47871904D01*
X48643333Y-47681428D01*
X48643333Y-47443333D01*
X48595714Y-47252857D01*
X48548095Y-47157619D01*
X48500476Y-47110000D01*
X48405238Y-47062380D01*
X45690952Y-48062380D02*
X45690952Y-47062380D01*
X45690952Y-48014761D02*
X45786190Y-48062380D01*
X45976666Y-48062380D01*
X46071904Y-48014761D01*
X46119523Y-47967142D01*
X46167142Y-47871904D01*
X46167142Y-47586190D01*
X46119523Y-47490952D01*
X46071904Y-47443333D01*
X45976666Y-47395714D01*
X45786190Y-47395714D01*
X45690952Y-47443333D01*
X44833809Y-48014761D02*
X44929047Y-48062380D01*
X45119523Y-48062380D01*
X45214761Y-48014761D01*
X45262380Y-47919523D01*
X45262380Y-47538571D01*
X45214761Y-47443333D01*
X45119523Y-47395714D01*
X44929047Y-47395714D01*
X44833809Y-47443333D01*
X44786190Y-47538571D01*
X44786190Y-47633809D01*
X45262380Y-47729047D01*
X44405238Y-48014761D02*
X44309999Y-48062380D01*
X44119523Y-48062380D01*
X44024285Y-48014761D01*
X43976666Y-47919523D01*
X43976666Y-47871904D01*
X44024285Y-47776666D01*
X44119523Y-47729047D01*
X44262380Y-47729047D01*
X44357619Y-47681428D01*
X44405238Y-47586190D01*
X44405238Y-47538571D01*
X44357619Y-47443333D01*
X44262380Y-47395714D01*
X44119523Y-47395714D01*
X44024285Y-47443333D01*
X43548095Y-48062380D02*
X43548095Y-47395714D01*
X43548095Y-47062380D02*
X43595714Y-47110000D01*
X43548095Y-47157619D01*
X43500476Y-47110000D01*
X43548095Y-47062380D01*
X43548095Y-47157619D01*
X42643333Y-47395714D02*
X42643333Y-48205238D01*
X42690952Y-48300476D01*
X42738571Y-48348095D01*
X42833809Y-48395714D01*
X42976666Y-48395714D01*
X43071904Y-48348095D01*
X42643333Y-48014761D02*
X42738571Y-48062380D01*
X42929047Y-48062380D01*
X43024285Y-48014761D01*
X43071904Y-47967142D01*
X43119523Y-47871904D01*
X43119523Y-47586190D01*
X43071904Y-47490952D01*
X43024285Y-47443333D01*
X42929047Y-47395714D01*
X42738571Y-47395714D01*
X42643333Y-47443333D01*
X42167142Y-47395714D02*
X42167142Y-48062380D01*
X42167142Y-47490952D02*
X42119523Y-47443333D01*
X42024285Y-47395714D01*
X41881428Y-47395714D01*
X41786190Y-47443333D01*
X41738571Y-47538571D01*
X41738571Y-48062380D01*
X40881428Y-48014761D02*
X40976666Y-48062380D01*
X41167142Y-48062380D01*
X41262380Y-48014761D01*
X41309999Y-47919523D01*
X41309999Y-47538571D01*
X41262380Y-47443333D01*
X41167142Y-47395714D01*
X40976666Y-47395714D01*
X40881428Y-47443333D01*
X40833809Y-47538571D01*
X40833809Y-47633809D01*
X41309999Y-47729047D01*
X39976666Y-48062380D02*
X39976666Y-47062380D01*
X39976666Y-48014761D02*
X40071904Y-48062380D01*
X40262380Y-48062380D01*
X40357619Y-48014761D01*
X40405238Y-47967142D01*
X40452857Y-47871904D01*
X40452857Y-47586190D01*
X40405238Y-47490952D01*
X40357619Y-47443333D01*
X40262380Y-47395714D01*
X40071904Y-47395714D01*
X39976666Y-47443333D01*
X38738571Y-48062380D02*
X38738571Y-47062380D01*
X38738571Y-47443333D02*
X38643333Y-47395714D01*
X38452857Y-47395714D01*
X38357619Y-47443333D01*
X38309999Y-47490952D01*
X38262380Y-47586190D01*
X38262380Y-47871904D01*
X38309999Y-47967142D01*
X38357619Y-48014761D01*
X38452857Y-48062380D01*
X38643333Y-48062380D01*
X38738571Y-48014761D01*
X37929047Y-47395714D02*
X37690952Y-48062380D01*
X37452857Y-47395714D02*
X37690952Y-48062380D01*
X37786190Y-48300476D01*
X37833809Y-48348095D01*
X37929047Y-48395714D01*
X36309999Y-48062380D02*
X36309999Y-47395714D01*
X36309999Y-47490952D02*
X36262380Y-47443333D01*
X36167142Y-47395714D01*
X36024285Y-47395714D01*
X35929047Y-47443333D01*
X35881428Y-47538571D01*
X35881428Y-48062380D01*
X35881428Y-47538571D02*
X35833809Y-47443333D01*
X35738571Y-47395714D01*
X35595714Y-47395714D01*
X35500476Y-47443333D01*
X35452857Y-47538571D01*
X35452857Y-48062380D01*
X34976666Y-47967142D02*
X34929047Y-48014761D01*
X34976666Y-48062380D01*
X35024285Y-48014761D01*
X34976666Y-47967142D01*
X34976666Y-48062380D01*
X34500476Y-48062380D02*
X34500476Y-47062380D01*
X34405238Y-47681428D02*
X34119523Y-48062380D01*
X34119523Y-47395714D02*
X34500476Y-47776666D01*
X33690952Y-48062380D02*
X33690952Y-47395714D01*
X33690952Y-47062380D02*
X33738571Y-47110000D01*
X33690952Y-47157619D01*
X33643333Y-47110000D01*
X33690952Y-47062380D01*
X33690952Y-47157619D01*
X31262380Y-48062380D02*
X31262380Y-47062380D01*
X31262380Y-48014761D02*
X31357619Y-48062380D01*
X31548095Y-48062380D01*
X31643333Y-48014761D01*
X31690952Y-47967142D01*
X31738571Y-47871904D01*
X31738571Y-47586190D01*
X31690952Y-47490952D01*
X31643333Y-47443333D01*
X31548095Y-47395714D01*
X31357619Y-47395714D01*
X31262380Y-47443333D01*
X30357619Y-48062380D02*
X30357619Y-47538571D01*
X30405238Y-47443333D01*
X30500476Y-47395714D01*
X30690952Y-47395714D01*
X30786190Y-47443333D01*
X30357619Y-48014761D02*
X30452857Y-48062380D01*
X30690952Y-48062380D01*
X30786190Y-48014761D01*
X30833809Y-47919523D01*
X30833809Y-47824285D01*
X30786190Y-47729047D01*
X30690952Y-47681428D01*
X30452857Y-47681428D01*
X30357619Y-47633809D01*
X30024285Y-47395714D02*
X29643333Y-47395714D01*
X29881428Y-47062380D02*
X29881428Y-47919523D01*
X29833809Y-48014761D01*
X29738571Y-48062380D01*
X29643333Y-48062380D01*
X28929047Y-48014761D02*
X29024285Y-48062380D01*
X29214761Y-48062380D01*
X29309999Y-48014761D01*
X29357619Y-47919523D01*
X29357619Y-47538571D01*
X29309999Y-47443333D01*
X29214761Y-47395714D01*
X29024285Y-47395714D01*
X28929047Y-47443333D01*
X28881428Y-47538571D01*
X28881428Y-47633809D01*
X29357619Y-47729047D01*
X27738571Y-47157619D02*
X27690952Y-47110000D01*
X27595714Y-47062380D01*
X27357619Y-47062380D01*
X27262380Y-47110000D01*
X27214761Y-47157619D01*
X27167142Y-47252857D01*
X27167142Y-47348095D01*
X27214761Y-47490952D01*
X27786190Y-48062380D01*
X27167142Y-48062380D01*
X26548095Y-47062380D02*
X26452857Y-47062380D01*
X26357619Y-47110000D01*
X26310000Y-47157619D01*
X26262380Y-47252857D01*
X26214761Y-47443333D01*
X26214761Y-47681428D01*
X26262380Y-47871904D01*
X26310000Y-47967142D01*
X26357619Y-48014761D01*
X26452857Y-48062380D01*
X26548095Y-48062380D01*
X26643333Y-48014761D01*
X26690952Y-47967142D01*
X26738571Y-47871904D01*
X26786190Y-47681428D01*
X26786190Y-47443333D01*
X26738571Y-47252857D01*
X26690952Y-47157619D01*
X26643333Y-47110000D01*
X26548095Y-47062380D01*
X25833809Y-47157619D02*
X25786190Y-47110000D01*
X25690952Y-47062380D01*
X25452857Y-47062380D01*
X25357619Y-47110000D01*
X25310000Y-47157619D01*
X25262380Y-47252857D01*
X25262380Y-47348095D01*
X25310000Y-47490952D01*
X25881428Y-48062380D01*
X25262380Y-48062380D01*
X24881428Y-47157619D02*
X24833809Y-47110000D01*
X24738571Y-47062380D01*
X24500476Y-47062380D01*
X24405238Y-47110000D01*
X24357619Y-47157619D01*
X24310000Y-47252857D01*
X24310000Y-47348095D01*
X24357619Y-47490952D01*
X24929047Y-48062380D01*
X24310000Y-48062380D01*
X23690952Y-47062380D02*
X23595714Y-47062380D01*
X23500476Y-47110000D01*
X23452857Y-47157619D01*
X23405238Y-47252857D01*
X23357619Y-47443333D01*
X23357619Y-47681428D01*
X23405238Y-47871904D01*
X23452857Y-47967142D01*
X23500476Y-48014761D01*
X23595714Y-48062380D01*
X23690952Y-48062380D01*
X23786190Y-48014761D01*
X23833809Y-47967142D01*
X23881428Y-47871904D01*
X23929047Y-47681428D01*
X23929047Y-47443333D01*
X23881428Y-47252857D01*
X23833809Y-47157619D01*
X23786190Y-47110000D01*
X23690952Y-47062380D01*
X22976666Y-47157619D02*
X22929047Y-47110000D01*
X22833809Y-47062380D01*
X22595714Y-47062380D01*
X22500476Y-47110000D01*
X22452857Y-47157619D01*
X22405238Y-47252857D01*
X22405238Y-47348095D01*
X22452857Y-47490952D01*
X23024285Y-48062380D01*
X22405238Y-48062380D01*
X22024285Y-47157619D02*
X21976666Y-47110000D01*
X21881428Y-47062380D01*
X21643333Y-47062380D01*
X21548095Y-47110000D01*
X21500476Y-47157619D01*
X21452857Y-47252857D01*
X21452857Y-47348095D01*
X21500476Y-47490952D01*
X22071904Y-48062380D01*
X21452857Y-48062380D01*
X21119523Y-47062380D02*
X20500476Y-47062380D01*
X20833809Y-47443333D01*
X20690952Y-47443333D01*
X20595714Y-47490952D01*
X20548095Y-47538571D01*
X20500476Y-47633809D01*
X20500476Y-47871904D01*
X20548095Y-47967142D01*
X20595714Y-48014761D01*
X20690952Y-48062380D01*
X20976666Y-48062380D01*
X21071904Y-48014761D01*
X21119523Y-47967142D01*
X18643333Y-47395714D02*
X18405238Y-48062380D01*
X18167142Y-47395714D01*
X17405238Y-48014761D02*
X17500476Y-48062380D01*
X17690952Y-48062380D01*
X17786190Y-48014761D01*
X17833809Y-47919523D01*
X17833809Y-47538571D01*
X17786190Y-47443333D01*
X17690952Y-47395714D01*
X17500476Y-47395714D01*
X17405238Y-47443333D01*
X17357619Y-47538571D01*
X17357619Y-47633809D01*
X17833809Y-47729047D01*
X16929047Y-48062380D02*
X16929047Y-47395714D01*
X16929047Y-47586190D02*
X16881428Y-47490952D01*
X16833809Y-47443333D01*
X16738571Y-47395714D01*
X16643333Y-47395714D01*
X16310000Y-47967142D02*
X16262380Y-48014761D01*
X16310000Y-48062380D01*
X16357619Y-48014761D01*
X16310000Y-47967142D01*
X16310000Y-48062380D01*
X15310000Y-48062380D02*
X15881428Y-48062380D01*
X15595714Y-48062380D02*
X15595714Y-47062380D01*
X15690952Y-47205238D01*
X15786190Y-47300476D01*
X15881428Y-47348095D01*
X14881428Y-47967142D02*
X14833809Y-48014761D01*
X14881428Y-48062380D01*
X14929047Y-48014761D01*
X14881428Y-47967142D01*
X14881428Y-48062380D01*
X13881428Y-48062380D02*
X14452857Y-48062380D01*
X14167142Y-48062380D02*
X14167142Y-47062380D01*
X14262380Y-47205238D01*
X14357619Y-47300476D01*
X14452857Y-47348095D01*
X37715238Y-22924761D02*
X37810476Y-22972380D01*
X38000952Y-22972380D01*
X38096190Y-22924761D01*
X38143809Y-22877142D01*
X38191428Y-22781904D01*
X38191428Y-22496190D01*
X38143809Y-22400952D01*
X38096190Y-22353333D01*
X38000952Y-22305714D01*
X37810476Y-22305714D01*
X37715238Y-22353333D01*
X37286666Y-22972380D02*
X37286666Y-21972380D01*
X36858095Y-22972380D02*
X36858095Y-22448571D01*
X36905714Y-22353333D01*
X37000952Y-22305714D01*
X37143809Y-22305714D01*
X37239047Y-22353333D01*
X37286666Y-22400952D01*
X36239047Y-22972380D02*
X36334285Y-22924761D01*
X36381904Y-22877142D01*
X36429523Y-22781904D01*
X36429523Y-22496190D01*
X36381904Y-22400952D01*
X36334285Y-22353333D01*
X36239047Y-22305714D01*
X36096190Y-22305714D01*
X36000952Y-22353333D01*
X35953333Y-22400952D01*
X35905714Y-22496190D01*
X35905714Y-22781904D01*
X35953333Y-22877142D01*
X36000952Y-22924761D01*
X36096190Y-22972380D01*
X36239047Y-22972380D01*
X35048571Y-22924761D02*
X35143809Y-22972380D01*
X35334285Y-22972380D01*
X35429523Y-22924761D01*
X35477142Y-22877142D01*
X35524761Y-22781904D01*
X35524761Y-22496190D01*
X35477142Y-22400952D01*
X35429523Y-22353333D01*
X35334285Y-22305714D01*
X35143809Y-22305714D01*
X35048571Y-22353333D01*
X18655238Y-22874761D02*
X18750476Y-22922380D01*
X18940952Y-22922380D01*
X19036190Y-22874761D01*
X19083809Y-22827142D01*
X19131428Y-22731904D01*
X19131428Y-22446190D01*
X19083809Y-22350952D01*
X19036190Y-22303333D01*
X18940952Y-22255714D01*
X18750476Y-22255714D01*
X18655238Y-22303333D01*
X18226666Y-22922380D02*
X18226666Y-21922380D01*
X17798095Y-22922380D02*
X17798095Y-22398571D01*
X17845714Y-22303333D01*
X17940952Y-22255714D01*
X18083809Y-22255714D01*
X18179047Y-22303333D01*
X18226666Y-22350952D01*
X17179047Y-22922380D02*
X17274285Y-22874761D01*
X17321904Y-22827142D01*
X17369523Y-22731904D01*
X17369523Y-22446190D01*
X17321904Y-22350952D01*
X17274285Y-22303333D01*
X17179047Y-22255714D01*
X17036190Y-22255714D01*
X16940952Y-22303333D01*
X16893333Y-22350952D01*
X16845714Y-22446190D01*
X16845714Y-22731904D01*
X16893333Y-22827142D01*
X16940952Y-22874761D01*
X17036190Y-22922380D01*
X17179047Y-22922380D01*
X15988571Y-22874761D02*
X16083809Y-22922380D01*
X16274285Y-22922380D01*
X16369523Y-22874761D01*
X16417142Y-22827142D01*
X16464761Y-22731904D01*
X16464761Y-22446190D01*
X16417142Y-22350952D01*
X16369523Y-22303333D01*
X16274285Y-22255714D01*
X16083809Y-22255714D01*
X15988571Y-22303333D01*
X37705238Y-3974761D02*
X37800476Y-4022380D01*
X37990952Y-4022380D01*
X38086190Y-3974761D01*
X38133809Y-3927142D01*
X38181428Y-3831904D01*
X38181428Y-3546190D01*
X38133809Y-3450952D01*
X38086190Y-3403333D01*
X37990952Y-3355714D01*
X37800476Y-3355714D01*
X37705238Y-3403333D01*
X37276666Y-4022380D02*
X37276666Y-3022380D01*
X36848095Y-4022380D02*
X36848095Y-3498571D01*
X36895714Y-3403333D01*
X36990952Y-3355714D01*
X37133809Y-3355714D01*
X37229047Y-3403333D01*
X37276666Y-3450952D01*
X36229047Y-4022380D02*
X36324285Y-3974761D01*
X36371904Y-3927142D01*
X36419523Y-3831904D01*
X36419523Y-3546190D01*
X36371904Y-3450952D01*
X36324285Y-3403333D01*
X36229047Y-3355714D01*
X36086190Y-3355714D01*
X35990952Y-3403333D01*
X35943333Y-3450952D01*
X35895714Y-3546190D01*
X35895714Y-3831904D01*
X35943333Y-3927142D01*
X35990952Y-3974761D01*
X36086190Y-4022380D01*
X36229047Y-4022380D01*
X35038571Y-3974761D02*
X35133809Y-4022380D01*
X35324285Y-4022380D01*
X35419523Y-3974761D01*
X35467142Y-3927142D01*
X35514761Y-3831904D01*
X35514761Y-3546190D01*
X35467142Y-3450952D01*
X35419523Y-3403333D01*
X35324285Y-3355714D01*
X35133809Y-3355714D01*
X35038571Y-3403333D01*
X18645238Y-3924761D02*
X18740476Y-3972380D01*
X18930952Y-3972380D01*
X19026190Y-3924761D01*
X19073809Y-3877142D01*
X19121428Y-3781904D01*
X19121428Y-3496190D01*
X19073809Y-3400952D01*
X19026190Y-3353333D01*
X18930952Y-3305714D01*
X18740476Y-3305714D01*
X18645238Y-3353333D01*
X18216666Y-3972380D02*
X18216666Y-2972380D01*
X17788095Y-3972380D02*
X17788095Y-3448571D01*
X17835714Y-3353333D01*
X17930952Y-3305714D01*
X18073809Y-3305714D01*
X18169047Y-3353333D01*
X18216666Y-3400952D01*
X17169047Y-3972380D02*
X17264285Y-3924761D01*
X17311904Y-3877142D01*
X17359523Y-3781904D01*
X17359523Y-3496190D01*
X17311904Y-3400952D01*
X17264285Y-3353333D01*
X17169047Y-3305714D01*
X17026190Y-3305714D01*
X16930952Y-3353333D01*
X16883333Y-3400952D01*
X16835714Y-3496190D01*
X16835714Y-3781904D01*
X16883333Y-3877142D01*
X16930952Y-3924761D01*
X17026190Y-3972380D01*
X17169047Y-3972380D01*
X15978571Y-3924761D02*
X16073809Y-3972380D01*
X16264285Y-3972380D01*
X16359523Y-3924761D01*
X16407142Y-3877142D01*
X16454761Y-3781904D01*
X16454761Y-3496190D01*
X16407142Y-3400952D01*
X16359523Y-3353333D01*
X16264285Y-3305714D01*
X16073809Y-3305714D01*
X15978571Y-3353333D01*
X75795238Y-23064761D02*
X75890476Y-23112380D01*
X76080952Y-23112380D01*
X76176190Y-23064761D01*
X76223809Y-23017142D01*
X76271428Y-22921904D01*
X76271428Y-22636190D01*
X76223809Y-22540952D01*
X76176190Y-22493333D01*
X76080952Y-22445714D01*
X75890476Y-22445714D01*
X75795238Y-22493333D01*
X75366666Y-23112380D02*
X75366666Y-22112380D01*
X74938095Y-23112380D02*
X74938095Y-22588571D01*
X74985714Y-22493333D01*
X75080952Y-22445714D01*
X75223809Y-22445714D01*
X75319047Y-22493333D01*
X75366666Y-22540952D01*
X74319047Y-23112380D02*
X74414285Y-23064761D01*
X74461904Y-23017142D01*
X74509523Y-22921904D01*
X74509523Y-22636190D01*
X74461904Y-22540952D01*
X74414285Y-22493333D01*
X74319047Y-22445714D01*
X74176190Y-22445714D01*
X74080952Y-22493333D01*
X74033333Y-22540952D01*
X73985714Y-22636190D01*
X73985714Y-22921904D01*
X74033333Y-23017142D01*
X74080952Y-23064761D01*
X74176190Y-23112380D01*
X74319047Y-23112380D01*
X73128571Y-23064761D02*
X73223809Y-23112380D01*
X73414285Y-23112380D01*
X73509523Y-23064761D01*
X73557142Y-23017142D01*
X73604761Y-22921904D01*
X73604761Y-22636190D01*
X73557142Y-22540952D01*
X73509523Y-22493333D01*
X73414285Y-22445714D01*
X73223809Y-22445714D01*
X73128571Y-22493333D01*
X56259523Y-14332380D02*
X56259523Y-13332380D01*
X55926190Y-14046666D01*
X55592857Y-13332380D01*
X55592857Y-14332380D01*
X55211904Y-13332380D02*
X54545238Y-14332380D01*
X54545238Y-13332380D02*
X55211904Y-14332380D01*
X37229523Y4707619D02*
X37229523Y5707619D01*
X36896190Y4993333D01*
X36562857Y5707619D01*
X36562857Y4707619D01*
X36181904Y5707619D02*
X35515238Y4707619D01*
X35515238Y5707619D02*
X36181904Y4707619D01*
X-334761Y-23054761D02*
X-239523Y-23102380D01*
X-49047Y-23102380D01*
X46190Y-23054761D01*
X93809Y-23007142D01*
X141428Y-22911904D01*
X141428Y-22626190D01*
X93809Y-22530952D01*
X46190Y-22483333D01*
X-49047Y-22435714D01*
X-239523Y-22435714D01*
X-334761Y-22483333D01*
X-763333Y-23102380D02*
X-763333Y-22102380D01*
X-1191904Y-23102380D02*
X-1191904Y-22578571D01*
X-1144285Y-22483333D01*
X-1049047Y-22435714D01*
X-906190Y-22435714D01*
X-810952Y-22483333D01*
X-763333Y-22530952D01*
X-1810952Y-23102380D02*
X-1715714Y-23054761D01*
X-1668095Y-23007142D01*
X-1620476Y-22911904D01*
X-1620476Y-22626190D01*
X-1668095Y-22530952D01*
X-1715714Y-22483333D01*
X-1810952Y-22435714D01*
X-1953809Y-22435714D01*
X-2049047Y-22483333D01*
X-2096666Y-22530952D01*
X-2144285Y-22626190D01*
X-2144285Y-22911904D01*
X-2096666Y-23007142D01*
X-2049047Y-23054761D01*
X-1953809Y-23102380D01*
X-1810952Y-23102380D01*
X-3001428Y-23054761D02*
X-2906190Y-23102380D01*
X-2715714Y-23102380D01*
X-2620476Y-23054761D01*
X-2572857Y-23007142D01*
X-2525238Y-22911904D01*
X-2525238Y-22626190D01*
X-2572857Y-22530952D01*
X-2620476Y-22483333D01*
X-2715714Y-22435714D01*
X-2906190Y-22435714D01*
X-3001428Y-22483333D01*
X56735238Y-23014761D02*
X56830476Y-23062380D01*
X57020952Y-23062380D01*
X57116190Y-23014761D01*
X57163809Y-22967142D01*
X57211428Y-22871904D01*
X57211428Y-22586190D01*
X57163809Y-22490952D01*
X57116190Y-22443333D01*
X57020952Y-22395714D01*
X56830476Y-22395714D01*
X56735238Y-22443333D01*
X56306666Y-23062380D02*
X56306666Y-22062380D01*
X55878095Y-23062380D02*
X55878095Y-22538571D01*
X55925714Y-22443333D01*
X56020952Y-22395714D01*
X56163809Y-22395714D01*
X56259047Y-22443333D01*
X56306666Y-22490952D01*
X55259047Y-23062380D02*
X55354285Y-23014761D01*
X55401904Y-22967142D01*
X55449523Y-22871904D01*
X55449523Y-22586190D01*
X55401904Y-22490952D01*
X55354285Y-22443333D01*
X55259047Y-22395714D01*
X55116190Y-22395714D01*
X55020952Y-22443333D01*
X54973333Y-22490952D01*
X54925714Y-22586190D01*
X54925714Y-22871904D01*
X54973333Y-22967142D01*
X55020952Y-23014761D01*
X55116190Y-23062380D01*
X55259047Y-23062380D01*
X54068571Y-23014761D02*
X54163809Y-23062380D01*
X54354285Y-23062380D01*
X54449523Y-23014761D01*
X54497142Y-22967142D01*
X54544761Y-22871904D01*
X54544761Y-22586190D01*
X54497142Y-22490952D01*
X54449523Y-22443333D01*
X54354285Y-22395714D01*
X54163809Y-22395714D01*
X54068571Y-22443333D01*
X82992380Y-59352857D02*
X81992380Y-59352857D01*
X82944761Y-59352857D02*
X82992380Y-59257619D01*
X82992380Y-59067142D01*
X82944761Y-58971904D01*
X82897142Y-58924285D01*
X82801904Y-58876666D01*
X82516190Y-58876666D01*
X82420952Y-58924285D01*
X82373333Y-58971904D01*
X82325714Y-59067142D01*
X82325714Y-59257619D01*
X82373333Y-59352857D01*
X82992380Y-59829047D02*
X82325714Y-59829047D01*
X81992380Y-59829047D02*
X82040000Y-59781428D01*
X82087619Y-59829047D01*
X82040000Y-59876666D01*
X81992380Y-59829047D01*
X82087619Y-59829047D01*
X82992380Y-60448095D02*
X82944761Y-60352857D01*
X82897142Y-60305238D01*
X82801904Y-60257619D01*
X82516190Y-60257619D01*
X82420952Y-60305238D01*
X82373333Y-60352857D01*
X82325714Y-60448095D01*
X82325714Y-60590952D01*
X82373333Y-60686190D01*
X82420952Y-60733809D01*
X82516190Y-60781428D01*
X82801904Y-60781428D01*
X82897142Y-60733809D01*
X82944761Y-60686190D01*
X82992380Y-60590952D01*
X82992380Y-60448095D01*
X82992380Y-61638571D02*
X81992380Y-61638571D01*
X82944761Y-61638571D02*
X82992380Y-61543333D01*
X82992380Y-61352857D01*
X82944761Y-61257619D01*
X82897142Y-61210000D01*
X82801904Y-61162380D01*
X82516190Y-61162380D01*
X82420952Y-61210000D01*
X82373333Y-61257619D01*
X82325714Y-61352857D01*
X82325714Y-61543333D01*
X82373333Y-61638571D01*
X82944761Y-62495714D02*
X82992380Y-62400476D01*
X82992380Y-62210000D01*
X82944761Y-62114761D01*
X82849523Y-62067142D01*
X82468571Y-62067142D01*
X82373333Y-62114761D01*
X82325714Y-62210000D01*
X82325714Y-62400476D01*
X82373333Y-62495714D01*
X82468571Y-62543333D01*
X82563809Y-62543333D01*
X82659047Y-62067142D01*
X18169523Y4757619D02*
X18169523Y5757619D01*
X17836190Y5043333D01*
X17502857Y5757619D01*
X17502857Y4757619D01*
X17121904Y5757619D02*
X16455238Y4757619D01*
X16455238Y5757619D02*
X17121904Y4757619D01*
X18179523Y-14192380D02*
X18179523Y-13192380D01*
X17846190Y-13906666D01*
X17512857Y-13192380D01*
X17512857Y-14192380D01*
X17131904Y-13192380D02*
X16465238Y-14192380D01*
X16465238Y-13192380D02*
X17131904Y-14192380D01*
X37239523Y-14242380D02*
X37239523Y-13242380D01*
X36906190Y-13956666D01*
X36572857Y-13242380D01*
X36572857Y-14242380D01*
X36191904Y-13242380D02*
X35525238Y-14242380D01*
X35525238Y-13242380D02*
X36191904Y-14242380D01*
X-810476Y-14372380D02*
X-810476Y-13372380D01*
X-1143809Y-14086666D01*
X-1477142Y-13372380D01*
X-1477142Y-14372380D01*
X-1858095Y-13372380D02*
X-2524761Y-14372380D01*
X-2524761Y-13372380D02*
X-1858095Y-14372380D01*
X75319523Y-14382380D02*
X75319523Y-13382380D01*
X74986190Y-14096666D01*
X74652857Y-13382380D01*
X74652857Y-14382380D01*
X74271904Y-13382380D02*
X73605238Y-14382380D01*
X73605238Y-13382380D02*
X74271904Y-14382380D01*
X82812380Y-40322857D02*
X81812380Y-40322857D01*
X82764761Y-40322857D02*
X82812380Y-40227619D01*
X82812380Y-40037142D01*
X82764761Y-39941904D01*
X82717142Y-39894285D01*
X82621904Y-39846666D01*
X82336190Y-39846666D01*
X82240952Y-39894285D01*
X82193333Y-39941904D01*
X82145714Y-40037142D01*
X82145714Y-40227619D01*
X82193333Y-40322857D01*
X82812380Y-40799047D02*
X82145714Y-40799047D01*
X81812380Y-40799047D02*
X81860000Y-40751428D01*
X81907619Y-40799047D01*
X81860000Y-40846666D01*
X81812380Y-40799047D01*
X81907619Y-40799047D01*
X82812380Y-41418095D02*
X82764761Y-41322857D01*
X82717142Y-41275238D01*
X82621904Y-41227619D01*
X82336190Y-41227619D01*
X82240952Y-41275238D01*
X82193333Y-41322857D01*
X82145714Y-41418095D01*
X82145714Y-41560952D01*
X82193333Y-41656190D01*
X82240952Y-41703809D01*
X82336190Y-41751428D01*
X82621904Y-41751428D01*
X82717142Y-41703809D01*
X82764761Y-41656190D01*
X82812380Y-41560952D01*
X82812380Y-41418095D01*
X82812380Y-42608571D02*
X81812380Y-42608571D01*
X82764761Y-42608571D02*
X82812380Y-42513333D01*
X82812380Y-42322857D01*
X82764761Y-42227619D01*
X82717142Y-42180000D01*
X82621904Y-42132380D01*
X82336190Y-42132380D01*
X82240952Y-42180000D01*
X82193333Y-42227619D01*
X82145714Y-42322857D01*
X82145714Y-42513333D01*
X82193333Y-42608571D01*
X82764761Y-43465714D02*
X82812380Y-43370476D01*
X82812380Y-43180000D01*
X82764761Y-43084761D01*
X82669523Y-43037142D01*
X82288571Y-43037142D01*
X82193333Y-43084761D01*
X82145714Y-43180000D01*
X82145714Y-43370476D01*
X82193333Y-43465714D01*
X82288571Y-43513333D01*
X82383809Y-43513333D01*
X82479047Y-43037142D01*
X63842380Y-2242857D02*
X62842380Y-2242857D01*
X63794761Y-2242857D02*
X63842380Y-2147619D01*
X63842380Y-1957142D01*
X63794761Y-1861904D01*
X63747142Y-1814285D01*
X63651904Y-1766666D01*
X63366190Y-1766666D01*
X63270952Y-1814285D01*
X63223333Y-1861904D01*
X63175714Y-1957142D01*
X63175714Y-2147619D01*
X63223333Y-2242857D01*
X63842380Y-2719047D02*
X63175714Y-2719047D01*
X62842380Y-2719047D02*
X62890000Y-2671428D01*
X62937619Y-2719047D01*
X62890000Y-2766666D01*
X62842380Y-2719047D01*
X62937619Y-2719047D01*
X63842380Y-3338095D02*
X63794761Y-3242857D01*
X63747142Y-3195238D01*
X63651904Y-3147619D01*
X63366190Y-3147619D01*
X63270952Y-3195238D01*
X63223333Y-3242857D01*
X63175714Y-3338095D01*
X63175714Y-3480952D01*
X63223333Y-3576190D01*
X63270952Y-3623809D01*
X63366190Y-3671428D01*
X63651904Y-3671428D01*
X63747142Y-3623809D01*
X63794761Y-3576190D01*
X63842380Y-3480952D01*
X63842380Y-3338095D01*
X63842380Y-4528571D02*
X62842380Y-4528571D01*
X63794761Y-4528571D02*
X63842380Y-4433333D01*
X63842380Y-4242857D01*
X63794761Y-4147619D01*
X63747142Y-4100000D01*
X63651904Y-4052380D01*
X63366190Y-4052380D01*
X63270952Y-4100000D01*
X63223333Y-4147619D01*
X63175714Y-4242857D01*
X63175714Y-4433333D01*
X63223333Y-4528571D01*
X63794761Y-5385714D02*
X63842380Y-5290476D01*
X63842380Y-5100000D01*
X63794761Y-5004761D01*
X63699523Y-4957142D01*
X63318571Y-4957142D01*
X63223333Y-5004761D01*
X63175714Y-5100000D01*
X63175714Y-5290476D01*
X63223333Y-5385714D01*
X63318571Y-5433333D01*
X63413809Y-5433333D01*
X63509047Y-4957142D01*
X63862380Y-59382857D02*
X62862380Y-59382857D01*
X63814761Y-59382857D02*
X63862380Y-59287619D01*
X63862380Y-59097142D01*
X63814761Y-59001904D01*
X63767142Y-58954285D01*
X63671904Y-58906666D01*
X63386190Y-58906666D01*
X63290952Y-58954285D01*
X63243333Y-59001904D01*
X63195714Y-59097142D01*
X63195714Y-59287619D01*
X63243333Y-59382857D01*
X63862380Y-59859047D02*
X63195714Y-59859047D01*
X62862380Y-59859047D02*
X62910000Y-59811428D01*
X62957619Y-59859047D01*
X62910000Y-59906666D01*
X62862380Y-59859047D01*
X62957619Y-59859047D01*
X63862380Y-60478095D02*
X63814761Y-60382857D01*
X63767142Y-60335238D01*
X63671904Y-60287619D01*
X63386190Y-60287619D01*
X63290952Y-60335238D01*
X63243333Y-60382857D01*
X63195714Y-60478095D01*
X63195714Y-60620952D01*
X63243333Y-60716190D01*
X63290952Y-60763809D01*
X63386190Y-60811428D01*
X63671904Y-60811428D01*
X63767142Y-60763809D01*
X63814761Y-60716190D01*
X63862380Y-60620952D01*
X63862380Y-60478095D01*
X63862380Y-61668571D02*
X62862380Y-61668571D01*
X63814761Y-61668571D02*
X63862380Y-61573333D01*
X63862380Y-61382857D01*
X63814761Y-61287619D01*
X63767142Y-61240000D01*
X63671904Y-61192380D01*
X63386190Y-61192380D01*
X63290952Y-61240000D01*
X63243333Y-61287619D01*
X63195714Y-61382857D01*
X63195714Y-61573333D01*
X63243333Y-61668571D01*
X63814761Y-62525714D02*
X63862380Y-62430476D01*
X63862380Y-62240000D01*
X63814761Y-62144761D01*
X63719523Y-62097142D01*
X63338571Y-62097142D01*
X63243333Y-62144761D01*
X63195714Y-62240000D01*
X63195714Y-62430476D01*
X63243333Y-62525714D01*
X63338571Y-62573333D01*
X63433809Y-62573333D01*
X63529047Y-62097142D01*
X63682380Y-40352857D02*
X62682380Y-40352857D01*
X63634761Y-40352857D02*
X63682380Y-40257619D01*
X63682380Y-40067142D01*
X63634761Y-39971904D01*
X63587142Y-39924285D01*
X63491904Y-39876666D01*
X63206190Y-39876666D01*
X63110952Y-39924285D01*
X63063333Y-39971904D01*
X63015714Y-40067142D01*
X63015714Y-40257619D01*
X63063333Y-40352857D01*
X63682380Y-40829047D02*
X63015714Y-40829047D01*
X62682380Y-40829047D02*
X62730000Y-40781428D01*
X62777619Y-40829047D01*
X62730000Y-40876666D01*
X62682380Y-40829047D01*
X62777619Y-40829047D01*
X63682380Y-41448095D02*
X63634761Y-41352857D01*
X63587142Y-41305238D01*
X63491904Y-41257619D01*
X63206190Y-41257619D01*
X63110952Y-41305238D01*
X63063333Y-41352857D01*
X63015714Y-41448095D01*
X63015714Y-41590952D01*
X63063333Y-41686190D01*
X63110952Y-41733809D01*
X63206190Y-41781428D01*
X63491904Y-41781428D01*
X63587142Y-41733809D01*
X63634761Y-41686190D01*
X63682380Y-41590952D01*
X63682380Y-41448095D01*
X63682380Y-42638571D02*
X62682380Y-42638571D01*
X63634761Y-42638571D02*
X63682380Y-42543333D01*
X63682380Y-42352857D01*
X63634761Y-42257619D01*
X63587142Y-42210000D01*
X63491904Y-42162380D01*
X63206190Y-42162380D01*
X63110952Y-42210000D01*
X63063333Y-42257619D01*
X63015714Y-42352857D01*
X63015714Y-42543333D01*
X63063333Y-42638571D01*
X63634761Y-43495714D02*
X63682380Y-43400476D01*
X63682380Y-43210000D01*
X63634761Y-43114761D01*
X63539523Y-43067142D01*
X63158571Y-43067142D01*
X63063333Y-43114761D01*
X63015714Y-43210000D01*
X63015714Y-43400476D01*
X63063333Y-43495714D01*
X63158571Y-43543333D01*
X63253809Y-43543333D01*
X63349047Y-43067142D01*
X75785238Y-4114761D02*
X75880476Y-4162380D01*
X76070952Y-4162380D01*
X76166190Y-4114761D01*
X76213809Y-4067142D01*
X76261428Y-3971904D01*
X76261428Y-3686190D01*
X76213809Y-3590952D01*
X76166190Y-3543333D01*
X76070952Y-3495714D01*
X75880476Y-3495714D01*
X75785238Y-3543333D01*
X75356666Y-4162380D02*
X75356666Y-3162380D01*
X74928095Y-4162380D02*
X74928095Y-3638571D01*
X74975714Y-3543333D01*
X75070952Y-3495714D01*
X75213809Y-3495714D01*
X75309047Y-3543333D01*
X75356666Y-3590952D01*
X74309047Y-4162380D02*
X74404285Y-4114761D01*
X74451904Y-4067142D01*
X74499523Y-3971904D01*
X74499523Y-3686190D01*
X74451904Y-3590952D01*
X74404285Y-3543333D01*
X74309047Y-3495714D01*
X74166190Y-3495714D01*
X74070952Y-3543333D01*
X74023333Y-3590952D01*
X73975714Y-3686190D01*
X73975714Y-3971904D01*
X74023333Y-4067142D01*
X74070952Y-4114761D01*
X74166190Y-4162380D01*
X74309047Y-4162380D01*
X73118571Y-4114761D02*
X73213809Y-4162380D01*
X73404285Y-4162380D01*
X73499523Y-4114761D01*
X73547142Y-4067142D01*
X73594761Y-3971904D01*
X73594761Y-3686190D01*
X73547142Y-3590952D01*
X73499523Y-3543333D01*
X73404285Y-3495714D01*
X73213809Y-3495714D01*
X73118571Y-3543333D01*
X63742380Y-21542857D02*
X62742380Y-21542857D01*
X63694761Y-21542857D02*
X63742380Y-21447619D01*
X63742380Y-21257142D01*
X63694761Y-21161904D01*
X63647142Y-21114285D01*
X63551904Y-21066666D01*
X63266190Y-21066666D01*
X63170952Y-21114285D01*
X63123333Y-21161904D01*
X63075714Y-21257142D01*
X63075714Y-21447619D01*
X63123333Y-21542857D01*
X63742380Y-22019047D02*
X63075714Y-22019047D01*
X62742380Y-22019047D02*
X62790000Y-21971428D01*
X62837619Y-22019047D01*
X62790000Y-22066666D01*
X62742380Y-22019047D01*
X62837619Y-22019047D01*
X63742380Y-22638095D02*
X63694761Y-22542857D01*
X63647142Y-22495238D01*
X63551904Y-22447619D01*
X63266190Y-22447619D01*
X63170952Y-22495238D01*
X63123333Y-22542857D01*
X63075714Y-22638095D01*
X63075714Y-22780952D01*
X63123333Y-22876190D01*
X63170952Y-22923809D01*
X63266190Y-22971428D01*
X63551904Y-22971428D01*
X63647142Y-22923809D01*
X63694761Y-22876190D01*
X63742380Y-22780952D01*
X63742380Y-22638095D01*
X63742380Y-23828571D02*
X62742380Y-23828571D01*
X63694761Y-23828571D02*
X63742380Y-23733333D01*
X63742380Y-23542857D01*
X63694761Y-23447619D01*
X63647142Y-23400000D01*
X63551904Y-23352380D01*
X63266190Y-23352380D01*
X63170952Y-23400000D01*
X63123333Y-23447619D01*
X63075714Y-23542857D01*
X63075714Y-23733333D01*
X63123333Y-23828571D01*
X63694761Y-24685714D02*
X63742380Y-24590476D01*
X63742380Y-24400000D01*
X63694761Y-24304761D01*
X63599523Y-24257142D01*
X63218571Y-24257142D01*
X63123333Y-24304761D01*
X63075714Y-24400000D01*
X63075714Y-24590476D01*
X63123333Y-24685714D01*
X63218571Y-24733333D01*
X63313809Y-24733333D01*
X63409047Y-24257142D01*
X-760476Y-52372380D02*
X-760476Y-51372380D01*
X-1093809Y-52086666D01*
X-1427142Y-51372380D01*
X-1427142Y-52372380D01*
X-1808095Y-51372380D02*
X-2474761Y-52372380D01*
X-2474761Y-51372380D02*
X-1808095Y-52372380D01*
X37765238Y-60924761D02*
X37860476Y-60972380D01*
X38050952Y-60972380D01*
X38146190Y-60924761D01*
X38193809Y-60877142D01*
X38241428Y-60781904D01*
X38241428Y-60496190D01*
X38193809Y-60400952D01*
X38146190Y-60353333D01*
X38050952Y-60305714D01*
X37860476Y-60305714D01*
X37765238Y-60353333D01*
X37336666Y-60972380D02*
X37336666Y-59972380D01*
X36908095Y-60972380D02*
X36908095Y-60448571D01*
X36955714Y-60353333D01*
X37050952Y-60305714D01*
X37193809Y-60305714D01*
X37289047Y-60353333D01*
X37336666Y-60400952D01*
X36289047Y-60972380D02*
X36384285Y-60924761D01*
X36431904Y-60877142D01*
X36479523Y-60781904D01*
X36479523Y-60496190D01*
X36431904Y-60400952D01*
X36384285Y-60353333D01*
X36289047Y-60305714D01*
X36146190Y-60305714D01*
X36050952Y-60353333D01*
X36003333Y-60400952D01*
X35955714Y-60496190D01*
X35955714Y-60781904D01*
X36003333Y-60877142D01*
X36050952Y-60924761D01*
X36146190Y-60972380D01*
X36289047Y-60972380D01*
X35098571Y-60924761D02*
X35193809Y-60972380D01*
X35384285Y-60972380D01*
X35479523Y-60924761D01*
X35527142Y-60877142D01*
X35574761Y-60781904D01*
X35574761Y-60496190D01*
X35527142Y-60400952D01*
X35479523Y-60353333D01*
X35384285Y-60305714D01*
X35193809Y-60305714D01*
X35098571Y-60353333D01*
X18705238Y-60874761D02*
X18800476Y-60922380D01*
X18990952Y-60922380D01*
X19086190Y-60874761D01*
X19133809Y-60827142D01*
X19181428Y-60731904D01*
X19181428Y-60446190D01*
X19133809Y-60350952D01*
X19086190Y-60303333D01*
X18990952Y-60255714D01*
X18800476Y-60255714D01*
X18705238Y-60303333D01*
X18276666Y-60922380D02*
X18276666Y-59922380D01*
X17848095Y-60922380D02*
X17848095Y-60398571D01*
X17895714Y-60303333D01*
X17990952Y-60255714D01*
X18133809Y-60255714D01*
X18229047Y-60303333D01*
X18276666Y-60350952D01*
X17229047Y-60922380D02*
X17324285Y-60874761D01*
X17371904Y-60827142D01*
X17419523Y-60731904D01*
X17419523Y-60446190D01*
X17371904Y-60350952D01*
X17324285Y-60303333D01*
X17229047Y-60255714D01*
X17086190Y-60255714D01*
X16990952Y-60303333D01*
X16943333Y-60350952D01*
X16895714Y-60446190D01*
X16895714Y-60731904D01*
X16943333Y-60827142D01*
X16990952Y-60874761D01*
X17086190Y-60922380D01*
X17229047Y-60922380D01*
X16038571Y-60874761D02*
X16133809Y-60922380D01*
X16324285Y-60922380D01*
X16419523Y-60874761D01*
X16467142Y-60827142D01*
X16514761Y-60731904D01*
X16514761Y-60446190D01*
X16467142Y-60350952D01*
X16419523Y-60303333D01*
X16324285Y-60255714D01*
X16133809Y-60255714D01*
X16038571Y-60303333D01*
X-284761Y-61054761D02*
X-189523Y-61102380D01*
X952Y-61102380D01*
X96190Y-61054761D01*
X143809Y-61007142D01*
X191428Y-60911904D01*
X191428Y-60626190D01*
X143809Y-60530952D01*
X96190Y-60483333D01*
X952Y-60435714D01*
X-189523Y-60435714D01*
X-284761Y-60483333D01*
X-713333Y-61102380D02*
X-713333Y-60102380D01*
X-1141904Y-61102380D02*
X-1141904Y-60578571D01*
X-1094285Y-60483333D01*
X-999047Y-60435714D01*
X-856190Y-60435714D01*
X-760952Y-60483333D01*
X-713333Y-60530952D01*
X-1760952Y-61102380D02*
X-1665714Y-61054761D01*
X-1618095Y-61007142D01*
X-1570476Y-60911904D01*
X-1570476Y-60626190D01*
X-1618095Y-60530952D01*
X-1665714Y-60483333D01*
X-1760952Y-60435714D01*
X-1903809Y-60435714D01*
X-1999047Y-60483333D01*
X-2046666Y-60530952D01*
X-2094285Y-60626190D01*
X-2094285Y-60911904D01*
X-2046666Y-61007142D01*
X-1999047Y-61054761D01*
X-1903809Y-61102380D01*
X-1760952Y-61102380D01*
X-2951428Y-61054761D02*
X-2856190Y-61102380D01*
X-2665714Y-61102380D01*
X-2570476Y-61054761D01*
X-2522857Y-61007142D01*
X-2475238Y-60911904D01*
X-2475238Y-60626190D01*
X-2522857Y-60530952D01*
X-2570476Y-60483333D01*
X-2665714Y-60435714D01*
X-2856190Y-60435714D01*
X-2951428Y-60483333D01*
X37289523Y-52242380D02*
X37289523Y-51242380D01*
X36956190Y-51956666D01*
X36622857Y-51242380D01*
X36622857Y-52242380D01*
X36241904Y-51242380D02*
X35575238Y-52242380D01*
X35575238Y-51242380D02*
X36241904Y-52242380D01*
X75369523Y-52382380D02*
X75369523Y-51382380D01*
X75036190Y-52096666D01*
X74702857Y-51382380D01*
X74702857Y-52382380D01*
X74321904Y-51382380D02*
X73655238Y-52382380D01*
X73655238Y-51382380D02*
X74321904Y-52382380D01*
X75845238Y-61064761D02*
X75940476Y-61112380D01*
X76130952Y-61112380D01*
X76226190Y-61064761D01*
X76273809Y-61017142D01*
X76321428Y-60921904D01*
X76321428Y-60636190D01*
X76273809Y-60540952D01*
X76226190Y-60493333D01*
X76130952Y-60445714D01*
X75940476Y-60445714D01*
X75845238Y-60493333D01*
X75416666Y-61112380D02*
X75416666Y-60112380D01*
X74988095Y-61112380D02*
X74988095Y-60588571D01*
X75035714Y-60493333D01*
X75130952Y-60445714D01*
X75273809Y-60445714D01*
X75369047Y-60493333D01*
X75416666Y-60540952D01*
X74369047Y-61112380D02*
X74464285Y-61064761D01*
X74511904Y-61017142D01*
X74559523Y-60921904D01*
X74559523Y-60636190D01*
X74511904Y-60540952D01*
X74464285Y-60493333D01*
X74369047Y-60445714D01*
X74226190Y-60445714D01*
X74130952Y-60493333D01*
X74083333Y-60540952D01*
X74035714Y-60636190D01*
X74035714Y-60921904D01*
X74083333Y-61017142D01*
X74130952Y-61064761D01*
X74226190Y-61112380D01*
X74369047Y-61112380D01*
X73178571Y-61064761D02*
X73273809Y-61112380D01*
X73464285Y-61112380D01*
X73559523Y-61064761D01*
X73607142Y-61017142D01*
X73654761Y-60921904D01*
X73654761Y-60636190D01*
X73607142Y-60540952D01*
X73559523Y-60493333D01*
X73464285Y-60445714D01*
X73273809Y-60445714D01*
X73178571Y-60493333D01*
X56785238Y-61014761D02*
X56880476Y-61062380D01*
X57070952Y-61062380D01*
X57166190Y-61014761D01*
X57213809Y-60967142D01*
X57261428Y-60871904D01*
X57261428Y-60586190D01*
X57213809Y-60490952D01*
X57166190Y-60443333D01*
X57070952Y-60395714D01*
X56880476Y-60395714D01*
X56785238Y-60443333D01*
X56356666Y-61062380D02*
X56356666Y-60062380D01*
X55928095Y-61062380D02*
X55928095Y-60538571D01*
X55975714Y-60443333D01*
X56070952Y-60395714D01*
X56213809Y-60395714D01*
X56309047Y-60443333D01*
X56356666Y-60490952D01*
X55309047Y-61062380D02*
X55404285Y-61014761D01*
X55451904Y-60967142D01*
X55499523Y-60871904D01*
X55499523Y-60586190D01*
X55451904Y-60490952D01*
X55404285Y-60443333D01*
X55309047Y-60395714D01*
X55166190Y-60395714D01*
X55070952Y-60443333D01*
X55023333Y-60490952D01*
X54975714Y-60586190D01*
X54975714Y-60871904D01*
X55023333Y-60967142D01*
X55070952Y-61014761D01*
X55166190Y-61062380D01*
X55309047Y-61062380D01*
X54118571Y-61014761D02*
X54213809Y-61062380D01*
X54404285Y-61062380D01*
X54499523Y-61014761D01*
X54547142Y-60967142D01*
X54594761Y-60871904D01*
X54594761Y-60586190D01*
X54547142Y-60490952D01*
X54499523Y-60443333D01*
X54404285Y-60395714D01*
X54213809Y-60395714D01*
X54118571Y-60443333D01*
X18229523Y-52192380D02*
X18229523Y-51192380D01*
X17896190Y-51906666D01*
X17562857Y-51192380D01*
X17562857Y-52192380D01*
X17181904Y-51192380D02*
X16515238Y-52192380D01*
X16515238Y-51192380D02*
X17181904Y-52192380D01*
X56309523Y-52332380D02*
X56309523Y-51332380D01*
X55976190Y-52046666D01*
X55642857Y-51332380D01*
X55642857Y-52332380D01*
X55261904Y-51332380D02*
X54595238Y-52332380D01*
X54595238Y-51332380D02*
X55261904Y-52332380D01*
X82872380Y-21512857D02*
X81872380Y-21512857D01*
X82824761Y-21512857D02*
X82872380Y-21417619D01*
X82872380Y-21227142D01*
X82824761Y-21131904D01*
X82777142Y-21084285D01*
X82681904Y-21036666D01*
X82396190Y-21036666D01*
X82300952Y-21084285D01*
X82253333Y-21131904D01*
X82205714Y-21227142D01*
X82205714Y-21417619D01*
X82253333Y-21512857D01*
X82872380Y-21989047D02*
X82205714Y-21989047D01*
X81872380Y-21989047D02*
X81920000Y-21941428D01*
X81967619Y-21989047D01*
X81920000Y-22036666D01*
X81872380Y-21989047D01*
X81967619Y-21989047D01*
X82872380Y-22608095D02*
X82824761Y-22512857D01*
X82777142Y-22465238D01*
X82681904Y-22417619D01*
X82396190Y-22417619D01*
X82300952Y-22465238D01*
X82253333Y-22512857D01*
X82205714Y-22608095D01*
X82205714Y-22750952D01*
X82253333Y-22846190D01*
X82300952Y-22893809D01*
X82396190Y-22941428D01*
X82681904Y-22941428D01*
X82777142Y-22893809D01*
X82824761Y-22846190D01*
X82872380Y-22750952D01*
X82872380Y-22608095D01*
X82872380Y-23798571D02*
X81872380Y-23798571D01*
X82824761Y-23798571D02*
X82872380Y-23703333D01*
X82872380Y-23512857D01*
X82824761Y-23417619D01*
X82777142Y-23370000D01*
X82681904Y-23322380D01*
X82396190Y-23322380D01*
X82300952Y-23370000D01*
X82253333Y-23417619D01*
X82205714Y-23512857D01*
X82205714Y-23703333D01*
X82253333Y-23798571D01*
X82824761Y-24655714D02*
X82872380Y-24560476D01*
X82872380Y-24370000D01*
X82824761Y-24274761D01*
X82729523Y-24227142D01*
X82348571Y-24227142D01*
X82253333Y-24274761D01*
X82205714Y-24370000D01*
X82205714Y-24560476D01*
X82253333Y-24655714D01*
X82348571Y-24703333D01*
X82443809Y-24703333D01*
X82539047Y-24227142D01*
X56399523Y-33322380D02*
X56399523Y-32322380D01*
X56066190Y-33036666D01*
X55732857Y-32322380D01*
X55732857Y-33322380D01*
X55351904Y-32322380D02*
X54685238Y-33322380D01*
X54685238Y-32322380D02*
X55351904Y-33322380D01*
X56875238Y-42004761D02*
X56970476Y-42052380D01*
X57160952Y-42052380D01*
X57256190Y-42004761D01*
X57303809Y-41957142D01*
X57351428Y-41861904D01*
X57351428Y-41576190D01*
X57303809Y-41480952D01*
X57256190Y-41433333D01*
X57160952Y-41385714D01*
X56970476Y-41385714D01*
X56875238Y-41433333D01*
X56446666Y-42052380D02*
X56446666Y-41052380D01*
X56018095Y-42052380D02*
X56018095Y-41528571D01*
X56065714Y-41433333D01*
X56160952Y-41385714D01*
X56303809Y-41385714D01*
X56399047Y-41433333D01*
X56446666Y-41480952D01*
X55399047Y-42052380D02*
X55494285Y-42004761D01*
X55541904Y-41957142D01*
X55589523Y-41861904D01*
X55589523Y-41576190D01*
X55541904Y-41480952D01*
X55494285Y-41433333D01*
X55399047Y-41385714D01*
X55256190Y-41385714D01*
X55160952Y-41433333D01*
X55113333Y-41480952D01*
X55065714Y-41576190D01*
X55065714Y-41861904D01*
X55113333Y-41957142D01*
X55160952Y-42004761D01*
X55256190Y-42052380D01*
X55399047Y-42052380D01*
X54208571Y-42004761D02*
X54303809Y-42052380D01*
X54494285Y-42052380D01*
X54589523Y-42004761D01*
X54637142Y-41957142D01*
X54684761Y-41861904D01*
X54684761Y-41576190D01*
X54637142Y-41480952D01*
X54589523Y-41433333D01*
X54494285Y-41385714D01*
X54303809Y-41385714D01*
X54208571Y-41433333D01*
X37855238Y-41914761D02*
X37950476Y-41962380D01*
X38140952Y-41962380D01*
X38236190Y-41914761D01*
X38283809Y-41867142D01*
X38331428Y-41771904D01*
X38331428Y-41486190D01*
X38283809Y-41390952D01*
X38236190Y-41343333D01*
X38140952Y-41295714D01*
X37950476Y-41295714D01*
X37855238Y-41343333D01*
X37426666Y-41962380D02*
X37426666Y-40962380D01*
X36998095Y-41962380D02*
X36998095Y-41438571D01*
X37045714Y-41343333D01*
X37140952Y-41295714D01*
X37283809Y-41295714D01*
X37379047Y-41343333D01*
X37426666Y-41390952D01*
X36379047Y-41962380D02*
X36474285Y-41914761D01*
X36521904Y-41867142D01*
X36569523Y-41771904D01*
X36569523Y-41486190D01*
X36521904Y-41390952D01*
X36474285Y-41343333D01*
X36379047Y-41295714D01*
X36236190Y-41295714D01*
X36140952Y-41343333D01*
X36093333Y-41390952D01*
X36045714Y-41486190D01*
X36045714Y-41771904D01*
X36093333Y-41867142D01*
X36140952Y-41914761D01*
X36236190Y-41962380D01*
X36379047Y-41962380D01*
X35188571Y-41914761D02*
X35283809Y-41962380D01*
X35474285Y-41962380D01*
X35569523Y-41914761D01*
X35617142Y-41867142D01*
X35664761Y-41771904D01*
X35664761Y-41486190D01*
X35617142Y-41390952D01*
X35569523Y-41343333D01*
X35474285Y-41295714D01*
X35283809Y-41295714D01*
X35188571Y-41343333D01*
X37379523Y-33232380D02*
X37379523Y-32232380D01*
X37046190Y-32946666D01*
X36712857Y-32232380D01*
X36712857Y-33232380D01*
X36331904Y-32232380D02*
X35665238Y-33232380D01*
X35665238Y-32232380D02*
X36331904Y-33232380D01*
X-194761Y-42044761D02*
X-99523Y-42092380D01*
X90952Y-42092380D01*
X186190Y-42044761D01*
X233809Y-41997142D01*
X281428Y-41901904D01*
X281428Y-41616190D01*
X233809Y-41520952D01*
X186190Y-41473333D01*
X90952Y-41425714D01*
X-99523Y-41425714D01*
X-194761Y-41473333D01*
X-623333Y-42092380D02*
X-623333Y-41092380D01*
X-1051904Y-42092380D02*
X-1051904Y-41568571D01*
X-1004285Y-41473333D01*
X-909047Y-41425714D01*
X-766190Y-41425714D01*
X-670952Y-41473333D01*
X-623333Y-41520952D01*
X-1670952Y-42092380D02*
X-1575714Y-42044761D01*
X-1528095Y-41997142D01*
X-1480476Y-41901904D01*
X-1480476Y-41616190D01*
X-1528095Y-41520952D01*
X-1575714Y-41473333D01*
X-1670952Y-41425714D01*
X-1813809Y-41425714D01*
X-1909047Y-41473333D01*
X-1956666Y-41520952D01*
X-2004285Y-41616190D01*
X-2004285Y-41901904D01*
X-1956666Y-41997142D01*
X-1909047Y-42044761D01*
X-1813809Y-42092380D01*
X-1670952Y-42092380D01*
X-2861428Y-42044761D02*
X-2766190Y-42092380D01*
X-2575714Y-42092380D01*
X-2480476Y-42044761D01*
X-2432857Y-41997142D01*
X-2385238Y-41901904D01*
X-2385238Y-41616190D01*
X-2432857Y-41520952D01*
X-2480476Y-41473333D01*
X-2575714Y-41425714D01*
X-2766190Y-41425714D01*
X-2861428Y-41473333D01*
X75935238Y-42054761D02*
X76030476Y-42102380D01*
X76220952Y-42102380D01*
X76316190Y-42054761D01*
X76363809Y-42007142D01*
X76411428Y-41911904D01*
X76411428Y-41626190D01*
X76363809Y-41530952D01*
X76316190Y-41483333D01*
X76220952Y-41435714D01*
X76030476Y-41435714D01*
X75935238Y-41483333D01*
X75506666Y-42102380D02*
X75506666Y-41102380D01*
X75078095Y-42102380D02*
X75078095Y-41578571D01*
X75125714Y-41483333D01*
X75220952Y-41435714D01*
X75363809Y-41435714D01*
X75459047Y-41483333D01*
X75506666Y-41530952D01*
X74459047Y-42102380D02*
X74554285Y-42054761D01*
X74601904Y-42007142D01*
X74649523Y-41911904D01*
X74649523Y-41626190D01*
X74601904Y-41530952D01*
X74554285Y-41483333D01*
X74459047Y-41435714D01*
X74316190Y-41435714D01*
X74220952Y-41483333D01*
X74173333Y-41530952D01*
X74125714Y-41626190D01*
X74125714Y-41911904D01*
X74173333Y-42007142D01*
X74220952Y-42054761D01*
X74316190Y-42102380D01*
X74459047Y-42102380D01*
X73268571Y-42054761D02*
X73363809Y-42102380D01*
X73554285Y-42102380D01*
X73649523Y-42054761D01*
X73697142Y-42007142D01*
X73744761Y-41911904D01*
X73744761Y-41626190D01*
X73697142Y-41530952D01*
X73649523Y-41483333D01*
X73554285Y-41435714D01*
X73363809Y-41435714D01*
X73268571Y-41483333D01*
X-820476Y4577619D02*
X-820476Y5577619D01*
X-1153809Y4863333D01*
X-1487142Y5577619D01*
X-1487142Y4577619D01*
X-1868095Y5577619D02*
X-2534761Y4577619D01*
X-2534761Y5577619D02*
X-1868095Y4577619D01*
X18319523Y-33182380D02*
X18319523Y-32182380D01*
X17986190Y-32896666D01*
X17652857Y-32182380D01*
X17652857Y-33182380D01*
X17271904Y-32182380D02*
X16605238Y-33182380D01*
X16605238Y-32182380D02*
X17271904Y-33182380D01*
X18795238Y-41864761D02*
X18890476Y-41912380D01*
X19080952Y-41912380D01*
X19176190Y-41864761D01*
X19223809Y-41817142D01*
X19271428Y-41721904D01*
X19271428Y-41436190D01*
X19223809Y-41340952D01*
X19176190Y-41293333D01*
X19080952Y-41245714D01*
X18890476Y-41245714D01*
X18795238Y-41293333D01*
X18366666Y-41912380D02*
X18366666Y-40912380D01*
X17938095Y-41912380D02*
X17938095Y-41388571D01*
X17985714Y-41293333D01*
X18080952Y-41245714D01*
X18223809Y-41245714D01*
X18319047Y-41293333D01*
X18366666Y-41340952D01*
X17319047Y-41912380D02*
X17414285Y-41864761D01*
X17461904Y-41817142D01*
X17509523Y-41721904D01*
X17509523Y-41436190D01*
X17461904Y-41340952D01*
X17414285Y-41293333D01*
X17319047Y-41245714D01*
X17176190Y-41245714D01*
X17080952Y-41293333D01*
X17033333Y-41340952D01*
X16985714Y-41436190D01*
X16985714Y-41721904D01*
X17033333Y-41817142D01*
X17080952Y-41864761D01*
X17176190Y-41912380D01*
X17319047Y-41912380D01*
X16128571Y-41864761D02*
X16223809Y-41912380D01*
X16414285Y-41912380D01*
X16509523Y-41864761D01*
X16557142Y-41817142D01*
X16604761Y-41721904D01*
X16604761Y-41436190D01*
X16557142Y-41340952D01*
X16509523Y-41293333D01*
X16414285Y-41245714D01*
X16223809Y-41245714D01*
X16128571Y-41293333D01*
X82972380Y-2212857D02*
X81972380Y-2212857D01*
X82924761Y-2212857D02*
X82972380Y-2117619D01*
X82972380Y-1927142D01*
X82924761Y-1831904D01*
X82877142Y-1784285D01*
X82781904Y-1736666D01*
X82496190Y-1736666D01*
X82400952Y-1784285D01*
X82353333Y-1831904D01*
X82305714Y-1927142D01*
X82305714Y-2117619D01*
X82353333Y-2212857D01*
X82972380Y-2689047D02*
X82305714Y-2689047D01*
X81972380Y-2689047D02*
X82020000Y-2641428D01*
X82067619Y-2689047D01*
X82020000Y-2736666D01*
X81972380Y-2689047D01*
X82067619Y-2689047D01*
X82972380Y-3308095D02*
X82924761Y-3212857D01*
X82877142Y-3165238D01*
X82781904Y-3117619D01*
X82496190Y-3117619D01*
X82400952Y-3165238D01*
X82353333Y-3212857D01*
X82305714Y-3308095D01*
X82305714Y-3450952D01*
X82353333Y-3546190D01*
X82400952Y-3593809D01*
X82496190Y-3641428D01*
X82781904Y-3641428D01*
X82877142Y-3593809D01*
X82924761Y-3546190D01*
X82972380Y-3450952D01*
X82972380Y-3308095D01*
X82972380Y-4498571D02*
X81972380Y-4498571D01*
X82924761Y-4498571D02*
X82972380Y-4403333D01*
X82972380Y-4212857D01*
X82924761Y-4117619D01*
X82877142Y-4070000D01*
X82781904Y-4022380D01*
X82496190Y-4022380D01*
X82400952Y-4070000D01*
X82353333Y-4117619D01*
X82305714Y-4212857D01*
X82305714Y-4403333D01*
X82353333Y-4498571D01*
X82924761Y-5355714D02*
X82972380Y-5260476D01*
X82972380Y-5070000D01*
X82924761Y-4974761D01*
X82829523Y-4927142D01*
X82448571Y-4927142D01*
X82353333Y-4974761D01*
X82305714Y-5070000D01*
X82305714Y-5260476D01*
X82353333Y-5355714D01*
X82448571Y-5403333D01*
X82543809Y-5403333D01*
X82639047Y-4927142D01*
X75459523Y-33372380D02*
X75459523Y-32372380D01*
X75126190Y-33086666D01*
X74792857Y-32372380D01*
X74792857Y-33372380D01*
X74411904Y-32372380D02*
X73745238Y-33372380D01*
X73745238Y-32372380D02*
X74411904Y-33372380D01*
X-344761Y-4104761D02*
X-249523Y-4152380D01*
X-59047Y-4152380D01*
X36190Y-4104761D01*
X83809Y-4057142D01*
X131428Y-3961904D01*
X131428Y-3676190D01*
X83809Y-3580952D01*
X36190Y-3533333D01*
X-59047Y-3485714D01*
X-249523Y-3485714D01*
X-344761Y-3533333D01*
X-773333Y-4152380D02*
X-773333Y-3152380D01*
X-1201904Y-4152380D02*
X-1201904Y-3628571D01*
X-1154285Y-3533333D01*
X-1059047Y-3485714D01*
X-916190Y-3485714D01*
X-820952Y-3533333D01*
X-773333Y-3580952D01*
X-1820952Y-4152380D02*
X-1725714Y-4104761D01*
X-1678095Y-4057142D01*
X-1630476Y-3961904D01*
X-1630476Y-3676190D01*
X-1678095Y-3580952D01*
X-1725714Y-3533333D01*
X-1820952Y-3485714D01*
X-1963809Y-3485714D01*
X-2059047Y-3533333D01*
X-2106666Y-3580952D01*
X-2154285Y-3676190D01*
X-2154285Y-3961904D01*
X-2106666Y-4057142D01*
X-2059047Y-4104761D01*
X-1963809Y-4152380D01*
X-1820952Y-4152380D01*
X-3011428Y-4104761D02*
X-2916190Y-4152380D01*
X-2725714Y-4152380D01*
X-2630476Y-4104761D01*
X-2582857Y-4057142D01*
X-2535238Y-3961904D01*
X-2535238Y-3676190D01*
X-2582857Y-3580952D01*
X-2630476Y-3533333D01*
X-2725714Y-3485714D01*
X-2916190Y-3485714D01*
X-3011428Y-3533333D01*
X-670476Y-33362380D02*
X-670476Y-32362380D01*
X-1003809Y-33076666D01*
X-1337142Y-32362380D01*
X-1337142Y-33362380D01*
X-1718095Y-32362380D02*
X-2384761Y-33362380D01*
X-2384761Y-32362380D02*
X-1718095Y-33362380D01*
X25812380Y-59462857D02*
X24812380Y-59462857D01*
X25764761Y-59462857D02*
X25812380Y-59367619D01*
X25812380Y-59177142D01*
X25764761Y-59081904D01*
X25717142Y-59034285D01*
X25621904Y-58986666D01*
X25336190Y-58986666D01*
X25240952Y-59034285D01*
X25193333Y-59081904D01*
X25145714Y-59177142D01*
X25145714Y-59367619D01*
X25193333Y-59462857D01*
X25812380Y-59939047D02*
X25145714Y-59939047D01*
X24812380Y-59939047D02*
X24860000Y-59891428D01*
X24907619Y-59939047D01*
X24860000Y-59986666D01*
X24812380Y-59939047D01*
X24907619Y-59939047D01*
X25812380Y-60558095D02*
X25764761Y-60462857D01*
X25717142Y-60415238D01*
X25621904Y-60367619D01*
X25336190Y-60367619D01*
X25240952Y-60415238D01*
X25193333Y-60462857D01*
X25145714Y-60558095D01*
X25145714Y-60700952D01*
X25193333Y-60796190D01*
X25240952Y-60843809D01*
X25336190Y-60891428D01*
X25621904Y-60891428D01*
X25717142Y-60843809D01*
X25764761Y-60796190D01*
X25812380Y-60700952D01*
X25812380Y-60558095D01*
X25812380Y-61748571D02*
X24812380Y-61748571D01*
X25764761Y-61748571D02*
X25812380Y-61653333D01*
X25812380Y-61462857D01*
X25764761Y-61367619D01*
X25717142Y-61320000D01*
X25621904Y-61272380D01*
X25336190Y-61272380D01*
X25240952Y-61320000D01*
X25193333Y-61367619D01*
X25145714Y-61462857D01*
X25145714Y-61653333D01*
X25193333Y-61748571D01*
X25764761Y-62605714D02*
X25812380Y-62510476D01*
X25812380Y-62320000D01*
X25764761Y-62224761D01*
X25669523Y-62177142D01*
X25288571Y-62177142D01*
X25193333Y-62224761D01*
X25145714Y-62320000D01*
X25145714Y-62510476D01*
X25193333Y-62605714D01*
X25288571Y-62653333D01*
X25383809Y-62653333D01*
X25479047Y-62177142D01*
X6612380Y-21612857D02*
X5612380Y-21612857D01*
X6564761Y-21612857D02*
X6612380Y-21517619D01*
X6612380Y-21327142D01*
X6564761Y-21231904D01*
X6517142Y-21184285D01*
X6421904Y-21136666D01*
X6136190Y-21136666D01*
X6040952Y-21184285D01*
X5993333Y-21231904D01*
X5945714Y-21327142D01*
X5945714Y-21517619D01*
X5993333Y-21612857D01*
X6612380Y-22089047D02*
X5945714Y-22089047D01*
X5612380Y-22089047D02*
X5660000Y-22041428D01*
X5707619Y-22089047D01*
X5660000Y-22136666D01*
X5612380Y-22089047D01*
X5707619Y-22089047D01*
X6612380Y-22708095D02*
X6564761Y-22612857D01*
X6517142Y-22565238D01*
X6421904Y-22517619D01*
X6136190Y-22517619D01*
X6040952Y-22565238D01*
X5993333Y-22612857D01*
X5945714Y-22708095D01*
X5945714Y-22850952D01*
X5993333Y-22946190D01*
X6040952Y-22993809D01*
X6136190Y-23041428D01*
X6421904Y-23041428D01*
X6517142Y-22993809D01*
X6564761Y-22946190D01*
X6612380Y-22850952D01*
X6612380Y-22708095D01*
X6612380Y-23898571D02*
X5612380Y-23898571D01*
X6564761Y-23898571D02*
X6612380Y-23803333D01*
X6612380Y-23612857D01*
X6564761Y-23517619D01*
X6517142Y-23470000D01*
X6421904Y-23422380D01*
X6136190Y-23422380D01*
X6040952Y-23470000D01*
X5993333Y-23517619D01*
X5945714Y-23612857D01*
X5945714Y-23803333D01*
X5993333Y-23898571D01*
X6564761Y-24755714D02*
X6612380Y-24660476D01*
X6612380Y-24470000D01*
X6564761Y-24374761D01*
X6469523Y-24327142D01*
X6088571Y-24327142D01*
X5993333Y-24374761D01*
X5945714Y-24470000D01*
X5945714Y-24660476D01*
X5993333Y-24755714D01*
X6088571Y-24803333D01*
X6183809Y-24803333D01*
X6279047Y-24327142D01*
X6732380Y-59452857D02*
X5732380Y-59452857D01*
X6684761Y-59452857D02*
X6732380Y-59357619D01*
X6732380Y-59167142D01*
X6684761Y-59071904D01*
X6637142Y-59024285D01*
X6541904Y-58976666D01*
X6256190Y-58976666D01*
X6160952Y-59024285D01*
X6113333Y-59071904D01*
X6065714Y-59167142D01*
X6065714Y-59357619D01*
X6113333Y-59452857D01*
X6732380Y-59929047D02*
X6065714Y-59929047D01*
X5732380Y-59929047D02*
X5780000Y-59881428D01*
X5827619Y-59929047D01*
X5780000Y-59976666D01*
X5732380Y-59929047D01*
X5827619Y-59929047D01*
X6732380Y-60548095D02*
X6684761Y-60452857D01*
X6637142Y-60405238D01*
X6541904Y-60357619D01*
X6256190Y-60357619D01*
X6160952Y-60405238D01*
X6113333Y-60452857D01*
X6065714Y-60548095D01*
X6065714Y-60690952D01*
X6113333Y-60786190D01*
X6160952Y-60833809D01*
X6256190Y-60881428D01*
X6541904Y-60881428D01*
X6637142Y-60833809D01*
X6684761Y-60786190D01*
X6732380Y-60690952D01*
X6732380Y-60548095D01*
X6732380Y-61738571D02*
X5732380Y-61738571D01*
X6684761Y-61738571D02*
X6732380Y-61643333D01*
X6732380Y-61452857D01*
X6684761Y-61357619D01*
X6637142Y-61310000D01*
X6541904Y-61262380D01*
X6256190Y-61262380D01*
X6160952Y-61310000D01*
X6113333Y-61357619D01*
X6065714Y-61452857D01*
X6065714Y-61643333D01*
X6113333Y-61738571D01*
X6684761Y-62595714D02*
X6732380Y-62500476D01*
X6732380Y-62310000D01*
X6684761Y-62214761D01*
X6589523Y-62167142D01*
X6208571Y-62167142D01*
X6113333Y-62214761D01*
X6065714Y-62310000D01*
X6065714Y-62500476D01*
X6113333Y-62595714D01*
X6208571Y-62643333D01*
X6303809Y-62643333D01*
X6399047Y-62167142D01*
X6712380Y-2312857D02*
X5712380Y-2312857D01*
X6664761Y-2312857D02*
X6712380Y-2217619D01*
X6712380Y-2027142D01*
X6664761Y-1931904D01*
X6617142Y-1884285D01*
X6521904Y-1836666D01*
X6236190Y-1836666D01*
X6140952Y-1884285D01*
X6093333Y-1931904D01*
X6045714Y-2027142D01*
X6045714Y-2217619D01*
X6093333Y-2312857D01*
X6712380Y-2789047D02*
X6045714Y-2789047D01*
X5712380Y-2789047D02*
X5760000Y-2741428D01*
X5807619Y-2789047D01*
X5760000Y-2836666D01*
X5712380Y-2789047D01*
X5807619Y-2789047D01*
X6712380Y-3408095D02*
X6664761Y-3312857D01*
X6617142Y-3265238D01*
X6521904Y-3217619D01*
X6236190Y-3217619D01*
X6140952Y-3265238D01*
X6093333Y-3312857D01*
X6045714Y-3408095D01*
X6045714Y-3550952D01*
X6093333Y-3646190D01*
X6140952Y-3693809D01*
X6236190Y-3741428D01*
X6521904Y-3741428D01*
X6617142Y-3693809D01*
X6664761Y-3646190D01*
X6712380Y-3550952D01*
X6712380Y-3408095D01*
X6712380Y-4598571D02*
X5712380Y-4598571D01*
X6664761Y-4598571D02*
X6712380Y-4503333D01*
X6712380Y-4312857D01*
X6664761Y-4217619D01*
X6617142Y-4170000D01*
X6521904Y-4122380D01*
X6236190Y-4122380D01*
X6140952Y-4170000D01*
X6093333Y-4217619D01*
X6045714Y-4312857D01*
X6045714Y-4503333D01*
X6093333Y-4598571D01*
X6664761Y-5455714D02*
X6712380Y-5360476D01*
X6712380Y-5170000D01*
X6664761Y-5074761D01*
X6569523Y-5027142D01*
X6188571Y-5027142D01*
X6093333Y-5074761D01*
X6045714Y-5170000D01*
X6045714Y-5360476D01*
X6093333Y-5455714D01*
X6188571Y-5503333D01*
X6283809Y-5503333D01*
X6379047Y-5027142D01*
X6552380Y-40422857D02*
X5552380Y-40422857D01*
X6504761Y-40422857D02*
X6552380Y-40327619D01*
X6552380Y-40137142D01*
X6504761Y-40041904D01*
X6457142Y-39994285D01*
X6361904Y-39946666D01*
X6076190Y-39946666D01*
X5980952Y-39994285D01*
X5933333Y-40041904D01*
X5885714Y-40137142D01*
X5885714Y-40327619D01*
X5933333Y-40422857D01*
X6552380Y-40899047D02*
X5885714Y-40899047D01*
X5552380Y-40899047D02*
X5600000Y-40851428D01*
X5647619Y-40899047D01*
X5600000Y-40946666D01*
X5552380Y-40899047D01*
X5647619Y-40899047D01*
X6552380Y-41518095D02*
X6504761Y-41422857D01*
X6457142Y-41375238D01*
X6361904Y-41327619D01*
X6076190Y-41327619D01*
X5980952Y-41375238D01*
X5933333Y-41422857D01*
X5885714Y-41518095D01*
X5885714Y-41660952D01*
X5933333Y-41756190D01*
X5980952Y-41803809D01*
X6076190Y-41851428D01*
X6361904Y-41851428D01*
X6457142Y-41803809D01*
X6504761Y-41756190D01*
X6552380Y-41660952D01*
X6552380Y-41518095D01*
X6552380Y-42708571D02*
X5552380Y-42708571D01*
X6504761Y-42708571D02*
X6552380Y-42613333D01*
X6552380Y-42422857D01*
X6504761Y-42327619D01*
X6457142Y-42280000D01*
X6361904Y-42232380D01*
X6076190Y-42232380D01*
X5980952Y-42280000D01*
X5933333Y-42327619D01*
X5885714Y-42422857D01*
X5885714Y-42613333D01*
X5933333Y-42708571D01*
X6504761Y-43565714D02*
X6552380Y-43470476D01*
X6552380Y-43280000D01*
X6504761Y-43184761D01*
X6409523Y-43137142D01*
X6028571Y-43137142D01*
X5933333Y-43184761D01*
X5885714Y-43280000D01*
X5885714Y-43470476D01*
X5933333Y-43565714D01*
X6028571Y-43613333D01*
X6123809Y-43613333D01*
X6219047Y-43137142D01*
X25692380Y-21622857D02*
X24692380Y-21622857D01*
X25644761Y-21622857D02*
X25692380Y-21527619D01*
X25692380Y-21337142D01*
X25644761Y-21241904D01*
X25597142Y-21194285D01*
X25501904Y-21146666D01*
X25216190Y-21146666D01*
X25120952Y-21194285D01*
X25073333Y-21241904D01*
X25025714Y-21337142D01*
X25025714Y-21527619D01*
X25073333Y-21622857D01*
X25692380Y-22099047D02*
X25025714Y-22099047D01*
X24692380Y-22099047D02*
X24740000Y-22051428D01*
X24787619Y-22099047D01*
X24740000Y-22146666D01*
X24692380Y-22099047D01*
X24787619Y-22099047D01*
X25692380Y-22718095D02*
X25644761Y-22622857D01*
X25597142Y-22575238D01*
X25501904Y-22527619D01*
X25216190Y-22527619D01*
X25120952Y-22575238D01*
X25073333Y-22622857D01*
X25025714Y-22718095D01*
X25025714Y-22860952D01*
X25073333Y-22956190D01*
X25120952Y-23003809D01*
X25216190Y-23051428D01*
X25501904Y-23051428D01*
X25597142Y-23003809D01*
X25644761Y-22956190D01*
X25692380Y-22860952D01*
X25692380Y-22718095D01*
X25692380Y-23908571D02*
X24692380Y-23908571D01*
X25644761Y-23908571D02*
X25692380Y-23813333D01*
X25692380Y-23622857D01*
X25644761Y-23527619D01*
X25597142Y-23480000D01*
X25501904Y-23432380D01*
X25216190Y-23432380D01*
X25120952Y-23480000D01*
X25073333Y-23527619D01*
X25025714Y-23622857D01*
X25025714Y-23813333D01*
X25073333Y-23908571D01*
X25644761Y-24765714D02*
X25692380Y-24670476D01*
X25692380Y-24480000D01*
X25644761Y-24384761D01*
X25549523Y-24337142D01*
X25168571Y-24337142D01*
X25073333Y-24384761D01*
X25025714Y-24480000D01*
X25025714Y-24670476D01*
X25073333Y-24765714D01*
X25168571Y-24813333D01*
X25263809Y-24813333D01*
X25359047Y-24337142D01*
X25632380Y-40432857D02*
X24632380Y-40432857D01*
X25584761Y-40432857D02*
X25632380Y-40337619D01*
X25632380Y-40147142D01*
X25584761Y-40051904D01*
X25537142Y-40004285D01*
X25441904Y-39956666D01*
X25156190Y-39956666D01*
X25060952Y-40004285D01*
X25013333Y-40051904D01*
X24965714Y-40147142D01*
X24965714Y-40337619D01*
X25013333Y-40432857D01*
X25632380Y-40909047D02*
X24965714Y-40909047D01*
X24632380Y-40909047D02*
X24680000Y-40861428D01*
X24727619Y-40909047D01*
X24680000Y-40956666D01*
X24632380Y-40909047D01*
X24727619Y-40909047D01*
X25632380Y-41528095D02*
X25584761Y-41432857D01*
X25537142Y-41385238D01*
X25441904Y-41337619D01*
X25156190Y-41337619D01*
X25060952Y-41385238D01*
X25013333Y-41432857D01*
X24965714Y-41528095D01*
X24965714Y-41670952D01*
X25013333Y-41766190D01*
X25060952Y-41813809D01*
X25156190Y-41861428D01*
X25441904Y-41861428D01*
X25537142Y-41813809D01*
X25584761Y-41766190D01*
X25632380Y-41670952D01*
X25632380Y-41528095D01*
X25632380Y-42718571D02*
X24632380Y-42718571D01*
X25584761Y-42718571D02*
X25632380Y-42623333D01*
X25632380Y-42432857D01*
X25584761Y-42337619D01*
X25537142Y-42290000D01*
X25441904Y-42242380D01*
X25156190Y-42242380D01*
X25060952Y-42290000D01*
X25013333Y-42337619D01*
X24965714Y-42432857D01*
X24965714Y-42623333D01*
X25013333Y-42718571D01*
X25584761Y-43575714D02*
X25632380Y-43480476D01*
X25632380Y-43290000D01*
X25584761Y-43194761D01*
X25489523Y-43147142D01*
X25108571Y-43147142D01*
X25013333Y-43194761D01*
X24965714Y-43290000D01*
X24965714Y-43480476D01*
X25013333Y-43575714D01*
X25108571Y-43623333D01*
X25203809Y-43623333D01*
X25299047Y-43147142D01*
X25792380Y-2322857D02*
X24792380Y-2322857D01*
X25744761Y-2322857D02*
X25792380Y-2227619D01*
X25792380Y-2037142D01*
X25744761Y-1941904D01*
X25697142Y-1894285D01*
X25601904Y-1846666D01*
X25316190Y-1846666D01*
X25220952Y-1894285D01*
X25173333Y-1941904D01*
X25125714Y-2037142D01*
X25125714Y-2227619D01*
X25173333Y-2322857D01*
X25792380Y-2799047D02*
X25125714Y-2799047D01*
X24792380Y-2799047D02*
X24840000Y-2751428D01*
X24887619Y-2799047D01*
X24840000Y-2846666D01*
X24792380Y-2799047D01*
X24887619Y-2799047D01*
X25792380Y-3418095D02*
X25744761Y-3322857D01*
X25697142Y-3275238D01*
X25601904Y-3227619D01*
X25316190Y-3227619D01*
X25220952Y-3275238D01*
X25173333Y-3322857D01*
X25125714Y-3418095D01*
X25125714Y-3560952D01*
X25173333Y-3656190D01*
X25220952Y-3703809D01*
X25316190Y-3751428D01*
X25601904Y-3751428D01*
X25697142Y-3703809D01*
X25744761Y-3656190D01*
X25792380Y-3560952D01*
X25792380Y-3418095D01*
X25792380Y-4608571D02*
X24792380Y-4608571D01*
X25744761Y-4608571D02*
X25792380Y-4513333D01*
X25792380Y-4322857D01*
X25744761Y-4227619D01*
X25697142Y-4180000D01*
X25601904Y-4132380D01*
X25316190Y-4132380D01*
X25220952Y-4180000D01*
X25173333Y-4227619D01*
X25125714Y-4322857D01*
X25125714Y-4513333D01*
X25173333Y-4608571D01*
X25744761Y-5465714D02*
X25792380Y-5370476D01*
X25792380Y-5180000D01*
X25744761Y-5084761D01*
X25649523Y-5037142D01*
X25268571Y-5037142D01*
X25173333Y-5084761D01*
X25125714Y-5180000D01*
X25125714Y-5370476D01*
X25173333Y-5465714D01*
X25268571Y-5513333D01*
X25363809Y-5513333D01*
X25459047Y-5037142D01*
X44722380Y-21652857D02*
X43722380Y-21652857D01*
X44674761Y-21652857D02*
X44722380Y-21557619D01*
X44722380Y-21367142D01*
X44674761Y-21271904D01*
X44627142Y-21224285D01*
X44531904Y-21176666D01*
X44246190Y-21176666D01*
X44150952Y-21224285D01*
X44103333Y-21271904D01*
X44055714Y-21367142D01*
X44055714Y-21557619D01*
X44103333Y-21652857D01*
X44722380Y-22129047D02*
X44055714Y-22129047D01*
X43722380Y-22129047D02*
X43770000Y-22081428D01*
X43817619Y-22129047D01*
X43770000Y-22176666D01*
X43722380Y-22129047D01*
X43817619Y-22129047D01*
X44722380Y-22748095D02*
X44674761Y-22652857D01*
X44627142Y-22605238D01*
X44531904Y-22557619D01*
X44246190Y-22557619D01*
X44150952Y-22605238D01*
X44103333Y-22652857D01*
X44055714Y-22748095D01*
X44055714Y-22890952D01*
X44103333Y-22986190D01*
X44150952Y-23033809D01*
X44246190Y-23081428D01*
X44531904Y-23081428D01*
X44627142Y-23033809D01*
X44674761Y-22986190D01*
X44722380Y-22890952D01*
X44722380Y-22748095D01*
X44722380Y-23938571D02*
X43722380Y-23938571D01*
X44674761Y-23938571D02*
X44722380Y-23843333D01*
X44722380Y-23652857D01*
X44674761Y-23557619D01*
X44627142Y-23510000D01*
X44531904Y-23462380D01*
X44246190Y-23462380D01*
X44150952Y-23510000D01*
X44103333Y-23557619D01*
X44055714Y-23652857D01*
X44055714Y-23843333D01*
X44103333Y-23938571D01*
X44674761Y-24795714D02*
X44722380Y-24700476D01*
X44722380Y-24510000D01*
X44674761Y-24414761D01*
X44579523Y-24367142D01*
X44198571Y-24367142D01*
X44103333Y-24414761D01*
X44055714Y-24510000D01*
X44055714Y-24700476D01*
X44103333Y-24795714D01*
X44198571Y-24843333D01*
X44293809Y-24843333D01*
X44389047Y-24367142D01*
X75309523Y4567619D02*
X75309523Y5567619D01*
X74976190Y4853333D01*
X74642857Y5567619D01*
X74642857Y4567619D01*
X74261904Y5567619D02*
X73595238Y4567619D01*
X73595238Y5567619D02*
X74261904Y4567619D01*
X44822380Y-2352857D02*
X43822380Y-2352857D01*
X44774761Y-2352857D02*
X44822380Y-2257619D01*
X44822380Y-2067142D01*
X44774761Y-1971904D01*
X44727142Y-1924285D01*
X44631904Y-1876666D01*
X44346190Y-1876666D01*
X44250952Y-1924285D01*
X44203333Y-1971904D01*
X44155714Y-2067142D01*
X44155714Y-2257619D01*
X44203333Y-2352857D01*
X44822380Y-2829047D02*
X44155714Y-2829047D01*
X43822380Y-2829047D02*
X43870000Y-2781428D01*
X43917619Y-2829047D01*
X43870000Y-2876666D01*
X43822380Y-2829047D01*
X43917619Y-2829047D01*
X44822380Y-3448095D02*
X44774761Y-3352857D01*
X44727142Y-3305238D01*
X44631904Y-3257619D01*
X44346190Y-3257619D01*
X44250952Y-3305238D01*
X44203333Y-3352857D01*
X44155714Y-3448095D01*
X44155714Y-3590952D01*
X44203333Y-3686190D01*
X44250952Y-3733809D01*
X44346190Y-3781428D01*
X44631904Y-3781428D01*
X44727142Y-3733809D01*
X44774761Y-3686190D01*
X44822380Y-3590952D01*
X44822380Y-3448095D01*
X44822380Y-4638571D02*
X43822380Y-4638571D01*
X44774761Y-4638571D02*
X44822380Y-4543333D01*
X44822380Y-4352857D01*
X44774761Y-4257619D01*
X44727142Y-4210000D01*
X44631904Y-4162380D01*
X44346190Y-4162380D01*
X44250952Y-4210000D01*
X44203333Y-4257619D01*
X44155714Y-4352857D01*
X44155714Y-4543333D01*
X44203333Y-4638571D01*
X44774761Y-5495714D02*
X44822380Y-5400476D01*
X44822380Y-5210000D01*
X44774761Y-5114761D01*
X44679523Y-5067142D01*
X44298571Y-5067142D01*
X44203333Y-5114761D01*
X44155714Y-5210000D01*
X44155714Y-5400476D01*
X44203333Y-5495714D01*
X44298571Y-5543333D01*
X44393809Y-5543333D01*
X44489047Y-5067142D01*
X44842380Y-59492857D02*
X43842380Y-59492857D01*
X44794761Y-59492857D02*
X44842380Y-59397619D01*
X44842380Y-59207142D01*
X44794761Y-59111904D01*
X44747142Y-59064285D01*
X44651904Y-59016666D01*
X44366190Y-59016666D01*
X44270952Y-59064285D01*
X44223333Y-59111904D01*
X44175714Y-59207142D01*
X44175714Y-59397619D01*
X44223333Y-59492857D01*
X44842380Y-59969047D02*
X44175714Y-59969047D01*
X43842380Y-59969047D02*
X43890000Y-59921428D01*
X43937619Y-59969047D01*
X43890000Y-60016666D01*
X43842380Y-59969047D01*
X43937619Y-59969047D01*
X44842380Y-60588095D02*
X44794761Y-60492857D01*
X44747142Y-60445238D01*
X44651904Y-60397619D01*
X44366190Y-60397619D01*
X44270952Y-60445238D01*
X44223333Y-60492857D01*
X44175714Y-60588095D01*
X44175714Y-60730952D01*
X44223333Y-60826190D01*
X44270952Y-60873809D01*
X44366190Y-60921428D01*
X44651904Y-60921428D01*
X44747142Y-60873809D01*
X44794761Y-60826190D01*
X44842380Y-60730952D01*
X44842380Y-60588095D01*
X44842380Y-61778571D02*
X43842380Y-61778571D01*
X44794761Y-61778571D02*
X44842380Y-61683333D01*
X44842380Y-61492857D01*
X44794761Y-61397619D01*
X44747142Y-61350000D01*
X44651904Y-61302380D01*
X44366190Y-61302380D01*
X44270952Y-61350000D01*
X44223333Y-61397619D01*
X44175714Y-61492857D01*
X44175714Y-61683333D01*
X44223333Y-61778571D01*
X44794761Y-62635714D02*
X44842380Y-62540476D01*
X44842380Y-62350000D01*
X44794761Y-62254761D01*
X44699523Y-62207142D01*
X44318571Y-62207142D01*
X44223333Y-62254761D01*
X44175714Y-62350000D01*
X44175714Y-62540476D01*
X44223333Y-62635714D01*
X44318571Y-62683333D01*
X44413809Y-62683333D01*
X44509047Y-62207142D01*
X44662380Y-40462857D02*
X43662380Y-40462857D01*
X44614761Y-40462857D02*
X44662380Y-40367619D01*
X44662380Y-40177142D01*
X44614761Y-40081904D01*
X44567142Y-40034285D01*
X44471904Y-39986666D01*
X44186190Y-39986666D01*
X44090952Y-40034285D01*
X44043333Y-40081904D01*
X43995714Y-40177142D01*
X43995714Y-40367619D01*
X44043333Y-40462857D01*
X44662380Y-40939047D02*
X43995714Y-40939047D01*
X43662380Y-40939047D02*
X43710000Y-40891428D01*
X43757619Y-40939047D01*
X43710000Y-40986666D01*
X43662380Y-40939047D01*
X43757619Y-40939047D01*
X44662380Y-41558095D02*
X44614761Y-41462857D01*
X44567142Y-41415238D01*
X44471904Y-41367619D01*
X44186190Y-41367619D01*
X44090952Y-41415238D01*
X44043333Y-41462857D01*
X43995714Y-41558095D01*
X43995714Y-41700952D01*
X44043333Y-41796190D01*
X44090952Y-41843809D01*
X44186190Y-41891428D01*
X44471904Y-41891428D01*
X44567142Y-41843809D01*
X44614761Y-41796190D01*
X44662380Y-41700952D01*
X44662380Y-41558095D01*
X44662380Y-42748571D02*
X43662380Y-42748571D01*
X44614761Y-42748571D02*
X44662380Y-42653333D01*
X44662380Y-42462857D01*
X44614761Y-42367619D01*
X44567142Y-42320000D01*
X44471904Y-42272380D01*
X44186190Y-42272380D01*
X44090952Y-42320000D01*
X44043333Y-42367619D01*
X43995714Y-42462857D01*
X43995714Y-42653333D01*
X44043333Y-42748571D01*
X44614761Y-43605714D02*
X44662380Y-43510476D01*
X44662380Y-43320000D01*
X44614761Y-43224761D01*
X44519523Y-43177142D01*
X44138571Y-43177142D01*
X44043333Y-43224761D01*
X43995714Y-43320000D01*
X43995714Y-43510476D01*
X44043333Y-43605714D01*
X44138571Y-43653333D01*
X44233809Y-43653333D01*
X44329047Y-43177142D01*
X56725238Y-4064761D02*
X56820476Y-4112380D01*
X57010952Y-4112380D01*
X57106190Y-4064761D01*
X57153809Y-4017142D01*
X57201428Y-3921904D01*
X57201428Y-3636190D01*
X57153809Y-3540952D01*
X57106190Y-3493333D01*
X57010952Y-3445714D01*
X56820476Y-3445714D01*
X56725238Y-3493333D01*
X56296666Y-4112380D02*
X56296666Y-3112380D01*
X55868095Y-4112380D02*
X55868095Y-3588571D01*
X55915714Y-3493333D01*
X56010952Y-3445714D01*
X56153809Y-3445714D01*
X56249047Y-3493333D01*
X56296666Y-3540952D01*
X55249047Y-4112380D02*
X55344285Y-4064761D01*
X55391904Y-4017142D01*
X55439523Y-3921904D01*
X55439523Y-3636190D01*
X55391904Y-3540952D01*
X55344285Y-3493333D01*
X55249047Y-3445714D01*
X55106190Y-3445714D01*
X55010952Y-3493333D01*
X54963333Y-3540952D01*
X54915714Y-3636190D01*
X54915714Y-3921904D01*
X54963333Y-4017142D01*
X55010952Y-4064761D01*
X55106190Y-4112380D01*
X55249047Y-4112380D01*
X54058571Y-4064761D02*
X54153809Y-4112380D01*
X54344285Y-4112380D01*
X54439523Y-4064761D01*
X54487142Y-4017142D01*
X54534761Y-3921904D01*
X54534761Y-3636190D01*
X54487142Y-3540952D01*
X54439523Y-3493333D01*
X54344285Y-3445714D01*
X54153809Y-3445714D01*
X54058571Y-3493333D01*
X56249523Y4617619D02*
X56249523Y5617619D01*
X55916190Y4903333D01*
X55582857Y5617619D01*
X55582857Y4617619D01*
X55201904Y5617619D02*
X54535238Y4617619D01*
X54535238Y5617619D02*
X55201904Y4617619D01*
X-10600000Y20110000D02*
X-10600000Y20410000D01*
X-10750000Y20010000D02*
X-10750000Y20510000D01*
X-10900000Y19910000D02*
X-10900000Y20610000D01*
X-10400000Y20260000D02*
X-11050000Y19760000D01*
X-11050000Y20760000D02*
X-10400000Y20260000D01*
X-11050000Y19760000D02*
X-11050000Y20760000D01*
X-11400000Y24010000D02*
X-11400000Y16510000D01*
X-10100000Y24010000D02*
X-11400000Y24010000D01*
X-10100000Y16510000D02*
X-10100000Y24010000D01*
X-11400000Y16510000D02*
X-10100000Y16510000D01*
X-8500000Y11360000D02*
X-7500000Y11360000D01*
X-8500000Y29160000D02*
X-7500000Y29160000D01*
X-8500000Y11360000D02*
X-8500000Y12360000D01*
X-8500000Y29160000D02*
X-8500000Y28210000D01*
X23500000Y11360000D02*
X24550000Y11360000D01*
X23550000Y29160000D02*
X24550000Y29160000D01*
X24550000Y11360000D02*
X24550000Y12360000D01*
X24550000Y29160000D02*
X24550000Y28150000D01*
D11*
X86570000Y10270000D02*
X86570000Y31270000D01*
X35570000Y17070000D02*
X35570000Y10270000D01*
X83903000Y10270000D02*
X83903000Y13277000D01*
X83903000Y13277000D02*
X86570000Y13277000D01*
X86570000Y10270000D02*
X86270000Y10270000D01*
X84170000Y10270000D02*
X83770000Y10270000D01*
X81570000Y10270000D02*
X81170000Y10270000D01*
X79070000Y10270000D02*
X78670000Y10270000D01*
X76470000Y10270000D02*
X76070000Y10270000D01*
X73970000Y10270000D02*
X73570000Y10270000D01*
X71470000Y10270000D02*
X71070000Y10270000D01*
X68870000Y10270000D02*
X68470000Y10270000D01*
X66370000Y10270000D02*
X65970000Y10270000D01*
X63770000Y10270000D02*
X63370000Y10270000D01*
X61270000Y10270000D02*
X60870000Y10270000D01*
X58770000Y10270000D02*
X58370000Y10270000D01*
X56170000Y10270000D02*
X55770000Y10270000D01*
X53670000Y10270000D02*
X53270000Y10270000D01*
X51070000Y10270000D02*
X50670000Y10270000D01*
X48570000Y10270000D02*
X48170000Y10270000D01*
X45970000Y10270000D02*
X45570000Y10270000D01*
X43470000Y10270000D02*
X43070000Y10270000D01*
X40970000Y10270000D02*
X40570000Y10270000D01*
X38370000Y10270000D02*
X37970000Y10270000D01*
X71470000Y31270000D02*
X71070000Y31270000D01*
X66370000Y31270000D02*
X65970000Y31270000D01*
X58770000Y31270000D02*
X58370000Y31270000D01*
X51070000Y31270000D02*
X50670000Y31270000D01*
X81570000Y31270000D02*
X81170000Y31270000D01*
X84170000Y31270000D02*
X83770000Y31270000D01*
X76470000Y31270000D02*
X76070000Y31270000D01*
X43470000Y31270000D02*
X43070000Y31270000D01*
X38370000Y31270000D02*
X37970000Y31270000D01*
X40970000Y31270000D02*
X40570000Y31270000D01*
X56170000Y31270000D02*
X55770000Y31270000D01*
X61270000Y31270000D02*
X60870000Y31270000D01*
X73970000Y31270000D02*
X73570000Y31270000D01*
X68870000Y31270000D02*
X68470000Y31270000D01*
X48570000Y31270000D02*
X48170000Y31270000D01*
X63770000Y31270000D02*
X63370000Y31270000D01*
X86570000Y31270000D02*
X86270000Y31270000D01*
X79070000Y31270000D02*
X78670000Y31270000D01*
X53670000Y31270000D02*
X53270000Y31270000D01*
X45970000Y31270000D02*
X45570000Y31270000D01*
X35570000Y31270000D02*
X35570000Y24470000D01*
X35570000Y19270000D02*
X35570000Y19670000D01*
X35570000Y21870000D02*
X35570000Y22270000D01*
D10*
X51050000Y-18154000D02*
X54660000Y-18154000D01*
X51050000Y-14200000D02*
X51050000Y-18145000D01*
X61950000Y-12246000D02*
X53325000Y-12246000D01*
X61950000Y-16154000D02*
X61950000Y-12246000D01*
X61950000Y-16200000D02*
X56900000Y-16246000D01*
X59425000Y-27275000D02*
X54875000Y-27275000D01*
X59425000Y-22625000D02*
X56875000Y-22625000D01*
X54575000Y-20425000D02*
X49875000Y-20425000D01*
X53650000Y-25075000D02*
X49875000Y-25075000D01*
X59450000Y-22650000D02*
X59450000Y-27250000D01*
X49875000Y-20450000D02*
X49850000Y-25050000D01*
X54870000Y-26550000D02*
X54870000Y-27250000D01*
X54870000Y-26500000D02*
G75*
G03*
X53650000Y-25080000I-1320000J100000D01*
G01*
X54580000Y-20450000D02*
G75*
G03*
X56950000Y-22620000I2270000J100000D01*
G01*
X54665000Y-18130000D02*
G75*
G02*
X56925000Y-16250000I2070000J-190000D01*
G01*
X51061000Y-14130000D02*
G75*
G02*
X53325000Y-12246000I2074000J-190000D01*
G01*
X70100000Y-18154000D02*
X73710000Y-18154000D01*
X70100000Y-14200000D02*
X70100000Y-18145000D01*
X81000000Y-12246000D02*
X72375000Y-12246000D01*
X81000000Y-16154000D02*
X81000000Y-12246000D01*
X81000000Y-16200000D02*
X75950000Y-16246000D01*
X78475000Y-27275000D02*
X73925000Y-27275000D01*
X78475000Y-22625000D02*
X75925000Y-22625000D01*
X73625000Y-20425000D02*
X68925000Y-20425000D01*
X72700000Y-25075000D02*
X68925000Y-25075000D01*
X78500000Y-22650000D02*
X78500000Y-27250000D01*
X68925000Y-20450000D02*
X68900000Y-25050000D01*
X73920000Y-26550000D02*
X73920000Y-27250000D01*
X73920000Y-26500000D02*
G75*
G03*
X72700000Y-25080000I-1320000J100000D01*
G01*
X73630000Y-20450000D02*
G75*
G03*
X76000000Y-22620000I2270000J100000D01*
G01*
X73715000Y-18130000D02*
G75*
G02*
X75975000Y-16250000I2070000J-190000D01*
G01*
X70111000Y-14130000D02*
G75*
G02*
X72375000Y-12246000I2074000J-190000D01*
G01*
X32000000Y-18154000D02*
X35610000Y-18154000D01*
X32000000Y-14200000D02*
X32000000Y-18145000D01*
X42900000Y-12246000D02*
X34275000Y-12246000D01*
X42900000Y-16154000D02*
X42900000Y-12246000D01*
X42900000Y-16200000D02*
X37850000Y-16246000D01*
X40375000Y-27275000D02*
X35825000Y-27275000D01*
X40375000Y-22625000D02*
X37825000Y-22625000D01*
X35525000Y-20425000D02*
X30825000Y-20425000D01*
X34600000Y-25075000D02*
X30825000Y-25075000D01*
X40400000Y-22650000D02*
X40400000Y-27250000D01*
X30825000Y-20450000D02*
X30800000Y-25050000D01*
X35820000Y-26550000D02*
X35820000Y-27250000D01*
X35820000Y-26500000D02*
G75*
G03*
X34600000Y-25080000I-1320000J100000D01*
G01*
X35530000Y-20450000D02*
G75*
G03*
X37900000Y-22620000I2270000J100000D01*
G01*
X35615000Y-18130000D02*
G75*
G02*
X37875000Y-16250000I2070000J-190000D01*
G01*
X32011000Y-14130000D02*
G75*
G02*
X34275000Y-12246000I2074000J-190000D01*
G01*
X12950000Y-18154000D02*
X16560000Y-18154000D01*
X12950000Y-14200000D02*
X12950000Y-18145000D01*
X23850000Y-12246000D02*
X15225000Y-12246000D01*
X23850000Y-16154000D02*
X23850000Y-12246000D01*
X23850000Y-16200000D02*
X18800000Y-16246000D01*
X21325000Y-27275000D02*
X16775000Y-27275000D01*
X21325000Y-22625000D02*
X18775000Y-22625000D01*
X16475000Y-20425000D02*
X11775000Y-20425000D01*
X15550000Y-25075000D02*
X11775000Y-25075000D01*
X21350000Y-22650000D02*
X21350000Y-27250000D01*
X11775000Y-20450000D02*
X11750000Y-25050000D01*
X16770000Y-26550000D02*
X16770000Y-27250000D01*
X16770000Y-26500000D02*
G75*
G03*
X15550000Y-25080000I-1320000J100000D01*
G01*
X16480000Y-20450000D02*
G75*
G03*
X18850000Y-22620000I2270000J100000D01*
G01*
X16565000Y-18130000D02*
G75*
G02*
X18825000Y-16250000I2070000J-190000D01*
G01*
X12961000Y-14130000D02*
G75*
G02*
X15225000Y-12246000I2074000J-190000D01*
G01*
X-6100000Y-37204000D02*
X-2490000Y-37204000D01*
X-6100000Y-33250000D02*
X-6100000Y-37195000D01*
X4800000Y-31296000D02*
X-3825000Y-31296000D01*
X4800000Y-35204000D02*
X4800000Y-31296000D01*
X4800000Y-35250000D02*
X-250000Y-35296000D01*
X2275000Y-46325000D02*
X-2275000Y-46325000D01*
X2275000Y-41675000D02*
X-275000Y-41675000D01*
X-2575000Y-39475000D02*
X-7275000Y-39475000D01*
X-3500000Y-44125000D02*
X-7275000Y-44125000D01*
X2300000Y-41700000D02*
X2300000Y-46300000D01*
X-7275000Y-39500000D02*
X-7300000Y-44100000D01*
X-2280000Y-45600000D02*
X-2280000Y-46300000D01*
X-2280000Y-45550000D02*
G75*
G03*
X-3500000Y-44130000I-1320000J100000D01*
G01*
X-2570000Y-39500000D02*
G75*
G03*
X-200000Y-41670000I2270000J100000D01*
G01*
X-2485000Y-37180000D02*
G75*
G02*
X-225000Y-35300000I2070000J-190000D01*
G01*
X-6089000Y-33180000D02*
G75*
G02*
X-3825000Y-31296000I2074000J-190000D01*
G01*
X12950000Y-56254000D02*
X16560000Y-56254000D01*
X12950000Y-52300000D02*
X12950000Y-56245000D01*
X23850000Y-50346000D02*
X15225000Y-50346000D01*
X23850000Y-54254000D02*
X23850000Y-50346000D01*
X23850000Y-54300000D02*
X18800000Y-54346000D01*
X21325000Y-65375000D02*
X16775000Y-65375000D01*
X21325000Y-60725000D02*
X18775000Y-60725000D01*
X16475000Y-58525000D02*
X11775000Y-58525000D01*
X15550000Y-63175000D02*
X11775000Y-63175000D01*
X21350000Y-60750000D02*
X21350000Y-65350000D01*
X11775000Y-58550000D02*
X11750000Y-63150000D01*
X16770000Y-64650000D02*
X16770000Y-65350000D01*
X16770000Y-64600000D02*
G75*
G03*
X15550000Y-63180000I-1320000J100000D01*
G01*
X16480000Y-58550000D02*
G75*
G03*
X18850000Y-60720000I2270000J100000D01*
G01*
X16565000Y-56230000D02*
G75*
G02*
X18825000Y-54350000I2070000J-190000D01*
G01*
X12961000Y-52230000D02*
G75*
G02*
X15225000Y-50346000I2074000J-190000D01*
G01*
X84290000Y-59990000D02*
X83790000Y-59090000D01*
X83790000Y-59090000D02*
X84790000Y-59090000D01*
X84790000Y-59090000D02*
X84290000Y-59990000D01*
X83790000Y-60090000D02*
X84790000Y-60090000D01*
X83540000Y-56890000D02*
X83540000Y-62290000D01*
X83540000Y-62290000D02*
X85040000Y-62290000D01*
X85040000Y-62290000D02*
X85040000Y-56890000D01*
X85040000Y-56890000D02*
X83540000Y-56890000D01*
X32000000Y-37204000D02*
X35610000Y-37204000D01*
X32000000Y-33250000D02*
X32000000Y-37195000D01*
X42900000Y-31296000D02*
X34275000Y-31296000D01*
X42900000Y-35204000D02*
X42900000Y-31296000D01*
X42900000Y-35250000D02*
X37850000Y-35296000D01*
X40375000Y-46325000D02*
X35825000Y-46325000D01*
X40375000Y-41675000D02*
X37825000Y-41675000D01*
X35525000Y-39475000D02*
X30825000Y-39475000D01*
X34600000Y-44125000D02*
X30825000Y-44125000D01*
X40400000Y-41700000D02*
X40400000Y-46300000D01*
X30825000Y-39500000D02*
X30800000Y-44100000D01*
X35820000Y-45600000D02*
X35820000Y-46300000D01*
X35820000Y-45550000D02*
G75*
G03*
X34600000Y-44130000I-1320000J100000D01*
G01*
X35530000Y-39500000D02*
G75*
G03*
X37900000Y-41670000I2270000J100000D01*
G01*
X35615000Y-37180000D02*
G75*
G02*
X37875000Y-35300000I2070000J-190000D01*
G01*
X32011000Y-33180000D02*
G75*
G02*
X34275000Y-31296000I2074000J-190000D01*
G01*
X12950000Y-37204000D02*
X16560000Y-37204000D01*
X12950000Y-33250000D02*
X12950000Y-37195000D01*
X23850000Y-31296000D02*
X15225000Y-31296000D01*
X23850000Y-35204000D02*
X23850000Y-31296000D01*
X23850000Y-35250000D02*
X18800000Y-35296000D01*
X21325000Y-46325000D02*
X16775000Y-46325000D01*
X21325000Y-41675000D02*
X18775000Y-41675000D01*
X16475000Y-39475000D02*
X11775000Y-39475000D01*
X15550000Y-44125000D02*
X11775000Y-44125000D01*
X21350000Y-41700000D02*
X21350000Y-46300000D01*
X11775000Y-39500000D02*
X11750000Y-44100000D01*
X16770000Y-45600000D02*
X16770000Y-46300000D01*
X16770000Y-45550000D02*
G75*
G03*
X15550000Y-44130000I-1320000J100000D01*
G01*
X16480000Y-39500000D02*
G75*
G03*
X18850000Y-41670000I2270000J100000D01*
G01*
X16565000Y-37180000D02*
G75*
G02*
X18825000Y-35300000I2070000J-190000D01*
G01*
X12961000Y-33180000D02*
G75*
G02*
X15225000Y-31296000I2074000J-190000D01*
G01*
X70100000Y-56254000D02*
X73710000Y-56254000D01*
X70100000Y-52300000D02*
X70100000Y-56245000D01*
X81000000Y-50346000D02*
X72375000Y-50346000D01*
X81000000Y-54254000D02*
X81000000Y-50346000D01*
X81000000Y-54300000D02*
X75950000Y-54346000D01*
X78475000Y-65375000D02*
X73925000Y-65375000D01*
X78475000Y-60725000D02*
X75925000Y-60725000D01*
X73625000Y-58525000D02*
X68925000Y-58525000D01*
X72700000Y-63175000D02*
X68925000Y-63175000D01*
X78500000Y-60750000D02*
X78500000Y-65350000D01*
X68925000Y-58550000D02*
X68900000Y-63150000D01*
X73920000Y-64650000D02*
X73920000Y-65350000D01*
X73920000Y-64600000D02*
G75*
G03*
X72700000Y-63180000I-1320000J100000D01*
G01*
X73630000Y-58550000D02*
G75*
G03*
X76000000Y-60720000I2270000J100000D01*
G01*
X73715000Y-56230000D02*
G75*
G02*
X75975000Y-54350000I2070000J-190000D01*
G01*
X70111000Y-52230000D02*
G75*
G02*
X72375000Y-50346000I2074000J-190000D01*
G01*
X51050000Y-56254000D02*
X54660000Y-56254000D01*
X51050000Y-52300000D02*
X51050000Y-56245000D01*
X61950000Y-50346000D02*
X53325000Y-50346000D01*
X61950000Y-54254000D02*
X61950000Y-50346000D01*
X61950000Y-54300000D02*
X56900000Y-54346000D01*
X59425000Y-65375000D02*
X54875000Y-65375000D01*
X59425000Y-60725000D02*
X56875000Y-60725000D01*
X54575000Y-58525000D02*
X49875000Y-58525000D01*
X53650000Y-63175000D02*
X49875000Y-63175000D01*
X59450000Y-60750000D02*
X59450000Y-65350000D01*
X49875000Y-58550000D02*
X49850000Y-63150000D01*
X54870000Y-64650000D02*
X54870000Y-65350000D01*
X54870000Y-64600000D02*
G75*
G03*
X53650000Y-63180000I-1320000J100000D01*
G01*
X54580000Y-58550000D02*
G75*
G03*
X56950000Y-60720000I2270000J100000D01*
G01*
X54665000Y-56230000D02*
G75*
G02*
X56925000Y-54350000I2070000J-190000D01*
G01*
X51061000Y-52230000D02*
G75*
G02*
X53325000Y-50346000I2074000J-190000D01*
G01*
X-6100000Y-56254000D02*
X-2490000Y-56254000D01*
X-6100000Y-52300000D02*
X-6100000Y-56245000D01*
X4800000Y-50346000D02*
X-3825000Y-50346000D01*
X4800000Y-54254000D02*
X4800000Y-50346000D01*
X4800000Y-54300000D02*
X-250000Y-54346000D01*
X2275000Y-65375000D02*
X-2275000Y-65375000D01*
X2275000Y-60725000D02*
X-275000Y-60725000D01*
X-2575000Y-58525000D02*
X-7275000Y-58525000D01*
X-3500000Y-63175000D02*
X-7275000Y-63175000D01*
X2300000Y-60750000D02*
X2300000Y-65350000D01*
X-7275000Y-58550000D02*
X-7300000Y-63150000D01*
X-2280000Y-64650000D02*
X-2280000Y-65350000D01*
X-2280000Y-64600000D02*
G75*
G03*
X-3500000Y-63180000I-1320000J100000D01*
G01*
X-2570000Y-58550000D02*
G75*
G03*
X-200000Y-60720000I2270000J100000D01*
G01*
X-2485000Y-56230000D02*
G75*
G02*
X-225000Y-54350000I2070000J-190000D01*
G01*
X-6089000Y-52230000D02*
G75*
G02*
X-3825000Y-50346000I2074000J-190000D01*
G01*
X70100000Y-37204000D02*
X73710000Y-37204000D01*
X70100000Y-33250000D02*
X70100000Y-37195000D01*
X81000000Y-31296000D02*
X72375000Y-31296000D01*
X81000000Y-35204000D02*
X81000000Y-31296000D01*
X81000000Y-35250000D02*
X75950000Y-35296000D01*
X78475000Y-46325000D02*
X73925000Y-46325000D01*
X78475000Y-41675000D02*
X75925000Y-41675000D01*
X73625000Y-39475000D02*
X68925000Y-39475000D01*
X72700000Y-44125000D02*
X68925000Y-44125000D01*
X78500000Y-41700000D02*
X78500000Y-46300000D01*
X68925000Y-39500000D02*
X68900000Y-44100000D01*
X73920000Y-45600000D02*
X73920000Y-46300000D01*
X73920000Y-45550000D02*
G75*
G03*
X72700000Y-44130000I-1320000J100000D01*
G01*
X73630000Y-39500000D02*
G75*
G03*
X76000000Y-41670000I2270000J100000D01*
G01*
X73715000Y-37180000D02*
G75*
G02*
X75975000Y-35300000I2070000J-190000D01*
G01*
X70111000Y-33180000D02*
G75*
G02*
X72375000Y-31296000I2074000J-190000D01*
G01*
X51050000Y-37204000D02*
X54660000Y-37204000D01*
X51050000Y-33250000D02*
X51050000Y-37195000D01*
X61950000Y-31296000D02*
X53325000Y-31296000D01*
X61950000Y-35204000D02*
X61950000Y-31296000D01*
X61950000Y-35250000D02*
X56900000Y-35296000D01*
X59425000Y-46325000D02*
X54875000Y-46325000D01*
X59425000Y-41675000D02*
X56875000Y-41675000D01*
X54575000Y-39475000D02*
X49875000Y-39475000D01*
X53650000Y-44125000D02*
X49875000Y-44125000D01*
X59450000Y-41700000D02*
X59450000Y-46300000D01*
X49875000Y-39500000D02*
X49850000Y-44100000D01*
X54870000Y-45600000D02*
X54870000Y-46300000D01*
X54870000Y-45550000D02*
G75*
G03*
X53650000Y-44130000I-1320000J100000D01*
G01*
X54580000Y-39500000D02*
G75*
G03*
X56950000Y-41670000I2270000J100000D01*
G01*
X54665000Y-37180000D02*
G75*
G02*
X56925000Y-35300000I2070000J-190000D01*
G01*
X51061000Y-33180000D02*
G75*
G02*
X53325000Y-31296000I2074000J-190000D01*
G01*
X27160000Y-2800000D02*
X26660000Y-1900000D01*
X26660000Y-1900000D02*
X27660000Y-1900000D01*
X27660000Y-1900000D02*
X27160000Y-2800000D01*
X26660000Y-2900000D02*
X27660000Y-2900000D01*
X26410000Y300000D02*
X26410000Y-5100000D01*
X26410000Y-5100000D02*
X27910000Y-5100000D01*
X27910000Y-5100000D02*
X27910000Y300000D01*
X27910000Y300000D02*
X26410000Y300000D01*
X8110000Y-2760000D02*
X7610000Y-1860000D01*
X7610000Y-1860000D02*
X8610000Y-1860000D01*
X8610000Y-1860000D02*
X8110000Y-2760000D01*
X7610000Y-2860000D02*
X8610000Y-2860000D01*
X7360000Y340000D02*
X7360000Y-5060000D01*
X7360000Y-5060000D02*
X8860000Y-5060000D01*
X8860000Y-5060000D02*
X8860000Y340000D01*
X8860000Y340000D02*
X7360000Y340000D01*
X65230000Y-2730000D02*
X64730000Y-1830000D01*
X64730000Y-1830000D02*
X65730000Y-1830000D01*
X65730000Y-1830000D02*
X65230000Y-2730000D01*
X64730000Y-2830000D02*
X65730000Y-2830000D01*
X64480000Y370000D02*
X64480000Y-5030000D01*
X64480000Y-5030000D02*
X65980000Y-5030000D01*
X65980000Y-5030000D02*
X65980000Y370000D01*
X65980000Y370000D02*
X64480000Y370000D01*
X46120000Y-2850000D02*
X45620000Y-1950000D01*
X45620000Y-1950000D02*
X46620000Y-1950000D01*
X46620000Y-1950000D02*
X46120000Y-2850000D01*
X45620000Y-2950000D02*
X46620000Y-2950000D01*
X45370000Y250000D02*
X45370000Y-5150000D01*
X45370000Y-5150000D02*
X46870000Y-5150000D01*
X46870000Y-5150000D02*
X46870000Y250000D01*
X46870000Y250000D02*
X45370000Y250000D01*
X84300000Y-2790000D02*
X83800000Y-1890000D01*
X83800000Y-1890000D02*
X84800000Y-1890000D01*
X84800000Y-1890000D02*
X84300000Y-2790000D01*
X83800000Y-2890000D02*
X84800000Y-2890000D01*
X83550000Y310000D02*
X83550000Y-5090000D01*
X83550000Y-5090000D02*
X85050000Y-5090000D01*
X85050000Y-5090000D02*
X85050000Y310000D01*
X85050000Y310000D02*
X83550000Y310000D01*
X84200000Y-21900000D02*
X83700000Y-21000000D01*
X83700000Y-21000000D02*
X84700000Y-21000000D01*
X84700000Y-21000000D02*
X84200000Y-21900000D01*
X83700000Y-22000000D02*
X84700000Y-22000000D01*
X83450000Y-18800000D02*
X83450000Y-24200000D01*
X83450000Y-24200000D02*
X84950000Y-24200000D01*
X84950000Y-24200000D02*
X84950000Y-18800000D01*
X84950000Y-18800000D02*
X83450000Y-18800000D01*
X65220000Y-21820000D02*
X64720000Y-20920000D01*
X64720000Y-20920000D02*
X65720000Y-20920000D01*
X65720000Y-20920000D02*
X65220000Y-21820000D01*
X64720000Y-21920000D02*
X65720000Y-21920000D01*
X64470000Y-18720000D02*
X64470000Y-24120000D01*
X64470000Y-24120000D02*
X65970000Y-24120000D01*
X65970000Y-24120000D02*
X65970000Y-18720000D01*
X65970000Y-18720000D02*
X64470000Y-18720000D01*
X46140000Y-21870000D02*
X45640000Y-20970000D01*
X45640000Y-20970000D02*
X46640000Y-20970000D01*
X46640000Y-20970000D02*
X46140000Y-21870000D01*
X45640000Y-21970000D02*
X46640000Y-21970000D01*
X45390000Y-18770000D02*
X45390000Y-24170000D01*
X45390000Y-24170000D02*
X46890000Y-24170000D01*
X46890000Y-24170000D02*
X46890000Y-18770000D01*
X46890000Y-18770000D02*
X45390000Y-18770000D01*
X27090000Y-21830000D02*
X26590000Y-20930000D01*
X26590000Y-20930000D02*
X27590000Y-20930000D01*
X27590000Y-20930000D02*
X27090000Y-21830000D01*
X26590000Y-21930000D02*
X27590000Y-21930000D01*
X26340000Y-18730000D02*
X26340000Y-24130000D01*
X26340000Y-24130000D02*
X27840000Y-24130000D01*
X27840000Y-24130000D02*
X27840000Y-18730000D01*
X27840000Y-18730000D02*
X26340000Y-18730000D01*
X8070000Y-21830000D02*
X7570000Y-20930000D01*
X7570000Y-20930000D02*
X8570000Y-20930000D01*
X8570000Y-20930000D02*
X8070000Y-21830000D01*
X7570000Y-21930000D02*
X8570000Y-21930000D01*
X7320000Y-18730000D02*
X7320000Y-24130000D01*
X7320000Y-24130000D02*
X8820000Y-24130000D01*
X8820000Y-24130000D02*
X8820000Y-18730000D01*
X8820000Y-18730000D02*
X7320000Y-18730000D01*
X70100000Y896000D02*
X73710000Y896000D01*
X70100000Y4850000D02*
X70100000Y905000D01*
X81000000Y6804000D02*
X72375000Y6804000D01*
X81000000Y2896000D02*
X81000000Y6804000D01*
X81000000Y2850000D02*
X75950000Y2804000D01*
X78475000Y-8225000D02*
X73925000Y-8225000D01*
X78475000Y-3575000D02*
X75925000Y-3575000D01*
X73625000Y-1375000D02*
X68925000Y-1375000D01*
X72700000Y-6025000D02*
X68925000Y-6025000D01*
X78500000Y-3600000D02*
X78500000Y-8200000D01*
X68925000Y-1400000D02*
X68900000Y-6000000D01*
X73920000Y-7500000D02*
X73920000Y-8200000D01*
X73920000Y-7450000D02*
G75*
G03*
X72700000Y-6030000I-1320000J100000D01*
G01*
X73630000Y-1400000D02*
G75*
G03*
X76000000Y-3570000I2270000J100000D01*
G01*
X73715000Y920000D02*
G75*
G02*
X75975000Y2800000I2070000J-190000D01*
G01*
X70111000Y4920000D02*
G75*
G02*
X72375000Y6804000I2074000J-190000D01*
G01*
X51050000Y896000D02*
X54660000Y896000D01*
X51050000Y4850000D02*
X51050000Y905000D01*
X61950000Y6804000D02*
X53325000Y6804000D01*
X61950000Y2896000D02*
X61950000Y6804000D01*
X61950000Y2850000D02*
X56900000Y2804000D01*
X59425000Y-8225000D02*
X54875000Y-8225000D01*
X59425000Y-3575000D02*
X56875000Y-3575000D01*
X54575000Y-1375000D02*
X49875000Y-1375000D01*
X53650000Y-6025000D02*
X49875000Y-6025000D01*
X59450000Y-3600000D02*
X59450000Y-8200000D01*
X49875000Y-1400000D02*
X49850000Y-6000000D01*
X54870000Y-7500000D02*
X54870000Y-8200000D01*
X54870000Y-7450000D02*
G75*
G03*
X53650000Y-6030000I-1320000J100000D01*
G01*
X54580000Y-1400000D02*
G75*
G03*
X56950000Y-3570000I2270000J100000D01*
G01*
X54665000Y920000D02*
G75*
G02*
X56925000Y2800000I2070000J-190000D01*
G01*
X51061000Y4920000D02*
G75*
G02*
X53325000Y6804000I2074000J-190000D01*
G01*
X32000000Y896000D02*
X35610000Y896000D01*
X32000000Y4850000D02*
X32000000Y905000D01*
X42900000Y6804000D02*
X34275000Y6804000D01*
X42900000Y2896000D02*
X42900000Y6804000D01*
X42900000Y2850000D02*
X37850000Y2804000D01*
X40375000Y-8225000D02*
X35825000Y-8225000D01*
X40375000Y-3575000D02*
X37825000Y-3575000D01*
X35525000Y-1375000D02*
X30825000Y-1375000D01*
X34600000Y-6025000D02*
X30825000Y-6025000D01*
X40400000Y-3600000D02*
X40400000Y-8200000D01*
X30825000Y-1400000D02*
X30800000Y-6000000D01*
X35820000Y-7500000D02*
X35820000Y-8200000D01*
X35820000Y-7450000D02*
G75*
G03*
X34600000Y-6030000I-1320000J100000D01*
G01*
X35530000Y-1400000D02*
G75*
G03*
X37900000Y-3570000I2270000J100000D01*
G01*
X35615000Y920000D02*
G75*
G02*
X37875000Y2800000I2070000J-190000D01*
G01*
X32011000Y4920000D02*
G75*
G02*
X34275000Y6804000I2074000J-190000D01*
G01*
X12950000Y896000D02*
X16560000Y896000D01*
X12950000Y4850000D02*
X12950000Y905000D01*
X23850000Y6804000D02*
X15225000Y6804000D01*
X23850000Y2896000D02*
X23850000Y6804000D01*
X23850000Y2850000D02*
X18800000Y2804000D01*
X21325000Y-8225000D02*
X16775000Y-8225000D01*
X21325000Y-3575000D02*
X18775000Y-3575000D01*
X16475000Y-1375000D02*
X11775000Y-1375000D01*
X15550000Y-6025000D02*
X11775000Y-6025000D01*
X21350000Y-3600000D02*
X21350000Y-8200000D01*
X11775000Y-1400000D02*
X11750000Y-6000000D01*
X16770000Y-7500000D02*
X16770000Y-8200000D01*
X16770000Y-7450000D02*
G75*
G03*
X15550000Y-6030000I-1320000J100000D01*
G01*
X16480000Y-1400000D02*
G75*
G03*
X18850000Y-3570000I2270000J100000D01*
G01*
X16565000Y920000D02*
G75*
G02*
X18825000Y2800000I2070000J-190000D01*
G01*
X12961000Y4920000D02*
G75*
G02*
X15225000Y6804000I2074000J-190000D01*
G01*
X-6100000Y896000D02*
X-2490000Y896000D01*
X-6100000Y4850000D02*
X-6100000Y905000D01*
X4800000Y6804000D02*
X-3825000Y6804000D01*
X4800000Y2896000D02*
X4800000Y6804000D01*
X4800000Y2850000D02*
X-250000Y2804000D01*
X2275000Y-8225000D02*
X-2275000Y-8225000D01*
X2275000Y-3575000D02*
X-275000Y-3575000D01*
X-2575000Y-1375000D02*
X-7275000Y-1375000D01*
X-3500000Y-6025000D02*
X-7275000Y-6025000D01*
X2300000Y-3600000D02*
X2300000Y-8200000D01*
X-7275000Y-1400000D02*
X-7300000Y-6000000D01*
X-2280000Y-7500000D02*
X-2280000Y-8200000D01*
X-2280000Y-7450000D02*
G75*
G03*
X-3500000Y-6030000I-1320000J100000D01*
G01*
X-2570000Y-1400000D02*
G75*
G03*
X-200000Y-3570000I2270000J100000D01*
G01*
X-2485000Y920000D02*
G75*
G02*
X-225000Y2800000I2070000J-190000D01*
G01*
X-6089000Y4920000D02*
G75*
G02*
X-3825000Y6804000I2074000J-190000D01*
G01*
X65210000Y-59890000D02*
X64710000Y-58990000D01*
X64710000Y-58990000D02*
X65710000Y-58990000D01*
X65710000Y-58990000D02*
X65210000Y-59890000D01*
X64710000Y-59990000D02*
X65710000Y-59990000D01*
X64460000Y-56790000D02*
X64460000Y-62190000D01*
X64460000Y-62190000D02*
X65960000Y-62190000D01*
X65960000Y-62190000D02*
X65960000Y-56790000D01*
X65960000Y-56790000D02*
X64460000Y-56790000D01*
X46160000Y-59860000D02*
X45660000Y-58960000D01*
X45660000Y-58960000D02*
X46660000Y-58960000D01*
X46660000Y-58960000D02*
X46160000Y-59860000D01*
X45660000Y-59960000D02*
X46660000Y-59960000D01*
X45410000Y-56760000D02*
X45410000Y-62160000D01*
X45410000Y-62160000D02*
X46910000Y-62160000D01*
X46910000Y-62160000D02*
X46910000Y-56760000D01*
X46910000Y-56760000D02*
X45410000Y-56760000D01*
X27150000Y-59930000D02*
X26650000Y-59030000D01*
X26650000Y-59030000D02*
X27650000Y-59030000D01*
X27650000Y-59030000D02*
X27150000Y-59930000D01*
X26650000Y-60030000D02*
X27650000Y-60030000D01*
X26400000Y-56830000D02*
X26400000Y-62230000D01*
X26400000Y-62230000D02*
X27900000Y-62230000D01*
X27900000Y-62230000D02*
X27900000Y-56830000D01*
X27900000Y-56830000D02*
X26400000Y-56830000D01*
X8050000Y-59950000D02*
X7550000Y-59050000D01*
X7550000Y-59050000D02*
X8550000Y-59050000D01*
X8550000Y-59050000D02*
X8050000Y-59950000D01*
X7550000Y-60050000D02*
X8550000Y-60050000D01*
X7300000Y-56850000D02*
X7300000Y-62250000D01*
X7300000Y-62250000D02*
X8800000Y-62250000D01*
X8800000Y-62250000D02*
X8800000Y-56850000D01*
X8800000Y-56850000D02*
X7300000Y-56850000D01*
X84220000Y-40900000D02*
X83720000Y-40000000D01*
X83720000Y-40000000D02*
X84720000Y-40000000D01*
X84720000Y-40000000D02*
X84220000Y-40900000D01*
X83720000Y-41000000D02*
X84720000Y-41000000D01*
X83470000Y-37800000D02*
X83470000Y-43200000D01*
X83470000Y-43200000D02*
X84970000Y-43200000D01*
X84970000Y-43200000D02*
X84970000Y-37800000D01*
X84970000Y-37800000D02*
X83470000Y-37800000D01*
X65170000Y-40920000D02*
X64670000Y-40020000D01*
X64670000Y-40020000D02*
X65670000Y-40020000D01*
X65670000Y-40020000D02*
X65170000Y-40920000D01*
X64670000Y-41020000D02*
X65670000Y-41020000D01*
X64420000Y-37820000D02*
X64420000Y-43220000D01*
X64420000Y-43220000D02*
X65920000Y-43220000D01*
X65920000Y-43220000D02*
X65920000Y-37820000D01*
X65920000Y-37820000D02*
X64420000Y-37820000D01*
X46150000Y-40910000D02*
X45650000Y-40010000D01*
X45650000Y-40010000D02*
X46650000Y-40010000D01*
X46650000Y-40010000D02*
X46150000Y-40910000D01*
X45650000Y-41010000D02*
X46650000Y-41010000D01*
X45400000Y-37810000D02*
X45400000Y-43210000D01*
X45400000Y-43210000D02*
X46900000Y-43210000D01*
X46900000Y-43210000D02*
X46900000Y-37810000D01*
X46900000Y-37810000D02*
X45400000Y-37810000D01*
X27060000Y-40850000D02*
X26560000Y-39950000D01*
X26560000Y-39950000D02*
X27560000Y-39950000D01*
X27560000Y-39950000D02*
X27060000Y-40850000D01*
X26560000Y-40950000D02*
X27560000Y-40950000D01*
X26310000Y-37750000D02*
X26310000Y-43150000D01*
X26310000Y-43150000D02*
X27810000Y-43150000D01*
X27810000Y-43150000D02*
X27810000Y-37750000D01*
X27810000Y-37750000D02*
X26310000Y-37750000D01*
X8030000Y-40860000D02*
X7530000Y-39960000D01*
X7530000Y-39960000D02*
X8530000Y-39960000D01*
X8530000Y-39960000D02*
X8030000Y-40860000D01*
X7530000Y-40960000D02*
X8530000Y-40960000D01*
X7280000Y-37760000D02*
X7280000Y-43160000D01*
X7280000Y-43160000D02*
X8780000Y-43160000D01*
X8780000Y-43160000D02*
X8780000Y-37760000D01*
X8780000Y-37760000D02*
X7280000Y-37760000D01*
X-6100000Y-18154000D02*
X-2490000Y-18154000D01*
X-6100000Y-14200000D02*
X-6100000Y-18145000D01*
X4800000Y-12246000D02*
X-3825000Y-12246000D01*
X4800000Y-16154000D02*
X4800000Y-12246000D01*
X4800000Y-16200000D02*
X-250000Y-16246000D01*
X2275000Y-27275000D02*
X-2275000Y-27275000D01*
X2275000Y-22625000D02*
X-275000Y-22625000D01*
X-2575000Y-20425000D02*
X-7275000Y-20425000D01*
X-3500000Y-25075000D02*
X-7275000Y-25075000D01*
X2300000Y-22650000D02*
X2300000Y-27250000D01*
X-7275000Y-20450000D02*
X-7300000Y-25050000D01*
X-2280000Y-26550000D02*
X-2280000Y-27250000D01*
X-2280000Y-26500000D02*
G75*
G03*
X-3500000Y-25080000I-1320000J100000D01*
G01*
X-2570000Y-20450000D02*
G75*
G03*
X-200000Y-22620000I2270000J100000D01*
G01*
X-2485000Y-18130000D02*
G75*
G02*
X-225000Y-16250000I2070000J-190000D01*
G01*
X-6089000Y-14130000D02*
G75*
G02*
X-3825000Y-12246000I2074000J-190000D01*
G01*
X32000000Y-56254000D02*
X35610000Y-56254000D01*
X32000000Y-52300000D02*
X32000000Y-56245000D01*
X42900000Y-50346000D02*
X34275000Y-50346000D01*
X42900000Y-54254000D02*
X42900000Y-50346000D01*
X42900000Y-54300000D02*
X37850000Y-54346000D01*
X40375000Y-65375000D02*
X35825000Y-65375000D01*
X40375000Y-60725000D02*
X37825000Y-60725000D01*
X35525000Y-58525000D02*
X30825000Y-58525000D01*
X34600000Y-63175000D02*
X30825000Y-63175000D01*
X40400000Y-60750000D02*
X40400000Y-65350000D01*
X30825000Y-58550000D02*
X30800000Y-63150000D01*
X35820000Y-64650000D02*
X35820000Y-65350000D01*
X35820000Y-64600000D02*
G75*
G03*
X34600000Y-63180000I-1320000J100000D01*
G01*
X35530000Y-58550000D02*
G75*
G03*
X37900000Y-60720000I2270000J100000D01*
G01*
X35615000Y-56230000D02*
G75*
G02*
X37875000Y-54350000I2070000J-190000D01*
G01*
X32011000Y-52230000D02*
G75*
G02*
X34275000Y-50346000I2074000J-190000D01*
G01*
X35193809Y16879523D02*
X35231904Y16765238D01*
X35231904Y16574761D01*
X35193809Y16498571D01*
X35155714Y16460476D01*
X35079523Y16422380D01*
X35003333Y16422380D01*
X34927142Y16460476D01*
X34889047Y16498571D01*
X34850952Y16574761D01*
X34812857Y16727142D01*
X34774761Y16803333D01*
X34736666Y16841428D01*
X34660476Y16879523D01*
X34584285Y16879523D01*
X34508095Y16841428D01*
X34470000Y16803333D01*
X34431904Y16727142D01*
X34431904Y16536666D01*
X34470000Y16422380D01*
X34431904Y16155714D02*
X35231904Y15965238D01*
X34660476Y15812857D01*
X35231904Y15660476D01*
X34431904Y15470000D01*
X35155714Y14708095D02*
X35193809Y14746190D01*
X35231904Y14860476D01*
X35231904Y14936666D01*
X35193809Y15050952D01*
X35117619Y15127142D01*
X35041428Y15165238D01*
X34889047Y15203333D01*
X34774761Y15203333D01*
X34622380Y15165238D01*
X34546190Y15127142D01*
X34470000Y15050952D01*
X34431904Y14936666D01*
X34431904Y14860476D01*
X34470000Y14746190D01*
X34508095Y14708095D01*
X35231904Y13984285D02*
X35231904Y14365238D01*
X34431904Y14365238D01*
X35231904Y13717619D02*
X34431904Y13717619D01*
X35231904Y13260476D02*
X34774761Y13603333D01*
X34431904Y13260476D02*
X34889047Y13717619D01*
X35193809Y28065238D02*
X35231904Y27950952D01*
X35231904Y27760476D01*
X35193809Y27684285D01*
X35155714Y27646190D01*
X35079523Y27608095D01*
X35003333Y27608095D01*
X34927142Y27646190D01*
X34889047Y27684285D01*
X34850952Y27760476D01*
X34812857Y27912857D01*
X34774761Y27989047D01*
X34736666Y28027142D01*
X34660476Y28065238D01*
X34584285Y28065238D01*
X34508095Y28027142D01*
X34470000Y27989047D01*
X34431904Y27912857D01*
X34431904Y27722380D01*
X34470000Y27608095D01*
X34431904Y27341428D02*
X35231904Y27150952D01*
X34660476Y26998571D01*
X35231904Y26846190D01*
X34431904Y26655714D01*
X35231904Y26350952D02*
X34431904Y26350952D01*
X34431904Y26160476D01*
X34470000Y26046190D01*
X34546190Y25970000D01*
X34622380Y25931904D01*
X34774761Y25893809D01*
X34889047Y25893809D01*
X35041428Y25931904D01*
X35117619Y25970000D01*
X35193809Y26046190D01*
X35231904Y26160476D01*
X35231904Y26350952D01*
X35231904Y25550952D02*
X34431904Y25550952D01*
X34431904Y25017619D02*
X34431904Y24865238D01*
X34470000Y24789047D01*
X34546190Y24712857D01*
X34698571Y24674761D01*
X34965238Y24674761D01*
X35117619Y24712857D01*
X35193809Y24789047D01*
X35231904Y24865238D01*
X35231904Y25017619D01*
X35193809Y25093809D01*
X35117619Y25170000D01*
X34965238Y25208095D01*
X34698571Y25208095D01*
X34546190Y25170000D01*
X34470000Y25093809D01*
X34431904Y25017619D01*
X13513333Y23597619D02*
X13180000Y22597619D01*
X12846666Y23597619D01*
X11941904Y22692857D02*
X11989523Y22645238D01*
X12132380Y22597619D01*
X12227619Y22597619D01*
X12370476Y22645238D01*
X12465714Y22740476D01*
X12513333Y22835714D01*
X12560952Y23026190D01*
X12560952Y23169047D01*
X12513333Y23359523D01*
X12465714Y23454761D01*
X12370476Y23550000D01*
X12227619Y23597619D01*
X12132380Y23597619D01*
X11989523Y23550000D01*
X11941904Y23502380D01*
X10941904Y22692857D02*
X10989523Y22645238D01*
X11132380Y22597619D01*
X11227619Y22597619D01*
X11370476Y22645238D01*
X11465714Y22740476D01*
X11513333Y22835714D01*
X11560952Y23026190D01*
X11560952Y23169047D01*
X11513333Y23359523D01*
X11465714Y23454761D01*
X11370476Y23550000D01*
X11227619Y23597619D01*
X11132380Y23597619D01*
X10989523Y23550000D01*
X10941904Y23502380D01*
X16602857Y19747619D02*
X17079047Y19747619D01*
X17079047Y20747619D01*
X16269523Y20271428D02*
X15936190Y20271428D01*
X15793333Y19747619D02*
X16269523Y19747619D01*
X16269523Y20747619D01*
X15793333Y20747619D01*
X15364761Y19747619D02*
X15364761Y20747619D01*
X15126666Y20747619D01*
X14983809Y20700000D01*
X14888571Y20604761D01*
X14840952Y20509523D01*
X14793333Y20319047D01*
X14793333Y20176190D01*
X14840952Y19985714D01*
X14888571Y19890476D01*
X14983809Y19795238D01*
X15126666Y19747619D01*
X15364761Y19747619D01*
X13181904Y18560000D02*
X13277142Y18607619D01*
X13420000Y18607619D01*
X13562857Y18560000D01*
X13658095Y18464761D01*
X13705714Y18369523D01*
X13753333Y18179047D01*
X13753333Y18036190D01*
X13705714Y17845714D01*
X13658095Y17750476D01*
X13562857Y17655238D01*
X13420000Y17607619D01*
X13324761Y17607619D01*
X13181904Y17655238D01*
X13134285Y17702857D01*
X13134285Y18036190D01*
X13324761Y18036190D01*
X12705714Y17607619D02*
X12705714Y18607619D01*
X12134285Y17607619D01*
X12134285Y18607619D01*
X11658095Y17607619D02*
X11658095Y18607619D01*
X11420000Y18607619D01*
X11277142Y18560000D01*
X11181904Y18464761D01*
X11134285Y18369523D01*
X11086666Y18179047D01*
X11086666Y18036190D01*
X11134285Y17845714D01*
X11181904Y17750476D01*
X11277142Y17655238D01*
X11420000Y17607619D01*
X11658095Y17607619D01*
X64283333Y18507619D02*
X63950000Y17507619D01*
X63616666Y18507619D01*
X62711904Y17602857D02*
X62759523Y17555238D01*
X62902380Y17507619D01*
X62997619Y17507619D01*
X63140476Y17555238D01*
X63235714Y17650476D01*
X63283333Y17745714D01*
X63330952Y17936190D01*
X63330952Y18079047D01*
X63283333Y18269523D01*
X63235714Y18364761D01*
X63140476Y18460000D01*
X62997619Y18507619D01*
X62902380Y18507619D01*
X62759523Y18460000D01*
X62711904Y18412380D01*
X61711904Y17602857D02*
X61759523Y17555238D01*
X61902380Y17507619D01*
X61997619Y17507619D01*
X62140476Y17555238D01*
X62235714Y17650476D01*
X62283333Y17745714D01*
X62330952Y17936190D01*
X62330952Y18079047D01*
X62283333Y18269523D01*
X62235714Y18364761D01*
X62140476Y18460000D01*
X61997619Y18507619D01*
X61902380Y18507619D01*
X61759523Y18460000D01*
X61711904Y18412380D01*
X60172857Y19917619D02*
X60649047Y19917619D01*
X60649047Y20917619D01*
X59839523Y20441428D02*
X59506190Y20441428D01*
X59363333Y19917619D02*
X59839523Y19917619D01*
X59839523Y20917619D01*
X59363333Y20917619D01*
X58934761Y19917619D02*
X58934761Y20917619D01*
X58696666Y20917619D01*
X58553809Y20870000D01*
X58458571Y20774761D01*
X58410952Y20679523D01*
X58363333Y20489047D01*
X58363333Y20346190D01*
X58410952Y20155714D01*
X58458571Y20060476D01*
X58553809Y19965238D01*
X58696666Y19917619D01*
X58934761Y19917619D01*
X63761904Y23560000D02*
X63857142Y23607619D01*
X64000000Y23607619D01*
X64142857Y23560000D01*
X64238095Y23464761D01*
X64285714Y23369523D01*
X64333333Y23179047D01*
X64333333Y23036190D01*
X64285714Y22845714D01*
X64238095Y22750476D01*
X64142857Y22655238D01*
X64000000Y22607619D01*
X63904761Y22607619D01*
X63761904Y22655238D01*
X63714285Y22702857D01*
X63714285Y23036190D01*
X63904761Y23036190D01*
X63285714Y22607619D02*
X63285714Y23607619D01*
X62714285Y22607619D01*
X62714285Y23607619D01*
X62238095Y22607619D02*
X62238095Y23607619D01*
X62000000Y23607619D01*
X61857142Y23560000D01*
X61761904Y23464761D01*
X61714285Y23369523D01*
X61666666Y23179047D01*
X61666666Y23036190D01*
X61714285Y22845714D01*
X61761904Y22750476D01*
X61857142Y22655238D01*
X62000000Y22607619D01*
X62238095Y22607619D01*
M02*
