G04 #@! TF.GenerationSoftware,KiCad,Pcbnew,(5.1.6-0-10_14)*
G04 #@! TF.CreationDate,2022-03-09T18:20:20+09:00*
G04 #@! TF.ProjectId,cool640,636f6f6c-3634-4302-9e6b-696361645f70,rev?*
G04 #@! TF.SameCoordinates,Original*
G04 #@! TF.FileFunction,Profile,NP*
%FSLAX46Y46*%
G04 Gerber Fmt 4.6, Leading zero omitted, Abs format (unit mm)*
G04 Created by KiCad (PCBNEW (5.1.6-0-10_14)) date 2022-03-09 18:20:20*
%MOMM*%
%LPD*%
G01*
G04 APERTURE LIST*
G04 #@! TA.AperFunction,Profile*
%ADD10C,0.150000*%
G04 #@! TD*
G04 APERTURE END LIST*
D10*
X80440000Y20230000D02*
G75*
G03*
X80440000Y20230000I-1100000J0D01*
G01*
X10030000Y-47650000D02*
G75*
G03*
X10030000Y-47650000I-1100000J0D01*
G01*
X68260000Y-47650000D02*
G75*
G03*
X68260000Y-47650000I-1100000J0D01*
G01*
X-2200000Y20350000D02*
G75*
G03*
X-2200000Y20350000I-1100000J0D01*
G01*
X63760000Y20230000D02*
G75*
G03*
X63760000Y20230000I-1100000J0D01*
G01*
X69180000Y28300000D02*
X77460000Y28300000D01*
X85010000Y15681943D02*
X87130000Y15681943D01*
X-6500000Y16340038D02*
G75*
G02*
X-6510000Y13740000I0J-1300038D01*
G01*
X1170000Y24228561D02*
G75*
G02*
X1170000Y26731439I0J1251439D01*
G01*
X77410000Y15718030D02*
G75*
G02*
X77480000Y13160000I0J-1279973D01*
G01*
X85080000Y13160000D02*
G75*
G02*
X85010000Y15681943I0J1261943D01*
G01*
X6610000Y26730000D02*
X1170000Y26730000D01*
X87150000Y32240000D02*
X87150000Y28290000D01*
X1170000Y24228561D02*
X4800000Y24230000D01*
X87130000Y25770000D02*
X87130000Y15681943D01*
X85130000Y25770000D02*
X87130000Y25770000D01*
X71400000Y15750000D02*
X71400000Y25778057D01*
X77410000Y15718030D02*
X71400000Y15750000D01*
X-9970000Y-66110000D02*
G75*
G02*
X-11090000Y-64990000I0J1120000D01*
G01*
X87150000Y-64990000D02*
G75*
G02*
X86030000Y-66110000I-1120000J0D01*
G01*
X86030000Y33360000D02*
G75*
G02*
X87150000Y32240000I0J-1120000D01*
G01*
X-11090000Y32240000D02*
G75*
G02*
X-9970000Y33360000I1120000J0D01*
G01*
X85060000Y28291943D02*
X87150000Y28290000D01*
X69180000Y13160000D02*
X69180000Y28300000D01*
X77480000Y13160000D02*
X69180000Y13160000D01*
X-6280000Y26730000D02*
X-11090000Y26730000D01*
X6610000Y13740000D02*
X6610000Y26730000D01*
X6610000Y13740000D02*
X1300000Y13740000D01*
X-9970000Y-66110000D02*
X86030000Y-66110000D01*
X-11090000Y13740000D02*
X-11090000Y-64990000D01*
X86030000Y33360000D02*
X-9970000Y33360000D01*
X87150000Y-64990000D02*
X87150000Y13160000D01*
X-11070000Y16340000D02*
X-11070000Y24227122D01*
X4800000Y16340000D02*
X1300000Y16340000D01*
X4800000Y24230000D02*
X4800000Y16340000D01*
X68260000Y-9550000D02*
G75*
G03*
X68260000Y-9550000I-1100000J0D01*
G01*
X14480000Y20230000D02*
G75*
G03*
X14480000Y20230000I-1100000J0D01*
G01*
X77460000Y28300000D02*
G75*
G02*
X77530000Y25778057I0J-1261943D01*
G01*
X-6500000Y16340038D02*
X-11070000Y16340000D01*
X-6280000Y26730000D02*
G75*
G02*
X-6280000Y24227122I0J-1251439D01*
G01*
X-11090000Y13740000D02*
X-6510000Y13740000D01*
X-6280000Y24227122D02*
X-11070000Y24227122D01*
X10030000Y-9550000D02*
G75*
G03*
X10030000Y-9550000I-1100000J0D01*
G01*
X1300000Y13740000D02*
G75*
G02*
X1300000Y16340000I0J1300000D01*
G01*
X85130000Y25770000D02*
G75*
G02*
X85060000Y28291943I0J1261943D01*
G01*
X-11090000Y32240000D02*
X-11090000Y26730000D01*
X77530000Y25778057D02*
X71400000Y25778057D01*
X87150000Y13160000D02*
X85080000Y13160000D01*
M02*
