G04 #@! TF.GenerationSoftware,KiCad,Pcbnew,(5.1.6-0-10_14)*
G04 #@! TF.CreationDate,2022-03-09T18:20:20+09:00*
G04 #@! TF.ProjectId,cool640,636f6f6c-3634-4302-9e6b-696361645f70,rev?*
G04 #@! TF.SameCoordinates,Original*
G04 #@! TF.FileFunction,Legend,Top*
G04 #@! TF.FilePolarity,Positive*
%FSLAX46Y46*%
G04 Gerber Fmt 4.6, Leading zero omitted, Abs format (unit mm)*
G04 Created by KiCad (PCBNEW (5.1.6-0-10_14)) date 2022-03-09 18:20:20*
%MOMM*%
%LPD*%
G01*
G04 APERTURE LIST*
%ADD10C,0.300000*%
%ADD11C,0.150000*%
%ADD12C,0.125000*%
G04 APERTURE END LIST*
D10*
X-8771428Y-614285D02*
X-9485714Y-1114285D01*
X-8771428Y-1471428D02*
X-10271428Y-1471428D01*
X-10271428Y-900000D01*
X-10200000Y-757142D01*
X-10128571Y-685714D01*
X-9985714Y-614285D01*
X-9771428Y-614285D01*
X-9628571Y-685714D01*
X-9557142Y-757142D01*
X-9485714Y-900000D01*
X-9485714Y-1471428D01*
X-8771428Y242857D02*
X-8842857Y100000D01*
X-8914285Y28571D01*
X-9057142Y-42857D01*
X-9485714Y-42857D01*
X-9628571Y28571D01*
X-9700000Y100000D01*
X-9771428Y242857D01*
X-9771428Y457142D01*
X-9700000Y600000D01*
X-9628571Y671428D01*
X-9485714Y742857D01*
X-9057142Y742857D01*
X-8914285Y671428D01*
X-8842857Y600000D01*
X-8771428Y457142D01*
X-8771428Y242857D01*
X-9771428Y1242857D02*
X-8771428Y1528571D01*
X-9485714Y1814285D01*
X-8771428Y2100000D01*
X-9771428Y2385714D01*
X-10271428Y3242857D02*
X-10271428Y3385714D01*
X-10200000Y3528571D01*
X-10128571Y3599999D01*
X-9985714Y3671428D01*
X-9700000Y3742857D01*
X-9342857Y3742857D01*
X-9057142Y3671428D01*
X-8914285Y3599999D01*
X-8842857Y3528571D01*
X-8771428Y3385714D01*
X-8771428Y3242857D01*
X-8842857Y3099999D01*
X-8914285Y3028571D01*
X-9057142Y2957142D01*
X-9342857Y2885714D01*
X-9700000Y2885714D01*
X-9985714Y2957142D01*
X-10128571Y3028571D01*
X-10200000Y3099999D01*
X-10271428Y3242857D01*
X-8601428Y-19784285D02*
X-9315714Y-20284285D01*
X-8601428Y-20641428D02*
X-10101428Y-20641428D01*
X-10101428Y-20070000D01*
X-10030000Y-19927142D01*
X-9958571Y-19855714D01*
X-9815714Y-19784285D01*
X-9601428Y-19784285D01*
X-9458571Y-19855714D01*
X-9387142Y-19927142D01*
X-9315714Y-20070000D01*
X-9315714Y-20641428D01*
X-8601428Y-18927142D02*
X-8672857Y-19070000D01*
X-8744285Y-19141428D01*
X-8887142Y-19212857D01*
X-9315714Y-19212857D01*
X-9458571Y-19141428D01*
X-9530000Y-19070000D01*
X-9601428Y-18927142D01*
X-9601428Y-18712857D01*
X-9530000Y-18570000D01*
X-9458571Y-18498571D01*
X-9315714Y-18427142D01*
X-8887142Y-18427142D01*
X-8744285Y-18498571D01*
X-8672857Y-18570000D01*
X-8601428Y-18712857D01*
X-8601428Y-18927142D01*
X-9601428Y-17927142D02*
X-8601428Y-17641428D01*
X-9315714Y-17355714D01*
X-8601428Y-17070000D01*
X-9601428Y-16784285D01*
X-8601428Y-15427142D02*
X-8601428Y-16284285D01*
X-8601428Y-15855714D02*
X-10101428Y-15855714D01*
X-9887142Y-15998571D01*
X-9744285Y-16141428D01*
X-9672857Y-16284285D01*
X-8561428Y-58244285D02*
X-9275714Y-58744285D01*
X-8561428Y-59101428D02*
X-10061428Y-59101428D01*
X-10061428Y-58530000D01*
X-9990000Y-58387142D01*
X-9918571Y-58315714D01*
X-9775714Y-58244285D01*
X-9561428Y-58244285D01*
X-9418571Y-58315714D01*
X-9347142Y-58387142D01*
X-9275714Y-58530000D01*
X-9275714Y-59101428D01*
X-8561428Y-57387142D02*
X-8632857Y-57530000D01*
X-8704285Y-57601428D01*
X-8847142Y-57672857D01*
X-9275714Y-57672857D01*
X-9418571Y-57601428D01*
X-9490000Y-57530000D01*
X-9561428Y-57387142D01*
X-9561428Y-57172857D01*
X-9490000Y-57030000D01*
X-9418571Y-56958571D01*
X-9275714Y-56887142D01*
X-8847142Y-56887142D01*
X-8704285Y-56958571D01*
X-8632857Y-57030000D01*
X-8561428Y-57172857D01*
X-8561428Y-57387142D01*
X-9561428Y-56387142D02*
X-8561428Y-56101428D01*
X-9275714Y-55815714D01*
X-8561428Y-55530000D01*
X-9561428Y-55244285D01*
X-10061428Y-54815714D02*
X-10061428Y-53887142D01*
X-9490000Y-54387142D01*
X-9490000Y-54172857D01*
X-9418571Y-54030000D01*
X-9347142Y-53958571D01*
X-9204285Y-53887142D01*
X-8847142Y-53887142D01*
X-8704285Y-53958571D01*
X-8632857Y-54030000D01*
X-8561428Y-54172857D01*
X-8561428Y-54601428D01*
X-8632857Y-54744285D01*
X-8704285Y-54815714D01*
X-8731428Y-39074285D02*
X-9445714Y-39574285D01*
X-8731428Y-39931428D02*
X-10231428Y-39931428D01*
X-10231428Y-39360000D01*
X-10160000Y-39217142D01*
X-10088571Y-39145714D01*
X-9945714Y-39074285D01*
X-9731428Y-39074285D01*
X-9588571Y-39145714D01*
X-9517142Y-39217142D01*
X-9445714Y-39360000D01*
X-9445714Y-39931428D01*
X-8731428Y-38217142D02*
X-8802857Y-38360000D01*
X-8874285Y-38431428D01*
X-9017142Y-38502857D01*
X-9445714Y-38502857D01*
X-9588571Y-38431428D01*
X-9660000Y-38360000D01*
X-9731428Y-38217142D01*
X-9731428Y-38002857D01*
X-9660000Y-37860000D01*
X-9588571Y-37788571D01*
X-9445714Y-37717142D01*
X-9017142Y-37717142D01*
X-8874285Y-37788571D01*
X-8802857Y-37860000D01*
X-8731428Y-38002857D01*
X-8731428Y-38217142D01*
X-9731428Y-37217142D02*
X-8731428Y-36931428D01*
X-9445714Y-36645714D01*
X-8731428Y-36360000D01*
X-9731428Y-36074285D01*
X-10088571Y-35574285D02*
X-10160000Y-35502857D01*
X-10231428Y-35360000D01*
X-10231428Y-35002857D01*
X-10160000Y-34860000D01*
X-10088571Y-34788571D01*
X-9945714Y-34717142D01*
X-9802857Y-34717142D01*
X-9588571Y-34788571D01*
X-8731428Y-35645714D01*
X-8731428Y-34717142D01*
X56248571Y7624285D02*
X56177142Y7552857D01*
X55962857Y7481428D01*
X55820000Y7481428D01*
X55605714Y7552857D01*
X55462857Y7695714D01*
X55391428Y7838571D01*
X55320000Y8124285D01*
X55320000Y8338571D01*
X55391428Y8624285D01*
X55462857Y8767142D01*
X55605714Y8910000D01*
X55820000Y8981428D01*
X55962857Y8981428D01*
X56177142Y8910000D01*
X56248571Y8838571D01*
X57105714Y7481428D02*
X56962857Y7552857D01*
X56891428Y7624285D01*
X56820000Y7767142D01*
X56820000Y8195714D01*
X56891428Y8338571D01*
X56962857Y8410000D01*
X57105714Y8481428D01*
X57320000Y8481428D01*
X57462857Y8410000D01*
X57534285Y8338571D01*
X57605714Y8195714D01*
X57605714Y7767142D01*
X57534285Y7624285D01*
X57462857Y7552857D01*
X57320000Y7481428D01*
X57105714Y7481428D01*
X58462857Y7481428D02*
X58320000Y7552857D01*
X58248571Y7695714D01*
X58248571Y8981428D01*
X58891428Y8981428D02*
X59820000Y8981428D01*
X59320000Y8410000D01*
X59534285Y8410000D01*
X59677142Y8338571D01*
X59748571Y8267142D01*
X59820000Y8124285D01*
X59820000Y7767142D01*
X59748571Y7624285D01*
X59677142Y7552857D01*
X59534285Y7481428D01*
X59105714Y7481428D01*
X58962857Y7552857D01*
X58891428Y7624285D01*
X75028571Y7654285D02*
X74957142Y7582857D01*
X74742857Y7511428D01*
X74600000Y7511428D01*
X74385714Y7582857D01*
X74242857Y7725714D01*
X74171428Y7868571D01*
X74100000Y8154285D01*
X74100000Y8368571D01*
X74171428Y8654285D01*
X74242857Y8797142D01*
X74385714Y8940000D01*
X74600000Y9011428D01*
X74742857Y9011428D01*
X74957142Y8940000D01*
X75028571Y8868571D01*
X75885714Y7511428D02*
X75742857Y7582857D01*
X75671428Y7654285D01*
X75600000Y7797142D01*
X75600000Y8225714D01*
X75671428Y8368571D01*
X75742857Y8440000D01*
X75885714Y8511428D01*
X76100000Y8511428D01*
X76242857Y8440000D01*
X76314285Y8368571D01*
X76385714Y8225714D01*
X76385714Y7797142D01*
X76314285Y7654285D01*
X76242857Y7582857D01*
X76100000Y7511428D01*
X75885714Y7511428D01*
X77242857Y7511428D02*
X77100000Y7582857D01*
X77028571Y7725714D01*
X77028571Y9011428D01*
X78457142Y8511428D02*
X78457142Y7511428D01*
X78100000Y9082857D02*
X77742857Y8011428D01*
X78671428Y8011428D01*
X36948571Y7504285D02*
X36877142Y7432857D01*
X36662857Y7361428D01*
X36520000Y7361428D01*
X36305714Y7432857D01*
X36162857Y7575714D01*
X36091428Y7718571D01*
X36020000Y8004285D01*
X36020000Y8218571D01*
X36091428Y8504285D01*
X36162857Y8647142D01*
X36305714Y8790000D01*
X36520000Y8861428D01*
X36662857Y8861428D01*
X36877142Y8790000D01*
X36948571Y8718571D01*
X37805714Y7361428D02*
X37662857Y7432857D01*
X37591428Y7504285D01*
X37520000Y7647142D01*
X37520000Y8075714D01*
X37591428Y8218571D01*
X37662857Y8290000D01*
X37805714Y8361428D01*
X38020000Y8361428D01*
X38162857Y8290000D01*
X38234285Y8218571D01*
X38305714Y8075714D01*
X38305714Y7647142D01*
X38234285Y7504285D01*
X38162857Y7432857D01*
X38020000Y7361428D01*
X37805714Y7361428D01*
X39162857Y7361428D02*
X39020000Y7432857D01*
X38948571Y7575714D01*
X38948571Y8861428D01*
X39662857Y8718571D02*
X39734285Y8790000D01*
X39877142Y8861428D01*
X40234285Y8861428D01*
X40377142Y8790000D01*
X40448571Y8718571D01*
X40520000Y8575714D01*
X40520000Y8432857D01*
X40448571Y8218571D01*
X39591428Y7361428D01*
X40520000Y7361428D01*
X17618571Y7514285D02*
X17547142Y7442857D01*
X17332857Y7371428D01*
X17190000Y7371428D01*
X16975714Y7442857D01*
X16832857Y7585714D01*
X16761428Y7728571D01*
X16690000Y8014285D01*
X16690000Y8228571D01*
X16761428Y8514285D01*
X16832857Y8657142D01*
X16975714Y8800000D01*
X17190000Y8871428D01*
X17332857Y8871428D01*
X17547142Y8800000D01*
X17618571Y8728571D01*
X18475714Y7371428D02*
X18332857Y7442857D01*
X18261428Y7514285D01*
X18190000Y7657142D01*
X18190000Y8085714D01*
X18261428Y8228571D01*
X18332857Y8300000D01*
X18475714Y8371428D01*
X18690000Y8371428D01*
X18832857Y8300000D01*
X18904285Y8228571D01*
X18975714Y8085714D01*
X18975714Y7657142D01*
X18904285Y7514285D01*
X18832857Y7442857D01*
X18690000Y7371428D01*
X18475714Y7371428D01*
X19832857Y7371428D02*
X19690000Y7442857D01*
X19618571Y7585714D01*
X19618571Y8871428D01*
X21190000Y7371428D02*
X20332857Y7371428D01*
X20761428Y7371428D02*
X20761428Y8871428D01*
X20618571Y8657142D01*
X20475714Y8514285D01*
X20332857Y8442857D01*
X-1161428Y7484285D02*
X-1232857Y7412857D01*
X-1447142Y7341428D01*
X-1590000Y7341428D01*
X-1804285Y7412857D01*
X-1947142Y7555714D01*
X-2018571Y7698571D01*
X-2090000Y7984285D01*
X-2090000Y8198571D01*
X-2018571Y8484285D01*
X-1947142Y8627142D01*
X-1804285Y8770000D01*
X-1590000Y8841428D01*
X-1447142Y8841428D01*
X-1232857Y8770000D01*
X-1161428Y8698571D01*
X-304285Y7341428D02*
X-447142Y7412857D01*
X-518571Y7484285D01*
X-589999Y7627142D01*
X-589999Y8055714D01*
X-518571Y8198571D01*
X-447142Y8270000D01*
X-304285Y8341428D01*
X-90000Y8341428D01*
X52857Y8270000D01*
X124285Y8198571D01*
X195714Y8055714D01*
X195714Y7627142D01*
X124285Y7484285D01*
X52857Y7412857D01*
X-90000Y7341428D01*
X-304285Y7341428D01*
X1052857Y7341428D02*
X910000Y7412857D01*
X838571Y7555714D01*
X838571Y8841428D01*
X1910000Y8841428D02*
X2052857Y8841428D01*
X2195714Y8770000D01*
X2267142Y8698571D01*
X2338571Y8555714D01*
X2410000Y8270000D01*
X2410000Y7912857D01*
X2338571Y7627142D01*
X2267142Y7484285D01*
X2195714Y7412857D01*
X2052857Y7341428D01*
X1910000Y7341428D01*
X1767142Y7412857D01*
X1695714Y7484285D01*
X1624285Y7627142D01*
X1552857Y7912857D01*
X1552857Y8270000D01*
X1624285Y8555714D01*
X1695714Y8698571D01*
X1767142Y8770000D01*
X1910000Y8841428D01*
D11*
X32930000Y17330000D02*
X26930000Y17330000D01*
X26930000Y17330000D02*
X26930000Y17080000D01*
X32930000Y17330000D02*
X32930000Y17080000D01*
X32930000Y13830000D02*
X32930000Y14080000D01*
X32930000Y13830000D02*
X26930000Y13830000D01*
X26930000Y13830000D02*
X26930000Y14080000D01*
X26490000Y20030000D02*
X26490000Y32030000D01*
X32490000Y20030000D02*
X26490000Y20030000D01*
X32490000Y32030000D02*
X32490000Y20030000D01*
X26490000Y32030000D02*
X32490000Y32030000D01*
X84290000Y-59990000D02*
X83790000Y-59090000D01*
X83790000Y-59090000D02*
X84790000Y-59090000D01*
X84790000Y-59090000D02*
X84290000Y-59990000D01*
X83790000Y-60090000D02*
X84790000Y-60090000D01*
X83540000Y-56890000D02*
X83540000Y-62290000D01*
X83540000Y-62290000D02*
X85040000Y-62290000D01*
X85040000Y-62290000D02*
X85040000Y-56890000D01*
X85040000Y-56890000D02*
X83540000Y-56890000D01*
X27160000Y-2800000D02*
X26660000Y-1900000D01*
X26660000Y-1900000D02*
X27660000Y-1900000D01*
X27660000Y-1900000D02*
X27160000Y-2800000D01*
X26660000Y-2900000D02*
X27660000Y-2900000D01*
X26410000Y300000D02*
X26410000Y-5100000D01*
X26410000Y-5100000D02*
X27910000Y-5100000D01*
X27910000Y-5100000D02*
X27910000Y300000D01*
X27910000Y300000D02*
X26410000Y300000D01*
X8110000Y-2760000D02*
X7610000Y-1860000D01*
X7610000Y-1860000D02*
X8610000Y-1860000D01*
X8610000Y-1860000D02*
X8110000Y-2760000D01*
X7610000Y-2860000D02*
X8610000Y-2860000D01*
X7360000Y340000D02*
X7360000Y-5060000D01*
X7360000Y-5060000D02*
X8860000Y-5060000D01*
X8860000Y-5060000D02*
X8860000Y340000D01*
X8860000Y340000D02*
X7360000Y340000D01*
X65230000Y-2730000D02*
X64730000Y-1830000D01*
X64730000Y-1830000D02*
X65730000Y-1830000D01*
X65730000Y-1830000D02*
X65230000Y-2730000D01*
X64730000Y-2830000D02*
X65730000Y-2830000D01*
X64480000Y370000D02*
X64480000Y-5030000D01*
X64480000Y-5030000D02*
X65980000Y-5030000D01*
X65980000Y-5030000D02*
X65980000Y370000D01*
X65980000Y370000D02*
X64480000Y370000D01*
X46120000Y-2850000D02*
X45620000Y-1950000D01*
X45620000Y-1950000D02*
X46620000Y-1950000D01*
X46620000Y-1950000D02*
X46120000Y-2850000D01*
X45620000Y-2950000D02*
X46620000Y-2950000D01*
X45370000Y250000D02*
X45370000Y-5150000D01*
X45370000Y-5150000D02*
X46870000Y-5150000D01*
X46870000Y-5150000D02*
X46870000Y250000D01*
X46870000Y250000D02*
X45370000Y250000D01*
X84300000Y-2790000D02*
X83800000Y-1890000D01*
X83800000Y-1890000D02*
X84800000Y-1890000D01*
X84800000Y-1890000D02*
X84300000Y-2790000D01*
X83800000Y-2890000D02*
X84800000Y-2890000D01*
X83550000Y310000D02*
X83550000Y-5090000D01*
X83550000Y-5090000D02*
X85050000Y-5090000D01*
X85050000Y-5090000D02*
X85050000Y310000D01*
X85050000Y310000D02*
X83550000Y310000D01*
X84200000Y-21900000D02*
X83700000Y-21000000D01*
X83700000Y-21000000D02*
X84700000Y-21000000D01*
X84700000Y-21000000D02*
X84200000Y-21900000D01*
X83700000Y-22000000D02*
X84700000Y-22000000D01*
X83450000Y-18800000D02*
X83450000Y-24200000D01*
X83450000Y-24200000D02*
X84950000Y-24200000D01*
X84950000Y-24200000D02*
X84950000Y-18800000D01*
X84950000Y-18800000D02*
X83450000Y-18800000D01*
X65220000Y-21820000D02*
X64720000Y-20920000D01*
X64720000Y-20920000D02*
X65720000Y-20920000D01*
X65720000Y-20920000D02*
X65220000Y-21820000D01*
X64720000Y-21920000D02*
X65720000Y-21920000D01*
X64470000Y-18720000D02*
X64470000Y-24120000D01*
X64470000Y-24120000D02*
X65970000Y-24120000D01*
X65970000Y-24120000D02*
X65970000Y-18720000D01*
X65970000Y-18720000D02*
X64470000Y-18720000D01*
X46140000Y-21870000D02*
X45640000Y-20970000D01*
X45640000Y-20970000D02*
X46640000Y-20970000D01*
X46640000Y-20970000D02*
X46140000Y-21870000D01*
X45640000Y-21970000D02*
X46640000Y-21970000D01*
X45390000Y-18770000D02*
X45390000Y-24170000D01*
X45390000Y-24170000D02*
X46890000Y-24170000D01*
X46890000Y-24170000D02*
X46890000Y-18770000D01*
X46890000Y-18770000D02*
X45390000Y-18770000D01*
X27090000Y-21830000D02*
X26590000Y-20930000D01*
X26590000Y-20930000D02*
X27590000Y-20930000D01*
X27590000Y-20930000D02*
X27090000Y-21830000D01*
X26590000Y-21930000D02*
X27590000Y-21930000D01*
X26340000Y-18730000D02*
X26340000Y-24130000D01*
X26340000Y-24130000D02*
X27840000Y-24130000D01*
X27840000Y-24130000D02*
X27840000Y-18730000D01*
X27840000Y-18730000D02*
X26340000Y-18730000D01*
X8070000Y-21830000D02*
X7570000Y-20930000D01*
X7570000Y-20930000D02*
X8570000Y-20930000D01*
X8570000Y-20930000D02*
X8070000Y-21830000D01*
X7570000Y-21930000D02*
X8570000Y-21930000D01*
X7320000Y-18730000D02*
X7320000Y-24130000D01*
X7320000Y-24130000D02*
X8820000Y-24130000D01*
X8820000Y-24130000D02*
X8820000Y-18730000D01*
X8820000Y-18730000D02*
X7320000Y-18730000D01*
X65210000Y-59890000D02*
X64710000Y-58990000D01*
X64710000Y-58990000D02*
X65710000Y-58990000D01*
X65710000Y-58990000D02*
X65210000Y-59890000D01*
X64710000Y-59990000D02*
X65710000Y-59990000D01*
X64460000Y-56790000D02*
X64460000Y-62190000D01*
X64460000Y-62190000D02*
X65960000Y-62190000D01*
X65960000Y-62190000D02*
X65960000Y-56790000D01*
X65960000Y-56790000D02*
X64460000Y-56790000D01*
X46160000Y-59860000D02*
X45660000Y-58960000D01*
X45660000Y-58960000D02*
X46660000Y-58960000D01*
X46660000Y-58960000D02*
X46160000Y-59860000D01*
X45660000Y-59960000D02*
X46660000Y-59960000D01*
X45410000Y-56760000D02*
X45410000Y-62160000D01*
X45410000Y-62160000D02*
X46910000Y-62160000D01*
X46910000Y-62160000D02*
X46910000Y-56760000D01*
X46910000Y-56760000D02*
X45410000Y-56760000D01*
X27150000Y-59930000D02*
X26650000Y-59030000D01*
X26650000Y-59030000D02*
X27650000Y-59030000D01*
X27650000Y-59030000D02*
X27150000Y-59930000D01*
X26650000Y-60030000D02*
X27650000Y-60030000D01*
X26400000Y-56830000D02*
X26400000Y-62230000D01*
X26400000Y-62230000D02*
X27900000Y-62230000D01*
X27900000Y-62230000D02*
X27900000Y-56830000D01*
X27900000Y-56830000D02*
X26400000Y-56830000D01*
X8050000Y-59950000D02*
X7550000Y-59050000D01*
X7550000Y-59050000D02*
X8550000Y-59050000D01*
X8550000Y-59050000D02*
X8050000Y-59950000D01*
X7550000Y-60050000D02*
X8550000Y-60050000D01*
X7300000Y-56850000D02*
X7300000Y-62250000D01*
X7300000Y-62250000D02*
X8800000Y-62250000D01*
X8800000Y-62250000D02*
X8800000Y-56850000D01*
X8800000Y-56850000D02*
X7300000Y-56850000D01*
X84220000Y-40900000D02*
X83720000Y-40000000D01*
X83720000Y-40000000D02*
X84720000Y-40000000D01*
X84720000Y-40000000D02*
X84220000Y-40900000D01*
X83720000Y-41000000D02*
X84720000Y-41000000D01*
X83470000Y-37800000D02*
X83470000Y-43200000D01*
X83470000Y-43200000D02*
X84970000Y-43200000D01*
X84970000Y-43200000D02*
X84970000Y-37800000D01*
X84970000Y-37800000D02*
X83470000Y-37800000D01*
X65170000Y-40920000D02*
X64670000Y-40020000D01*
X64670000Y-40020000D02*
X65670000Y-40020000D01*
X65670000Y-40020000D02*
X65170000Y-40920000D01*
X64670000Y-41020000D02*
X65670000Y-41020000D01*
X64420000Y-37820000D02*
X64420000Y-43220000D01*
X64420000Y-43220000D02*
X65920000Y-43220000D01*
X65920000Y-43220000D02*
X65920000Y-37820000D01*
X65920000Y-37820000D02*
X64420000Y-37820000D01*
X46150000Y-40910000D02*
X45650000Y-40010000D01*
X45650000Y-40010000D02*
X46650000Y-40010000D01*
X46650000Y-40010000D02*
X46150000Y-40910000D01*
X45650000Y-41010000D02*
X46650000Y-41010000D01*
X45400000Y-37810000D02*
X45400000Y-43210000D01*
X45400000Y-43210000D02*
X46900000Y-43210000D01*
X46900000Y-43210000D02*
X46900000Y-37810000D01*
X46900000Y-37810000D02*
X45400000Y-37810000D01*
X27060000Y-40850000D02*
X26560000Y-39950000D01*
X26560000Y-39950000D02*
X27560000Y-39950000D01*
X27560000Y-39950000D02*
X27060000Y-40850000D01*
X26560000Y-40950000D02*
X27560000Y-40950000D01*
X26310000Y-37750000D02*
X26310000Y-43150000D01*
X26310000Y-43150000D02*
X27810000Y-43150000D01*
X27810000Y-43150000D02*
X27810000Y-37750000D01*
X27810000Y-37750000D02*
X26310000Y-37750000D01*
X8030000Y-40860000D02*
X7530000Y-39960000D01*
X7530000Y-39960000D02*
X8530000Y-39960000D01*
X8530000Y-39960000D02*
X8030000Y-40860000D01*
X7530000Y-40960000D02*
X8530000Y-40960000D01*
X7280000Y-37760000D02*
X7280000Y-43160000D01*
X7280000Y-43160000D02*
X8780000Y-43160000D01*
X8780000Y-43160000D02*
X8780000Y-37760000D01*
X8780000Y-37760000D02*
X7280000Y-37760000D01*
D12*
X-4250714Y17187380D02*
X-4607857Y16964047D01*
X-4250714Y16804523D02*
X-5000714Y16804523D01*
X-5000714Y17059761D01*
X-4965000Y17123571D01*
X-4929285Y17155476D01*
X-4857857Y17187380D01*
X-4750714Y17187380D01*
X-4679285Y17155476D01*
X-4643571Y17123571D01*
X-4607857Y17059761D01*
X-4607857Y16804523D01*
X-4465000Y17442619D02*
X-4465000Y17761666D01*
X-4250714Y17378809D02*
X-5000714Y17602142D01*
X-4250714Y17825476D01*
X-5000714Y17985000D02*
X-4250714Y18144523D01*
X-4786428Y18272142D01*
X-4250714Y18399761D01*
X-5000714Y18559285D01*
X-2275000Y17239523D02*
X-2310714Y17175714D01*
X-2310714Y17080000D01*
X-2275000Y16984285D01*
X-2203571Y16920476D01*
X-2132142Y16888571D01*
X-1989285Y16856666D01*
X-1882142Y16856666D01*
X-1739285Y16888571D01*
X-1667857Y16920476D01*
X-1596428Y16984285D01*
X-1560714Y17080000D01*
X-1560714Y17143809D01*
X-1596428Y17239523D01*
X-1632142Y17271428D01*
X-1882142Y17271428D01*
X-1882142Y17143809D01*
X-1560714Y17558571D02*
X-2310714Y17558571D01*
X-1560714Y17941428D01*
X-2310714Y17941428D01*
X-1560714Y18260476D02*
X-2310714Y18260476D01*
X-2310714Y18420000D01*
X-2275000Y18515714D01*
X-2203571Y18579523D01*
X-2132142Y18611428D01*
X-1989285Y18643333D01*
X-1882142Y18643333D01*
X-1739285Y18611428D01*
X-1667857Y18579523D01*
X-1596428Y18515714D01*
X-1560714Y18420000D01*
X-1560714Y18260476D01*
X789285Y17333095D02*
X432142Y17109761D01*
X789285Y16950238D02*
X39285Y16950238D01*
X39285Y17205476D01*
X75000Y17269285D01*
X110714Y17301190D01*
X182142Y17333095D01*
X289285Y17333095D01*
X360714Y17301190D01*
X396428Y17269285D01*
X432142Y17205476D01*
X432142Y16950238D01*
X753571Y17588333D02*
X789285Y17684047D01*
X789285Y17843571D01*
X753571Y17907380D01*
X717857Y17939285D01*
X646428Y17971190D01*
X575000Y17971190D01*
X503571Y17939285D01*
X467857Y17907380D01*
X432142Y17843571D01*
X396428Y17715952D01*
X360714Y17652142D01*
X325000Y17620238D01*
X253571Y17588333D01*
X182142Y17588333D01*
X110714Y17620238D01*
X75000Y17652142D01*
X39285Y17715952D01*
X39285Y17875476D01*
X75000Y17971190D01*
X39285Y18162619D02*
X39285Y18545476D01*
X789285Y18354047D02*
X39285Y18354047D01*
X1499285Y16606666D02*
X2249285Y16830000D01*
X1499285Y17053333D01*
X2177857Y17659523D02*
X2213571Y17627619D01*
X2249285Y17531904D01*
X2249285Y17468095D01*
X2213571Y17372380D01*
X2142142Y17308571D01*
X2070714Y17276666D01*
X1927857Y17244761D01*
X1820714Y17244761D01*
X1677857Y17276666D01*
X1606428Y17308571D01*
X1535000Y17372380D01*
X1499285Y17468095D01*
X1499285Y17531904D01*
X1535000Y17627619D01*
X1570714Y17659523D01*
X2177857Y18329523D02*
X2213571Y18297619D01*
X2249285Y18201904D01*
X2249285Y18138095D01*
X2213571Y18042380D01*
X2142142Y17978571D01*
X2070714Y17946666D01*
X1927857Y17914761D01*
X1820714Y17914761D01*
X1677857Y17946666D01*
X1606428Y17978571D01*
X1535000Y18042380D01*
X1499285Y18138095D01*
X1499285Y18201904D01*
X1535000Y18297619D01*
X1570714Y18329523D01*
X3065000Y16654285D02*
X3065000Y16973333D01*
X3279285Y16590476D02*
X2529285Y16813809D01*
X3279285Y17037142D01*
X2529285Y17196666D02*
X2529285Y17611428D01*
X2815000Y17388095D01*
X2815000Y17483809D01*
X2850714Y17547619D01*
X2886428Y17579523D01*
X2957857Y17611428D01*
X3136428Y17611428D01*
X3207857Y17579523D01*
X3243571Y17547619D01*
X3279285Y17483809D01*
X3279285Y17292380D01*
X3243571Y17228571D01*
X3207857Y17196666D01*
X2493571Y18377142D02*
X3457857Y17802857D01*
X2886428Y18823809D02*
X2886428Y18600476D01*
X3279285Y18600476D02*
X2529285Y18600476D01*
X2529285Y18919523D01*
X2779285Y19461904D02*
X3279285Y19461904D01*
X2493571Y19302380D02*
X3029285Y19142857D01*
X3029285Y19557619D01*
X8175000Y14429285D02*
X8175000Y14748333D01*
X8389285Y14365476D02*
X7639285Y14588809D01*
X8389285Y14812142D01*
X7710714Y15003571D02*
X7675000Y15035476D01*
X7639285Y15099285D01*
X7639285Y15258809D01*
X7675000Y15322619D01*
X7710714Y15354523D01*
X7782142Y15386428D01*
X7853571Y15386428D01*
X7960714Y15354523D01*
X8389285Y14971666D01*
X8389285Y15386428D01*
X7603571Y16152142D02*
X8567857Y15577857D01*
X7996428Y16598809D02*
X7996428Y16375476D01*
X8389285Y16375476D02*
X7639285Y16375476D01*
X7639285Y16694523D01*
X7639285Y17268809D02*
X7639285Y16949761D01*
X7996428Y16917857D01*
X7960714Y16949761D01*
X7925000Y17013571D01*
X7925000Y17173095D01*
X7960714Y17236904D01*
X7996428Y17268809D01*
X8067857Y17300714D01*
X8246428Y17300714D01*
X8317857Y17268809D01*
X8353571Y17236904D01*
X8389285Y17173095D01*
X8389285Y17013571D01*
X8353571Y16949761D01*
X8317857Y16917857D01*
X10675000Y14429285D02*
X10675000Y14748333D01*
X10889285Y14365476D02*
X10139285Y14588809D01*
X10889285Y14812142D01*
X10889285Y15386428D02*
X10889285Y15003571D01*
X10889285Y15195000D02*
X10139285Y15195000D01*
X10246428Y15131190D01*
X10317857Y15067380D01*
X10353571Y15003571D01*
X10103571Y16152142D02*
X11067857Y15577857D01*
X10496428Y16598809D02*
X10496428Y16375476D01*
X10889285Y16375476D02*
X10139285Y16375476D01*
X10139285Y16694523D01*
X10139285Y17236904D02*
X10139285Y17109285D01*
X10175000Y17045476D01*
X10210714Y17013571D01*
X10317857Y16949761D01*
X10460714Y16917857D01*
X10746428Y16917857D01*
X10817857Y16949761D01*
X10853571Y16981666D01*
X10889285Y17045476D01*
X10889285Y17173095D01*
X10853571Y17236904D01*
X10817857Y17268809D01*
X10746428Y17300714D01*
X10567857Y17300714D01*
X10496428Y17268809D01*
X10460714Y17236904D01*
X10425000Y17173095D01*
X10425000Y17045476D01*
X10460714Y16981666D01*
X10496428Y16949761D01*
X10567857Y16917857D01*
X13225000Y14429285D02*
X13225000Y14748333D01*
X13439285Y14365476D02*
X12689285Y14588809D01*
X13439285Y14812142D01*
X12689285Y15163095D02*
X12689285Y15226904D01*
X12725000Y15290714D01*
X12760714Y15322619D01*
X12832142Y15354523D01*
X12975000Y15386428D01*
X13153571Y15386428D01*
X13296428Y15354523D01*
X13367857Y15322619D01*
X13403571Y15290714D01*
X13439285Y15226904D01*
X13439285Y15163095D01*
X13403571Y15099285D01*
X13367857Y15067380D01*
X13296428Y15035476D01*
X13153571Y15003571D01*
X12975000Y15003571D01*
X12832142Y15035476D01*
X12760714Y15067380D01*
X12725000Y15099285D01*
X12689285Y15163095D01*
X12653571Y16152142D02*
X13617857Y15577857D01*
X13046428Y16598809D02*
X13046428Y16375476D01*
X13439285Y16375476D02*
X12689285Y16375476D01*
X12689285Y16694523D01*
X12689285Y16885952D02*
X12689285Y17332619D01*
X13439285Y17045476D01*
X15989285Y14732380D02*
X15989285Y14349523D01*
X15989285Y14540952D02*
X15239285Y14540952D01*
X15346428Y14477142D01*
X15417857Y14413333D01*
X15453571Y14349523D01*
X15239285Y15338571D02*
X15239285Y15019523D01*
X15596428Y14987619D01*
X15560714Y15019523D01*
X15525000Y15083333D01*
X15525000Y15242857D01*
X15560714Y15306666D01*
X15596428Y15338571D01*
X15667857Y15370476D01*
X15846428Y15370476D01*
X15917857Y15338571D01*
X15953571Y15306666D01*
X15989285Y15242857D01*
X15989285Y15083333D01*
X15953571Y15019523D01*
X15917857Y14987619D01*
X15203571Y16136190D02*
X16167857Y15561904D01*
X15596428Y16582857D02*
X15632142Y16678571D01*
X15667857Y16710476D01*
X15739285Y16742380D01*
X15846428Y16742380D01*
X15917857Y16710476D01*
X15953571Y16678571D01*
X15989285Y16614761D01*
X15989285Y16359523D01*
X15239285Y16359523D01*
X15239285Y16582857D01*
X15275000Y16646666D01*
X15310714Y16678571D01*
X15382142Y16710476D01*
X15453571Y16710476D01*
X15525000Y16678571D01*
X15560714Y16646666D01*
X15596428Y16582857D01*
X15596428Y16359523D01*
X15989285Y17380476D02*
X15989285Y16997619D01*
X15989285Y17189047D02*
X15239285Y17189047D01*
X15346428Y17125238D01*
X15417857Y17061428D01*
X15453571Y16997619D01*
X18539285Y14732380D02*
X18539285Y14349523D01*
X18539285Y14540952D02*
X17789285Y14540952D01*
X17896428Y14477142D01*
X17967857Y14413333D01*
X18003571Y14349523D01*
X18039285Y15306666D02*
X18539285Y15306666D01*
X17753571Y15147142D02*
X18289285Y14987619D01*
X18289285Y15402380D01*
X17753571Y16136190D02*
X18717857Y15561904D01*
X18146428Y16582857D02*
X18182142Y16678571D01*
X18217857Y16710476D01*
X18289285Y16742380D01*
X18396428Y16742380D01*
X18467857Y16710476D01*
X18503571Y16678571D01*
X18539285Y16614761D01*
X18539285Y16359523D01*
X17789285Y16359523D01*
X17789285Y16582857D01*
X17825000Y16646666D01*
X17860714Y16678571D01*
X17932142Y16710476D01*
X18003571Y16710476D01*
X18075000Y16678571D01*
X18110714Y16646666D01*
X18146428Y16582857D01*
X18146428Y16359523D01*
X17789285Y16965714D02*
X17789285Y17380476D01*
X18075000Y17157142D01*
X18075000Y17252857D01*
X18110714Y17316666D01*
X18146428Y17348571D01*
X18217857Y17380476D01*
X18396428Y17380476D01*
X18467857Y17348571D01*
X18503571Y17316666D01*
X18539285Y17252857D01*
X18539285Y17061428D01*
X18503571Y16997619D01*
X18467857Y16965714D01*
X23709285Y14767380D02*
X23709285Y14384523D01*
X23709285Y14575952D02*
X22959285Y14575952D01*
X23066428Y14512142D01*
X23137857Y14448333D01*
X23173571Y14384523D01*
X22959285Y15182142D02*
X22959285Y15245952D01*
X22995000Y15309761D01*
X23030714Y15341666D01*
X23102142Y15373571D01*
X23245000Y15405476D01*
X23423571Y15405476D01*
X23566428Y15373571D01*
X23637857Y15341666D01*
X23673571Y15309761D01*
X23709285Y15245952D01*
X23709285Y15182142D01*
X23673571Y15118333D01*
X23637857Y15086428D01*
X23566428Y15054523D01*
X23423571Y15022619D01*
X23245000Y15022619D01*
X23102142Y15054523D01*
X23030714Y15086428D01*
X22995000Y15118333D01*
X22959285Y15182142D01*
X22923571Y16171190D02*
X23887857Y15596904D01*
X23316428Y16617857D02*
X23352142Y16713571D01*
X23387857Y16745476D01*
X23459285Y16777380D01*
X23566428Y16777380D01*
X23637857Y16745476D01*
X23673571Y16713571D01*
X23709285Y16649761D01*
X23709285Y16394523D01*
X22959285Y16394523D01*
X22959285Y16617857D01*
X22995000Y16681666D01*
X23030714Y16713571D01*
X23102142Y16745476D01*
X23173571Y16745476D01*
X23245000Y16713571D01*
X23280714Y16681666D01*
X23316428Y16617857D01*
X23316428Y16394523D01*
X22959285Y17351666D02*
X22959285Y17224047D01*
X22995000Y17160238D01*
X23030714Y17128333D01*
X23137857Y17064523D01*
X23280714Y17032619D01*
X23566428Y17032619D01*
X23637857Y17064523D01*
X23673571Y17096428D01*
X23709285Y17160238D01*
X23709285Y17287857D01*
X23673571Y17351666D01*
X23637857Y17383571D01*
X23566428Y17415476D01*
X23387857Y17415476D01*
X23316428Y17383571D01*
X23280714Y17351666D01*
X23245000Y17287857D01*
X23245000Y17160238D01*
X23280714Y17096428D01*
X23316428Y17064523D01*
X23387857Y17032619D01*
X21089285Y14732380D02*
X21089285Y14349523D01*
X21089285Y14540952D02*
X20339285Y14540952D01*
X20446428Y14477142D01*
X20517857Y14413333D01*
X20553571Y14349523D01*
X20339285Y15306666D02*
X20339285Y15179047D01*
X20375000Y15115238D01*
X20410714Y15083333D01*
X20517857Y15019523D01*
X20660714Y14987619D01*
X20946428Y14987619D01*
X21017857Y15019523D01*
X21053571Y15051428D01*
X21089285Y15115238D01*
X21089285Y15242857D01*
X21053571Y15306666D01*
X21017857Y15338571D01*
X20946428Y15370476D01*
X20767857Y15370476D01*
X20696428Y15338571D01*
X20660714Y15306666D01*
X20625000Y15242857D01*
X20625000Y15115238D01*
X20660714Y15051428D01*
X20696428Y15019523D01*
X20767857Y14987619D01*
X20303571Y16136190D02*
X21267857Y15561904D01*
X20696428Y16582857D02*
X20732142Y16678571D01*
X20767857Y16710476D01*
X20839285Y16742380D01*
X20946428Y16742380D01*
X21017857Y16710476D01*
X21053571Y16678571D01*
X21089285Y16614761D01*
X21089285Y16359523D01*
X20339285Y16359523D01*
X20339285Y16582857D01*
X20375000Y16646666D01*
X20410714Y16678571D01*
X20482142Y16710476D01*
X20553571Y16710476D01*
X20625000Y16678571D01*
X20660714Y16646666D01*
X20696428Y16582857D01*
X20696428Y16359523D01*
X20410714Y16997619D02*
X20375000Y17029523D01*
X20339285Y17093333D01*
X20339285Y17252857D01*
X20375000Y17316666D01*
X20410714Y17348571D01*
X20482142Y17380476D01*
X20553571Y17380476D01*
X20660714Y17348571D01*
X21089285Y16965714D01*
X21089285Y17380476D01*
X18096428Y24077380D02*
X18096428Y24300714D01*
X18489285Y24396428D02*
X18489285Y24077380D01*
X17739285Y24077380D01*
X17739285Y24396428D01*
X17739285Y24970714D02*
X17739285Y24843095D01*
X17775000Y24779285D01*
X17810714Y24747380D01*
X17917857Y24683571D01*
X18060714Y24651666D01*
X18346428Y24651666D01*
X18417857Y24683571D01*
X18453571Y24715476D01*
X18489285Y24779285D01*
X18489285Y24906904D01*
X18453571Y24970714D01*
X18417857Y25002619D01*
X18346428Y25034523D01*
X18167857Y25034523D01*
X18096428Y25002619D01*
X18060714Y24970714D01*
X18025000Y24906904D01*
X18025000Y24779285D01*
X18060714Y24715476D01*
X18096428Y24683571D01*
X18167857Y24651666D01*
X17703571Y25800238D02*
X18667857Y25225952D01*
X17739285Y25959761D02*
X17739285Y26406428D01*
X18489285Y26119285D01*
X15929285Y24265476D02*
X15179285Y24265476D01*
X15179285Y24425000D01*
X15215000Y24520714D01*
X15286428Y24584523D01*
X15357857Y24616428D01*
X15500714Y24648333D01*
X15607857Y24648333D01*
X15750714Y24616428D01*
X15822142Y24584523D01*
X15893571Y24520714D01*
X15929285Y24425000D01*
X15929285Y24265476D01*
X15179285Y24871666D02*
X15179285Y25318333D01*
X15929285Y25031190D01*
X15143571Y26052142D02*
X16107857Y25477857D01*
X15179285Y26562619D02*
X15179285Y26435000D01*
X15215000Y26371190D01*
X15250714Y26339285D01*
X15357857Y26275476D01*
X15500714Y26243571D01*
X15786428Y26243571D01*
X15857857Y26275476D01*
X15893571Y26307380D01*
X15929285Y26371190D01*
X15929285Y26498809D01*
X15893571Y26562619D01*
X15857857Y26594523D01*
X15786428Y26626428D01*
X15607857Y26626428D01*
X15536428Y26594523D01*
X15500714Y26562619D01*
X15465000Y26498809D01*
X15465000Y26371190D01*
X15500714Y26307380D01*
X15536428Y26275476D01*
X15607857Y26243571D01*
X-5000Y22229523D02*
X-40714Y22165714D01*
X-40714Y22070000D01*
X-5000Y21974285D01*
X66428Y21910476D01*
X137857Y21878571D01*
X280714Y21846666D01*
X387857Y21846666D01*
X530714Y21878571D01*
X602142Y21910476D01*
X673571Y21974285D01*
X709285Y22070000D01*
X709285Y22133809D01*
X673571Y22229523D01*
X637857Y22261428D01*
X387857Y22261428D01*
X387857Y22133809D01*
X709285Y22548571D02*
X-40714Y22548571D01*
X709285Y22931428D01*
X-40714Y22931428D01*
X709285Y23250476D02*
X-40714Y23250476D01*
X-40714Y23410000D01*
X-4999Y23505714D01*
X66428Y23569523D01*
X137857Y23601428D01*
X280714Y23633333D01*
X387857Y23633333D01*
X530714Y23601428D01*
X602142Y23569523D01*
X673571Y23505714D01*
X709285Y23410000D01*
X709285Y23250476D01*
X2515000Y22169523D02*
X2479285Y22105714D01*
X2479285Y22010000D01*
X2515000Y21914285D01*
X2586428Y21850476D01*
X2657857Y21818571D01*
X2800714Y21786666D01*
X2907857Y21786666D01*
X3050714Y21818571D01*
X3122142Y21850476D01*
X3193571Y21914285D01*
X3229285Y22010000D01*
X3229285Y22073809D01*
X3193571Y22169523D01*
X3157857Y22201428D01*
X2907857Y22201428D01*
X2907857Y22073809D01*
X3229285Y22488571D02*
X2479285Y22488571D01*
X3229285Y22871428D01*
X2479285Y22871428D01*
X3229285Y23190476D02*
X2479285Y23190476D01*
X2479285Y23350000D01*
X2515000Y23445714D01*
X2586428Y23509523D01*
X2657857Y23541428D01*
X2800714Y23573333D01*
X2907857Y23573333D01*
X3050714Y23541428D01*
X3122142Y23509523D01*
X3193571Y23445714D01*
X3229285Y23350000D01*
X3229285Y23190476D01*
X-4350714Y20221190D02*
X-5100714Y20221190D01*
X-5100714Y20380714D01*
X-5065000Y20476428D01*
X-4993571Y20540238D01*
X-4922142Y20572142D01*
X-4779285Y20604047D01*
X-4672142Y20604047D01*
X-4529285Y20572142D01*
X-4457857Y20540238D01*
X-4386428Y20476428D01*
X-4350714Y20380714D01*
X-4350714Y20221190D01*
X-5100714Y20827380D02*
X-5100714Y21242142D01*
X-4815000Y21018809D01*
X-4815000Y21114523D01*
X-4779285Y21178333D01*
X-4743571Y21210238D01*
X-4672142Y21242142D01*
X-4493571Y21242142D01*
X-4422142Y21210238D01*
X-4386428Y21178333D01*
X-4350714Y21114523D01*
X-4350714Y20923095D01*
X-4386428Y20859285D01*
X-4422142Y20827380D01*
X-5136428Y22007857D02*
X-4172142Y21433571D01*
X-5100714Y22135476D02*
X-5100714Y22518333D01*
X-4350714Y22326904D02*
X-5100714Y22326904D01*
X-5100714Y22677857D02*
X-4350714Y23124523D01*
X-5100714Y23124523D02*
X-4350714Y22677857D01*
X-5100714Y23507380D02*
X-5100714Y23571190D01*
X-5065000Y23635000D01*
X-5029285Y23666904D01*
X-4957857Y23698809D01*
X-4815000Y23730714D01*
X-4636428Y23730714D01*
X-4493571Y23698809D01*
X-4422142Y23666904D01*
X-4386428Y23635000D01*
X-4350714Y23571190D01*
X-4350714Y23507380D01*
X-4386428Y23443571D01*
X-4422142Y23411666D01*
X-4493571Y23379761D01*
X-4636428Y23347857D01*
X-4815000Y23347857D01*
X-4957857Y23379761D01*
X-5029285Y23411666D01*
X-5065000Y23443571D01*
X-5100714Y23507380D01*
X10959285Y24205476D02*
X10209285Y24205476D01*
X10209285Y24365000D01*
X10245000Y24460714D01*
X10316428Y24524523D01*
X10387857Y24556428D01*
X10530714Y24588333D01*
X10637857Y24588333D01*
X10780714Y24556428D01*
X10852142Y24524523D01*
X10923571Y24460714D01*
X10959285Y24365000D01*
X10959285Y24205476D01*
X10459285Y25162619D02*
X10959285Y25162619D01*
X10173571Y25003095D02*
X10709285Y24843571D01*
X10709285Y25258333D01*
X10173571Y25992142D02*
X11137857Y25417857D01*
X10459285Y26502619D02*
X10959285Y26502619D01*
X10173571Y26343095D02*
X10709285Y26183571D01*
X10709285Y26598333D01*
X4413571Y18941428D02*
X4449285Y19037142D01*
X4449285Y19196666D01*
X4413571Y19260476D01*
X4377857Y19292380D01*
X4306428Y19324285D01*
X4235000Y19324285D01*
X4163571Y19292380D01*
X4127857Y19260476D01*
X4092142Y19196666D01*
X4056428Y19069047D01*
X4020714Y19005238D01*
X3985000Y18973333D01*
X3913571Y18941428D01*
X3842142Y18941428D01*
X3770714Y18973333D01*
X3735000Y19005238D01*
X3699285Y19069047D01*
X3699285Y19228571D01*
X3735000Y19324285D01*
X4449285Y19611428D02*
X3699285Y19611428D01*
X3699285Y19770952D01*
X3735000Y19866666D01*
X3806428Y19930476D01*
X3877857Y19962380D01*
X4020714Y19994285D01*
X4127857Y19994285D01*
X4270714Y19962380D01*
X4342142Y19930476D01*
X4413571Y19866666D01*
X4449285Y19770952D01*
X4449285Y19611428D01*
X4235000Y20249523D02*
X4235000Y20568571D01*
X4449285Y20185714D02*
X3699285Y20409047D01*
X4449285Y20632380D01*
X3663571Y21334285D02*
X4627857Y20760000D01*
X4449285Y21557619D02*
X3699285Y21557619D01*
X3699285Y21717142D01*
X3735000Y21812857D01*
X3806428Y21876666D01*
X3877857Y21908571D01*
X4020714Y21940476D01*
X4127857Y21940476D01*
X4270714Y21908571D01*
X4342142Y21876666D01*
X4413571Y21812857D01*
X4449285Y21717142D01*
X4449285Y21557619D01*
X4449285Y22578571D02*
X4449285Y22195714D01*
X4449285Y22387142D02*
X3699285Y22387142D01*
X3806428Y22323333D01*
X3877857Y22259523D01*
X3913571Y22195714D01*
X3663571Y23344285D02*
X4627857Y22770000D01*
X3770714Y23535714D02*
X3735000Y23567619D01*
X3699285Y23631428D01*
X3699285Y23790952D01*
X3735000Y23854761D01*
X3770714Y23886666D01*
X3842142Y23918571D01*
X3913571Y23918571D01*
X4020714Y23886666D01*
X4449285Y23503809D01*
X4449285Y23918571D01*
X8203571Y21242380D02*
X8239285Y21338095D01*
X8239285Y21497619D01*
X8203571Y21561428D01*
X8167857Y21593333D01*
X8096428Y21625238D01*
X8025000Y21625238D01*
X7953571Y21593333D01*
X7917857Y21561428D01*
X7882142Y21497619D01*
X7846428Y21370000D01*
X7810714Y21306190D01*
X7775000Y21274285D01*
X7703571Y21242380D01*
X7632142Y21242380D01*
X7560714Y21274285D01*
X7525000Y21306190D01*
X7489285Y21370000D01*
X7489285Y21529523D01*
X7525000Y21625238D01*
X8167857Y22295238D02*
X8203571Y22263333D01*
X8239285Y22167619D01*
X8239285Y22103809D01*
X8203571Y22008095D01*
X8132142Y21944285D01*
X8060714Y21912380D01*
X7917857Y21880476D01*
X7810714Y21880476D01*
X7667857Y21912380D01*
X7596428Y21944285D01*
X7525000Y22008095D01*
X7489285Y22103809D01*
X7489285Y22167619D01*
X7525000Y22263333D01*
X7560714Y22295238D01*
X8239285Y22901428D02*
X8239285Y22582380D01*
X7489285Y22582380D01*
X7453571Y23603333D02*
X8417857Y23029047D01*
X8239285Y23826666D02*
X7489285Y23826666D01*
X7489285Y23986190D01*
X7525000Y24081904D01*
X7596428Y24145714D01*
X7667857Y24177619D01*
X7810714Y24209523D01*
X7917857Y24209523D01*
X8060714Y24177619D01*
X8132142Y24145714D01*
X8203571Y24081904D01*
X8239285Y23986190D01*
X8239285Y23826666D01*
X7489285Y24624285D02*
X7489285Y24688095D01*
X7525000Y24751904D01*
X7560714Y24783809D01*
X7632142Y24815714D01*
X7775000Y24847619D01*
X7953571Y24847619D01*
X8096428Y24815714D01*
X8167857Y24783809D01*
X8203571Y24751904D01*
X8239285Y24688095D01*
X8239285Y24624285D01*
X8203571Y24560476D01*
X8167857Y24528571D01*
X8096428Y24496666D01*
X7953571Y24464761D01*
X7775000Y24464761D01*
X7632142Y24496666D01*
X7560714Y24528571D01*
X7525000Y24560476D01*
X7489285Y24624285D01*
X7453571Y25613333D02*
X8417857Y25039047D01*
X7489285Y25772857D02*
X7489285Y26187619D01*
X7775000Y25964285D01*
X7775000Y26060000D01*
X7810714Y26123809D01*
X7846428Y26155714D01*
X7917857Y26187619D01*
X8096428Y26187619D01*
X8167857Y26155714D01*
X8203571Y26123809D01*
X8239285Y26060000D01*
X8239285Y25868571D01*
X8203571Y25804761D01*
X8167857Y25772857D01*
X13497857Y24648333D02*
X13533571Y24616428D01*
X13569285Y24520714D01*
X13569285Y24456904D01*
X13533571Y24361190D01*
X13462142Y24297380D01*
X13390714Y24265476D01*
X13247857Y24233571D01*
X13140714Y24233571D01*
X12997857Y24265476D01*
X12926428Y24297380D01*
X12855000Y24361190D01*
X12819285Y24456904D01*
X12819285Y24520714D01*
X12855000Y24616428D01*
X12890714Y24648333D01*
X12819285Y25222619D02*
X12819285Y25095000D01*
X12855000Y25031190D01*
X12890714Y24999285D01*
X12997857Y24935476D01*
X13140714Y24903571D01*
X13426428Y24903571D01*
X13497857Y24935476D01*
X13533571Y24967380D01*
X13569285Y25031190D01*
X13569285Y25158809D01*
X13533571Y25222619D01*
X13497857Y25254523D01*
X13426428Y25286428D01*
X13247857Y25286428D01*
X13176428Y25254523D01*
X13140714Y25222619D01*
X13105000Y25158809D01*
X13105000Y25031190D01*
X13140714Y24967380D01*
X13176428Y24935476D01*
X13247857Y24903571D01*
X12783571Y26052142D02*
X13747857Y25477857D01*
X12819285Y26594523D02*
X12819285Y26275476D01*
X13176428Y26243571D01*
X13140714Y26275476D01*
X13105000Y26339285D01*
X13105000Y26498809D01*
X13140714Y26562619D01*
X13176428Y26594523D01*
X13247857Y26626428D01*
X13426428Y26626428D01*
X13497857Y26594523D01*
X13533571Y26562619D01*
X13569285Y26498809D01*
X13569285Y26339285D01*
X13533571Y26275476D01*
X13497857Y26243571D01*
X23046428Y24023809D02*
X23082142Y24119523D01*
X23117857Y24151428D01*
X23189285Y24183333D01*
X23296428Y24183333D01*
X23367857Y24151428D01*
X23403571Y24119523D01*
X23439285Y24055714D01*
X23439285Y23800476D01*
X22689285Y23800476D01*
X22689285Y24023809D01*
X22725000Y24087619D01*
X22760714Y24119523D01*
X22832142Y24151428D01*
X22903571Y24151428D01*
X22975000Y24119523D01*
X23010714Y24087619D01*
X23046428Y24023809D01*
X23046428Y23800476D01*
X22689285Y24789523D02*
X22689285Y24470476D01*
X23046428Y24438571D01*
X23010714Y24470476D01*
X22975000Y24534285D01*
X22975000Y24693809D01*
X23010714Y24757619D01*
X23046428Y24789523D01*
X23117857Y24821428D01*
X23296428Y24821428D01*
X23367857Y24789523D01*
X23403571Y24757619D01*
X23439285Y24693809D01*
X23439285Y24534285D01*
X23403571Y24470476D01*
X23367857Y24438571D01*
X22653571Y25587142D02*
X23617857Y25012857D01*
X23439285Y25842380D02*
X23439285Y25970000D01*
X23403571Y26033809D01*
X23367857Y26065714D01*
X23260714Y26129523D01*
X23117857Y26161428D01*
X22832142Y26161428D01*
X22760714Y26129523D01*
X22725000Y26097619D01*
X22689285Y26033809D01*
X22689285Y25906190D01*
X22725000Y25842380D01*
X22760714Y25810476D01*
X22832142Y25778571D01*
X23010714Y25778571D01*
X23082142Y25810476D01*
X23117857Y25842380D01*
X23153571Y25906190D01*
X23153571Y26033809D01*
X23117857Y26097619D01*
X23082142Y26129523D01*
X23010714Y26161428D01*
X-1840714Y19931428D02*
X-2590714Y19931428D01*
X-2590714Y20090952D01*
X-2555000Y20186666D01*
X-2483571Y20250476D01*
X-2412142Y20282380D01*
X-2269285Y20314285D01*
X-2162142Y20314285D01*
X-2019285Y20282380D01*
X-1947857Y20250476D01*
X-1876428Y20186666D01*
X-1840714Y20090952D01*
X-1840714Y19931428D01*
X-2519285Y20569523D02*
X-2555000Y20601428D01*
X-2590714Y20665238D01*
X-2590714Y20824761D01*
X-2555000Y20888571D01*
X-2519285Y20920476D01*
X-2447857Y20952380D01*
X-2376428Y20952380D01*
X-2269285Y20920476D01*
X-1840714Y20537619D01*
X-1840714Y20952380D01*
X-2626428Y21718095D02*
X-1662142Y21143809D01*
X-1840714Y22324285D02*
X-2197857Y22100952D01*
X-1840714Y21941428D02*
X-2590714Y21941428D01*
X-2590714Y22196666D01*
X-2555000Y22260476D01*
X-2519285Y22292380D01*
X-2447857Y22324285D01*
X-2340714Y22324285D01*
X-2269285Y22292380D01*
X-2233571Y22260476D01*
X-2197857Y22196666D01*
X-2197857Y21941428D01*
X-2590714Y22547619D02*
X-1840714Y22994285D01*
X-2590714Y22994285D02*
X-1840714Y22547619D01*
X-1840714Y23600476D02*
X-1840714Y23217619D01*
X-1840714Y23409047D02*
X-2590714Y23409047D01*
X-2483571Y23345238D01*
X-2412142Y23281428D01*
X-2376428Y23217619D01*
X20546428Y24328809D02*
X20582142Y24424523D01*
X20617857Y24456428D01*
X20689285Y24488333D01*
X20796428Y24488333D01*
X20867857Y24456428D01*
X20903571Y24424523D01*
X20939285Y24360714D01*
X20939285Y24105476D01*
X20189285Y24105476D01*
X20189285Y24328809D01*
X20225000Y24392619D01*
X20260714Y24424523D01*
X20332142Y24456428D01*
X20403571Y24456428D01*
X20475000Y24424523D01*
X20510714Y24392619D01*
X20546428Y24328809D01*
X20546428Y24105476D01*
X20439285Y25062619D02*
X20939285Y25062619D01*
X20153571Y24903095D02*
X20689285Y24743571D01*
X20689285Y25158333D01*
X20153571Y25892142D02*
X21117857Y25317857D01*
X20510714Y26211190D02*
X20475000Y26147380D01*
X20439285Y26115476D01*
X20367857Y26083571D01*
X20332142Y26083571D01*
X20260714Y26115476D01*
X20225000Y26147380D01*
X20189285Y26211190D01*
X20189285Y26338809D01*
X20225000Y26402619D01*
X20260714Y26434523D01*
X20332142Y26466428D01*
X20367857Y26466428D01*
X20439285Y26434523D01*
X20475000Y26402619D01*
X20510714Y26338809D01*
X20510714Y26211190D01*
X20546428Y26147380D01*
X20582142Y26115476D01*
X20653571Y26083571D01*
X20796428Y26083571D01*
X20867857Y26115476D01*
X20903571Y26147380D01*
X20939285Y26211190D01*
X20939285Y26338809D01*
X20903571Y26402619D01*
X20867857Y26434523D01*
X20796428Y26466428D01*
X20653571Y26466428D01*
X20582142Y26434523D01*
X20546428Y26402619D01*
X20510714Y26338809D01*
D11*
X28477619Y15127619D02*
X28144285Y15603809D01*
X27906190Y15127619D02*
X27906190Y16127619D01*
X28287142Y16127619D01*
X28382380Y16080000D01*
X28430000Y16032380D01*
X28477619Y15937142D01*
X28477619Y15794285D01*
X28430000Y15699047D01*
X28382380Y15651428D01*
X28287142Y15603809D01*
X27906190Y15603809D01*
X28906190Y15651428D02*
X29239523Y15651428D01*
X29382380Y15127619D02*
X28906190Y15127619D01*
X28906190Y16127619D01*
X29382380Y16127619D01*
X29763333Y15175238D02*
X29906190Y15127619D01*
X30144285Y15127619D01*
X30239523Y15175238D01*
X30287142Y15222857D01*
X30334761Y15318095D01*
X30334761Y15413333D01*
X30287142Y15508571D01*
X30239523Y15556190D01*
X30144285Y15603809D01*
X29953809Y15651428D01*
X29858571Y15699047D01*
X29810952Y15746666D01*
X29763333Y15841904D01*
X29763333Y15937142D01*
X29810952Y16032380D01*
X29858571Y16080000D01*
X29953809Y16127619D01*
X30191904Y16127619D01*
X30334761Y16080000D01*
X30763333Y15651428D02*
X31096666Y15651428D01*
X31239523Y15127619D02*
X30763333Y15127619D01*
X30763333Y16127619D01*
X31239523Y16127619D01*
X31525238Y16127619D02*
X32096666Y16127619D01*
X31810952Y15127619D02*
X31810952Y16127619D01*
X82518781Y10306903D02*
X82491844Y10387715D01*
X82411032Y10468528D01*
X82303282Y10522402D01*
X82195532Y10522402D01*
X82114720Y10495465D01*
X81980033Y10414653D01*
X81899221Y10333841D01*
X81818409Y10199154D01*
X81791471Y10118341D01*
X81791471Y10010592D01*
X81845346Y9902842D01*
X81899221Y9848967D01*
X82006971Y9795093D01*
X82060845Y9795093D01*
X82249407Y9983654D01*
X82141658Y10091404D01*
X82249407Y9498781D02*
X82815093Y10064467D01*
X83030592Y9848967D01*
X83057529Y9768155D01*
X83057529Y9714280D01*
X83030592Y9633468D01*
X82949780Y9552656D01*
X82868967Y9525719D01*
X82815093Y9525719D01*
X82734280Y9552656D01*
X82518781Y9768155D01*
X83111404Y8636784D02*
X82788155Y8960033D01*
X82949780Y8798409D02*
X83515465Y9364094D01*
X83380778Y9337157D01*
X83273028Y9337157D01*
X83192216Y9364094D01*
X77428781Y10306903D02*
X77401844Y10387715D01*
X77321032Y10468528D01*
X77213282Y10522402D01*
X77105532Y10522402D01*
X77024720Y10495465D01*
X76890033Y10414653D01*
X76809221Y10333841D01*
X76728409Y10199154D01*
X76701471Y10118341D01*
X76701471Y10010592D01*
X76755346Y9902842D01*
X76809221Y9848967D01*
X76916971Y9795093D01*
X76970845Y9795093D01*
X77159407Y9983654D01*
X77051658Y10091404D01*
X77159407Y9498781D02*
X77725093Y10064467D01*
X77940592Y9848967D01*
X77967529Y9768155D01*
X77967529Y9714280D01*
X77940592Y9633468D01*
X77859780Y9552656D01*
X77778967Y9525719D01*
X77725093Y9525719D01*
X77644280Y9552656D01*
X77428781Y9768155D01*
X78209966Y9471844D02*
X78263841Y9471844D01*
X78344653Y9444906D01*
X78479340Y9310219D01*
X78506277Y9229407D01*
X78506277Y9175532D01*
X78479340Y9094720D01*
X78425465Y9040845D01*
X78317715Y8986971D01*
X77671218Y8986971D01*
X78021404Y8636784D01*
X85048781Y10406903D02*
X85021844Y10487715D01*
X84941032Y10568528D01*
X84833282Y10622402D01*
X84725532Y10622402D01*
X84644720Y10595465D01*
X84510033Y10514653D01*
X84429221Y10433841D01*
X84348409Y10299154D01*
X84321471Y10218341D01*
X84321471Y10110592D01*
X84375346Y10002842D01*
X84429221Y9948967D01*
X84536971Y9895093D01*
X84590845Y9895093D01*
X84779407Y10083654D01*
X84671658Y10191404D01*
X84779407Y9598781D02*
X85345093Y10164467D01*
X85560592Y9948967D01*
X85587529Y9868155D01*
X85587529Y9814280D01*
X85560592Y9733468D01*
X85479780Y9652656D01*
X85398967Y9625719D01*
X85345093Y9625719D01*
X85264280Y9652656D01*
X85048781Y9868155D01*
X86018528Y9491032D02*
X86072402Y9437157D01*
X86099340Y9356345D01*
X86099340Y9302470D01*
X86072402Y9221658D01*
X85991590Y9086971D01*
X85856903Y8952284D01*
X85722216Y8871471D01*
X85641404Y8844534D01*
X85587529Y8844534D01*
X85506717Y8871471D01*
X85452842Y8925346D01*
X85425905Y9006158D01*
X85425905Y9060033D01*
X85452842Y9140845D01*
X85533654Y9275532D01*
X85668341Y9410219D01*
X85803028Y9491032D01*
X85883841Y9517969D01*
X85937715Y9517969D01*
X86018528Y9491032D01*
X74888781Y10406903D02*
X74861844Y10487715D01*
X74781032Y10568528D01*
X74673282Y10622402D01*
X74565532Y10622402D01*
X74484720Y10595465D01*
X74350033Y10514653D01*
X74269221Y10433841D01*
X74188409Y10299154D01*
X74161471Y10218341D01*
X74161471Y10110592D01*
X74215346Y10002842D01*
X74269221Y9948967D01*
X74376971Y9895093D01*
X74430845Y9895093D01*
X74619407Y10083654D01*
X74511658Y10191404D01*
X74619407Y9598781D02*
X75185093Y10164467D01*
X75400592Y9948967D01*
X75427529Y9868155D01*
X75427529Y9814280D01*
X75400592Y9733468D01*
X75319780Y9652656D01*
X75238967Y9625719D01*
X75185093Y9625719D01*
X75104280Y9652656D01*
X74888781Y9868155D01*
X75696903Y9652656D02*
X76047089Y9302470D01*
X75643028Y9275532D01*
X75723841Y9194720D01*
X75750778Y9113908D01*
X75750778Y9060033D01*
X75723841Y8979221D01*
X75589154Y8844534D01*
X75508341Y8817597D01*
X75454467Y8817597D01*
X75373654Y8844534D01*
X75212030Y9006158D01*
X75185093Y9086971D01*
X75185093Y9140845D01*
X72348781Y10406903D02*
X72321844Y10487715D01*
X72241032Y10568528D01*
X72133282Y10622402D01*
X72025532Y10622402D01*
X71944720Y10595465D01*
X71810033Y10514653D01*
X71729221Y10433841D01*
X71648409Y10299154D01*
X71621471Y10218341D01*
X71621471Y10110592D01*
X71675346Y10002842D01*
X71729221Y9948967D01*
X71836971Y9895093D01*
X71890845Y9895093D01*
X72079407Y10083654D01*
X71971658Y10191404D01*
X72079407Y9598781D02*
X72645093Y10164467D01*
X72860592Y9948967D01*
X72887529Y9868155D01*
X72887529Y9814280D01*
X72860592Y9733468D01*
X72779780Y9652656D01*
X72698967Y9625719D01*
X72645093Y9625719D01*
X72564280Y9652656D01*
X72348781Y9868155D01*
X73264653Y9167783D02*
X72887529Y8790659D01*
X73345465Y9517969D02*
X72806717Y9248595D01*
X73156903Y8898409D01*
X69808781Y10406903D02*
X69781844Y10487715D01*
X69701032Y10568528D01*
X69593282Y10622402D01*
X69485532Y10622402D01*
X69404720Y10595465D01*
X69270033Y10514653D01*
X69189221Y10433841D01*
X69108409Y10299154D01*
X69081471Y10218341D01*
X69081471Y10110592D01*
X69135346Y10002842D01*
X69189221Y9948967D01*
X69296971Y9895093D01*
X69350845Y9895093D01*
X69539407Y10083654D01*
X69431658Y10191404D01*
X69539407Y9598781D02*
X70105093Y10164467D01*
X70320592Y9948967D01*
X70347529Y9868155D01*
X70347529Y9814280D01*
X70320592Y9733468D01*
X70239780Y9652656D01*
X70158967Y9625719D01*
X70105093Y9625719D01*
X70024280Y9652656D01*
X69808781Y9868155D01*
X70940152Y9329407D02*
X70670778Y9598781D01*
X70374467Y9356345D01*
X70428341Y9356345D01*
X70509154Y9329407D01*
X70643841Y9194720D01*
X70670778Y9113908D01*
X70670778Y9060033D01*
X70643841Y8979221D01*
X70509154Y8844534D01*
X70428341Y8817597D01*
X70374467Y8817597D01*
X70293654Y8844534D01*
X70158967Y8979221D01*
X70132030Y9060033D01*
X70132030Y9113908D01*
X64048781Y15266903D02*
X64021844Y15347715D01*
X63941032Y15428528D01*
X63833282Y15482402D01*
X63725532Y15482402D01*
X63644720Y15455465D01*
X63510033Y15374653D01*
X63429221Y15293841D01*
X63348409Y15159154D01*
X63321471Y15078341D01*
X63321471Y14970592D01*
X63375346Y14862842D01*
X63429221Y14808967D01*
X63536971Y14755093D01*
X63590845Y14755093D01*
X63779407Y14943654D01*
X63671658Y15051404D01*
X63779407Y14458781D02*
X64345093Y15024467D01*
X64560592Y14808967D01*
X64587529Y14728155D01*
X64587529Y14674280D01*
X64560592Y14593468D01*
X64479780Y14512656D01*
X64398967Y14485719D01*
X64345093Y14485719D01*
X64264280Y14512656D01*
X64048781Y14728155D01*
X65153215Y14216345D02*
X65045465Y14324094D01*
X64964653Y14351032D01*
X64910778Y14351032D01*
X64776091Y14324094D01*
X64641404Y14243282D01*
X64425905Y14027783D01*
X64398967Y13946971D01*
X64398967Y13893096D01*
X64425905Y13812284D01*
X64533654Y13704534D01*
X64614467Y13677597D01*
X64668341Y13677597D01*
X64749154Y13704534D01*
X64883841Y13839221D01*
X64910778Y13920033D01*
X64910778Y13973908D01*
X64883841Y14054720D01*
X64776091Y14162470D01*
X64695279Y14189407D01*
X64641404Y14189407D01*
X64560592Y14162470D01*
X61538781Y15366903D02*
X61511844Y15447715D01*
X61431032Y15528528D01*
X61323282Y15582402D01*
X61215532Y15582402D01*
X61134720Y15555465D01*
X61000033Y15474653D01*
X60919221Y15393841D01*
X60838409Y15259154D01*
X60811471Y15178341D01*
X60811471Y15070592D01*
X60865346Y14962842D01*
X60919221Y14908967D01*
X61026971Y14855093D01*
X61080845Y14855093D01*
X61269407Y15043654D01*
X61161658Y15151404D01*
X61269407Y14558781D02*
X61835093Y15124467D01*
X62050592Y14908967D01*
X62077529Y14828155D01*
X62077529Y14774280D01*
X62050592Y14693468D01*
X61969780Y14612656D01*
X61888967Y14585719D01*
X61835093Y14585719D01*
X61754280Y14612656D01*
X61538781Y14828155D01*
X62346903Y14612656D02*
X62724027Y14235532D01*
X61915905Y13912284D01*
X58968781Y15266903D02*
X58941844Y15347715D01*
X58861032Y15428528D01*
X58753282Y15482402D01*
X58645532Y15482402D01*
X58564720Y15455465D01*
X58430033Y15374653D01*
X58349221Y15293841D01*
X58268409Y15159154D01*
X58241471Y15078341D01*
X58241471Y14970592D01*
X58295346Y14862842D01*
X58349221Y14808967D01*
X58456971Y14755093D01*
X58510845Y14755093D01*
X58699407Y14943654D01*
X58591658Y15051404D01*
X58699407Y14458781D02*
X59265093Y15024467D01*
X59480592Y14808967D01*
X59507529Y14728155D01*
X59507529Y14674280D01*
X59480592Y14593468D01*
X59399780Y14512656D01*
X59318967Y14485719D01*
X59265093Y14485719D01*
X59184280Y14512656D01*
X58968781Y14728155D01*
X59669154Y14135532D02*
X59642216Y14216345D01*
X59642216Y14270219D01*
X59669154Y14351032D01*
X59696091Y14377969D01*
X59776903Y14404906D01*
X59830778Y14404906D01*
X59911590Y14377969D01*
X60019340Y14270219D01*
X60046277Y14189407D01*
X60046277Y14135532D01*
X60019340Y14054720D01*
X59992402Y14027783D01*
X59911590Y14000845D01*
X59857715Y14000845D01*
X59776903Y14027783D01*
X59669154Y14135532D01*
X59588341Y14162470D01*
X59534467Y14162470D01*
X59453654Y14135532D01*
X59345905Y14027783D01*
X59318967Y13946971D01*
X59318967Y13893096D01*
X59345905Y13812284D01*
X59453654Y13704534D01*
X59534467Y13677597D01*
X59588341Y13677597D01*
X59669154Y13704534D01*
X59776903Y13812284D01*
X59803841Y13893096D01*
X59803841Y13946971D01*
X59776903Y14027783D01*
X56428781Y15266903D02*
X56401844Y15347715D01*
X56321032Y15428528D01*
X56213282Y15482402D01*
X56105532Y15482402D01*
X56024720Y15455465D01*
X55890033Y15374653D01*
X55809221Y15293841D01*
X55728409Y15159154D01*
X55701471Y15078341D01*
X55701471Y14970592D01*
X55755346Y14862842D01*
X55809221Y14808967D01*
X55916971Y14755093D01*
X55970845Y14755093D01*
X56159407Y14943654D01*
X56051658Y15051404D01*
X56159407Y14458781D02*
X56725093Y15024467D01*
X56940592Y14808967D01*
X56967529Y14728155D01*
X56967529Y14674280D01*
X56940592Y14593468D01*
X56859780Y14512656D01*
X56778967Y14485719D01*
X56725093Y14485719D01*
X56644280Y14512656D01*
X56428781Y14728155D01*
X56752030Y13866158D02*
X56859780Y13758409D01*
X56940592Y13731471D01*
X56994467Y13731471D01*
X57129154Y13758409D01*
X57263841Y13839221D01*
X57479340Y14054720D01*
X57506277Y14135532D01*
X57506277Y14189407D01*
X57479340Y14270219D01*
X57371590Y14377969D01*
X57290778Y14404906D01*
X57236903Y14404906D01*
X57156091Y14377969D01*
X57021404Y14243282D01*
X56994467Y14162470D01*
X56994467Y14108595D01*
X57021404Y14027783D01*
X57129154Y13920033D01*
X57209966Y13893096D01*
X57263841Y13893096D01*
X57344653Y13920033D01*
X51079407Y15282277D02*
X51052470Y15363089D01*
X50971658Y15443902D01*
X50863908Y15497776D01*
X50756158Y15497776D01*
X50675346Y15470839D01*
X50540659Y15390027D01*
X50459847Y15309215D01*
X50379035Y15174528D01*
X50352097Y15093715D01*
X50352097Y14985966D01*
X50405972Y14878216D01*
X50459847Y14824341D01*
X50567597Y14770467D01*
X50621471Y14770467D01*
X50810033Y14959028D01*
X50702284Y15066778D01*
X50810033Y14474155D02*
X51375719Y15039841D01*
X51591218Y14824341D01*
X51618155Y14743529D01*
X51618155Y14689654D01*
X51591218Y14608842D01*
X51510406Y14528030D01*
X51429593Y14501093D01*
X51375719Y14501093D01*
X51294906Y14528030D01*
X51079407Y14743529D01*
X51672030Y13612158D02*
X51348781Y13935407D01*
X51510406Y13773783D02*
X52076091Y14339468D01*
X51941404Y14312531D01*
X51833654Y14312531D01*
X51752842Y14339468D01*
X52587902Y13827658D02*
X52641776Y13773783D01*
X52668714Y13692971D01*
X52668714Y13639096D01*
X52641776Y13558284D01*
X52560964Y13423597D01*
X52426277Y13288910D01*
X52291590Y13208097D01*
X52210778Y13181160D01*
X52156903Y13181160D01*
X52076091Y13208097D01*
X52022216Y13261972D01*
X51995279Y13342784D01*
X51995279Y13396659D01*
X52022216Y13477471D01*
X52103028Y13612158D01*
X52237715Y13746845D01*
X52372402Y13827658D01*
X52453215Y13854595D01*
X52507089Y13854595D01*
X52587902Y13827658D01*
X48539407Y15136277D02*
X48512470Y15217089D01*
X48431658Y15297902D01*
X48323908Y15351776D01*
X48216158Y15351776D01*
X48135346Y15324839D01*
X48000659Y15244027D01*
X47919847Y15163215D01*
X47839035Y15028528D01*
X47812097Y14947715D01*
X47812097Y14839966D01*
X47865972Y14732216D01*
X47919847Y14678341D01*
X48027597Y14624467D01*
X48081471Y14624467D01*
X48270033Y14813028D01*
X48162284Y14920778D01*
X48270033Y14328155D02*
X48835719Y14893841D01*
X49051218Y14678341D01*
X49078155Y14597529D01*
X49078155Y14543654D01*
X49051218Y14462842D01*
X48970406Y14382030D01*
X48889593Y14355093D01*
X48835719Y14355093D01*
X48754906Y14382030D01*
X48539407Y14597529D01*
X49132030Y13466158D02*
X48808781Y13789407D01*
X48970406Y13627783D02*
X49536091Y14193468D01*
X49401404Y14166531D01*
X49293654Y14166531D01*
X49212842Y14193468D01*
X49670778Y12927410D02*
X49347529Y13250659D01*
X49509154Y13089035D02*
X50074839Y13654720D01*
X49940152Y13627783D01*
X49832402Y13627783D01*
X49751590Y13654720D01*
X45999407Y15136277D02*
X45972470Y15217089D01*
X45891658Y15297902D01*
X45783908Y15351776D01*
X45676158Y15351776D01*
X45595346Y15324839D01*
X45460659Y15244027D01*
X45379847Y15163215D01*
X45299035Y15028528D01*
X45272097Y14947715D01*
X45272097Y14839966D01*
X45325972Y14732216D01*
X45379847Y14678341D01*
X45487597Y14624467D01*
X45541471Y14624467D01*
X45730033Y14813028D01*
X45622284Y14920778D01*
X45730033Y14328155D02*
X46295719Y14893841D01*
X46511218Y14678341D01*
X46538155Y14597529D01*
X46538155Y14543654D01*
X46511218Y14462842D01*
X46430406Y14382030D01*
X46349593Y14355093D01*
X46295719Y14355093D01*
X46214906Y14382030D01*
X45999407Y14597529D01*
X46592030Y13466158D02*
X46268781Y13789407D01*
X46430406Y13627783D02*
X46996091Y14193468D01*
X46861404Y14166531D01*
X46753654Y14166531D01*
X46672842Y14193468D01*
X47319340Y13762470D02*
X47373215Y13762470D01*
X47454027Y13735532D01*
X47588714Y13600845D01*
X47615651Y13520033D01*
X47615651Y13466158D01*
X47588714Y13385346D01*
X47534839Y13331471D01*
X47427089Y13277597D01*
X46780592Y13277597D01*
X47130778Y12927410D01*
X43459407Y15282277D02*
X43432470Y15363089D01*
X43351658Y15443902D01*
X43243908Y15497776D01*
X43136158Y15497776D01*
X43055346Y15470839D01*
X42920659Y15390027D01*
X42839847Y15309215D01*
X42759035Y15174528D01*
X42732097Y15093715D01*
X42732097Y14985966D01*
X42785972Y14878216D01*
X42839847Y14824341D01*
X42947597Y14770467D01*
X43001471Y14770467D01*
X43190033Y14959028D01*
X43082284Y15066778D01*
X43190033Y14474155D02*
X43755719Y15039841D01*
X43971218Y14824341D01*
X43998155Y14743529D01*
X43998155Y14689654D01*
X43971218Y14608842D01*
X43890406Y14528030D01*
X43809593Y14501093D01*
X43755719Y14501093D01*
X43674906Y14528030D01*
X43459407Y14743529D01*
X44052030Y13612158D02*
X43728781Y13935407D01*
X43890406Y13773783D02*
X44456091Y14339468D01*
X44321404Y14312531D01*
X44213654Y14312531D01*
X44132842Y14339468D01*
X44806277Y13989282D02*
X45156463Y13639096D01*
X44752402Y13612158D01*
X44833215Y13531346D01*
X44860152Y13450534D01*
X44860152Y13396659D01*
X44833215Y13315847D01*
X44698528Y13181160D01*
X44617715Y13154223D01*
X44563841Y13154223D01*
X44483028Y13181160D01*
X44321404Y13342784D01*
X44294467Y13423597D01*
X44294467Y13477471D01*
X38379407Y15236277D02*
X38352470Y15317089D01*
X38271658Y15397902D01*
X38163908Y15451776D01*
X38056158Y15451776D01*
X37975346Y15424839D01*
X37840659Y15344027D01*
X37759847Y15263215D01*
X37679035Y15128528D01*
X37652097Y15047715D01*
X37652097Y14939966D01*
X37705972Y14832216D01*
X37759847Y14778341D01*
X37867597Y14724467D01*
X37921471Y14724467D01*
X38110033Y14913028D01*
X38002284Y15020778D01*
X38110033Y14428155D02*
X38675719Y14993841D01*
X38891218Y14778341D01*
X38918155Y14697529D01*
X38918155Y14643654D01*
X38891218Y14562842D01*
X38810406Y14482030D01*
X38729593Y14455093D01*
X38675719Y14455093D01*
X38594906Y14482030D01*
X38379407Y14697529D01*
X38972030Y13566158D02*
X38648781Y13889407D01*
X38810406Y13727783D02*
X39376091Y14293468D01*
X39241404Y14266531D01*
X39133654Y14266531D01*
X39052842Y14293468D01*
X39834027Y13458409D02*
X39456903Y13081285D01*
X39914839Y13808595D02*
X39376091Y13539221D01*
X39726277Y13189035D01*
X35839407Y15282277D02*
X35812470Y15363089D01*
X35731658Y15443902D01*
X35623908Y15497776D01*
X35516158Y15497776D01*
X35435346Y15470839D01*
X35300659Y15390027D01*
X35219847Y15309215D01*
X35139035Y15174528D01*
X35112097Y15093715D01*
X35112097Y14985966D01*
X35165972Y14878216D01*
X35219847Y14824341D01*
X35327597Y14770467D01*
X35381471Y14770467D01*
X35570033Y14959028D01*
X35462284Y15066778D01*
X35570033Y14474155D02*
X36135719Y15039841D01*
X36351218Y14824341D01*
X36378155Y14743529D01*
X36378155Y14689654D01*
X36351218Y14608842D01*
X36270406Y14528030D01*
X36189593Y14501093D01*
X36135719Y14501093D01*
X36054906Y14528030D01*
X35839407Y14743529D01*
X36432030Y13612158D02*
X36108781Y13935407D01*
X36270406Y13773783D02*
X36836091Y14339468D01*
X36701404Y14312531D01*
X36593654Y14312531D01*
X36512842Y14339468D01*
X37509526Y13666033D02*
X37240152Y13935407D01*
X36943841Y13692971D01*
X36997715Y13692971D01*
X37078528Y13666033D01*
X37213215Y13531346D01*
X37240152Y13450534D01*
X37240152Y13396659D01*
X37213215Y13315847D01*
X37078528Y13181160D01*
X36997715Y13154223D01*
X36943841Y13154223D01*
X36863028Y13181160D01*
X36728341Y13315847D01*
X36701404Y13396659D01*
X36701404Y13450534D01*
X36729407Y27986277D02*
X36702470Y28067089D01*
X36621658Y28147902D01*
X36513908Y28201776D01*
X36406158Y28201776D01*
X36325346Y28174839D01*
X36190659Y28094027D01*
X36109847Y28013215D01*
X36029035Y27878528D01*
X36002097Y27797715D01*
X36002097Y27689966D01*
X36055972Y27582216D01*
X36109847Y27528341D01*
X36217597Y27474467D01*
X36271471Y27474467D01*
X36460033Y27663028D01*
X36352284Y27770778D01*
X36460033Y27178155D02*
X37025719Y27743841D01*
X37241218Y27528341D01*
X37268155Y27447529D01*
X37268155Y27393654D01*
X37241218Y27312842D01*
X37160406Y27232030D01*
X37079593Y27205093D01*
X37025719Y27205093D01*
X36944906Y27232030D01*
X36729407Y27447529D01*
X37322030Y26316158D02*
X36998781Y26639407D01*
X37160406Y26477783D02*
X37726091Y27043468D01*
X37591404Y27016531D01*
X37483654Y27016531D01*
X37402842Y27043468D01*
X38372589Y26396971D02*
X38264839Y26504720D01*
X38184027Y26531658D01*
X38130152Y26531658D01*
X37995465Y26504720D01*
X37860778Y26423908D01*
X37645279Y26208409D01*
X37618341Y26127597D01*
X37618341Y26073722D01*
X37645279Y25992910D01*
X37753028Y25885160D01*
X37833841Y25858223D01*
X37887715Y25858223D01*
X37968528Y25885160D01*
X38103215Y26019847D01*
X38130152Y26100659D01*
X38130152Y26154534D01*
X38103215Y26235346D01*
X37995465Y26343096D01*
X37914653Y26370033D01*
X37860778Y26370033D01*
X37779966Y26343096D01*
X38939407Y28196277D02*
X38912470Y28277089D01*
X38831658Y28357902D01*
X38723908Y28411776D01*
X38616158Y28411776D01*
X38535346Y28384839D01*
X38400659Y28304027D01*
X38319847Y28223215D01*
X38239035Y28088528D01*
X38212097Y28007715D01*
X38212097Y27899966D01*
X38265972Y27792216D01*
X38319847Y27738341D01*
X38427597Y27684467D01*
X38481471Y27684467D01*
X38670033Y27873028D01*
X38562284Y27980778D01*
X38670033Y27388155D02*
X39235719Y27953841D01*
X39451218Y27738341D01*
X39478155Y27657529D01*
X39478155Y27603654D01*
X39451218Y27522842D01*
X39370406Y27442030D01*
X39289593Y27415093D01*
X39235719Y27415093D01*
X39154906Y27442030D01*
X38939407Y27657529D01*
X39532030Y26526158D02*
X39208781Y26849407D01*
X39370406Y26687783D02*
X39936091Y27253468D01*
X39801404Y27226531D01*
X39693654Y27226531D01*
X39612842Y27253468D01*
X40286277Y26903282D02*
X40663401Y26526158D01*
X39855279Y26202910D01*
X44269407Y28276277D02*
X44242470Y28357089D01*
X44161658Y28437902D01*
X44053908Y28491776D01*
X43946158Y28491776D01*
X43865346Y28464839D01*
X43730659Y28384027D01*
X43649847Y28303215D01*
X43569035Y28168528D01*
X43542097Y28087715D01*
X43542097Y27979966D01*
X43595972Y27872216D01*
X43649847Y27818341D01*
X43757597Y27764467D01*
X43811471Y27764467D01*
X44000033Y27953028D01*
X43892284Y28060778D01*
X44000033Y27468155D02*
X44565719Y28033841D01*
X44781218Y27818341D01*
X44808155Y27737529D01*
X44808155Y27683654D01*
X44781218Y27602842D01*
X44700406Y27522030D01*
X44619593Y27495093D01*
X44565719Y27495093D01*
X44484906Y27522030D01*
X44269407Y27737529D01*
X44862030Y26606158D02*
X44538781Y26929407D01*
X44700406Y26767783D02*
X45266091Y27333468D01*
X45131404Y27306531D01*
X45023654Y27306531D01*
X44942842Y27333468D01*
X45508528Y26606158D02*
X45481590Y26686971D01*
X45481590Y26740845D01*
X45508528Y26821658D01*
X45535465Y26848595D01*
X45616277Y26875532D01*
X45670152Y26875532D01*
X45750964Y26848595D01*
X45858714Y26740845D01*
X45885651Y26660033D01*
X45885651Y26606158D01*
X45858714Y26525346D01*
X45831776Y26498409D01*
X45750964Y26471471D01*
X45697089Y26471471D01*
X45616277Y26498409D01*
X45508528Y26606158D01*
X45427715Y26633096D01*
X45373841Y26633096D01*
X45293028Y26606158D01*
X45185279Y26498409D01*
X45158341Y26417597D01*
X45158341Y26363722D01*
X45185279Y26282910D01*
X45293028Y26175160D01*
X45373841Y26148223D01*
X45427715Y26148223D01*
X45508528Y26175160D01*
X45616277Y26282910D01*
X45643215Y26363722D01*
X45643215Y26417597D01*
X45616277Y26498409D01*
X46759407Y28126277D02*
X46732470Y28207089D01*
X46651658Y28287902D01*
X46543908Y28341776D01*
X46436158Y28341776D01*
X46355346Y28314839D01*
X46220659Y28234027D01*
X46139847Y28153215D01*
X46059035Y28018528D01*
X46032097Y27937715D01*
X46032097Y27829966D01*
X46085972Y27722216D01*
X46139847Y27668341D01*
X46247597Y27614467D01*
X46301471Y27614467D01*
X46490033Y27803028D01*
X46382284Y27910778D01*
X46490033Y27318155D02*
X47055719Y27883841D01*
X47271218Y27668341D01*
X47298155Y27587529D01*
X47298155Y27533654D01*
X47271218Y27452842D01*
X47190406Y27372030D01*
X47109593Y27345093D01*
X47055719Y27345093D01*
X46974906Y27372030D01*
X46759407Y27587529D01*
X47352030Y26456158D02*
X47028781Y26779407D01*
X47190406Y26617783D02*
X47756091Y27183468D01*
X47621404Y27156531D01*
X47513654Y27156531D01*
X47432842Y27183468D01*
X47621404Y26186784D02*
X47729154Y26079035D01*
X47809966Y26052097D01*
X47863841Y26052097D01*
X47998528Y26079035D01*
X48133215Y26159847D01*
X48348714Y26375346D01*
X48375651Y26456158D01*
X48375651Y26510033D01*
X48348714Y26590845D01*
X48240964Y26698595D01*
X48160152Y26725532D01*
X48106277Y26725532D01*
X48025465Y26698595D01*
X47890778Y26563908D01*
X47863841Y26483096D01*
X47863841Y26429221D01*
X47890778Y26348409D01*
X47998528Y26240659D01*
X48079340Y26213722D01*
X48133215Y26213722D01*
X48214027Y26240659D01*
X49389407Y28276277D02*
X49362470Y28357089D01*
X49281658Y28437902D01*
X49173908Y28491776D01*
X49066158Y28491776D01*
X48985346Y28464839D01*
X48850659Y28384027D01*
X48769847Y28303215D01*
X48689035Y28168528D01*
X48662097Y28087715D01*
X48662097Y27979966D01*
X48715972Y27872216D01*
X48769847Y27818341D01*
X48877597Y27764467D01*
X48931471Y27764467D01*
X49120033Y27953028D01*
X49012284Y28060778D01*
X49120033Y27468155D02*
X49685719Y28033841D01*
X49901218Y27818341D01*
X49928155Y27737529D01*
X49928155Y27683654D01*
X49901218Y27602842D01*
X49820406Y27522030D01*
X49739593Y27495093D01*
X49685719Y27495093D01*
X49604906Y27522030D01*
X49389407Y27737529D01*
X50170592Y27441218D02*
X50224467Y27441218D01*
X50305279Y27414280D01*
X50439966Y27279593D01*
X50466903Y27198781D01*
X50466903Y27144906D01*
X50439966Y27064094D01*
X50386091Y27010219D01*
X50278341Y26956345D01*
X49631844Y26956345D01*
X49982030Y26606158D01*
X50897902Y26821658D02*
X50951776Y26767783D01*
X50978714Y26686971D01*
X50978714Y26633096D01*
X50951776Y26552284D01*
X50870964Y26417597D01*
X50736277Y26282910D01*
X50601590Y26202097D01*
X50520778Y26175160D01*
X50466903Y26175160D01*
X50386091Y26202097D01*
X50332216Y26255972D01*
X50305279Y26336784D01*
X50305279Y26390659D01*
X50332216Y26471471D01*
X50413028Y26606158D01*
X50547715Y26740845D01*
X50682402Y26821658D01*
X50763215Y26848595D01*
X50817089Y26848595D01*
X50897902Y26821658D01*
X51989407Y28160277D02*
X51962470Y28241089D01*
X51881658Y28321902D01*
X51773908Y28375776D01*
X51666158Y28375776D01*
X51585346Y28348839D01*
X51450659Y28268027D01*
X51369847Y28187215D01*
X51289035Y28052528D01*
X51262097Y27971715D01*
X51262097Y27863966D01*
X51315972Y27756216D01*
X51369847Y27702341D01*
X51477597Y27648467D01*
X51531471Y27648467D01*
X51720033Y27837028D01*
X51612284Y27944778D01*
X51720033Y27352155D02*
X52285719Y27917841D01*
X52501218Y27702341D01*
X52528155Y27621529D01*
X52528155Y27567654D01*
X52501218Y27486842D01*
X52420406Y27406030D01*
X52339593Y27379093D01*
X52285719Y27379093D01*
X52204906Y27406030D01*
X51989407Y27621529D01*
X52770592Y27325218D02*
X52824467Y27325218D01*
X52905279Y27298280D01*
X53039966Y27163593D01*
X53066903Y27082781D01*
X53066903Y27028906D01*
X53039966Y26948094D01*
X52986091Y26894219D01*
X52878341Y26840345D01*
X52231844Y26840345D01*
X52582030Y26490158D01*
X53120778Y25951410D02*
X52797529Y26274659D01*
X52959154Y26113035D02*
X53524839Y26678720D01*
X53390152Y26651783D01*
X53282402Y26651783D01*
X53201590Y26678720D01*
X57079407Y28160277D02*
X57052470Y28241089D01*
X56971658Y28321902D01*
X56863908Y28375776D01*
X56756158Y28375776D01*
X56675346Y28348839D01*
X56540659Y28268027D01*
X56459847Y28187215D01*
X56379035Y28052528D01*
X56352097Y27971715D01*
X56352097Y27863966D01*
X56405972Y27756216D01*
X56459847Y27702341D01*
X56567597Y27648467D01*
X56621471Y27648467D01*
X56810033Y27837028D01*
X56702284Y27944778D01*
X56810033Y27352155D02*
X57375719Y27917841D01*
X57591218Y27702341D01*
X57618155Y27621529D01*
X57618155Y27567654D01*
X57591218Y27486842D01*
X57510406Y27406030D01*
X57429593Y27379093D01*
X57375719Y27379093D01*
X57294906Y27406030D01*
X57079407Y27621529D01*
X57860592Y27325218D02*
X57914467Y27325218D01*
X57995279Y27298280D01*
X58129966Y27163593D01*
X58156903Y27082781D01*
X58156903Y27028906D01*
X58129966Y26948094D01*
X58076091Y26894219D01*
X57968341Y26840345D01*
X57321844Y26840345D01*
X57672030Y26490158D01*
X58399340Y26786470D02*
X58453215Y26786470D01*
X58534027Y26759532D01*
X58668714Y26624845D01*
X58695651Y26544033D01*
X58695651Y26490158D01*
X58668714Y26409346D01*
X58614839Y26355471D01*
X58507089Y26301597D01*
X57860592Y26301597D01*
X58210778Y25951410D01*
X59336564Y27311624D02*
X59417377Y27769560D01*
X59013316Y27634873D02*
X59579001Y28200558D01*
X59794500Y27985059D01*
X59821438Y27904247D01*
X59821438Y27850372D01*
X59794500Y27769560D01*
X59713688Y27688748D01*
X59632876Y27661810D01*
X59579001Y27661810D01*
X59498189Y27688748D01*
X59282690Y27904247D01*
X60144687Y27634873D02*
X59686751Y27176937D01*
X59659813Y27096125D01*
X59659813Y27042250D01*
X59686751Y26961438D01*
X59794500Y26853688D01*
X59875312Y26826751D01*
X59929187Y26826751D01*
X60010000Y26853688D01*
X60467935Y27311624D01*
X60171624Y26476564D02*
X60737309Y27042250D01*
X60494873Y26153316D01*
X61060558Y26719001D01*
X62159407Y28160277D02*
X62132470Y28241089D01*
X62051658Y28321902D01*
X61943908Y28375776D01*
X61836158Y28375776D01*
X61755346Y28348839D01*
X61620659Y28268027D01*
X61539847Y28187215D01*
X61459035Y28052528D01*
X61432097Y27971715D01*
X61432097Y27863966D01*
X61485972Y27756216D01*
X61539847Y27702341D01*
X61647597Y27648467D01*
X61701471Y27648467D01*
X61890033Y27837028D01*
X61782284Y27944778D01*
X61890033Y27352155D02*
X62455719Y27917841D01*
X62671218Y27702341D01*
X62698155Y27621529D01*
X62698155Y27567654D01*
X62671218Y27486842D01*
X62590406Y27406030D01*
X62509593Y27379093D01*
X62455719Y27379093D01*
X62374906Y27406030D01*
X62159407Y27621529D01*
X62940592Y27325218D02*
X62994467Y27325218D01*
X63075279Y27298280D01*
X63209966Y27163593D01*
X63236903Y27082781D01*
X63236903Y27028906D01*
X63209966Y26948094D01*
X63156091Y26894219D01*
X63048341Y26840345D01*
X62401844Y26840345D01*
X62752030Y26490158D01*
X63802589Y26570971D02*
X63694839Y26678720D01*
X63614027Y26705658D01*
X63560152Y26705658D01*
X63425465Y26678720D01*
X63290778Y26597908D01*
X63075279Y26382409D01*
X63048341Y26301597D01*
X63048341Y26247722D01*
X63075279Y26166910D01*
X63183028Y26059160D01*
X63263841Y26032223D01*
X63317715Y26032223D01*
X63398528Y26059160D01*
X63533215Y26193847D01*
X63560152Y26274659D01*
X63560152Y26328534D01*
X63533215Y26409346D01*
X63425465Y26517096D01*
X63344653Y26544033D01*
X63290778Y26544033D01*
X63209966Y26517096D01*
X64689407Y28160277D02*
X64662470Y28241089D01*
X64581658Y28321902D01*
X64473908Y28375776D01*
X64366158Y28375776D01*
X64285346Y28348839D01*
X64150659Y28268027D01*
X64069847Y28187215D01*
X63989035Y28052528D01*
X63962097Y27971715D01*
X63962097Y27863966D01*
X64015972Y27756216D01*
X64069847Y27702341D01*
X64177597Y27648467D01*
X64231471Y27648467D01*
X64420033Y27837028D01*
X64312284Y27944778D01*
X64420033Y27352155D02*
X64985719Y27917841D01*
X65201218Y27702341D01*
X65228155Y27621529D01*
X65228155Y27567654D01*
X65201218Y27486842D01*
X65120406Y27406030D01*
X65039593Y27379093D01*
X64985719Y27379093D01*
X64904906Y27406030D01*
X64689407Y27621529D01*
X65470592Y27325218D02*
X65524467Y27325218D01*
X65605279Y27298280D01*
X65739966Y27163593D01*
X65766903Y27082781D01*
X65766903Y27028906D01*
X65739966Y26948094D01*
X65686091Y26894219D01*
X65578341Y26840345D01*
X64931844Y26840345D01*
X65282030Y26490158D01*
X66036277Y26867282D02*
X66413401Y26490158D01*
X65605279Y26166910D01*
X68839407Y32836277D02*
X68812470Y32917089D01*
X68731658Y32997902D01*
X68623908Y33051776D01*
X68516158Y33051776D01*
X68435346Y33024839D01*
X68300659Y32944027D01*
X68219847Y32863215D01*
X68139035Y32728528D01*
X68112097Y32647715D01*
X68112097Y32539966D01*
X68165972Y32432216D01*
X68219847Y32378341D01*
X68327597Y32324467D01*
X68381471Y32324467D01*
X68570033Y32513028D01*
X68462284Y32620778D01*
X68570033Y32028155D02*
X69135719Y32593841D01*
X69351218Y32378341D01*
X69378155Y32297529D01*
X69378155Y32243654D01*
X69351218Y32162842D01*
X69270406Y32082030D01*
X69189593Y32055093D01*
X69135719Y32055093D01*
X69054906Y32082030D01*
X68839407Y32297529D01*
X69620592Y32001218D02*
X69674467Y32001218D01*
X69755279Y31974280D01*
X69889966Y31839593D01*
X69916903Y31758781D01*
X69916903Y31704906D01*
X69889966Y31624094D01*
X69836091Y31570219D01*
X69728341Y31516345D01*
X69081844Y31516345D01*
X69432030Y31166158D01*
X70078528Y31166158D02*
X70051590Y31246971D01*
X70051590Y31300845D01*
X70078528Y31381658D01*
X70105465Y31408595D01*
X70186277Y31435532D01*
X70240152Y31435532D01*
X70320964Y31408595D01*
X70428714Y31300845D01*
X70455651Y31220033D01*
X70455651Y31166158D01*
X70428714Y31085346D01*
X70401776Y31058409D01*
X70320964Y31031471D01*
X70267089Y31031471D01*
X70186277Y31058409D01*
X70078528Y31166158D01*
X69997715Y31193096D01*
X69943841Y31193096D01*
X69863028Y31166158D01*
X69755279Y31058409D01*
X69728341Y30977597D01*
X69728341Y30923722D01*
X69755279Y30842910D01*
X69863028Y30735160D01*
X69943841Y30708223D01*
X69997715Y30708223D01*
X70078528Y30735160D01*
X70186277Y30842910D01*
X70213215Y30923722D01*
X70213215Y30977597D01*
X70186277Y31058409D01*
X72913333Y20167142D02*
X72913333Y20548095D01*
X73141904Y20090952D02*
X72341904Y20357619D01*
X73141904Y20624285D01*
X73141904Y20890952D02*
X72341904Y20890952D01*
X72341904Y21081428D01*
X72380000Y21195714D01*
X72456190Y21271904D01*
X72532380Y21310000D01*
X72684761Y21348095D01*
X72799047Y21348095D01*
X72951428Y21310000D01*
X73027619Y21271904D01*
X73103809Y21195714D01*
X73141904Y21081428D01*
X73141904Y20890952D01*
X73065714Y22148095D02*
X73103809Y22110000D01*
X73141904Y21995714D01*
X73141904Y21919523D01*
X73103809Y21805238D01*
X73027619Y21729047D01*
X72951428Y21690952D01*
X72799047Y21652857D01*
X72684761Y21652857D01*
X72532380Y21690952D01*
X72456190Y21729047D01*
X72380000Y21805238D01*
X72341904Y21919523D01*
X72341904Y21995714D01*
X72380000Y22110000D01*
X72418095Y22148095D01*
X73218095Y22300476D02*
X73218095Y22910000D01*
X72341904Y22986190D02*
X73141904Y23252857D01*
X72341904Y23519523D01*
X73141904Y24243333D02*
X72760952Y23976666D01*
X73141904Y23786190D02*
X72341904Y23786190D01*
X72341904Y24090952D01*
X72380000Y24167142D01*
X72418095Y24205238D01*
X72494285Y24243333D01*
X72608571Y24243333D01*
X72684761Y24205238D01*
X72722857Y24167142D01*
X72760952Y24090952D01*
X72760952Y23786190D01*
X72722857Y24586190D02*
X72722857Y24852857D01*
X73141904Y24967142D02*
X73141904Y24586190D01*
X72341904Y24586190D01*
X72341904Y24967142D01*
X72722857Y25576666D02*
X72722857Y25310000D01*
X73141904Y25310000D02*
X72341904Y25310000D01*
X72341904Y25690952D01*
X74851904Y23449523D02*
X74851904Y23944761D01*
X75156666Y23678095D01*
X75156666Y23792380D01*
X75194761Y23868571D01*
X75232857Y23906666D01*
X75309047Y23944761D01*
X75499523Y23944761D01*
X75575714Y23906666D01*
X75613809Y23868571D01*
X75651904Y23792380D01*
X75651904Y23563809D01*
X75613809Y23487619D01*
X75575714Y23449523D01*
X74851904Y24173333D02*
X75651904Y24440000D01*
X74851904Y24706666D01*
X74851904Y24897142D02*
X74851904Y25392380D01*
X75156666Y25125714D01*
X75156666Y25240000D01*
X75194761Y25316190D01*
X75232857Y25354285D01*
X75309047Y25392380D01*
X75499523Y25392380D01*
X75575714Y25354285D01*
X75613809Y25316190D01*
X75651904Y25240000D01*
X75651904Y25011428D01*
X75613809Y24935238D01*
X75575714Y24897142D01*
X77061904Y21443809D02*
X77061904Y21939047D01*
X77366666Y21672380D01*
X77366666Y21786666D01*
X77404761Y21862857D01*
X77442857Y21900952D01*
X77519047Y21939047D01*
X77709523Y21939047D01*
X77785714Y21900952D01*
X77823809Y21862857D01*
X77861904Y21786666D01*
X77861904Y21558095D01*
X77823809Y21481904D01*
X77785714Y21443809D01*
X77061904Y22167619D02*
X77861904Y22434285D01*
X77061904Y22700952D01*
X77061904Y22891428D02*
X77061904Y23386666D01*
X77366666Y23120000D01*
X77366666Y23234285D01*
X77404761Y23310476D01*
X77442857Y23348571D01*
X77519047Y23386666D01*
X77709523Y23386666D01*
X77785714Y23348571D01*
X77823809Y23310476D01*
X77861904Y23234285D01*
X77861904Y23005714D01*
X77823809Y22929523D01*
X77785714Y22891428D01*
X77938095Y23539047D02*
X77938095Y24148571D01*
X77442857Y24339047D02*
X77442857Y24605714D01*
X77861904Y24720000D02*
X77861904Y24339047D01*
X77061904Y24339047D01*
X77061904Y24720000D01*
X77861904Y25062857D02*
X77061904Y25062857D01*
X77861904Y25520000D01*
X77061904Y25520000D01*
X81360033Y33029526D02*
X80982910Y32275279D01*
X81737157Y32652402D01*
X81360033Y31952030D02*
X81413908Y31844280D01*
X81548595Y31709593D01*
X81629407Y31682656D01*
X81683282Y31682656D01*
X81764094Y31709593D01*
X81817969Y31763468D01*
X81844906Y31844280D01*
X81844906Y31898155D01*
X81817969Y31978967D01*
X81737157Y32113654D01*
X81710219Y32194467D01*
X81710219Y32248341D01*
X81737157Y32329154D01*
X81791032Y32383028D01*
X81871844Y32409966D01*
X81925719Y32409966D01*
X82006531Y32383028D01*
X82141218Y32248341D01*
X82195093Y32140592D01*
X82275905Y31521032D02*
X82006531Y31251658D01*
X82383654Y32005905D02*
X82275905Y31521032D01*
X82760778Y31628781D01*
X82383654Y30928409D02*
X82437529Y30820659D01*
X82572216Y30685972D01*
X82653028Y30659035D01*
X82706903Y30659035D01*
X82787715Y30685972D01*
X82841590Y30739847D01*
X82868528Y30820659D01*
X82868528Y30874534D01*
X82841590Y30955346D01*
X82760778Y31090033D01*
X82733841Y31170845D01*
X82733841Y31224720D01*
X82760778Y31305532D01*
X82814653Y31359407D01*
X82895465Y31386345D01*
X82949340Y31386345D01*
X83030152Y31359407D01*
X83164839Y31224720D01*
X83218714Y31116971D01*
X83912690Y33166870D02*
X83535566Y32412622D01*
X84289813Y32789746D01*
X84397563Y32143248D02*
X84451438Y32035499D01*
X84451438Y31981624D01*
X84424500Y31900812D01*
X84343688Y31820000D01*
X84262876Y31793062D01*
X84209001Y31793062D01*
X84128189Y31820000D01*
X83912690Y32035499D01*
X84478375Y32601184D01*
X84666937Y32412622D01*
X84693874Y32331810D01*
X84693874Y32277935D01*
X84666937Y32197123D01*
X84613062Y32143248D01*
X84532250Y32116311D01*
X84478375Y32116311D01*
X84397563Y32143248D01*
X84209001Y32331810D01*
X85044061Y32035499D02*
X84586125Y31577563D01*
X84559187Y31496751D01*
X84559187Y31442876D01*
X84586125Y31362064D01*
X84693874Y31254314D01*
X84774687Y31227377D01*
X84828561Y31227377D01*
X84909374Y31254314D01*
X85367309Y31712250D01*
X85070998Y30931065D02*
X85124873Y30823316D01*
X85259560Y30688629D01*
X85340372Y30661691D01*
X85394247Y30661691D01*
X85475059Y30688629D01*
X85528934Y30742503D01*
X85555871Y30823316D01*
X85555871Y30877190D01*
X85528934Y30958003D01*
X85448122Y31092690D01*
X85421184Y31173502D01*
X85421184Y31227377D01*
X85448122Y31308189D01*
X85501996Y31362064D01*
X85582809Y31389001D01*
X85636683Y31389001D01*
X85717496Y31362064D01*
X85852183Y31227377D01*
X85906057Y31119627D01*
X79941844Y10433841D02*
X79914906Y10514653D01*
X79834094Y10595465D01*
X79726345Y10649340D01*
X79618595Y10649340D01*
X79537783Y10622402D01*
X79403096Y10541590D01*
X79322284Y10460778D01*
X79241471Y10326091D01*
X79214534Y10245279D01*
X79214534Y10137529D01*
X79268409Y10029780D01*
X79322284Y9975905D01*
X79430033Y9922030D01*
X79483908Y9922030D01*
X79672470Y10110592D01*
X79564720Y10218341D01*
X79672470Y9625719D02*
X80238155Y10191404D01*
X79995719Y9302470D01*
X80561404Y9868155D01*
X80265093Y9033096D02*
X80830778Y9598781D01*
X80965465Y9464094D01*
X81019340Y9356345D01*
X81019340Y9248595D01*
X80992402Y9167783D01*
X80911590Y9033096D01*
X80830778Y8952284D01*
X80696091Y8871471D01*
X80615279Y8844534D01*
X80507529Y8844534D01*
X80399780Y8898409D01*
X80265093Y9033096D01*
X66561844Y15293841D02*
X66534906Y15374653D01*
X66454094Y15455465D01*
X66346345Y15509340D01*
X66238595Y15509340D01*
X66157783Y15482402D01*
X66023096Y15401590D01*
X65942284Y15320778D01*
X65861471Y15186091D01*
X65834534Y15105279D01*
X65834534Y14997529D01*
X65888409Y14889780D01*
X65942284Y14835905D01*
X66050033Y14782030D01*
X66103908Y14782030D01*
X66292470Y14970592D01*
X66184720Y15078341D01*
X66292470Y14485719D02*
X66858155Y15051404D01*
X66615719Y14162470D01*
X67181404Y14728155D01*
X66885093Y13893096D02*
X67450778Y14458781D01*
X67585465Y14324094D01*
X67639340Y14216345D01*
X67639340Y14108595D01*
X67612402Y14027783D01*
X67531590Y13893096D01*
X67450778Y13812284D01*
X67316091Y13731471D01*
X67235279Y13704534D01*
X67127529Y13704534D01*
X67019780Y13758409D01*
X66885093Y13893096D01*
X53861844Y15293841D02*
X53834906Y15374653D01*
X53754094Y15455465D01*
X53646345Y15509340D01*
X53538595Y15509340D01*
X53457783Y15482402D01*
X53323096Y15401590D01*
X53242284Y15320778D01*
X53161471Y15186091D01*
X53134534Y15105279D01*
X53134534Y14997529D01*
X53188409Y14889780D01*
X53242284Y14835905D01*
X53350033Y14782030D01*
X53403908Y14782030D01*
X53592470Y14970592D01*
X53484720Y15078341D01*
X53592470Y14485719D02*
X54158155Y15051404D01*
X53915719Y14162470D01*
X54481404Y14728155D01*
X54185093Y13893096D02*
X54750778Y14458781D01*
X54885465Y14324094D01*
X54939340Y14216345D01*
X54939340Y14108595D01*
X54912402Y14027783D01*
X54831590Y13893096D01*
X54750778Y13812284D01*
X54616091Y13731471D01*
X54535279Y13704534D01*
X54427529Y13704534D01*
X54319780Y13758409D01*
X54185093Y13893096D01*
X41161844Y15293841D02*
X41134906Y15374653D01*
X41054094Y15455465D01*
X40946345Y15509340D01*
X40838595Y15509340D01*
X40757783Y15482402D01*
X40623096Y15401590D01*
X40542284Y15320778D01*
X40461471Y15186091D01*
X40434534Y15105279D01*
X40434534Y14997529D01*
X40488409Y14889780D01*
X40542284Y14835905D01*
X40650033Y14782030D01*
X40703908Y14782030D01*
X40892470Y14970592D01*
X40784720Y15078341D01*
X40892470Y14485719D02*
X41458155Y15051404D01*
X41215719Y14162470D01*
X41781404Y14728155D01*
X41485093Y13893096D02*
X42050778Y14458781D01*
X42185465Y14324094D01*
X42239340Y14216345D01*
X42239340Y14108595D01*
X42212402Y14027783D01*
X42131590Y13893096D01*
X42050778Y13812284D01*
X41916091Y13731471D01*
X41835279Y13704534D01*
X41727529Y13704534D01*
X41619780Y13758409D01*
X41485093Y13893096D01*
X41671844Y28103841D02*
X41644906Y28184653D01*
X41564094Y28265465D01*
X41456345Y28319340D01*
X41348595Y28319340D01*
X41267783Y28292402D01*
X41133096Y28211590D01*
X41052284Y28130778D01*
X40971471Y27996091D01*
X40944534Y27915279D01*
X40944534Y27807529D01*
X40998409Y27699780D01*
X41052284Y27645905D01*
X41160033Y27592030D01*
X41213908Y27592030D01*
X41402470Y27780592D01*
X41294720Y27888341D01*
X41402470Y27295719D02*
X41968155Y27861404D01*
X41725719Y26972470D01*
X42291404Y27538155D01*
X41995093Y26703096D02*
X42560778Y27268781D01*
X42695465Y27134094D01*
X42749340Y27026345D01*
X42749340Y26918595D01*
X42722402Y26837783D01*
X42641590Y26703096D01*
X42560778Y26622284D01*
X42426091Y26541471D01*
X42345279Y26514534D01*
X42237529Y26514534D01*
X42129780Y26568409D01*
X41995093Y26703096D01*
X54781844Y27663841D02*
X54754906Y27744653D01*
X54674094Y27825465D01*
X54566345Y27879340D01*
X54458595Y27879340D01*
X54377783Y27852402D01*
X54243096Y27771590D01*
X54162284Y27690778D01*
X54081471Y27556091D01*
X54054534Y27475279D01*
X54054534Y27367529D01*
X54108409Y27259780D01*
X54162284Y27205905D01*
X54270033Y27152030D01*
X54323908Y27152030D01*
X54512470Y27340592D01*
X54404720Y27448341D01*
X54512470Y26855719D02*
X55078155Y27421404D01*
X54835719Y26532470D01*
X55401404Y27098155D01*
X55105093Y26263096D02*
X55670778Y26828781D01*
X55805465Y26694094D01*
X55859340Y26586345D01*
X55859340Y26478595D01*
X55832402Y26397783D01*
X55751590Y26263096D01*
X55670778Y26182284D01*
X55536091Y26101471D01*
X55455279Y26074534D01*
X55347529Y26074534D01*
X55239780Y26128409D01*
X55105093Y26263096D01*
X79191844Y32213841D02*
X79164906Y32294653D01*
X79084094Y32375465D01*
X78976345Y32429340D01*
X78868595Y32429340D01*
X78787783Y32402402D01*
X78653096Y32321590D01*
X78572284Y32240778D01*
X78491471Y32106091D01*
X78464534Y32025279D01*
X78464534Y31917529D01*
X78518409Y31809780D01*
X78572284Y31755905D01*
X78680033Y31702030D01*
X78733908Y31702030D01*
X78922470Y31890592D01*
X78814720Y31998341D01*
X78922470Y31405719D02*
X79488155Y31971404D01*
X79245719Y31082470D01*
X79811404Y31648155D01*
X79515093Y30813096D02*
X80080778Y31378781D01*
X80215465Y31244094D01*
X80269340Y31136345D01*
X80269340Y31028595D01*
X80242402Y30947783D01*
X80161590Y30813096D01*
X80080778Y30732284D01*
X79946091Y30651471D01*
X79865279Y30624534D01*
X79757529Y30624534D01*
X79649780Y30678409D01*
X79515093Y30813096D01*
X66539035Y28106402D02*
X66808409Y27837028D01*
X66323536Y27998653D02*
X67077783Y28375776D01*
X66700659Y27621529D01*
X67724280Y27675404D02*
X67697343Y27756216D01*
X67616531Y27837028D01*
X67508781Y27890903D01*
X67401032Y27890903D01*
X67320219Y27863966D01*
X67185532Y27783154D01*
X67104720Y27702341D01*
X67023908Y27567654D01*
X66996971Y27486842D01*
X66996971Y27379093D01*
X67050845Y27271343D01*
X67104720Y27217468D01*
X67212470Y27163593D01*
X67266345Y27163593D01*
X67454906Y27352155D01*
X67347157Y27459905D01*
X67454906Y26867282D02*
X68020592Y27432967D01*
X67778155Y26544033D01*
X68343841Y27109719D01*
X68047529Y26274659D02*
X68613215Y26840345D01*
X68747902Y26705658D01*
X68801776Y26597908D01*
X68801776Y26490158D01*
X68774839Y26409346D01*
X68694027Y26274659D01*
X68613215Y26193847D01*
X68478528Y26113035D01*
X68397715Y26086097D01*
X68289966Y26086097D01*
X68182216Y26139972D01*
X68047529Y26274659D01*
X26978095Y26127619D02*
X27549523Y26127619D01*
X27263809Y25127619D02*
X27263809Y26127619D01*
X28454285Y25127619D02*
X28120952Y25603809D01*
X27882857Y25127619D02*
X27882857Y26127619D01*
X28263809Y26127619D01*
X28359047Y26080000D01*
X28406666Y26032380D01*
X28454285Y25937142D01*
X28454285Y25794285D01*
X28406666Y25699047D01*
X28359047Y25651428D01*
X28263809Y25603809D01*
X27882857Y25603809D01*
X29454285Y25127619D02*
X29120952Y25603809D01*
X28882857Y25127619D02*
X28882857Y26127619D01*
X29263809Y26127619D01*
X29359047Y26080000D01*
X29406666Y26032380D01*
X29454285Y25937142D01*
X29454285Y25794285D01*
X29406666Y25699047D01*
X29359047Y25651428D01*
X29263809Y25603809D01*
X28882857Y25603809D01*
X29835238Y25175238D02*
X29978095Y25127619D01*
X30216190Y25127619D01*
X30311428Y25175238D01*
X30359047Y25222857D01*
X30406666Y25318095D01*
X30406666Y25413333D01*
X30359047Y25508571D01*
X30311428Y25556190D01*
X30216190Y25603809D01*
X30025714Y25651428D01*
X29930476Y25699047D01*
X29882857Y25746666D01*
X29835238Y25841904D01*
X29835238Y25937142D01*
X29882857Y26032380D01*
X29930476Y26080000D01*
X30025714Y26127619D01*
X30263809Y26127619D01*
X30406666Y26080000D01*
X79101904Y13977619D02*
X79101904Y14977619D01*
X79197142Y14358571D02*
X79482857Y13977619D01*
X79482857Y14644285D02*
X79101904Y14263333D01*
X79911428Y13977619D02*
X79911428Y14644285D01*
X79911428Y14977619D02*
X79863809Y14930000D01*
X79911428Y14882380D01*
X79959047Y14930000D01*
X79911428Y14977619D01*
X79911428Y14882380D01*
X80387619Y13977619D02*
X80387619Y14644285D01*
X80387619Y14453809D02*
X80435238Y14549047D01*
X80482857Y14596666D01*
X80578095Y14644285D01*
X80673333Y14644285D01*
X81006666Y13977619D02*
X81006666Y14644285D01*
X81006666Y14977619D02*
X80959047Y14930000D01*
X81006666Y14882380D01*
X81054285Y14930000D01*
X81006666Y14977619D01*
X81006666Y14882380D01*
X81340000Y14644285D02*
X81720952Y14644285D01*
X81482857Y14977619D02*
X81482857Y14120476D01*
X81530476Y14025238D01*
X81625714Y13977619D01*
X81720952Y13977619D01*
X82197142Y13977619D02*
X82101904Y14025238D01*
X82054285Y14072857D01*
X82006666Y14168095D01*
X82006666Y14453809D01*
X82054285Y14549047D01*
X82101904Y14596666D01*
X82197142Y14644285D01*
X82340000Y14644285D01*
X82435238Y14596666D01*
X82482857Y14549047D01*
X82530476Y14453809D01*
X82530476Y14168095D01*
X82482857Y14072857D01*
X82435238Y14025238D01*
X82340000Y13977619D01*
X82197142Y13977619D01*
X82959047Y13977619D02*
X82959047Y14644285D01*
X82959047Y14453809D02*
X83006666Y14549047D01*
X83054285Y14596666D01*
X83149523Y14644285D01*
X83244761Y14644285D01*
X83578095Y13977619D02*
X83578095Y14644285D01*
X83578095Y14977619D02*
X83530476Y14930000D01*
X83578095Y14882380D01*
X83625714Y14930000D01*
X83578095Y14977619D01*
X83578095Y14882380D01*
X78991904Y26737619D02*
X78991904Y27737619D01*
X79087142Y27118571D02*
X79372857Y26737619D01*
X79372857Y27404285D02*
X78991904Y27023333D01*
X79801428Y26737619D02*
X79801428Y27404285D01*
X79801428Y27737619D02*
X79753809Y27690000D01*
X79801428Y27642380D01*
X79849047Y27690000D01*
X79801428Y27737619D01*
X79801428Y27642380D01*
X80277619Y26737619D02*
X80277619Y27404285D01*
X80277619Y27213809D02*
X80325238Y27309047D01*
X80372857Y27356666D01*
X80468095Y27404285D01*
X80563333Y27404285D01*
X80896666Y26737619D02*
X80896666Y27404285D01*
X80896666Y27737619D02*
X80849047Y27690000D01*
X80896666Y27642380D01*
X80944285Y27690000D01*
X80896666Y27737619D01*
X80896666Y27642380D01*
X81230000Y27404285D02*
X81610952Y27404285D01*
X81372857Y27737619D02*
X81372857Y26880476D01*
X81420476Y26785238D01*
X81515714Y26737619D01*
X81610952Y26737619D01*
X82087142Y26737619D02*
X81991904Y26785238D01*
X81944285Y26832857D01*
X81896666Y26928095D01*
X81896666Y27213809D01*
X81944285Y27309047D01*
X81991904Y27356666D01*
X82087142Y27404285D01*
X82230000Y27404285D01*
X82325238Y27356666D01*
X82372857Y27309047D01*
X82420476Y27213809D01*
X82420476Y26928095D01*
X82372857Y26832857D01*
X82325238Y26785238D01*
X82230000Y26737619D01*
X82087142Y26737619D01*
X82849047Y26737619D02*
X82849047Y27404285D01*
X82849047Y27213809D02*
X82896666Y27309047D01*
X82944285Y27356666D01*
X83039523Y27404285D01*
X83134761Y27404285D01*
X83468095Y26737619D02*
X83468095Y27404285D01*
X83468095Y27737619D02*
X83420476Y27690000D01*
X83468095Y27642380D01*
X83515714Y27690000D01*
X83468095Y27737619D01*
X83468095Y27642380D01*
X-4828095Y14677619D02*
X-4828095Y15677619D01*
X-4732857Y15058571D02*
X-4447142Y14677619D01*
X-4447142Y15344285D02*
X-4828095Y14963333D01*
X-4018571Y14677619D02*
X-4018571Y15344285D01*
X-4018571Y15677619D02*
X-4066190Y15630000D01*
X-4018571Y15582380D01*
X-3970952Y15630000D01*
X-4018571Y15677619D01*
X-4018571Y15582380D01*
X-3542380Y14677619D02*
X-3542380Y15344285D01*
X-3542380Y15153809D02*
X-3494761Y15249047D01*
X-3447142Y15296666D01*
X-3351904Y15344285D01*
X-3256666Y15344285D01*
X-2923333Y14677619D02*
X-2923333Y15344285D01*
X-2923333Y15677619D02*
X-2970952Y15630000D01*
X-2923333Y15582380D01*
X-2875714Y15630000D01*
X-2923333Y15677619D01*
X-2923333Y15582380D01*
X-2589999Y15344285D02*
X-2209047Y15344285D01*
X-2447142Y15677619D02*
X-2447142Y14820476D01*
X-2399523Y14725238D01*
X-2304285Y14677619D01*
X-2209047Y14677619D01*
X-1732857Y14677619D02*
X-1828095Y14725238D01*
X-1875714Y14772857D01*
X-1923333Y14868095D01*
X-1923333Y15153809D01*
X-1875714Y15249047D01*
X-1828095Y15296666D01*
X-1732857Y15344285D01*
X-1589999Y15344285D01*
X-1494761Y15296666D01*
X-1447142Y15249047D01*
X-1399523Y15153809D01*
X-1399523Y14868095D01*
X-1447142Y14772857D01*
X-1494761Y14725238D01*
X-1589999Y14677619D01*
X-1732857Y14677619D01*
X-970952Y14677619D02*
X-970952Y15344285D01*
X-970952Y15153809D02*
X-923333Y15249047D01*
X-875714Y15296666D01*
X-780476Y15344285D01*
X-685238Y15344285D01*
X-351904Y14677619D02*
X-351904Y15344285D01*
X-351904Y15677619D02*
X-399523Y15630000D01*
X-351904Y15582380D01*
X-304285Y15630000D01*
X-351904Y15677619D01*
X-351904Y15582380D01*
X-4918095Y24887619D02*
X-4918095Y25887619D01*
X-4822857Y25268571D02*
X-4537142Y24887619D01*
X-4537142Y25554285D02*
X-4918095Y25173333D01*
X-4108571Y24887619D02*
X-4108571Y25554285D01*
X-4108571Y25887619D02*
X-4156190Y25840000D01*
X-4108571Y25792380D01*
X-4060952Y25840000D01*
X-4108571Y25887619D01*
X-4108571Y25792380D01*
X-3632380Y24887619D02*
X-3632380Y25554285D01*
X-3632380Y25363809D02*
X-3584761Y25459047D01*
X-3537142Y25506666D01*
X-3441904Y25554285D01*
X-3346666Y25554285D01*
X-3013333Y24887619D02*
X-3013333Y25554285D01*
X-3013333Y25887619D02*
X-3060952Y25840000D01*
X-3013333Y25792380D01*
X-2965714Y25840000D01*
X-3013333Y25887619D01*
X-3013333Y25792380D01*
X-2679999Y25554285D02*
X-2299047Y25554285D01*
X-2537142Y25887619D02*
X-2537142Y25030476D01*
X-2489523Y24935238D01*
X-2394285Y24887619D01*
X-2299047Y24887619D01*
X-1822857Y24887619D02*
X-1918095Y24935238D01*
X-1965714Y24982857D01*
X-2013333Y25078095D01*
X-2013333Y25363809D01*
X-1965714Y25459047D01*
X-1918095Y25506666D01*
X-1822857Y25554285D01*
X-1679999Y25554285D01*
X-1584761Y25506666D01*
X-1537142Y25459047D01*
X-1489523Y25363809D01*
X-1489523Y25078095D01*
X-1537142Y24982857D01*
X-1584761Y24935238D01*
X-1679999Y24887619D01*
X-1822857Y24887619D01*
X-1060952Y24887619D02*
X-1060952Y25554285D01*
X-1060952Y25363809D02*
X-1013333Y25459047D01*
X-965714Y25506666D01*
X-870476Y25554285D01*
X-775238Y25554285D01*
X-441904Y24887619D02*
X-441904Y25554285D01*
X-441904Y25887619D02*
X-489523Y25840000D01*
X-441904Y25792380D01*
X-394285Y25840000D01*
X-441904Y25887619D01*
X-441904Y25792380D01*
M02*
