<?xml version="1.0" encoding="UTF-8" standalone="no"?>
<!-- Created with Inkscape (http://www.inkscape.org/) -->

<svg
   width="210mm"
   height="297mm"
   viewBox="0 0 210 297"
   version="1.1"
   id="svg5"
   inkscape:version="1.1.1 (c3084ef, 2021-09-22)"
   sodipodi:docname="cool640w_case.svg"
   xmlns:inkscape="http://www.inkscape.org/namespaces/inkscape"
   xmlns:sodipodi="http://sodipodi.sourceforge.net/DTD/sodipodi-0.dtd"
   xmlns="http://www.w3.org/2000/svg"
   xmlns:svg="http://www.w3.org/2000/svg">
  <sodipodi:namedview
     id="namedview7"
     pagecolor="#ffffff"
     bordercolor="#666666"
     borderopacity="1.0"
     inkscape:pageshadow="2"
     inkscape:pageopacity="0.0"
     inkscape:pagecheckerboard="0"
     inkscape:document-units="mm"
     showgrid="false"
     inkscape:zoom="0.39214845"
     inkscape:cx="832.59286"
     inkscape:cy="295.80635"
     inkscape:window-width="1280"
     inkscape:window-height="800"
     inkscape:window-x="0"
     inkscape:window-y="0"
     inkscape:window-maximized="0"
     inkscape:current-layer="layer1" />
  <defs
     id="defs2" />
  <g
     inkscape:label="Layer 1"
     inkscape:groupmode="layer"
     id="layer1">
    <g
       style="fill:#000000;fill-opacity:1;stroke:#000000;stroke-linecap:round;stroke-linejoin:round;stroke-opacity:1"
       id="g1249"
       transform="matrix(0.00254,0,0,0.00254,293.453,205.32526)" />
    <g
       style="fill:#000000;fill-opacity:0;stroke:#000000;stroke-width:-0.000393701;stroke-linecap:round;stroke-linejoin:round;stroke-opacity:1"
       id="g1251"
       transform="matrix(0.00254,0,0,0.00254,293.453,205.32526)" />
    <g
       style="fill:#000000;fill-opacity:0;stroke:#000000;stroke-width:39.3701;stroke-linecap:round;stroke-linejoin:round;stroke-opacity:1"
       id="g1253"
       transform="matrix(0.00254,0,0,0.00254,293.453,205.32526)" />
    <g
       style="fill:#000000;fill-opacity:0;stroke:#000000;stroke-width:39.3701;stroke-linecap:round;stroke-linejoin:round;stroke-opacity:1"
       id="g1259"
       transform="matrix(0.00254,0,0,0.00254,293.453,205.32526)" />
    <g
       style="fill:#000000;fill-opacity:0;stroke:#000000;stroke-width:39.3701;stroke-linecap:round;stroke-linejoin:round;stroke-opacity:1"
       id="g1265"
       transform="matrix(0.00254,0,0,0.00254,293.453,205.32526)" />
    <g
       style="fill:#000000;fill-opacity:0;stroke:#000000;stroke-width:39.3701;stroke-linecap:round;stroke-linejoin:round;stroke-opacity:1"
       id="g1271"
       transform="matrix(0.00254,0,0,0.00254,293.453,205.32526)" />
    <g
       style="fill:#000000;fill-opacity:0;stroke:#000000;stroke-width:39.3701;stroke-linecap:round;stroke-linejoin:round;stroke-opacity:1"
       id="g1277"
       transform="matrix(0.00254,0,0,0.00254,293.453,205.32526)" />
    <g
       style="fill:#000000;fill-opacity:0;stroke:#000000;stroke-width:39.3701;stroke-linecap:round;stroke-linejoin:round;stroke-opacity:1"
       id="g1283"
       transform="matrix(0.00254,0,0,0.00254,293.453,205.32526)" />
    <g
       style="fill:#000000;fill-opacity:0;stroke:#000000;stroke-width:39.3701;stroke-linecap:round;stroke-linejoin:round;stroke-opacity:1"
       id="g1289"
       transform="matrix(0.00254,0,0,0.00254,293.453,205.32526)" />
    <g
       style="fill:#000000;fill-opacity:0;stroke:#000000;stroke-width:39.3701;stroke-linecap:round;stroke-linejoin:round;stroke-opacity:1"
       id="g1295"
       transform="matrix(0.00254,0,0,0.00254,293.453,205.32526)" />
    <g
       style="fill:#000000;fill-opacity:0;stroke:#000000;stroke-width:39.3701;stroke-linecap:round;stroke-linejoin:round;stroke-opacity:1"
       id="g1301"
       transform="matrix(0.00254,0,0,0.00254,293.453,205.32526)" />
    <g
       style="fill:#000000;fill-opacity:0;stroke:#000000;stroke-width:39.3701;stroke-linecap:round;stroke-linejoin:round;stroke-opacity:1"
       id="g1307"
       transform="matrix(0.00254,0,0,0.00254,293.453,205.32526)" />
    <g
       style="fill:#000000;fill-opacity:0;stroke:#000000;stroke-width:39.3701;stroke-linecap:round;stroke-linejoin:round;stroke-opacity:1"
       id="g1313"
       transform="matrix(0.00254,0,0,0.00254,293.453,205.32526)" />
    <g
       style="fill:#000000;fill-opacity:0;stroke:#000000;stroke-width:39.3701;stroke-linecap:round;stroke-linejoin:round;stroke-opacity:1"
       id="g1323"
       transform="matrix(0.00254,0,0,0.00254,293.453,205.32526)" />
    <g
       style="fill:#000000;fill-opacity:0;stroke:#000000;stroke-width:39.3701;stroke-linecap:round;stroke-linejoin:round;stroke-opacity:1"
       id="g1331"
       transform="matrix(0.00254,0,0,0.00254,293.453,205.32526)" />
    <g
       style="fill:#000000;fill-opacity:0;stroke:#000000;stroke-width:39.3701;stroke-linecap:round;stroke-linejoin:round;stroke-opacity:1"
       id="g1339"
       transform="matrix(0.00254,0,0,0.00254,293.453,205.32526)" />
    <g
       style="fill:#000000;fill-opacity:0;stroke:#000000;stroke-width:39.3701;stroke-linecap:round;stroke-linejoin:round;stroke-opacity:1"
       id="g1349"
       transform="matrix(0.00254,0,0,0.00254,293.453,205.32526)" />
    <g
       style="fill:#000000;fill-opacity:0;stroke:#000000;stroke-width:39.3701;stroke-linecap:round;stroke-linejoin:round;stroke-opacity:1"
       id="g1357"
       transform="matrix(0.00254,0,0,0.00254,293.453,205.32526)" />
    <g
       style="fill:#000000;fill-opacity:0;stroke:#000000;stroke-width:39.3701;stroke-linecap:round;stroke-linejoin:round;stroke-opacity:1"
       id="g1365"
       transform="matrix(0.00254,0,0,0.00254,293.453,205.32526)" />
    <g
       style="fill:#000000;fill-opacity:0;stroke:#000000;stroke-width:39.3701;stroke-linecap:round;stroke-linejoin:round;stroke-opacity:1"
       id="g1373"
       transform="matrix(0.00254,0,0,0.00254,293.453,205.32526)" />
    <g
       style="fill:#000000;fill-opacity:0;stroke:#000000;stroke-width:39.3701;stroke-linecap:round;stroke-linejoin:round;stroke-opacity:1"
       id="g1381"
       transform="matrix(0.00254,0,0,0.00254,293.453,205.32526)" />
    <g
       style="fill:#000000;fill-opacity:0;stroke:#000000;stroke-width:39.3701;stroke-linecap:round;stroke-linejoin:round;stroke-opacity:1"
       id="g1387"
       transform="matrix(0.00254,0,0,0.00254,293.453,205.32526)" />
    <g
       style="fill:#000000;fill-opacity:0;stroke:#000000;stroke-width:39.3701;stroke-linecap:round;stroke-linejoin:round;stroke-opacity:1"
       id="g1393"
       transform="matrix(0.00254,0,0,0.00254,293.453,205.32526)" />
    <g
       style="fill:#000000;fill-opacity:0;stroke:#000000;stroke-width:39.3701;stroke-linecap:round;stroke-linejoin:round;stroke-opacity:1"
       id="g1399"
       transform="matrix(0.00254,0,0,0.00254,293.453,205.32526)" />
    <g
       style="fill:#000000;fill-opacity:0;stroke:#000000;stroke-width:39.3701;stroke-linecap:round;stroke-linejoin:round;stroke-opacity:1"
       id="g1405"
       transform="matrix(0.00254,0,0,0.00254,293.453,205.32526)" />
    <g
       style="fill:#000000;fill-opacity:0;stroke:#000000;stroke-width:39.3701;stroke-linecap:round;stroke-linejoin:round;stroke-opacity:1"
       id="g1411"
       transform="matrix(0.00254,0,0,0.00254,293.453,205.32526)" />
    <g
       style="fill:#000000;fill-opacity:0;stroke:#000000;stroke-width:39.3701;stroke-linecap:round;stroke-linejoin:round;stroke-opacity:1"
       id="g1417"
       transform="matrix(0.00254,0,0,0.00254,293.453,205.32526)" />
    <g
       style="fill:#000000;fill-opacity:0;stroke:#000000;stroke-width:39.3701;stroke-linecap:round;stroke-linejoin:round;stroke-opacity:1"
       id="g1423"
       transform="matrix(0.00254,0,0,0.00254,293.453,205.32526)" />
    <g
       style="fill:#000000;fill-opacity:0;stroke:#000000;stroke-width:39.3701;stroke-linecap:round;stroke-linejoin:round;stroke-opacity:1"
       id="g1433"
       transform="matrix(0.00254,0,0,0.00254,293.453,205.32526)" />
    <g
       style="fill:#000000;fill-opacity:0;stroke:#000000;stroke-width:39.3701;stroke-linecap:round;stroke-linejoin:round;stroke-opacity:1"
       id="g1441"
       transform="matrix(0.00254,0,0,0.00254,293.453,205.32526)" />
    <g
       style="fill:#000000;fill-opacity:0;stroke:#000000;stroke-width:39.3701;stroke-linecap:round;stroke-linejoin:round;stroke-opacity:1"
       id="g1449"
       transform="matrix(0.00254,0,0,0.00254,293.453,205.32526)" />
    <g
       style="fill:#000000;fill-opacity:0;stroke:#000000;stroke-width:39.3701;stroke-linecap:round;stroke-linejoin:round;stroke-opacity:1"
       id="g1459"
       transform="matrix(0.00254,0,0,0.00254,293.453,205.32526)" />
    <g
       style="fill:#000000;fill-opacity:0;stroke:#000000;stroke-width:39.3701;stroke-linecap:round;stroke-linejoin:round;stroke-opacity:1"
       id="g1467"
       transform="matrix(0.00254,0,0,0.00254,293.453,205.32526)" />
    <g
       style="fill:#000000;fill-opacity:0;stroke:#000000;stroke-width:39.3701;stroke-linecap:round;stroke-linejoin:round;stroke-opacity:1"
       id="g1475"
       transform="matrix(0.00254,0,0,0.00254,293.453,205.32526)" />
    <g
       style="fill:#000000;fill-opacity:0;stroke:#000000;stroke-width:39.3701;stroke-linecap:round;stroke-linejoin:round;stroke-opacity:1"
       id="g1483"
       transform="matrix(0.00254,0,0,0.00254,293.453,205.32526)" />
    <g
       style="fill:#000000;fill-opacity:0;stroke:#000000;stroke-width:39.3701;stroke-linecap:round;stroke-linejoin:round;stroke-opacity:1"
       id="g1491"
       transform="matrix(0.00254,0,0,0.00254,293.453,205.32526)" />
    <g
       style="fill:#000000;fill-opacity:0;stroke:#000000;stroke-width:39.3701;stroke-linecap:round;stroke-linejoin:round;stroke-opacity:1"
       id="g1497"
       transform="matrix(0.00254,0,0,0.00254,293.453,205.32526)" />
    <g
       style="fill:#000000;fill-opacity:0;stroke:#000000;stroke-width:39.3701;stroke-linecap:round;stroke-linejoin:round;stroke-opacity:1"
       id="g1503"
       transform="matrix(0.00254,0,0,0.00254,293.453,205.32526)" />
    <g
       style="fill:#000000;fill-opacity:0;stroke:#000000;stroke-width:39.3701;stroke-linecap:round;stroke-linejoin:round;stroke-opacity:1"
       id="g1509"
       transform="matrix(0.00254,0,0,0.00254,293.453,205.32526)" />
    <g
       style="fill:#000000;fill-opacity:0;stroke:#000000;stroke-width:39.3701;stroke-linecap:round;stroke-linejoin:round;stroke-opacity:1"
       id="g1515"
       transform="matrix(0.00254,0,0,0.00254,293.453,205.32526)" />
    <g
       style="fill:#000000;fill-opacity:0;stroke:#000000;stroke-width:39.3701;stroke-linecap:round;stroke-linejoin:round;stroke-opacity:1"
       id="g1521"
       transform="matrix(0.00254,0,0,0.00254,293.453,205.32526)" />
    <g
       style="fill:#000000;fill-opacity:0;stroke:#000000;stroke-width:39.3701;stroke-linecap:round;stroke-linejoin:round;stroke-opacity:1"
       id="g1531"
       transform="matrix(0.00254,0,0,0.00254,293.453,205.32526)" />
    <g
       style="fill:#000000;fill-opacity:0;stroke:#000000;stroke-width:39.3701;stroke-linecap:round;stroke-linejoin:round;stroke-opacity:1"
       id="g1539"
       transform="matrix(0.00254,0,0,0.00254,293.453,205.32526)" />
    <g
       style="fill:#000000;fill-opacity:0;stroke:#000000;stroke-width:39.3701;stroke-linecap:round;stroke-linejoin:round;stroke-opacity:1"
       id="g1547"
       transform="matrix(0.00254,0,0,0.00254,293.453,205.32526)" />
    <g
       style="fill:#000000;fill-opacity:0;stroke:#000000;stroke-width:39.3701;stroke-linecap:round;stroke-linejoin:round;stroke-opacity:1"
       id="g1555"
       transform="matrix(0.00254,0,0,0.00254,293.453,205.32526)" />
    <g
       style="fill:#000000;fill-opacity:0;stroke:#000000;stroke-width:39.3701;stroke-linecap:round;stroke-linejoin:round;stroke-opacity:1"
       id="g1565"
       transform="matrix(0.00254,0,0,0.00254,293.453,205.32526)" />
    <g
       style="fill:#000000;fill-opacity:0;stroke:#000000;stroke-width:39.3701;stroke-linecap:round;stroke-linejoin:round;stroke-opacity:1"
       id="g1575"
       transform="matrix(0.00254,0,0,0.00254,293.453,205.32526)" />
    <g
       style="fill:#000000;fill-opacity:0;stroke:#000000;stroke-width:39.3701;stroke-linecap:round;stroke-linejoin:round;stroke-opacity:1"
       id="g1581"
       transform="matrix(0.00254,0,0,0.00254,293.453,205.32526)" />
    <g
       style="fill:#000000;fill-opacity:0;stroke:#000000;stroke-width:39.3701;stroke-linecap:round;stroke-linejoin:round;stroke-opacity:1"
       id="g1587"
       transform="matrix(0.00254,0,0,0.00254,293.453,205.32526)" />
    <g
       style="fill:#000000;fill-opacity:0;stroke:#000000;stroke-width:39.3701;stroke-linecap:round;stroke-linejoin:round;stroke-opacity:1"
       id="g1593"
       transform="matrix(0.00254,0,0,0.00254,293.453,205.32526)" />
    <g
       style="fill:#000000;fill-opacity:0;stroke:#000000;stroke-width:39.3701;stroke-linecap:round;stroke-linejoin:round;stroke-opacity:1"
       id="g1599"
       transform="matrix(0.00254,0,0,0.00254,293.453,205.32526)" />
    <g
       style="fill:#000000;fill-opacity:0;stroke:#000000;stroke-width:39.3701;stroke-linecap:round;stroke-linejoin:round;stroke-opacity:1"
       id="g1605"
       transform="matrix(0.00254,0,0,0.00254,293.453,205.32526)" />
    <g
       style="fill:#000000;fill-opacity:0;stroke:#000000;stroke-width:39.3701;stroke-linecap:round;stroke-linejoin:round;stroke-opacity:1"
       id="g1615"
       transform="matrix(0.00254,0,0,0.00254,293.453,205.32526)" />
    <g
       style="fill:#000000;fill-opacity:0;stroke:#000000;stroke-width:39.3701;stroke-linecap:round;stroke-linejoin:round;stroke-opacity:1"
       id="g1623"
       transform="matrix(0.00254,0,0,0.00254,293.453,205.32526)" />
    <g
       style="fill:#000000;fill-opacity:0;stroke:#000000;stroke-width:39.3701;stroke-linecap:round;stroke-linejoin:round;stroke-opacity:1"
       id="g1631"
       transform="matrix(0.00254,0,0,0.00254,293.453,205.32526)" />
    <g
       style="fill:#000000;fill-opacity:0;stroke:#000000;stroke-width:39.3701;stroke-linecap:round;stroke-linejoin:round;stroke-opacity:1"
       id="g1639"
       transform="matrix(0.00254,0,0,0.00254,293.453,205.32526)" />
    <g
       style="fill:#000000;fill-opacity:0;stroke:#000000;stroke-width:39.3701;stroke-linecap:round;stroke-linejoin:round;stroke-opacity:1"
       id="g1649"
       transform="matrix(0.00254,0,0,0.00254,293.453,205.32526)" />
    <g
       style="fill:#000000;fill-opacity:0;stroke:#000000;stroke-width:39.3701;stroke-linecap:round;stroke-linejoin:round;stroke-opacity:1"
       id="g1659"
       transform="matrix(0.00254,0,0,0.00254,293.453,205.32526)" />
    <g
       style="fill:#000000;fill-opacity:0;stroke:#000000;stroke-width:39.3701;stroke-linecap:round;stroke-linejoin:round;stroke-opacity:1"
       id="g1681"
       transform="matrix(0.00254,0,0,0.00254,293.453,205.32526)" />
    <g
       style="fill:#000000;fill-opacity:0;stroke:#000000;stroke-width:39.3701;stroke-linecap:round;stroke-linejoin:round;stroke-opacity:1"
       id="g1687"
       transform="matrix(0.00254,0,0,0.00254,293.453,205.32526)" />
    <g
       style="fill:#000000;fill-opacity:0;stroke:#000000;stroke-width:39.3701;stroke-linecap:round;stroke-linejoin:round;stroke-opacity:1"
       id="g1787"
       transform="matrix(0.00254,0,0,0.00254,293.453,205.32526)" />
    <g
       style="fill:#000000;fill-opacity:0;stroke:#000000;stroke-width:39.3701;stroke-linecap:round;stroke-linejoin:round;stroke-opacity:1"
       id="g1793"
       transform="matrix(0.00254,0,0,0.00254,293.453,205.32526)" />
    <g
       style="fill:#000000;fill-opacity:0;stroke:#000000;stroke-width:39.3701;stroke-linecap:round;stroke-linejoin:round;stroke-opacity:1"
       id="g1811"
       transform="matrix(0.00254,0,0,0.00254,293.453,205.32526)" />
    <g
       style="fill:#000000;fill-opacity:0;stroke:#000000;stroke-width:39.3701;stroke-linecap:round;stroke-linejoin:round;stroke-opacity:1"
       id="g1837"
       transform="matrix(0.00254,0,0,0.00254,293.453,205.32526)" />
    <g
       style="fill:#000000;fill-opacity:0;stroke:#000000;stroke-width:39.3701;stroke-linecap:round;stroke-linejoin:round;stroke-opacity:1"
       id="g1863"
       transform="matrix(0.00254,0,0,0.00254,293.453,205.32526)" />
    <g
       style="fill:#000000;fill-opacity:0;stroke:#000000;stroke-width:39.3701;stroke-linecap:round;stroke-linejoin:round;stroke-opacity:1"
       id="g1869"
       transform="matrix(0.00254,0,0,0.00254,293.453,205.32526)" />
    <g
       style="fill:#000000;fill-opacity:0;stroke:#000000;stroke-width:39.3701;stroke-linecap:round;stroke-linejoin:round;stroke-opacity:1"
       id="g1895"
       transform="matrix(0.00254,0,0,0.00254,293.453,205.32526)" />
    <g
       style="fill:#000000;fill-opacity:0;stroke:#000000;stroke-width:39.3701;stroke-linecap:round;stroke-linejoin:round;stroke-opacity:1"
       id="g1967"
       transform="matrix(0.00254,0,0,0.00254,293.453,205.32526)" />
    <g
       style="fill:#000000;fill-opacity:0;stroke:#000000;stroke-width:39.3701;stroke-linecap:round;stroke-linejoin:round;stroke-opacity:1"
       id="g1973"
       transform="matrix(0.00254,0,0,0.00254,293.453,205.32526)" />
    <g
       style="fill:#000000;fill-opacity:0;stroke:#000000;stroke-width:39.3701;stroke-linecap:round;stroke-linejoin:round;stroke-opacity:1"
       id="g1997"
       transform="matrix(0.00254,0,0,0.00254,293.453,205.32526)" />
    <g
       style="fill:#000000;fill-opacity:0;stroke:#000000;stroke-width:39.3701;stroke-linecap:round;stroke-linejoin:round;stroke-opacity:1"
       id="g2003"
       transform="matrix(0.00254,0,0,0.00254,293.453,205.32526)" />
    <g
       style="fill:#c23e04;fill-opacity:0;stroke:#c23e04;stroke-width:59.0551;stroke-linecap:round;stroke-linejoin:round;stroke-opacity:1"
       id="g2457"
       transform="matrix(0.00254,0,0,0.00254,278.59207,118.30266)">
      <path
         d="m -60960.6,-43035.4 a 440.945,440.945 0 0 0 -441,440.9"
         id="path2009" />
      <path
         d="m -37397,-38751 v -3843"
         id="path2011" />
      <path
         d="m -61401.6,-38752 a 440.945,440.945 0 0 0 441,441"
         id="path2013" />
      <path
         d="m -37397.6,-42594.5 a 440.945,440.945 0 0 0 -441,-440.9"
         id="path2015" />
      <path
         d="M -37838,-43035 H -60960"
         id="path2017" />
      <path
         d="m -60960,-38311 h 23126"
         id="path2019" />
      <circle
         cx="-59031.5"
         cy="-40712.602"
         r="433.07101"
         id="circle2021" />
      <circle
         cx="-52464.602"
         cy="-40712.602"
         r="433.07101"
         id="circle2023" />
      <path
         d="m -37838.6,-38311 a 440.945,440.945 0 0 0 441,-441"
         id="path2025" />
      <circle
         cx="-39763.801"
         cy="-40673.199"
         r="433.07101"
         id="circle2027" />
      <circle
         cx="-46330.699"
         cy="-40712.602"
         r="433.07101"
         id="circle2029" />
      <path
         d="m -61401,-42594 v 3843"
         id="path2031" />
      <circle
         cx="-77039.398"
         cy="-26043.301"
         r="433.07101"
         id="circle2033" />
      <circle
         cx="-70472.398"
         cy="-26043.301"
         r="433.07101"
         id="circle2035" />
      <path
         d="m -105642,-31165.4 a 440.945,440.945 0 0 0 -441,441"
         id="path2037" />
      <path
         d="m -106083,-22389.8 a 440.945,440.945 0 0 0 441,441"
         id="path2039" />
      <circle
         cx="-96448.797"
         cy="-26003.9"
         r="433.07101"
         id="circle2041" />
      <circle
         cx="-103016"
         cy="-26043.301"
         r="433.07101"
         id="circle2043" />
      <path
         d="m -67846,-31165 h -37795"
         id="path2045" />
      <path
         d="m -106082,-30724 v 8335"
         id="path2047" />
      <path
         d="m -105641,-21948 h 38677"
         id="path2049" />
      <path
         d="m -29169.3,-21948.8 a 440.945,440.945 0 0 0 441,-441"
         id="path2051" />
      <circle
         cx="-57771.699"
         cy="-26003.9"
         r="433.07101"
         id="circle2053" />
      <path
         d="m -28728,-30724 v 8335"
         id="path2055" />
      <circle
         cx="-64338.602"
         cy="-26043.301"
         r="433.07101"
         id="circle2057" />
      <path
         d="M -29169,-31165 H -67846"
         id="path2059" />
      <path
         d="m -66964,-21948 h 37795"
         id="path2061" />
      <path
         d="m -28728.3,-30724.4 a 440.945,440.945 0 0 0 -441,-441"
         id="path2063" />
      <path
         d="m -69157,31208 h -37795"
         id="path2065" />
      <circle
         cx="-76586.602"
         cy="63102.398"
         r="433.07101"
         id="circle2067" />
      <path
         d="m -106952,70370 h 38677"
         id="path2069" />
      <path
         d="m -107393,31649 v 2169"
         id="path2071" />
      <circle
         cx="-99511.797"
         cy="63102.398"
         r="433.07101"
         id="circle2073" />
      <path
         d="m -106953,31208.7 a 440.945,440.945 0 0 0 -441,440.9"
         id="path2075" />
      <path
         d="m -107394,69929.1 a 440.945,440.945 0 0 0 441,441"
         id="path2077" />
      <circle
         cx="-76586.602"
         cy="48102.398"
         r="433.07101"
         id="circle2079" />
      <path
         d="M -107393,33818 V 69929"
         id="path2081" />
      <circle
         cx="-99511.797"
         cy="48102.398"
         r="433.07101"
         id="circle2083" />
      <path
         d="m -30039.4,31649.6 a 440.945,440.945 0 0 0 -440.9,-440.9"
         id="path2085" />
      <circle
         cx="-37909.398"
         cy="48102.398"
         r="433.07101"
         id="circle2087" />
      <path
         d="m -30480.3,70370.1 a 440.945,440.945 0 0 0 440.9,-441"
         id="path2089" />
      <circle
         cx="-60834.602"
         cy="48102.398"
         r="433.07101"
         id="circle2091" />
      <path
         d="M -30039,69929 V 39161"
         id="path2093" />
      <path
         d="M -30480,31208 H -69157"
         id="path2095" />
      <path
         d="m -68275,70370 h 37795"
         id="path2097" />
      <circle
         cx="-60834.602"
         cy="63102.398"
         r="433.07101"
         id="circle2099" />
      <path
         d="m -30039,31649 v 7512"
         id="path2101" />
      <circle
         cx="-37909.398"
         cy="63102.398"
         r="433.07101"
         id="circle2103" />
      <path
         d="m -74704,2629 h 5512"
         id="path2105" />
      <path
         d="m -104700,-10385 v 5511"
         id="path2107" />
      <path
         d="M -106311,-11200 V 17956"
         id="path2109" />
      <path
         d="m -105870,18397 h 38678"
         id="path2111" />
      <path
         d="m -97204,4614 v 5511"
         id="path2113" />
      <path
         d="M -97208,-2881 V 2629"
         id="path2115" />
      <path
         d="m -91692,4614 h -5512"
         id="path2117" />
      <path
         d="m -91696,-2881 h -5512"
         id="path2119" />
      <path
         d="m -97204,-10385 v 5511"
         id="path2121" />
      <path
         d="m -97208,2629 h 5512"
         id="path2123" />
      <path
         d="M -91696,17629 V 12118"
         id="path2125" />
      <path
         d="M -91692,10125 V 4614"
         id="path2127" />
      <circle
         cx="-75503.898"
         cy="-3870.0801"
         r="433.07101"
         id="circle2129" />
      <path
         d="m -76692,12118 h -5512"
         id="path2131" />
      <path
         d="M -69192,17629 V 12118"
         id="path2133" />
      <path
         d="m -74704,12118 v 5511"
         id="path2135" />
      <path
         d="m -82200,10125 h 5512"
         id="path2137" />
      <path
         d="m -89700,-4874 h 5512"
         id="path2139" />
      <path
         d="M -69192,2629 V -2881"
         id="path2141" />
      <path
         d="m -69188,4614 h -5512"
         id="path2143" />
      <path
         d="m -104700,10125 h 5512"
         id="path2145" />
      <path
         d="m -104700,4614 v 5511"
         id="path2147" />
      <path
         d="M -104704,-2881 V 2629"
         id="path2149" />
      <path
         d="m -97204,10125 h 5512"
         id="path2151" />
      <path
         d="M -69188,10125 V 4614"
         id="path2153" />
      <path
         d="m -74704,17629 h 5512"
         id="path2155" />
      <path
         d="m -74700,-4874 h 5512"
         id="path2157" />
      <circle
         cx="-98429.102"
         cy="-3870.0801"
         r="433.07101"
         id="circle2159" />
      <path
         d="M -99188,10125 V 4614"
         id="path2161" />
      <path
         d="m -104704,17629 h 5512"
         id="path2163" />
      <path
         d="m -99188,-4874 v -5511"
         id="path2165" />
      <path
         d="m -84188,4614 h -5512"
         id="path2167" />
      <path
         d="M -91696,2629 V -2881"
         id="path2169" />
      <path
         d="m -89704,12118 v 5511"
         id="path2171" />
      <path
         d="m -106311,17956.7 a 440.945,440.945 0 0 0 441,440.9"
         id="path2173" />
      <path
         d="m -82200,-4874 h 5512"
         id="path2175" />
      <path
         d="m -82204,12118 v 5511"
         id="path2177" />
      <path
         d="M -89704,-2881 V 2629"
         id="path2179" />
      <path
         d="m -74700,-10385 v 5511"
         id="path2181" />
      <path
         d="m -82200,-10385 v 5511"
         id="path2183" />
      <path
         d="m -82204,2629 h 5512"
         id="path2185" />
      <path
         d="M -76692,17629 V 12118"
         id="path2187" />
      <path
         d="m -76688,-4874 v -5511"
         id="path2189" />
      <path
         d="m -76688,-10385 h -5512"
         id="path2191" />
      <path
         d="m -76692,-2881 h -5512"
         id="path2193" />
      <path
         d="m -89704,17629 h 5512"
         id="path2195" />
      <path
         d="m -82200,4614 v 5511"
         id="path2197" />
      <path
         d="M -82204,-2881 V 2629"
         id="path2199" />
      <path
         d="m -84192,12118 h -5512"
         id="path2201" />
      <path
         d="M -76692,2629 V -2881"
         id="path2203" />
      <path
         d="m -84188,-10385 h -5512"
         id="path2205" />
      <path
         d="m -89700,4614 v 5511"
         id="path2207" />
      <path
         d="m -76688,4614 h -5512"
         id="path2209" />
      <path
         d="m -104704,2629 h 5512"
         id="path2211" />
      <path
         d="M -99192,2629 V -2881"
         id="path2213" />
      <path
         d="m -99192,-2881 h -5512"
         id="path2215" />
      <path
         d="m -74700,10125 h 5512"
         id="path2217" />
      <path
         d="m -69192,12118 h -5512"
         id="path2219" />
      <path
         d="m -74700,4614 v 5511"
         id="path2221" />
      <path
         d="M -74704,-2881 V 2629"
         id="path2223" />
      <path
         d="m -84188,-4874 v -5511"
         id="path2225" />
      <path
         d="m -97208,17629 h 5512"
         id="path2227" />
      <path
         d="m -91692,-4874 v -5511"
         id="path2229" />
      <path
         d="m -91692,-10385 h -5512"
         id="path2231" />
      <path
         d="M -76688,10125 V 4614"
         id="path2233" />
      <path
         d="m -82204,17629 h 5512"
         id="path2235" />
      <path
         d="m -97204,-4874 h 5512"
         id="path2237" />
      <path
         d="m -97208,12118 v 5511"
         id="path2239" />
      <path
         d="m -99188,4614 h -5512"
         id="path2241" />
      <path
         d="M -84192,2629 V -2881"
         id="path2243" />
      <path
         d="m -104700,-4874 h 5512"
         id="path2245" />
      <path
         d="m -104704,12118 v 5511"
         id="path2247" />
      <circle
         cx="-75503.898"
         cy="11129.9"
         r="433.07101"
         id="circle2249" />
      <path
         d="m -99188,-10385 h -5512"
         id="path2251" />
      <circle
         cx="-98429.102"
         cy="11129.9"
         r="433.07101"
         id="circle2253" />
      <path
         d="m -84192,-2881 h -5512"
         id="path2255" />
      <path
         d="m -89700,-10385 v 5511"
         id="path2257" />
      <path
         d="m -89704,2629 h 5512"
         id="path2259" />
      <path
         d="M -84192,17629 V 12118"
         id="path2261" />
      <path
         d="M -84188,10125 V 4614"
         id="path2263" />
      <path
         d="m -69192,-2881 h -5512"
         id="path2265" />
      <path
         d="m -91696,12118 h -5512"
         id="path2267" />
      <path
         d="m -99192,12118 h -5512"
         id="path2269" />
      <path
         d="M -99192,17629 V 12118"
         id="path2271" />
      <path
         d="m -69188,-4874 v -5511"
         id="path2273" />
      <path
         d="m -69188,-10385 h -5512"
         id="path2275" />
      <path
         d="m -89700,10125 h 5512"
         id="path2277" />
      <path
         d="m -45515,12118 h -5512"
         id="path2279" />
      <path
         d="M -38015,2629 V -2881"
         id="path2281" />
      <path
         d="m -45511,-10385 h -5512"
         id="path2283" />
      <path
         d="m -51023,4614 v 5511"
         id="path2285" />
      <path
         d="m -38011,4614 h -5512"
         id="path2287" />
      <path
         d="m -66027,2629 h 5512"
         id="path2289" />
      <path
         d="M -60515,2629 V -2881"
         id="path2291" />
      <path
         d="m -60515,-2881 h -5512"
         id="path2293" />
      <path
         d="m -66023,-4874 h 5512"
         id="path2295" />
      <path
         d="m -66027,12118 v 5511"
         id="path2297" />
      <circle
         cx="-36826.801"
         cy="11129.9"
         r="433.07101"
         id="circle2299" />
      <path
         d="m -60511,-10385 h -5512"
         id="path2301" />
      <circle
         cx="-59752"
         cy="11129.9"
         r="433.07101"
         id="circle2303" />
      <path
         d="m -28956,-11200 h -77355"
         id="path2305" />
      <path
         d="m -58531,17629 h 5512"
         id="path2307" />
      <path
         d="m -53015,-4874 v -5511"
         id="path2309" />
      <path
         d="m -53015,-10385 h -5512"
         id="path2311" />
      <path
         d="m -53019,12118 h -5512"
         id="path2313" />
      <path
         d="m -60515,12118 h -5512"
         id="path2315" />
      <path
         d="M -60515,17629 V 12118"
         id="path2317" />
      <path
         d="m -36023,10125 h 5512"
         id="path2319" />
      <path
         d="m -30515,12118 h -5512"
         id="path2321" />
      <path
         d="m -36023,4614 v 5511"
         id="path2323" />
      <path
         d="M -36027,-2881 V 2629"
         id="path2325" />
      <path
         d="m -45511,-4874 v -5511"
         id="path2327" />
      <path
         d="M -38011,10125 V 4614"
         id="path2329" />
      <path
         d="m -43527,17629 h 5512"
         id="path2331" />
      <path
         d="m -58527,-4874 h 5512"
         id="path2333" />
      <path
         d="m -58531,12118 v 5511"
         id="path2335" />
      <path
         d="m -60511,4614 h -5512"
         id="path2337" />
      <path
         d="M -45515,2629 V -2881"
         id="path2339" />
      <path
         d="m -45515,-2881 h -5512"
         id="path2341" />
      <path
         d="m -51023,-10385 v 5511"
         id="path2343" />
      <path
         d="m -51027,2629 h 5512"
         id="path2345" />
      <path
         d="M -45515,17629 V 12118"
         id="path2347" />
      <path
         d="M -45511,10125 V 4614"
         id="path2349" />
      <path
         d="m -51027,17629 h 5512"
         id="path2351" />
      <path
         d="m -43523,4614 v 5511"
         id="path2353" />
      <path
         d="M -43527,-2881 V 2629"
         id="path2355" />
      <path
         d="m -38011,-4874 v -5511"
         id="path2357" />
      <path
         d="m -38011,-10385 h -5512"
         id="path2359" />
      <path
         d="m -38015,-2881 h -5512"
         id="path2361" />
      <path
         d="m -43523,-10385 v 5511"
         id="path2363" />
      <path
         d="m -43527,2629 h 5512"
         id="path2365" />
      <path
         d="M -38015,17629 V 12118"
         id="path2367" />
      <path
         d="M -51027,-2881 V 2629"
         id="path2369" />
      <path
         d="m -36023,-10385 v 5511"
         id="path2371" />
      <path
         d="m -36027,2629 h 5512"
         id="path2373" />
      <path
         d="m -66023,-10385 v 5511"
         id="path2375" />
      <path
         d="M -28956,17956 V -11200"
         id="path2377" />
      <path
         d="m -67192,18397 h 37795"
         id="path2379" />
      <path
         d="m -30511,-4874 v -5511"
         id="path2381" />
      <path
         d="m -30511,-10385 h -5512"
         id="path2383" />
      <path
         d="m -30515,-2881 h -5512"
         id="path2385" />
      <path
         d="M -60511,10125 V 4614"
         id="path2387" />
      <path
         d="m -66027,17629 h 5512"
         id="path2389" />
      <path
         d="m -60511,-4874 v -5511"
         id="path2391" />
      <path
         d="m -45511,4614 h -5512"
         id="path2393" />
      <path
         d="M -30515,2629 V -2881"
         id="path2395" />
      <path
         d="m -30511,4614 h -5512"
         id="path2397" />
      <path
         d="M -53019,2629 V -2881"
         id="path2399" />
      <path
         d="m -53019,-2881 h -5512"
         id="path2401" />
      <path
         d="m -58527,-10385 v 5511"
         id="path2403" />
      <path
         d="m -58531,2629 h 5512"
         id="path2405" />
      <path
         d="M -53019,17629 V 12118"
         id="path2407" />
      <path
         d="M -53015,10125 V 4614"
         id="path2409" />
      <circle
         cx="-36826.801"
         cy="-3870.0801"
         r="433.07101"
         id="circle2411" />
      <path
         d="m -38015,12118 h -5512"
         id="path2413" />
      <path
         d="M -30515,17629 V 12118"
         id="path2415" />
      <path
         d="M -30511,10125 V 4614"
         id="path2417" />
      <path
         d="m -36027,17629 h 5512"
         id="path2419" />
      <path
         d="m -36023,-4874 h 5512"
         id="path2421" />
      <path
         d="m -36027,12118 v 5511"
         id="path2423" />
      <path
         d="m -43523,10125 h 5512"
         id="path2425" />
      <path
         d="m -51023,-4874 h 5512"
         id="path2427" />
      <circle
         cx="-59752"
         cy="-3870.0801"
         r="433.07101"
         id="circle2429" />
      <path
         d="m -66023,10125 h 5512"
         id="path2431" />
      <path
         d="m -66023,4614 v 5511"
         id="path2433" />
      <path
         d="M -66027,-2881 V 2629"
         id="path2435" />
      <path
         d="m -58527,10125 h 5512"
         id="path2437" />
      <path
         d="m -58527,4614 v 5511"
         id="path2439" />
      <path
         d="M -58531,-2881 V 2629"
         id="path2441" />
      <path
         d="m -53015,4614 h -5512"
         id="path2443" />
      <path
         d="m -29397.6,18397.6 a 440.945,440.945 0 0 0 440.9,-440.9"
         id="path2445" />
      <path
         d="m -43523,-4874 h 5512"
         id="path2447" />
      <path
         d="m -43527,12118 v 5511"
         id="path2449" />
      <path
         d="m -51027,12118 v 5511"
         id="path2451" />
      <path
         d="m -51023,10125 h 5512"
         id="path2453" />
      <g
         id="g2455" />
    </g>
  </g>
</svg>
