999
"DXF R12 Output" (www.mydxf.blogspot.com)
 0 
SECTION
 2 
HEADER
 9 
$ACADVER
 1 
AC1009
 9 
$EXTMIN
 10 
 0 
 20 
 0 
 9 
$EXTMAX
 10 
 8.5 
 20 
 11 
 0 
ENDSEC
 0 
SECTION
 2 
ENTITIES
0
LINE
8
Layer 1
10
125.640000
20
6.576600
11
125.640000
21
-1.686460
0
LINE
8
Layer 1
10
125.640000
20
-1.686460
11
124.285000
21
-1.686460
0
LINE
8
Layer 1
10
95.056100
20
6.576600
11
95.056100
21
5.224630
0
LINE
8
Layer 1
10
95.056100
20
5.224630
11
124.285000
21
5.224630
0
LINE
8
Layer 1
10
124.285000
20
5.224630
11
124.285000
21
-1.686460
0
LINE
8
Layer 1
10
125.640000
20
6.576600
11
95.056100
21
6.576600
0
LINE
8
Layer 1
10
125.640000
20
6.576600
11
125.640000
21
-1.686460
0
LINE
8
Layer 1
10
125.640000
20
-1.686460
11
124.285000
21
-1.686460
0
LINE
8
Layer 1
10
95.056100
20
6.576600
11
95.056100
21
5.224630
0
LINE
8
Layer 1
10
95.056100
20
5.224630
11
124.285000
21
5.224630
0
LINE
8
Layer 1
10
124.285000
20
5.224630
11
124.285000
21
-1.686460
0
LINE
8
Layer 1
10
125.640000
20
6.576600
11
95.056100
21
6.576600
0
LINE
8
Layer 1
10
133.729000
20
-23.161000
11
133.729000
21
-14.431900
0
LINE
8
Layer 1
10
132.374000
20
-23.161000
11
133.729000
21
-23.161000
0
LINE
8
Layer 1
10
162.958000
20
-13.080000
11
132.374000
21
-13.080000
0
LINE
8
Layer 1
10
162.958000
20
-23.161000
11
161.604000
21
-23.161000
0
LINE
8
Layer 1
10
132.374000
20
-13.080000
11
132.374000
21
-23.161000
0
LINE
8
Layer 1
10
133.729000
20
-14.431900
11
161.604000
21
-14.431900
0
LINE
8
Layer 1
10
161.604000
20
-14.431900
11
161.604000
21
-23.161000
0
LINE
8
Layer 1
10
162.958000
20
-13.080000
11
162.958000
21
-23.161000
0
LINE
8
Layer 1
10
161.454000
20
-4.125170
11
133.579000
21
-4.125170
0
LINE
8
Layer 1
10
162.809000
20
4.180900
11
162.809000
21
-5.900070
0
LINE
8
Layer 1
10
162.809000
20
-5.900070
11
161.454000
21
-5.900070
0
LINE
8
Layer 1
10
132.224000
20
4.180900
11
132.224000
21
-5.900070
0
LINE
8
Layer 1
10
161.454000
20
-4.125170
11
161.454000
21
-5.900070
0
LINE
8
Layer 1
10
133.579000
20
-5.900070
11
133.579000
21
-4.125170
0
LINE
8
Layer 1
10
132.224000
20
-5.900070
11
133.579000
21
-5.900070
0
LINE
8
Layer 1
10
162.809000
20
4.180900
11
132.224000
21
4.180900
0
LINE
8
Layer 1
10
102.961000
20
-8.682860
11
106.912000
21
-8.682860
0
LINE
8
Layer 1
10
106.912000
20
-15.484300
11
102.961000
21
-15.484300
0
LINE
8
Layer 1
10
102.961000
20
-19.435500
11
106.912000
21
-19.435500
0
LINE
8
Layer 1
10
102.961000
20
-15.484300
11
102.961000
21
-19.435500
0
LINE
8
Layer 1
10
97.584400
20
-4.731620
11
97.584400
21
-8.682860
0
LINE
8
Layer 1
10
101.536000
20
-19.435500
11
101.536000
21
-15.484300
0
LINE
8
Layer 1
10
97.584400
20
-20.860600
11
97.584400
21
-24.811800
0
LINE
8
Layer 1
10
101.536000
20
-20.860600
11
97.584400
21
-20.860600
0
LINE
8
Layer 1
10
101.536000
20
-24.811800
11
101.536000
21
-20.860600
0
LINE
8
Layer 1
10
97.584400
20
-24.811800
11
101.536000
21
-24.811800
0
LINE
8
Layer 1
10
101.536000
20
-10.107900
11
97.584400
21
-10.107900
0
LINE
8
Layer 1
10
97.584400
20
-10.107900
11
97.584400
21
-14.059200
0
LINE
8
Layer 1
10
101.536000
20
-14.059200
11
101.536000
21
-10.107900
0
LINE
8
Layer 1
10
101.536000
20
-8.682860
11
101.536000
21
-4.731620
0
LINE
8
Layer 1
10
97.584400
20
-14.059200
11
101.536000
21
-14.059200
0
LINE
8
Layer 1
10
101.536000
20
-4.731620
11
97.584400
21
-4.731620
0
LINE
8
Layer 1
10
97.584400
20
-8.682860
11
101.536000
21
-8.682860
0
LINE
8
Layer 1
10
101.536000
20
-15.484300
11
97.584400
21
-15.484300
0
LINE
8
Layer 1
10
97.584400
20
-19.435500
11
101.536000
21
-19.435500
0
LINE
8
Layer 1
10
97.584400
20
-15.484300
11
97.584400
21
-19.435500
0
LINE
8
Layer 1
10
119.090000
20
-14.059200
11
123.041000
21
-14.059200
0
LINE
8
Layer 1
10
119.090000
20
-19.435500
11
123.041000
21
-19.435500
0
LINE
8
Layer 1
10
119.090000
20
-15.484300
11
119.090000
21
-19.435500
0
LINE
8
Layer 1
10
123.041000
20
-4.731620
11
119.090000
21
-4.731620
0
LINE
8
Layer 1
10
119.090000
20
-8.682860
11
123.041000
21
-8.682860
0
LINE
8
Layer 1
10
123.041000
20
-15.484300
11
119.090000
21
-15.484300
0
LINE
8
Layer 1
10
123.041000
20
-8.682860
11
123.041000
21
-4.731620
0
LINE
8
Layer 1
10
119.090000
20
-4.731620
11
119.090000
21
-8.682860
0
LINE
8
Layer 1
10
123.041000
20
-19.435500
11
123.041000
21
-15.484300
0
LINE
8
Layer 1
10
119.090000
20
-20.860600
11
119.090000
21
-24.811800
0
LINE
8
Layer 1
10
117.665000
20
-20.860600
11
113.713000
21
-20.860600
0
LINE
8
Layer 1
10
117.665000
20
-24.811800
11
117.665000
21
-20.860600
0
LINE
8
Layer 1
10
108.337000
20
-14.059200
11
112.288000
21
-14.059200
0
LINE
8
Layer 1
10
108.337000
20
-19.435500
11
112.288000
21
-19.435500
0
LINE
8
Layer 1
10
108.337000
20
-15.484300
11
108.337000
21
-19.435500
0
LINE
8
Layer 1
10
112.288000
20
-4.731620
11
108.337000
21
-4.731620
0
LINE
8
Layer 1
10
108.337000
20
-8.682860
11
112.288000
21
-8.682860
0
LINE
8
Layer 1
10
112.288000
20
-15.484300
11
108.337000
21
-15.484300
0
LINE
8
Layer 1
10
112.288000
20
-8.682860
11
112.288000
21
-4.731620
0
LINE
8
Layer 1
10
108.337000
20
-4.731620
11
108.337000
21
-8.682860
0
LINE
8
Layer 1
10
112.288000
20
-19.435500
11
112.288000
21
-15.484300
0
LINE
8
Layer 1
10
108.337000
20
-20.860600
11
108.337000
21
-24.811800
0
LINE
8
Layer 1
10
112.288000
20
-20.860600
11
108.337000
21
-20.860600
0
LINE
8
Layer 1
10
112.288000
20
-24.811800
11
112.288000
21
-20.860600
0
LINE
8
Layer 1
10
108.337000
20
-24.811800
11
112.288000
21
-24.811800
0
LINE
8
Layer 1
10
112.288000
20
-10.107900
11
108.337000
21
-10.107900
0
LINE
8
Layer 1
10
108.337000
20
-10.107900
11
108.337000
21
-14.059200
0
LINE
8
Layer 1
10
112.288000
20
-14.059200
11
112.288000
21
-10.107900
0
LINE
8
Layer 1
10
106.912000
20
-8.682860
11
106.912000
21
-4.731620
0
LINE
8
Layer 1
10
102.961000
20
-4.731620
11
102.961000
21
-8.682860
0
LINE
8
Layer 1
10
106.912000
20
-19.435500
11
106.912000
21
-15.484300
0
LINE
8
Layer 1
10
102.961000
20
-20.860600
11
102.961000
21
-24.811800
0
LINE
8
Layer 1
10
106.912000
20
-20.860600
11
102.961000
21
-20.860600
0
LINE
8
Layer 1
10
106.912000
20
-24.811800
11
106.912000
21
-20.860600
0
LINE
8
Layer 1
10
102.961000
20
-24.811800
11
106.912000
21
-24.811800
0
LINE
8
Layer 1
10
106.912000
20
-10.107900
11
102.961000
21
-10.107900
0
LINE
8
Layer 1
10
102.961000
20
-10.107900
11
102.961000
21
-14.059200
0
LINE
8
Layer 1
10
106.912000
20
-14.059200
11
106.912000
21
-10.107900
0
LINE
8
Layer 1
10
102.961000
20
-14.059200
11
106.912000
21
-14.059200
0
LINE
8
Layer 1
10
106.912000
20
-4.731620
11
102.961000
21
-4.731620
0
LINE
8
Layer 1
10
125.604000
20
-25.426900
11
125.604000
21
-27.357400
0
LINE
8
Layer 1
10
123.041000
20
-20.860600
11
119.090000
21
-20.860600
0
LINE
8
Layer 1
10
123.041000
20
-24.811800
11
123.041000
21
-20.860600
0
LINE
8
Layer 1
10
119.090000
20
-24.811800
11
123.041000
21
-24.811800
0
LINE
8
Layer 1
10
124.249000
20
-4.161730
11
125.604000
21
-4.161730
0
LINE
8
Layer 1
10
124.249000
20
-4.161730
11
96.373600
21
-4.161730
0
LINE
8
Layer 1
10
123.041000
20
-10.107900
11
119.090000
21
-10.107900
0
LINE
8
Layer 1
10
119.090000
20
-10.107900
11
119.090000
21
-14.059200
0
LINE
8
Layer 1
10
123.041000
20
-14.059200
11
123.041000
21
-10.107900
0
LINE
8
Layer 1
10
117.665000
20
-8.682860
11
117.665000
21
-4.731620
0
LINE
8
Layer 1
10
113.713000
20
-4.731620
11
113.713000
21
-8.682860
0
LINE
8
Layer 1
10
117.665000
20
-4.731620
11
113.713000
21
-4.731620
0
LINE
8
Layer 1
10
113.713000
20
-8.682860
11
117.665000
21
-8.682860
0
LINE
8
Layer 1
10
117.665000
20
-10.107900
11
113.713000
21
-10.107900
0
LINE
8
Layer 1
10
113.713000
20
-14.059200
11
117.665000
21
-14.059200
0
LINE
8
Layer 1
10
117.665000
20
-14.059200
11
117.665000
21
-10.107900
0
LINE
8
Layer 1
10
113.713000
20
-10.107900
11
113.713000
21
-14.059200
0
LINE
8
Layer 1
10
113.713000
20
-19.435500
11
117.665000
21
-19.435500
0
LINE
8
Layer 1
10
117.665000
20
-15.484300
11
113.713000
21
-15.484300
0
LINE
8
Layer 1
10
113.713000
20
-15.484300
11
113.713000
21
-19.435500
0
LINE
8
Layer 1
10
117.665000
20
-19.435500
11
117.665000
21
-15.484300
0
LINE
8
Layer 1
10
113.713000
20
-24.811800
11
117.665000
21
-24.811800
0
LINE
8
Layer 1
10
113.713000
20
-20.860600
11
113.713000
21
-24.811800
0
LINE
8
Layer 1
10
96.373600
20
-4.161730
11
95.019500
21
-4.161730
0
LINE
8
Layer 1
10
95.019500
20
-4.161730
11
95.019500
21
-25.384600
0
LINE
8
Layer 1
10
95.019500
20
-25.426900
11
95.019500
21
-27.357400
0
LINE
8
Layer 1
10
95.019500
20
-27.357400
11
125.604000
21
-27.357400
0
LINE
8
Layer 1
10
125.604000
20
-25.384600
11
125.604000
21
-4.161730
0
LINE
8
Layer 1
10
163.218000
20
23.464700
11
163.218000
21
21.534300
0
LINE
8
Layer 1
10
163.218000
20
53.036000
11
163.218000
21
44.772900
0
LINE
8
Layer 1
10
132.634000
20
53.036000
11
132.634000
21
21.534300
0
LINE
8
Layer 1
10
132.634000
20
21.534300
11
163.218000
21
21.534300
0
LINE
8
Layer 1
10
163.218000
20
23.507000
11
163.218000
21
44.730600
0
LINE
8
Layer 1
10
163.218000
20
53.036000
11
132.634000
21
53.036000
0
LINE
8
Layer 1
10
94.409500
20
55.257500
11
94.409500
21
53.905500
0
LINE
8
Layer 1
10
94.409500
20
53.905500
11
123.640000
21
53.905500
0
LINE
8
Layer 1
10
123.640000
20
53.905500
11
123.640000
21
46.993700
0
LINE
8
Layer 1
10
124.994000
20
55.257500
11
94.409500
21
55.257500
0
LINE
8
Layer 1
10
124.994000
20
55.257500
11
124.994000
21
46.993700
0
LINE
8
Layer 1
10
124.994000
20
46.993700
11
123.640000
21
46.993700
0
LINE
8
Layer 1
10
123.399000
20
44.611600
11
123.399000
21
23.388700
0
LINE
8
Layer 1
10
124.754000
20
23.388700
11
124.754000
21
44.611600
0
LINE
8
Layer 1
10
124.754000
20
23.388700
11
123.399000
21
23.388700
0
LINE
8
Layer 1
10
123.399000
20
44.611600
11
124.754000
21
44.611600
0
LINE
8
Layer 1
10
94.443900
20
18.791600
11
94.443900
21
16.861200
0
LINE
8
Layer 1
10
94.443900
20
16.861200
11
125.028000
21
16.861200
0
LINE
8
Layer 1
10
125.028000
20
18.791600
11
125.028000
21
16.861200
0
LINE
8
Layer 1
10
123.673000
20
18.791600
11
125.028000
21
18.791600
0
LINE
8
Layer 1
10
95.798000
20
18.791600
11
94.443900
21
18.791600
0
LINE
8
Layer 1
10
95.798000
20
18.216000
11
123.673000
21
18.216000
0
LINE
8
Layer 1
10
123.673000
20
18.216000
11
123.673000
21
18.791600
0
LINE
8
Layer 1
10
95.798000
20
18.791600
11
95.798000
21
18.216000
0
LINE
8
Layer 1
10
95.696900
20
23.366500
11
95.696900
21
44.589400
0
LINE
8
Layer 1
10
95.696900
20
44.589400
11
94.342100
21
44.589400
0
LINE
8
Layer 1
10
94.342100
20
44.589400
11
94.342100
21
23.366500
0
LINE
8
Layer 1
10
94.342100
20
23.366500
11
95.696900
21
23.366500
0
LINE
8
Layer 1
10
94.409500
20
55.257500
11
94.409500
21
53.905500
0
LINE
8
Layer 1
10
94.409500
20
53.905500
11
123.640000
21
53.905500
0
LINE
8
Layer 1
10
123.640000
20
53.905500
11
123.640000
21
46.993700
0
LINE
8
Layer 1
10
124.994000
20
55.257500
11
94.409500
21
55.257500
0
LINE
8
Layer 1
10
124.994000
20
55.257500
11
124.994000
21
46.993700
0
LINE
8
Layer 1
10
124.994000
20
46.993700
11
123.640000
21
46.993700
0
LINE
8
Layer 1
10
123.399000
20
44.611600
11
123.399000
21
23.388700
0
LINE
8
Layer 1
10
124.754000
20
23.388700
11
124.754000
21
44.611600
0
LINE
8
Layer 1
10
124.754000
20
23.388700
11
123.399000
21
23.388700
0
LINE
8
Layer 1
10
123.399000
20
44.611600
11
124.754000
21
44.611600
0
LINE
8
Layer 1
10
94.443900
20
18.791600
11
94.443900
21
16.861200
0
LINE
8
Layer 1
10
94.443900
20
16.861200
11
125.028000
21
16.861200
0
LINE
8
Layer 1
10
125.028000
20
18.791600
11
125.028000
21
16.861200
0
LINE
8
Layer 1
10
123.673000
20
18.791600
11
125.028000
21
18.791600
0
LINE
8
Layer 1
10
95.798000
20
18.791600
11
94.443900
21
18.791600
0
LINE
8
Layer 1
10
95.798000
20
18.216000
11
123.673000
21
18.216000
0
LINE
8
Layer 1
10
123.673000
20
18.216000
11
123.673000
21
18.791600
0
LINE
8
Layer 1
10
95.798000
20
18.791600
11
95.798000
21
18.216000
0
LINE
8
Layer 1
10
95.696900
20
23.366500
11
95.696900
21
44.589400
0
LINE
8
Layer 1
10
95.696900
20
44.589400
11
94.342100
21
44.589400
0
LINE
8
Layer 1
10
94.342100
20
44.589400
11
94.342100
21
23.366500
0
LINE
8
Layer 1
10
94.342100
20
23.366500
11
95.696900
21
23.366500
0
LINE
8
Layer 1
10
94.409500
20
55.257500
11
94.409500
21
53.905500
0
LINE
8
Layer 1
10
94.409500
20
53.905500
11
123.640000
21
53.905500
0
LINE
8
Layer 1
10
123.640000
20
53.905500
11
123.640000
21
46.993700
0
LINE
8
Layer 1
10
124.994000
20
55.257500
11
94.409500
21
55.257500
0
LINE
8
Layer 1
10
124.994000
20
55.257500
11
124.994000
21
46.993700
0
LINE
8
Layer 1
10
124.994000
20
46.993700
11
123.640000
21
46.993700
0
LINE
8
Layer 1
10
123.399000
20
44.611600
11
123.399000
21
23.388700
0
LINE
8
Layer 1
10
124.754000
20
23.388700
11
124.754000
21
44.611600
0
LINE
8
Layer 1
10
124.754000
20
23.388700
11
123.399000
21
23.388700
0
LINE
8
Layer 1
10
123.399000
20
44.611600
11
124.754000
21
44.611600
0
LINE
8
Layer 1
10
94.443900
20
18.791600
11
94.443900
21
16.861200
0
LINE
8
Layer 1
10
94.443900
20
16.861200
11
125.028000
21
16.861200
0
LINE
8
Layer 1
10
125.028000
20
18.791600
11
125.028000
21
16.861200
0
LINE
8
Layer 1
10
123.673000
20
18.791600
11
125.028000
21
18.791600
0
LINE
8
Layer 1
10
95.798000
20
18.791600
11
94.443900
21
18.791600
0
LINE
8
Layer 1
10
95.798000
20
18.216000
11
123.673000
21
18.216000
0
LINE
8
Layer 1
10
123.673000
20
18.216000
11
123.673000
21
18.791600
0
LINE
8
Layer 1
10
95.798000
20
18.791600
11
95.798000
21
18.216000
0
LINE
8
Layer 1
10
95.696900
20
23.366500
11
95.696900
21
44.589400
0
LINE
8
Layer 1
10
95.696900
20
44.589400
11
94.342100
21
44.589400
0
LINE
8
Layer 1
10
94.342100
20
44.589400
11
94.342100
21
23.366500
0
LINE
8
Layer 1
10
94.342100
20
23.366500
11
95.696900
21
23.366500
0
LINE
8
Layer 1
10
94.409500
20
55.257500
11
94.409500
21
53.905500
0
LINE
8
Layer 1
10
94.409500
20
53.905500
11
123.640000
21
53.905500
0
LINE
8
Layer 1
10
123.640000
20
53.905500
11
123.640000
21
46.993700
0
LINE
8
Layer 1
10
124.994000
20
55.257500
11
94.409500
21
55.257500
0
LINE
8
Layer 1
10
124.994000
20
55.257500
11
124.994000
21
46.993700
0
LINE
8
Layer 1
10
124.994000
20
46.993700
11
123.640000
21
46.993700
0
LINE
8
Layer 1
10
123.399000
20
44.611600
11
123.399000
21
23.388700
0
LINE
8
Layer 1
10
124.754000
20
23.388700
11
124.754000
21
44.611600
0
LINE
8
Layer 1
10
124.754000
20
23.388700
11
123.399000
21
23.388700
0
LINE
8
Layer 1
10
123.399000
20
44.611600
11
124.754000
21
44.611600
0
LINE
8
Layer 1
10
94.443900
20
18.791600
11
94.443900
21
16.861200
0
LINE
8
Layer 1
10
94.443900
20
16.861200
11
125.028000
21
16.861200
0
LINE
8
Layer 1
10
125.028000
20
18.791600
11
125.028000
21
16.861200
0
LINE
8
Layer 1
10
123.673000
20
18.791600
11
125.028000
21
18.791600
0
LINE
8
Layer 1
10
95.798000
20
18.791600
11
94.443900
21
18.791600
0
LINE
8
Layer 1
10
95.798000
20
18.216000
11
123.673000
21
18.216000
0
LINE
8
Layer 1
10
123.673000
20
18.216000
11
123.673000
21
18.791600
0
LINE
8
Layer 1
10
95.798000
20
18.791600
11
95.798000
21
18.216000
0
LINE
8
Layer 1
10
95.696900
20
23.366500
11
95.696900
21
44.589400
0
LINE
8
Layer 1
10
95.696900
20
44.589400
11
94.342100
21
44.589400
0
LINE
8
Layer 1
10
94.342100
20
44.589400
11
94.342100
21
23.366500
0
LINE
8
Layer 1
10
94.342100
20
23.366500
11
95.696900
21
23.366500
0
LINE
8
Layer 1
10
102.961000
20
-8.682860
11
106.912000
21
-8.682860
0
LINE
8
Layer 1
10
106.912000
20
-15.484300
11
102.961000
21
-15.484300
0
LINE
8
Layer 1
10
102.961000
20
-19.435500
11
106.912000
21
-19.435500
0
LINE
8
Layer 1
10
102.961000
20
-15.484300
11
102.961000
21
-19.435500
0
LINE
8
Layer 1
10
97.584400
20
-4.731620
11
97.584400
21
-8.682860
0
LINE
8
Layer 1
10
101.536000
20
-19.435500
11
101.536000
21
-15.484300
0
LINE
8
Layer 1
10
97.584400
20
-20.860600
11
97.584400
21
-24.811800
0
LINE
8
Layer 1
10
101.536000
20
-20.860600
11
97.584400
21
-20.860600
0
LINE
8
Layer 1
10
101.536000
20
-24.811800
11
101.536000
21
-20.860600
0
LINE
8
Layer 1
10
97.584400
20
-24.811800
11
101.536000
21
-24.811800
0
LINE
8
Layer 1
10
101.536000
20
-10.107900
11
97.584400
21
-10.107900
0
LINE
8
Layer 1
10
97.584400
20
-10.107900
11
97.584400
21
-14.059200
0
LINE
8
Layer 1
10
101.536000
20
-14.059200
11
101.536000
21
-10.107900
0
LINE
8
Layer 1
10
101.536000
20
-8.682860
11
101.536000
21
-4.731620
0
LINE
8
Layer 1
10
97.584400
20
-14.059200
11
101.536000
21
-14.059200
0
LINE
8
Layer 1
10
101.536000
20
-4.731620
11
97.584400
21
-4.731620
0
LINE
8
Layer 1
10
97.584400
20
-8.682860
11
101.536000
21
-8.682860
0
LINE
8
Layer 1
10
101.536000
20
-15.484300
11
97.584400
21
-15.484300
0
LINE
8
Layer 1
10
97.584400
20
-19.435500
11
101.536000
21
-19.435500
0
LINE
8
Layer 1
10
97.584400
20
-15.484300
11
97.584400
21
-19.435500
0
LINE
8
Layer 1
10
119.090000
20
-14.059200
11
123.041000
21
-14.059200
0
LINE
8
Layer 1
10
119.090000
20
-19.435500
11
123.041000
21
-19.435500
0
LINE
8
Layer 1
10
119.090000
20
-15.484300
11
119.090000
21
-19.435500
0
LINE
8
Layer 1
10
123.041000
20
-4.731620
11
119.090000
21
-4.731620
0
LINE
8
Layer 1
10
119.090000
20
-8.682860
11
123.041000
21
-8.682860
0
LINE
8
Layer 1
10
123.041000
20
-15.484300
11
119.090000
21
-15.484300
0
LINE
8
Layer 1
10
123.041000
20
-8.682860
11
123.041000
21
-4.731620
0
LINE
8
Layer 1
10
119.090000
20
-4.731620
11
119.090000
21
-8.682860
0
LINE
8
Layer 1
10
123.041000
20
-19.435500
11
123.041000
21
-15.484300
0
LINE
8
Layer 1
10
119.090000
20
-20.860600
11
119.090000
21
-24.811800
0
LINE
8
Layer 1
10
117.665000
20
-20.860600
11
113.713000
21
-20.860600
0
LINE
8
Layer 1
10
117.665000
20
-24.811800
11
117.665000
21
-20.860600
0
LINE
8
Layer 1
10
108.337000
20
-14.059200
11
112.288000
21
-14.059200
0
LINE
8
Layer 1
10
108.337000
20
-19.435500
11
112.288000
21
-19.435500
0
LINE
8
Layer 1
10
108.337000
20
-15.484300
11
108.337000
21
-19.435500
0
LINE
8
Layer 1
10
112.288000
20
-4.731620
11
108.337000
21
-4.731620
0
LINE
8
Layer 1
10
108.337000
20
-8.682860
11
112.288000
21
-8.682860
0
LINE
8
Layer 1
10
112.288000
20
-15.484300
11
108.337000
21
-15.484300
0
LINE
8
Layer 1
10
112.288000
20
-8.682860
11
112.288000
21
-4.731620
0
LINE
8
Layer 1
10
108.337000
20
-4.731620
11
108.337000
21
-8.682860
0
LINE
8
Layer 1
10
112.288000
20
-19.435500
11
112.288000
21
-15.484300
0
LINE
8
Layer 1
10
108.337000
20
-20.860600
11
108.337000
21
-24.811800
0
LINE
8
Layer 1
10
112.288000
20
-20.860600
11
108.337000
21
-20.860600
0
LINE
8
Layer 1
10
112.288000
20
-24.811800
11
112.288000
21
-20.860600
0
LINE
8
Layer 1
10
108.337000
20
-24.811800
11
112.288000
21
-24.811800
0
LINE
8
Layer 1
10
112.288000
20
-10.107900
11
108.337000
21
-10.107900
0
LINE
8
Layer 1
10
108.337000
20
-10.107900
11
108.337000
21
-14.059200
0
LINE
8
Layer 1
10
112.288000
20
-14.059200
11
112.288000
21
-10.107900
0
LINE
8
Layer 1
10
106.912000
20
-8.682860
11
106.912000
21
-4.731620
0
LINE
8
Layer 1
10
102.961000
20
-4.731620
11
102.961000
21
-8.682860
0
LINE
8
Layer 1
10
106.912000
20
-19.435500
11
106.912000
21
-15.484300
0
LINE
8
Layer 1
10
102.961000
20
-20.860600
11
102.961000
21
-24.811800
0
LINE
8
Layer 1
10
106.912000
20
-20.860600
11
102.961000
21
-20.860600
0
LINE
8
Layer 1
10
106.912000
20
-24.811800
11
106.912000
21
-20.860600
0
LINE
8
Layer 1
10
102.961000
20
-24.811800
11
106.912000
21
-24.811800
0
LINE
8
Layer 1
10
106.912000
20
-10.107900
11
102.961000
21
-10.107900
0
LINE
8
Layer 1
10
102.961000
20
-10.107900
11
102.961000
21
-14.059200
0
LINE
8
Layer 1
10
106.912000
20
-14.059200
11
106.912000
21
-10.107900
0
LINE
8
Layer 1
10
102.961000
20
-14.059200
11
106.912000
21
-14.059200
0
LINE
8
Layer 1
10
106.912000
20
-4.731620
11
102.961000
21
-4.731620
0
LINE
8
Layer 1
10
125.604000
20
-25.426900
11
125.604000
21
-27.357400
0
LINE
8
Layer 1
10
123.041000
20
-20.860600
11
119.090000
21
-20.860600
0
LINE
8
Layer 1
10
123.041000
20
-24.811800
11
123.041000
21
-20.860600
0
LINE
8
Layer 1
10
119.090000
20
-24.811800
11
123.041000
21
-24.811800
0
LINE
8
Layer 1
10
124.249000
20
-4.161730
11
125.604000
21
-4.161730
0
LINE
8
Layer 1
10
124.249000
20
-4.161730
11
96.373600
21
-4.161730
0
LINE
8
Layer 1
10
123.041000
20
-10.107900
11
119.090000
21
-10.107900
0
LINE
8
Layer 1
10
119.090000
20
-10.107900
11
119.090000
21
-14.059200
0
LINE
8
Layer 1
10
123.041000
20
-14.059200
11
123.041000
21
-10.107900
0
LINE
8
Layer 1
10
117.665000
20
-8.682860
11
117.665000
21
-4.731620
0
LINE
8
Layer 1
10
113.713000
20
-4.731620
11
113.713000
21
-8.682860
0
LINE
8
Layer 1
10
117.665000
20
-4.731620
11
113.713000
21
-4.731620
0
LINE
8
Layer 1
10
113.713000
20
-8.682860
11
117.665000
21
-8.682860
0
LINE
8
Layer 1
10
117.665000
20
-10.107900
11
113.713000
21
-10.107900
0
LINE
8
Layer 1
10
113.713000
20
-14.059200
11
117.665000
21
-14.059200
0
LINE
8
Layer 1
10
117.665000
20
-14.059200
11
117.665000
21
-10.107900
0
LINE
8
Layer 1
10
113.713000
20
-10.107900
11
113.713000
21
-14.059200
0
LINE
8
Layer 1
10
113.713000
20
-19.435500
11
117.665000
21
-19.435500
0
LINE
8
Layer 1
10
117.665000
20
-15.484300
11
113.713000
21
-15.484300
0
LINE
8
Layer 1
10
113.713000
20
-15.484300
11
113.713000
21
-19.435500
0
LINE
8
Layer 1
10
117.665000
20
-19.435500
11
117.665000
21
-15.484300
0
LINE
8
Layer 1
10
113.713000
20
-24.811800
11
117.665000
21
-24.811800
0
LINE
8
Layer 1
10
113.713000
20
-20.860600
11
113.713000
21
-24.811800
0
LINE
8
Layer 1
10
96.373600
20
-4.161730
11
95.019500
21
-4.161730
0
LINE
8
Layer 1
10
95.019500
20
-4.161730
11
95.019500
21
-25.384600
0
LINE
8
Layer 1
10
95.019500
20
-25.426900
11
95.019500
21
-27.357400
0
LINE
8
Layer 1
10
95.019500
20
-27.357400
11
125.604000
21
-27.357400
0
LINE
8
Layer 1
10
125.604000
20
-25.384600
11
125.604000
21
-4.161730
0
LINE
8
Layer 1
10
163.218000
20
23.464700
11
163.218000
21
21.534300
0
LINE
8
Layer 1
10
163.218000
20
53.036000
11
163.218000
21
44.772900
0
LINE
8
Layer 1
10
132.634000
20
53.036000
11
132.634000
21
21.534300
0
LINE
8
Layer 1
10
132.634000
20
21.534300
11
163.218000
21
21.534300
0
LINE
8
Layer 1
10
163.218000
20
23.507000
11
163.218000
21
44.730600
0
LINE
8
Layer 1
10
163.218000
20
53.036000
11
132.634000
21
53.036000
0
LINE
8
Layer 1
10
161.454000
20
-4.125170
11
133.579000
21
-4.125170
0
LINE
8
Layer 1
10
162.809000
20
4.180900
11
162.809000
21
-5.900070
0
LINE
8
Layer 1
10
162.809000
20
-5.900070
11
161.454000
21
-5.900070
0
LINE
8
Layer 1
10
132.224000
20
4.180900
11
132.224000
21
-5.900070
0
LINE
8
Layer 1
10
161.454000
20
-4.125170
11
161.454000
21
-5.900070
0
LINE
8
Layer 1
10
133.579000
20
-5.900070
11
133.579000
21
-4.125170
0
LINE
8
Layer 1
10
132.224000
20
-5.900070
11
133.579000
21
-5.900070
0
LINE
8
Layer 1
10
162.809000
20
4.180900
11
132.224000
21
4.180900
0
LINE
8
Layer 1
10
94.409500
20
55.257500
11
94.409500
21
53.905500
0
LINE
8
Layer 1
10
94.409500
20
53.905500
11
123.640000
21
53.905500
0
LINE
8
Layer 1
10
123.640000
20
53.905500
11
123.640000
21
46.993700
0
LINE
8
Layer 1
10
124.994000
20
55.257500
11
94.409500
21
55.257500
0
LINE
8
Layer 1
10
124.994000
20
55.257500
11
124.994000
21
46.993700
0
LINE
8
Layer 1
10
124.994000
20
46.993700
11
123.640000
21
46.993700
0
LINE
8
Layer 1
10
123.399000
20
44.611600
11
123.399000
21
23.388700
0
LINE
8
Layer 1
10
124.754000
20
23.388700
11
124.754000
21
44.611600
0
LINE
8
Layer 1
10
124.754000
20
23.388700
11
123.399000
21
23.388700
0
LINE
8
Layer 1
10
123.399000
20
44.611600
11
124.754000
21
44.611600
0
LINE
8
Layer 1
10
94.443900
20
18.791600
11
94.443900
21
16.861200
0
LINE
8
Layer 1
10
94.443900
20
16.861200
11
125.028000
21
16.861200
0
LINE
8
Layer 1
10
125.028000
20
18.791600
11
125.028000
21
16.861200
0
LINE
8
Layer 1
10
123.673000
20
18.791600
11
125.028000
21
18.791600
0
LINE
8
Layer 1
10
95.798000
20
18.791600
11
94.443900
21
18.791600
0
LINE
8
Layer 1
10
95.798000
20
18.216000
11
123.673000
21
18.216000
0
LINE
8
Layer 1
10
123.673000
20
18.216000
11
123.673000
21
18.791600
0
LINE
8
Layer 1
10
95.798000
20
18.791600
11
95.798000
21
18.216000
0
LINE
8
Layer 1
10
95.696900
20
23.366500
11
95.696900
21
44.589400
0
LINE
8
Layer 1
10
95.696900
20
44.589400
11
94.342100
21
44.589400
0
LINE
8
Layer 1
10
94.342100
20
44.589400
11
94.342100
21
23.366500
0
LINE
8
Layer 1
10
94.342100
20
23.366500
11
95.696900
21
23.366500
0
LINE
8
Layer 1
10
94.409500
20
55.257500
11
94.409500
21
53.905500
0
LINE
8
Layer 1
10
94.409500
20
53.905500
11
123.640000
21
53.905500
0
LINE
8
Layer 1
10
123.640000
20
53.905500
11
123.640000
21
46.993700
0
LINE
8
Layer 1
10
124.994000
20
55.257500
11
94.409500
21
55.257500
0
LINE
8
Layer 1
10
124.994000
20
55.257500
11
124.994000
21
46.993700
0
LINE
8
Layer 1
10
124.994000
20
46.993700
11
123.640000
21
46.993700
0
LINE
8
Layer 1
10
123.399000
20
44.611600
11
123.399000
21
23.388700
0
LINE
8
Layer 1
10
124.754000
20
23.388700
11
124.754000
21
44.611600
0
LINE
8
Layer 1
10
124.754000
20
23.388700
11
123.399000
21
23.388700
0
LINE
8
Layer 1
10
123.399000
20
44.611600
11
124.754000
21
44.611600
0
LINE
8
Layer 1
10
94.443900
20
18.791600
11
94.443900
21
16.861200
0
LINE
8
Layer 1
10
94.443900
20
16.861200
11
125.028000
21
16.861200
0
LINE
8
Layer 1
10
125.028000
20
18.791600
11
125.028000
21
16.861200
0
LINE
8
Layer 1
10
123.673000
20
18.791600
11
125.028000
21
18.791600
0
LINE
8
Layer 1
10
95.798000
20
18.791600
11
94.443900
21
18.791600
0
LINE
8
Layer 1
10
95.798000
20
18.216000
11
123.673000
21
18.216000
0
LINE
8
Layer 1
10
123.673000
20
18.216000
11
123.673000
21
18.791600
0
LINE
8
Layer 1
10
95.798000
20
18.791600
11
95.798000
21
18.216000
0
LINE
8
Layer 1
10
95.696900
20
23.366500
11
95.696900
21
44.589400
0
LINE
8
Layer 1
10
95.696900
20
44.589400
11
94.342100
21
44.589400
0
LINE
8
Layer 1
10
94.342100
20
44.589400
11
94.342100
21
23.366500
0
LINE
8
Layer 1
10
94.342100
20
23.366500
11
95.696900
21
23.366500
 0 
ENDSEC
 0 
EOF